<svg preserveAspectRatio="xMidYMid slice" viewBox="0 0 760 760" fill="none" xmlns="http://www.w3.org/2000/svg">
<g clip-path="url(#clip0_65_3454)">
<rect width="760" height="760" fill="white"/>
<path d="M760 0H0V760H760V0Z" fill="#FCFCFD"/>
<path d="M760.001 483.698C715.498 434.72 670.912 385.827 606.481 370.542C542.049 355.342 457.774 373.751 418.001 342C378.227 310.249 382.956 228.253 366.827 162.893C350.614 97.5333 313.458 48.7244 276.303 0H760.001V483.698Z" fill="#F5F5F5"/>
<path d="M0 276.302C61.3067 288.209 122.529 300.031 181.64 321.564C240.667 343.013 297.582 374.089 342 418C386.418 461.911 418.507 518.573 440.04 577.769C461.573 636.88 472.636 698.44 483.698 760H0V276.302Z" fill="#F5F5F5"/>
<path d="M-4 261L766 167" stroke="#A3A3A3" stroke-width="10" stroke-linecap="round" stroke-linejoin="round"/>
<path d="M449.742 360.286C449.287 369.815 449.96 379.295 450.375 388.806C451.171 407.048 452.336 425.265 453.171 443.506C453.594 452.736 453.887 461.982 454.379 471.2C454.908 481.036 455.068 490.908 455.667 500.731C456.202 509.557 455.571 520.094 456.537 528.48C458.492 545.531 462.877 557.952 482.328 560.767C532.242 553.565 592.329 561.365 641.073 554.214C661.562 551.208 666.942 537.791 667.404 519.223C667.608 510.827 665.611 500.374 665.365 491.526C665.085 481.669 664.673 471.767 664.313 461.904C663.971 452.68 663.201 443.515 662.81 434.313C662.004 414.92 661.319 395.531 660.723 376.129C660.469 367.792 660.224 359.424 660.011 351.086" fill="white"/>
<path d="M445.98 388.337C440.149 392.115 424.262 416.16 418.639 415.074C415.147 414.405 367.085 370.197 366.601 366.675C366.64 364.801 367.393 363.477 368.428 361.971C375.084 352.332 438.533 284.122 446.032 279.812C448.571 278.35 451.455 277.923 454.237 277.232C458.03 276.285 496.035 274.198 497.989 275.183C502.094 277.266 504.671 287.704 508.325 292.069C528.685 316.405 577.599 314.512 594.843 287.375C597.269 283.556 599.708 271.778 601.371 270.675C603.833 269.046 650.684 267.603 656.447 270.995C666.947 281.768 740.482 341.791 742.153 349.355C743.402 355.036 701.747 396 695.477 402.8C690.31 404.577 670.143 383.285 665.001 378.765" fill="white"/>
<path d="M494.697 291.037C492.944 290.144 480.584 291.073 477.185 291.927L477.184 291.918C474.69 292.543 456.239 292.841 456.769 304.998L460.277 385.421C460.987 401.911 460.527 426.417 461.282 442.914L479.593 441.989L660.74 434.088L664.194 434.064C663.455 416.516 662.844 398.99 662.303 381.442C664.563 380.809 665.047 382.852 666.148 383.827C670.759 387.917 688.844 407.18 693.475 405.575C699.093 399.428 736.418 362.395 735.296 357.256C733.796 350.414 667.858 296.104 658.443 286.358C653.275 283.288 611.278 284.576 609.073 286.048C607.582 287.046 605.399 297.697 603.226 301.15C587.778 325.687 526.626 328.136 508.367 306.12C505.09 302.171 498.377 292.922 494.697 291.037Z" fill="#E5E5E5"/>
<path d="M664.436 525.158L498.037 532.416C498.037 532.416 496.284 533.993 496.546 539.988C496.807 545.982 499.925 556.902 515.868 559.208C556.779 553.307 606.028 559.696 645.98 553.836C662.774 551.374 667.192 540.389 667.562 525.17L664.436 525.158Z" fill="#E5E5E5"/>
<path d="M660.584 467.271L492.304 474.61C492.304 474.61 489.172 474.246 488.413 479.785C487.654 485.323 489.829 491.454 490.332 499.72L493.395 499.435L661.667 492.096L664.916 492.064C664.688 483.777 664.333 475.446 664.03 467.163L660.584 467.271Z" fill="#E5E5E5"/>
<path d="M449.742 360.286C449.287 369.815 449.96 379.295 450.375 388.806C451.171 407.048 452.336 425.265 453.171 443.506C453.594 452.736 453.887 461.982 454.379 471.2C454.908 481.036 455.068 490.908 455.667 500.732C456.202 509.557 455.571 520.094 456.537 528.48C458.492 545.531 462.877 557.952 482.328 560.767C532.242 553.565 592.329 561.365 641.073 554.214C661.562 551.208 666.942 537.791 667.404 519.223C667.608 510.827 665.611 500.374 665.365 491.526C665.085 481.669 664.673 471.767 664.313 461.904C663.971 452.68 663.201 443.515 662.81 434.313C662.004 414.92 661.319 395.531 660.723 376.129C660.469 367.792 660.224 359.425 660.011 351.086" stroke="#A3A3A3" stroke-width="5" stroke-linecap="round" stroke-linejoin="round"/>
<path d="M602.085 269.363L549.172 226.628M549.172 226.628L500.182 273.807M549.172 226.628L548.612 213.77C548.507 211.375 550.148 209.279 552.3 208.221C556.464 206.176 561.117 202.15 560.831 195.59C560.352 184.601 550.318 184.037 547.321 184.168C544.324 184.299 534.876 185.712 535.355 196.701" stroke="#A3A3A3" stroke-width="5" stroke-linecap="round" stroke-linejoin="round"/>
<path d="M445.98 388.337C440.149 392.115 424.262 416.16 418.639 415.074C415.147 414.405 367.085 370.197 366.601 366.675C366.64 364.801 367.393 363.477 368.428 361.971C375.084 352.332 438.533 284.122 446.032 279.812C448.571 278.35 451.455 277.923 454.237 277.232C458.03 276.285 496.035 274.198 497.989 275.183C502.094 277.266 504.671 287.704 508.325 292.069C528.685 316.405 577.599 314.512 594.843 287.375C597.269 283.556 599.708 271.778 601.371 270.675C603.833 269.046 650.684 267.603 656.447 270.995C666.947 281.768 740.482 341.791 742.153 349.355C743.402 355.036 701.747 396 695.477 402.8C690.31 404.577 670.143 383.285 665.001 378.765" stroke="#A3A3A3" stroke-width="5" stroke-linecap="round" stroke-linejoin="round"/>
<path d="M460.562 528.074L663.58 519.22" stroke="#A3A3A3" stroke-width="5" stroke-linecap="round" stroke-linejoin="round"/>
<path d="M459.355 500.391L661.453 491.577" stroke="#A3A3A3" stroke-width="5" stroke-linecap="round" stroke-linejoin="round"/>
<path d="M458.068 470.859L660.166 462.045" stroke="#A3A3A3" stroke-width="5" stroke-linecap="round" stroke-linejoin="round"/>
<path d="M456.859 443.175L658.957 434.361" stroke="#A3A3A3" stroke-width="5" stroke-linecap="round" stroke-linejoin="round"/>
<path d="M552.85 312.328L555.948 383.381" stroke="#A3A3A3" stroke-width="5" stroke-linecap="round" stroke-linejoin="round"/>
<path d="M259.28 369.977C257.895 379.416 257.638 388.916 257.12 398.422C256.128 416.655 255.505 434.898 254.553 453.133C254.07 462.36 253.458 471.591 253.046 480.812C252.61 490.653 251.804 500.494 251.439 510.328C251.108 519.163 249.449 529.589 249.591 538.029C249.868 555.189 253.018 567.979 272.1 572.684C322.479 570.399 381.515 584.038 430.725 581.689C451.409 580.702 458.076 567.876 460.352 549.442C461.376 541.105 460.411 530.507 461.032 521.678C461.718 511.841 462.276 501.946 462.883 492.095C463.444 482.882 463.574 473.685 464.085 464.489C465.18 445.11 466.394 425.748 467.699 406.38C468.262 398.058 468.837 389.707 469.44 381.388" fill="white"/>
<path d="M252.791 397.525C246.619 400.714 228.456 423.09 222.966 421.459C219.556 420.452 176.049 371.756 175.912 368.203C176.133 366.342 177.012 365.098 178.19 363.7C185.757 354.758 255.573 293.082 263.458 289.525C266.127 288.319 269.039 288.177 271.876 287.76C275.743 287.19 313.77 288.829 315.619 290.001C319.5 292.476 321.044 303.116 324.253 307.817C342.135 334.028 391 336.928 410.815 311.608C413.603 308.044 417.183 296.562 418.946 295.626C421.555 294.246 468.323 297.393 473.727 301.332C483.122 313.08 550.434 380.008 551.357 387.7C552.044 393.476 506.582 430.169 499.678 436.322C494.361 437.585 476.373 414.423 471.698 409.422" fill="white"/>
<path d="M310.789 305.456C309.133 304.397 296.741 304.112 293.274 304.63L293.275 304.621C290.732 304.999 272.339 303.49 271.678 315.641L267.302 396.022C266.396 412.502 255.65 513.166 257.937 540.457C261.239 557.662 275.374 557.43 275.374 557.43L456.426 567.286L460.741 551.497L460.853 549.502C462.101 527.207 467.609 428.765 468.749 411.822C471.06 411.414 471.342 413.494 472.343 414.572C476.531 419.093 492.645 440.033 497.411 438.888C503.604 433.32 544.372 400.115 543.758 394.892C542.934 387.936 482.625 327.437 474.208 316.816C469.366 313.256 427.444 310.43 425.105 311.679C423.524 312.526 420.31 322.912 417.809 326.137C400.036 349.045 338.937 345.501 322.919 321.804C320.044 317.554 314.268 307.693 310.789 305.456Z" fill="#E5E5E5"/>
<path d="M259.28 369.977C257.895 379.416 257.638 388.916 257.12 398.422C256.128 416.655 255.505 434.898 254.553 453.133C254.07 462.36 253.458 471.591 253.046 480.812C252.61 490.653 251.804 500.494 251.439 510.328C251.108 519.163 249.449 529.589 249.591 538.029C249.868 555.189 253.018 567.979 272.1 572.684C322.479 570.399 381.515 584.038 430.725 581.689C451.409 580.702 458.076 567.876 460.352 549.442C461.376 541.105 460.411 530.507 461.032 521.678C461.718 511.841 462.276 501.946 462.883 492.095C463.444 482.882 463.574 473.685 464.085 464.489C465.18 445.11 466.394 425.748 467.699 406.38C468.262 398.058 468.837 389.707 469.44 381.388" stroke="#A3A3A3" stroke-width="5" stroke-linecap="round" stroke-linejoin="round"/>
<path d="M366.582 332.334L362.716 403.349" stroke="#A3A3A3" stroke-width="5" stroke-linecap="round" stroke-linejoin="round"/>
<path d="M419.73 295.389L371.251 247.683M371.251 247.683L317.88 289.845M371.251 247.683L371.951 234.833C372.081 232.439 373.919 230.513 376.164 229.671C380.508 228.043 385.533 224.491 385.89 217.935C386.488 206.951 376.557 205.409 373.561 205.246C370.566 205.083 361.025 205.565 360.428 216.549" stroke="#A3A3A3" stroke-width="5" stroke-linecap="round" stroke-linejoin="round"/>
<path d="M252.791 397.525C246.619 400.714 228.456 423.09 222.966 421.459C219.556 420.452 176.049 371.756 175.912 368.203C176.133 366.342 177.012 365.098 178.19 363.7C185.757 354.758 255.573 293.082 263.458 289.525C266.127 288.319 269.039 288.177 271.876 287.76C275.743 287.19 313.77 288.829 315.619 290.001C319.5 292.476 321.044 303.116 324.253 307.817C342.135 334.028 391 336.928 410.815 311.608C413.603 308.044 417.183 296.562 418.946 295.626C421.555 294.246 468.323 297.393 473.727 301.332C483.122 313.08 550.434 380.008 551.357 387.7C552.044 393.476 506.582 430.169 499.678 436.322C494.361 437.585 476.373 414.423 471.698 409.422" stroke="#A3A3A3" stroke-width="5" stroke-linecap="round" stroke-linejoin="round"/>
<path d="M90.9959 404.716C90.555 414.246 91.243 423.724 91.6721 433.235C92.4953 451.476 93.6876 469.691 94.5507 487.93C94.9872 497.16 95.2943 506.406 95.8003 515.622C96.3442 525.458 96.5194 535.33 97.1328 545.152C97.6812 553.976 97.0656 564.515 98.0445 572.899C100.025 589.947 104.429 602.361 123.885 605.147C173.787 597.87 233.886 605.579 282.62 598.355C303.104 595.318 308.464 581.893 308.897 563.325C309.089 554.927 307.076 544.478 306.817 535.63C306.522 525.773 306.095 515.873 305.72 506.01C305.364 496.786 304.58 487.622 304.175 478.421C303.34 459.029 302.625 439.642 302 420.24C301.734 411.904 301.477 403.537 301.251 395.198" fill="white"/>
<path d="M87.2761 432.772C81.4509 436.559 65.5998 460.628 59.9755 459.55C56.482 458.887 8.35352 414.752 7.86428 411.23C7.89986 409.357 8.65089 408.031 9.68395 406.523C16.3257 396.874 79.671 328.569 87.1638 324.247C89.7003 322.781 92.5838 322.351 95.3653 321.655C99.1562 320.703 137.158 318.557 139.114 319.54C143.222 321.617 145.815 332.051 149.475 336.41C169.872 360.716 218.783 358.749 235.986 331.586C238.406 327.763 240.827 315.982 242.489 314.876C244.948 313.243 291.798 311.73 297.566 315.113C308.082 325.87 381.707 385.782 383.39 393.344C384.647 399.023 343.054 440.049 336.795 446.858C331.63 448.643 311.431 427.382 306.282 422.87" fill="white"/>
<path fill-rule="evenodd" clip-rule="evenodd" d="M135.845 335.399C134.091 334.509 121.733 335.456 118.335 336.315L118.334 336.306C117.988 336.394 117.334 336.475 116.465 336.583C111.082 337.254 97.4665 338.949 97.9388 349.417L101.568 429.835C101.758 434.108 101.853 444.072 101.975 456.959L101.975 456.959C102.324 493.802 102.899 554.536 106.593 574.486C111.588 591.278 125.63 589.643 125.63 589.643L306.765 581.47L309.491 565.331L309.404 563.334L309.404 563.318C308.429 540.979 304.136 442.52 303.588 425.551C305.231 425.088 305.937 426.043 306.624 426.972C306.881 427.32 307.136 427.665 307.437 427.93C308.389 428.773 309.917 430.261 311.783 432.078L311.783 432.079L311.783 432.079C318.957 439.066 331.123 450.916 334.796 449.637C335.867 448.462 338.09 446.161 340.979 443.17L340.979 443.17L340.979 443.17L340.979 443.17C353.231 430.489 377.458 405.411 376.545 401.255C375.559 396.792 347.105 372.158 324.83 352.874C312.969 342.605 302.861 333.854 299.584 330.472C294.412 327.41 252.417 328.762 250.214 330.238C249.455 330.747 248.522 333.758 247.502 337.048C246.518 340.22 245.454 343.651 244.39 345.348C228.979 369.908 167.83 372.45 149.538 350.461C148.843 349.625 147.993 348.552 147.05 347.361L147.049 347.36L147.048 347.36L147.048 347.36C143.541 342.931 138.748 336.88 135.845 335.399ZM202.421 396.986C202.595 400.848 199.605 404.12 195.743 404.294C191.881 404.469 188.609 401.479 188.435 397.617C188.261 393.755 191.25 390.483 195.112 390.309C198.974 390.134 202.246 393.124 202.421 396.986ZM197.817 450.248C201.679 450.073 204.669 446.801 204.494 442.939C204.32 439.077 201.048 436.088 197.186 436.262C193.324 436.436 190.334 439.708 190.508 443.57C190.683 447.432 193.955 450.422 197.817 450.248ZM206.568 488.892C206.742 492.755 203.753 496.027 199.891 496.201C196.028 496.375 192.756 493.386 192.582 489.524C192.408 485.662 195.397 482.389 199.259 482.215C203.121 482.041 206.394 485.03 206.568 488.892ZM201.964 542.154C205.826 541.98 208.816 538.708 208.641 534.846C208.467 530.984 205.195 527.994 201.333 528.168C197.471 528.343 194.481 531.615 194.656 535.477C194.83 539.339 198.102 542.328 201.964 542.154Z" fill="#E5E5E5"/>
<path d="M90.9959 404.716C90.555 414.246 91.243 423.724 91.6721 433.234C92.4953 451.476 93.6876 469.691 94.5507 487.93C94.9872 497.16 95.2943 506.406 95.8003 515.622C96.3442 525.458 96.5194 535.33 97.1328 545.152C97.6812 553.976 97.0656 564.515 98.0445 572.899C100.025 589.947 104.429 602.361 123.885 605.147C173.787 597.87 233.886 605.579 282.62 598.355C303.104 595.318 308.464 581.893 308.897 563.324C309.089 554.927 307.076 544.477 306.817 535.63C306.522 525.773 306.095 515.873 305.72 506.009C305.364 496.786 304.58 487.622 304.175 478.421C303.34 459.029 302.625 439.641 302 420.24C301.734 411.903 301.477 403.537 301.251 395.198" stroke="#A3A3A3" stroke-width="5" stroke-linecap="round" stroke-linejoin="round"/>
<path d="M240.704 313.676L187.727 271.02M187.727 271.02L138.808 318.274M187.727 271.02L187.147 258.163C187.039 255.769 188.677 253.67 190.827 252.609C194.988 250.557 199.635 246.524 199.339 239.965C198.843 228.976 188.808 228.428 185.811 228.563C182.814 228.699 173.369 230.126 173.865 241.115" stroke="#A3A3A3" stroke-width="5" stroke-linecap="round" stroke-linejoin="round"/>
<path d="M87.2761 432.772C81.4509 436.559 65.5998 460.628 59.9755 459.55C56.482 458.887 8.35352 414.752 7.86428 411.23C7.89986 409.357 8.65089 408.031 9.68395 406.523C16.3257 396.874 79.671 328.569 87.1638 324.247C89.7003 322.781 92.5838 322.351 95.3653 321.655C99.1562 320.703 137.158 318.557 139.114 319.54C143.222 321.617 145.815 332.051 149.475 336.41C169.872 360.716 218.783 358.749 235.986 331.586C238.406 327.763 240.827 315.982 242.489 314.876C244.948 313.243 291.798 311.73 297.566 315.113C308.082 325.87 381.707 385.782 383.39 393.344C384.647 399.023 343.054 440.049 336.795 446.858C331.63 448.643 311.431 427.382 306.282 422.87" stroke="#A3A3A3" stroke-width="5" stroke-linecap="round" stroke-linejoin="round"/>
<circle cx="193.385" cy="396.393" r="7" transform="rotate(-2.5837 193.385 396.393)" fill="#A3A3A3"/>
<circle cx="195.457" cy="442.346" r="7" transform="rotate(-2.5837 195.457 442.346)" fill="#A3A3A3"/>
<circle cx="197.531" cy="488.299" r="7" transform="rotate(-2.5837 197.531 488.299)" fill="#A3A3A3"/>
<circle cx="199.605" cy="534.252" r="7" transform="rotate(-2.5837 199.605 534.252)" fill="#A3A3A3"/>
</g>
<defs>
<clipPath id="clip0_65_3454">
<rect width="760" height="760" fill="white"/>
</clipPath>
</defs>
</svg>
