<svg viewBox="0 0 760 760" fill="none" xmlns="http://www.w3.org/2000/svg">
<g clip-path="url(#clip0_65_3497)">
<rect width="760" height="760" fill="white"/>
<path d="M760 0H0V760H760V0Z" fill="#FCFCFD"/>
<path d="M760.001 483.698C715.498 434.72 670.912 385.827 606.481 370.542C542.049 355.342 457.774 373.751 418.001 342C378.227 310.249 382.956 228.253 366.827 162.893C350.614 97.5333 313.458 48.7244 276.303 0H760.001V483.698Z" fill="#F5F5F5"/>
<path d="M0 276.302C61.3067 288.209 122.529 300.031 181.64 321.564C240.667 343.013 297.582 374.089 342 418C386.418 461.911 418.507 518.573 440.04 577.769C461.573 636.88 472.636 698.44 483.698 760H0V276.302Z" fill="#F5F5F5"/>
<path d="M607.729 266.077C605.293 275.641 600.763 284.524 598.284 293.704C589.487 326.211 593.549 364.305 593.106 398.166C593.106 398.788 593.106 399.401 593.106 400.023C593.098 400.951 593.106 401.888 593.089 402.816C592.561 445.049 593.311 487.409 592.101 529.616C591.948 534.93 592.859 559.986 589.649 561.331L403.915 562.498C400.704 561.221 402.425 534.965 402.374 529.548C401.956 486.702 401.948 443.831 401.769 400.976C401.769 399.733 401.752 398.49 401.752 397.255L385.493 263.436" fill="white"/>
<path d="M397.416 256.623C405.932 251.513 440.423 240.016 445.533 231.926H490.67L537.936 239.59L557.949 265.565L486.412 273.23L387.196 265.565C387.338 264.288 389.469 261.391 397.416 256.623Z" fill="white"/>
<path d="M523.458 227.242C538.396 235.937 595.269 250.883 608.64 260.038C608.845 260.183 609.083 260.276 609.279 260.421C620.878 268.733 626.261 279.762 630.451 292.783C650.626 355.515 657.064 429.769 677.41 493.387C680.314 499.297 676.763 506.102 677.205 511.16C677.725 517.122 684.3 527.801 680.74 532.034C679.547 533.456 648.82 544.272 645.797 544.604C638.635 545.388 634.973 532.332 632.333 525.928C617.404 489.674 606.06 441.13 594.196 402.662L593.098 399.102" fill="white"/>
<path d="M442.272 236.584C426.441 245.662 400.031 250.926 385.937 261.579C385.664 261.792 385.366 261.98 385.102 262.193C373.409 271.39 369.934 278.297 365.319 291.847C343.874 354.783 338.168 432.784 317.244 497.074C317.056 502.065 317.942 506.468 317.388 511.535C316.588 518.8 311.674 525.723 314.288 532.017C315.455 533.448 346.131 544.289 349.044 544.587C357.185 545.422 360.081 532.392 362.857 525.698C375.189 495.95 393.934 432.52 400.415 400.763C400.67 399.528 401.428 398.225 401.607 397.194C401.658 396.879 401.896 396.598 401.947 396.291C408.054 358.785 402.109 300.133 386.942 265.199" fill="white"/>
<path d="M521.927 263.198C530.29 253.506 541.259 244.802 549.333 235.025C567.958 212.466 573.042 181.313 552.433 157.808C501.326 99.5044 389.071 156.368 445.135 234.685C453.753 246.727 464.757 257.287 473.622 269.117C475.538 272.498 490.774 288.006 494.385 289.632C508.369 295.935 517.209 259.936 521.808 251.428L521.935 251.173" fill="white"/>
<path d="M538.361 442.28C513.523 446.217 497.469 446.292 464.695 442.28C458.733 442.28 469.804 461.868 464.695 475.068C459.585 488.268 455.752 482.733 453.623 491.249C451.92 498.062 451.21 518.501 451.068 527.869H557.949C557.239 520.347 556.246 502.491 557.949 491.249C560.078 477.197 557.523 476.771 549.007 470.81C542.194 466.041 539.071 449.803 538.361 442.28Z" fill="#E5E5E5"/>
<path d="M456.179 194.028C455.838 206.632 468.811 244.984 475.341 262.584C468.953 252.365 454.816 225.709 449.366 200.841C442.553 169.756 456.179 163.794 461.715 154.001C467.25 144.207 504.296 139.097 524.736 144.207C545.175 149.317 554.117 163.794 563.485 191.047C572.853 218.299 528.142 255.346 535.807 248.107C543.472 240.868 545.175 216.596 547.73 204.247C550.285 191.899 541.769 186.789 535.807 173.588C529.846 160.388 494.077 159.11 477.896 163.794C461.715 168.478 456.605 178.272 456.179 194.028Z" fill="#E5E5E5"/>
<path d="M448.433 247.198L407.929 268.641C404.878 270.256 404.305 274.458 406.356 277.235C419.175 294.596 426.239 329.982 425.094 367.762C423.816 409.918 424.242 439.725 431.055 440.151C437.868 440.577 438.294 426.95 445.533 422.692C452.772 418.434 481.728 418.008 507.703 420.137C533.678 422.266 545.175 412.047 551.136 432.486C557.098 452.925 565.188 456.758 570.298 471.236C573.905 481.456 572.473 506.795 570.916 522.268C570.615 525.253 572.941 527.87 575.941 527.87H581.776C584.587 527.87 586.846 525.56 586.787 522.749C586.385 503.525 585.975 465.349 586.905 432.486C588.182 387.349 580.092 369.891 579.666 325.606C579.24 281.32 603.512 268.546 597.55 264.288C593.146 261.142 568.794 251.702 554.473 246.363C552.473 245.617 550.24 246.23 548.87 247.867C534.834 264.637 508.016 293.048 497.057 291.114C486.369 289.228 465.915 263.991 454.901 248.728C453.422 246.678 450.667 246.015 448.433 247.198Z" fill="#E5E5E5"/>
<path d="M601.025 413.322C601.032 412.477 601.025 411.625 601.04 410.781V409.929V409.092C601.444 378.284 597.743 343.641 605.757 314.072C608.022 305.721 612.149 297.641 614.36 288.942C614.794 287.238 615.019 285.448 615.772 283.798C615.585 283.666 615.376 283.581 615.19 283.45C615.376 283.581 615.593 283.666 615.772 283.798C626.337 291.359 631.24 301.391 635.057 313.235C653.434 370.297 659.299 437.84 677.832 495.707C680.477 501.083 677.242 507.273 677.645 511.874L675.008 512.571L639.897 524.261L636.771 525.315C623.172 492.337 612.839 448.181 602.033 413.19L601.009 413.337L601.025 413.322Z" fill="#E5E5E5"/>
<path d="M401.031 409.252C395.011 438.538 377.6 497.031 366.146 524.463L362.642 523.552L327.67 512.643L323.905 511.395C324.427 506.722 323.605 502.67 323.771 498.06C343.206 438.773 348.506 366.843 368.424 308.806C372.712 296.311 375.931 289.942 386.8 281.46C387.053 281.264 387.322 281.091 387.575 280.895L388.517 284.232C402.597 316.447 408.126 370.534 402.455 405.121L402.257 405.137V405.993L402.13 405.954C401.964 406.904 401.26 408.113 401.023 409.244L401.031 409.252Z" fill="#E5E5E5"/>
<path d="M592.006 536.55C591.863 540.653 592.716 559.995 589.71 561.034L415.855 561.935C412.849 560.949 414.46 540.679 414.412 536.498L418.151 536.419L589.487 536.386L591.998 536.563L592.006 536.55Z" fill="#E5E5E5"/>
<path d="M607.729 265.225C605.293 274.788 600.763 283.671 598.284 292.852C589.487 325.359 593.549 363.452 593.106 397.314C593.106 397.935 593.106 398.548 593.106 399.17C593.098 400.098 593.106 401.035 593.089 401.964C592.561 444.196 593.311 486.557 592.101 528.764C591.948 534.078 592.859 559.133 589.649 560.479L403.915 561.646C400.704 560.368 402.425 534.112 402.374 528.696C401.956 485.85 401.948 442.978 401.769 400.124C401.769 398.881 401.752 397.637 401.752 396.402V395.474" stroke="#A3A3A3" stroke-width="5" stroke-linecap="round" stroke-linejoin="round"/>
<path d="M562.601 524.889C560.488 515.018 565.479 483.124 562.413 475.894C560.812 472.113 551.776 465.061 548.361 460.181C544.341 454.433 539.095 436.881 537.452 435.407C532.529 430.979 469.125 435.79 458.224 433.295C454.093 438.933 454.877 446.947 450.559 454.637C446.608 461.663 435.715 470.955 434.148 474.523C430.827 482.077 435.511 515.512 433.135 525.826" stroke="#A3A3A3" stroke-width="5" stroke-linecap="round" stroke-linejoin="round"/>
<path d="M406.367 528.585L589.41 528.542" stroke="#A3A3A3" stroke-width="5" stroke-linecap="round" stroke-linejoin="round"/>
<path d="M552.637 236.345C567.574 245.041 595.27 250.031 608.64 259.186C608.845 259.331 609.083 259.425 609.279 259.57C620.878 267.882 626.261 278.91 630.451 291.932C650.626 354.663 657.064 428.918 677.41 492.535C680.314 498.445 676.763 505.25 677.206 510.309C677.725 516.27 684.3 526.95 680.74 531.182C679.548 532.605 648.821 543.42 645.797 543.752C638.635 544.536 634.973 531.48 632.333 525.076C617.404 488.822 606.06 440.279 594.197 401.81L593.098 398.25" stroke="#A3A3A3" stroke-width="5" stroke-linecap="round" stroke-linejoin="round"/>
<path d="M442.272 235.732C426.441 244.811 400.031 250.074 385.937 260.728C385.664 260.941 385.366 261.128 385.102 261.341C373.409 270.539 369.934 277.446 365.319 290.995C343.874 353.931 338.168 431.933 317.244 496.223C317.056 501.213 317.942 505.616 317.388 510.683C316.588 517.948 311.674 524.872 314.288 531.165C315.455 532.596 346.131 543.437 349.044 543.735C357.185 544.57 360.081 531.54 362.857 524.846C375.189 495.098 393.934 431.669 400.415 399.911C400.67 398.676 401.428 397.373 401.607 396.343C401.658 396.027 401.896 395.746 401.947 395.44C408.054 357.934 402.109 299.281 386.942 264.347" stroke="#A3A3A3" stroke-width="5" stroke-linecap="round" stroke-linejoin="round"/>
<path d="M521.926 262.346C530.289 252.654 541.258 243.951 549.332 234.174C567.957 211.614 573.042 180.461 552.432 156.956C501.325 98.6528 389.071 155.517 445.134 233.833C453.753 245.875 464.756 256.436 473.621 268.265C475.538 271.646 490.773 287.154 494.384 288.781C508.368 295.083 517.208 259.084 521.807 250.576L521.935 250.321" stroke="#A3A3A3" stroke-width="5" stroke-linecap="round" stroke-linejoin="round"/>
<path d="M674.319 511.067L635.773 523.918" stroke="#A3A3A3" stroke-width="5" stroke-linecap="round" stroke-linejoin="round"/>
<path d="M359.094 523.867L321.443 512.038" stroke="#A3A3A3" stroke-width="5" stroke-linecap="round" stroke-linejoin="round"/>
<path d="M460.011 344.767C466.114 320.212 477.64 268.035 474.915 255.771C471.508 240.442 451.069 197.434 457.03 181.253C462.992 165.072 483.431 160.814 501.315 160.814C519.2 160.814 537.51 171.459 537.51 181.253C537.51 191.047 542.62 204.247 523.032 250.236C507.362 287.026 514.8 327.167 520.477 342.638" stroke="#A3A3A3" stroke-width="5" stroke-linecap="round" stroke-linejoin="round"/>
<path d="M371.825 266.077C369.389 275.641 364.858 284.524 362.38 293.704C353.583 326.211 357.645 364.305 357.202 398.166C357.202 398.788 357.202 399.401 357.202 400.023C357.194 400.951 357.202 401.888 357.185 402.816C356.657 445.049 357.406 487.409 356.197 529.616C356.044 534.93 356.955 559.986 353.744 561.331L168.011 562.498C164.8 561.221 166.52 534.965 166.469 529.548C166.052 486.702 166.044 443.831 165.865 400.976C165.865 399.733 165.848 398.49 165.848 397.255L149.588 263.436" fill="white"/>
<path d="M161.511 256.623C170.028 251.513 204.519 240.016 209.629 231.926H254.766L302.031 239.59L322.045 265.565L250.507 273.23L151.292 265.565C151.434 264.288 153.565 261.391 161.511 256.623Z" fill="white"/>
<path d="M287.554 227.242C302.491 235.937 359.365 250.883 372.736 260.038C372.94 260.183 373.179 260.276 373.375 260.421C384.974 268.733 390.356 279.762 394.546 292.783C414.722 355.515 421.16 429.769 441.506 493.387C444.41 499.297 440.858 506.102 441.301 511.16C441.821 517.122 448.395 527.801 444.835 532.034C443.643 533.456 412.916 544.272 409.893 544.604C402.731 545.388 399.068 532.332 396.428 525.928C381.499 489.674 370.155 441.13 358.292 402.662L357.193 399.102" fill="white"/>
<path d="M206.368 236.584C190.536 245.662 164.127 250.926 150.032 261.579C149.76 261.792 149.462 261.98 149.198 262.193C137.505 271.39 134.03 278.297 129.414 291.847C107.97 354.783 102.264 432.784 81.3393 497.074C81.1519 502.065 82.0376 506.468 81.4841 511.535C80.6835 518.8 75.7696 525.723 78.3841 532.017C79.5509 533.448 110.227 544.289 113.139 544.587C121.281 545.422 124.177 532.392 126.953 525.698C139.285 495.95 158.029 432.52 164.51 400.763C164.766 399.528 165.524 398.225 165.703 397.194C165.754 396.879 165.992 396.598 166.043 396.291C172.149 358.785 166.205 300.133 151.037 265.199" fill="white"/>
<path d="M286.023 263.198C294.386 253.506 305.355 244.802 313.428 235.025C332.054 212.466 337.138 181.313 316.528 157.808C265.422 99.5044 153.167 156.368 209.23 234.685C217.849 246.727 228.852 257.287 237.718 269.117C239.634 272.498 254.87 288.006 258.481 289.632C272.465 295.935 281.305 259.936 285.903 251.428L286.031 251.173" fill="white"/>
<path d="M302.457 442.28C277.618 446.217 261.564 446.292 228.79 442.28C222.829 442.28 233.9 461.868 228.79 475.068C223.68 488.268 219.848 482.733 217.719 491.249C216.016 498.062 215.306 518.501 215.164 527.869H322.045C321.335 520.347 320.341 502.491 322.045 491.249C324.174 477.197 321.619 476.771 313.102 470.81C306.289 466.041 303.167 449.803 302.457 442.28Z" fill="#E5E5E5"/>
<path d="M220.275 194.028C219.934 206.632 232.907 244.984 239.436 262.584C233.049 252.365 218.912 225.709 213.462 200.841C206.649 169.756 220.275 163.794 225.81 154.001C231.346 144.207 268.392 139.097 288.831 144.207C309.271 149.317 318.213 163.794 327.581 191.047C336.949 218.299 292.238 255.346 299.903 248.107C307.567 240.868 309.271 216.596 311.826 204.247C314.381 191.899 305.864 186.789 299.903 173.588C293.941 160.388 258.173 159.11 241.991 163.794C225.81 168.478 220.7 178.272 220.275 194.028Z" fill="#E5E5E5"/>
<path d="M212.529 247.198L172.025 268.641C168.973 270.256 168.401 274.458 170.452 277.235C183.271 294.596 190.334 329.982 189.19 367.762C187.912 409.918 188.338 439.725 195.151 440.151C201.964 440.577 202.39 426.95 209.629 422.692C216.868 418.434 245.823 418.008 271.798 420.137C297.773 422.266 309.27 412.047 315.232 432.486C321.193 452.925 329.284 456.758 334.394 471.236C338.001 481.456 336.568 506.795 335.011 522.268C334.711 525.253 337.036 527.87 340.036 527.87H345.872C348.683 527.87 350.942 525.56 350.883 522.749C350.481 503.525 350.071 465.349 351.001 432.486C352.278 387.349 344.188 369.891 343.762 325.606C343.336 281.32 367.608 268.546 361.646 264.288C357.242 261.142 332.889 251.702 318.568 246.363C316.568 245.617 314.336 246.23 312.966 247.867C298.93 264.637 272.112 293.048 261.153 291.114C250.465 289.228 230.011 263.991 218.997 248.728C217.518 246.678 214.762 246.015 212.529 247.198Z" fill="#E5E5E5"/>
<path d="M365.12 413.322C365.128 412.477 365.12 411.625 365.136 410.781V409.929V409.092C365.539 378.284 361.839 343.641 369.852 314.072C372.118 305.721 376.245 297.641 378.455 288.942C378.89 287.238 379.115 285.448 379.867 283.798C379.681 283.666 379.472 283.581 379.286 283.45C379.472 283.581 379.689 283.666 379.867 283.798C390.433 291.359 395.336 301.391 399.152 313.235C417.53 370.297 423.395 437.84 441.927 495.707C444.573 501.083 441.338 507.273 441.741 511.874L439.104 512.571L403.993 524.261L400.867 525.315C387.268 492.337 376.935 448.181 366.129 413.19L365.105 413.337L365.12 413.322Z" fill="#E5E5E5"/>
<path d="M165.126 409.252C159.107 438.538 141.696 497.031 130.242 524.463L126.738 523.552L91.7661 512.643L88.0008 511.395C88.5229 506.722 87.7002 502.67 87.8663 498.06C107.302 438.773 112.602 366.843 132.52 308.806C136.808 296.311 140.027 289.942 150.896 281.46C151.149 281.264 151.418 281.091 151.671 280.895L152.612 284.232C166.693 316.447 172.222 370.534 166.55 405.121L166.353 405.137V405.993L166.226 405.954C166.06 406.904 165.356 408.113 165.119 409.244L165.126 409.252Z" fill="#E5E5E5"/>
<path d="M356.102 536.55C355.959 540.653 356.812 559.995 353.806 561.034L179.951 561.935C176.945 560.949 178.555 540.679 178.508 536.498L182.246 536.419L353.583 536.386L356.094 536.563L356.102 536.55Z" fill="#E5E5E5"/>
<path d="M371.825 265.225C369.389 274.788 364.858 283.671 362.38 292.852C353.583 325.359 357.645 363.452 357.202 397.314C357.202 397.935 357.202 398.548 357.202 399.17C357.194 400.098 357.202 401.035 357.185 401.964C356.657 444.196 357.406 486.557 356.197 528.764C356.044 534.078 356.955 559.133 353.744 560.479L168.011 561.646C164.8 560.368 166.52 534.112 166.469 528.696C166.052 485.85 166.044 442.978 165.865 400.124C165.865 398.881 165.848 397.637 165.848 396.402V395.474" stroke="#A3A3A3" stroke-width="5" stroke-linecap="round" stroke-linejoin="round"/>
<path d="M326.696 524.889C324.584 515.018 329.575 483.124 326.509 475.894C324.908 472.113 315.872 465.061 312.457 460.181C308.437 454.433 303.191 436.881 301.547 435.407C296.625 430.979 233.221 435.79 222.32 433.295C218.189 438.933 218.973 446.947 214.655 454.637C210.703 461.663 199.811 470.955 198.244 474.523C194.922 482.077 199.606 515.512 197.23 525.826" stroke="#A3A3A3" stroke-width="5" stroke-linecap="round" stroke-linejoin="round"/>
<path d="M170.463 528.585L353.505 528.542" stroke="#A3A3A3" stroke-width="5" stroke-linecap="round" stroke-linejoin="round"/>
<path d="M316.732 236.345C331.67 245.041 359.365 250.031 372.736 259.186C372.94 259.331 373.179 259.425 373.375 259.57C384.974 267.882 390.356 278.91 394.547 291.932C414.722 354.663 421.16 428.918 441.506 492.535C444.41 498.445 440.859 505.25 441.301 510.309C441.821 516.27 448.396 526.95 444.836 531.182C443.643 532.605 412.916 543.42 409.893 543.752C402.731 544.536 399.069 531.48 396.429 525.076C381.499 488.822 370.156 440.279 358.292 401.81L357.194 398.25" stroke="#A3A3A3" stroke-width="5" stroke-linecap="round" stroke-linejoin="round"/>
<path d="M206.368 235.732C190.536 244.811 164.127 250.074 150.032 260.728C149.76 260.941 149.462 261.128 149.198 261.341C137.505 270.539 134.03 277.446 129.414 290.995C107.97 353.931 102.264 431.933 81.3393 496.223C81.1519 501.213 82.0376 505.616 81.4841 510.683C80.6835 517.948 75.7696 524.872 78.3841 531.165C79.5509 532.596 110.227 543.437 113.139 543.735C121.281 544.57 124.177 531.54 126.953 524.846C139.285 495.098 158.029 431.669 164.51 399.911C164.766 398.676 165.524 397.373 165.703 396.343C165.754 396.027 165.992 395.746 166.043 395.44C172.149 357.934 166.205 299.281 151.037 264.347" stroke="#A3A3A3" stroke-width="5" stroke-linecap="round" stroke-linejoin="round"/>
<path d="M286.022 262.346C294.385 252.654 305.354 243.951 313.428 234.174C332.053 211.614 337.137 180.461 316.528 156.956C265.421 98.6528 153.167 155.517 209.23 233.833C217.848 245.875 228.852 256.436 237.717 268.265C239.633 271.646 254.869 287.154 258.48 288.781C272.464 295.083 281.304 259.084 285.903 250.576L286.03 250.321" stroke="#A3A3A3" stroke-width="5" stroke-linecap="round" stroke-linejoin="round"/>
<path d="M438.414 511.067L399.869 523.918" stroke="#A3A3A3" stroke-width="5" stroke-linecap="round" stroke-linejoin="round"/>
<path d="M123.19 523.867L85.5391 512.038" stroke="#A3A3A3" stroke-width="5" stroke-linecap="round" stroke-linejoin="round"/>
<path d="M224.107 344.767C230.21 320.212 241.735 268.035 239.01 255.771C235.604 240.442 215.164 197.434 221.126 181.253C227.087 165.072 247.527 160.814 265.411 160.814C283.295 160.814 301.606 171.459 301.606 181.253C301.606 191.047 306.715 204.247 287.128 250.236C271.458 287.026 278.895 327.167 284.573 342.638" stroke="#A3A3A3" stroke-width="5" stroke-linecap="round" stroke-linejoin="round"/>
<path d="M487.647 330.24C485.211 339.804 480.681 348.687 478.202 357.867C469.405 390.374 473.467 428.468 473.024 462.329C473.024 462.951 473.024 463.564 473.024 464.186C473.016 465.114 473.024 466.051 473.007 466.979C472.479 509.212 473.229 551.572 472.019 593.779C471.866 599.094 472.777 624.149 469.567 625.494L283.833 626.661C280.622 625.384 282.343 599.128 282.292 593.711C281.874 550.865 281.866 507.994 281.687 465.14C281.687 463.896 281.67 462.653 281.67 461.418L265.411 327.599" fill="white"/>
<path d="M277.334 320.786C285.85 315.676 320.341 304.179 325.451 296.089H370.588L417.854 303.753L437.867 329.728L366.33 337.393L267.114 329.728C267.256 328.451 269.387 325.554 277.334 320.786Z" fill="white"/>
<path d="M403.376 291.405C418.314 300.1 475.187 315.046 488.558 324.201C488.763 324.346 489.001 324.44 489.197 324.584C500.796 332.896 506.178 343.925 510.369 356.947C530.544 419.678 536.982 493.932 557.328 557.55C560.232 563.46 556.681 570.265 557.123 575.323C557.643 581.285 564.218 591.964 560.658 596.197C559.465 597.619 528.738 608.435 525.715 608.767C518.553 609.551 514.891 596.495 512.251 590.091C497.321 553.837 485.978 505.293 474.114 466.825L473.016 463.265" fill="white"/>
<path d="M322.19 300.747C306.359 309.825 279.949 315.089 265.855 325.743C265.582 325.955 265.284 326.143 265.02 326.356C253.327 335.553 249.852 342.46 245.236 356.01C223.792 418.946 218.086 496.947 197.162 561.237C196.974 566.228 197.86 570.631 197.306 575.698C196.506 582.963 191.592 589.886 194.206 596.18C195.373 597.611 226.049 608.452 228.962 608.75C237.103 609.585 239.999 596.555 242.775 589.861C255.107 560.113 273.852 496.683 280.332 464.926C280.588 463.691 281.346 462.388 281.525 461.357C281.576 461.042 281.814 460.761 281.865 460.455C287.972 422.948 282.027 364.296 266.86 329.362" fill="white"/>
<path d="M401.845 327.361C410.208 317.669 421.177 308.965 429.251 299.189C447.876 276.629 452.96 245.476 432.351 221.971C381.244 163.667 268.989 220.531 325.053 298.848C333.671 310.89 344.674 321.45 353.54 333.28C355.456 336.661 370.692 352.169 374.303 353.796C388.287 360.098 397.127 324.099 401.726 315.591L401.853 315.336" fill="white"/>
<path d="M418.279 506.443C393.441 510.38 377.387 510.455 344.613 506.443C338.651 506.443 349.722 526.031 344.613 539.231C339.503 552.431 335.67 546.896 333.541 555.412C331.838 562.225 331.128 582.665 330.986 592.033H437.867C437.157 584.51 436.164 566.654 437.867 555.412C439.996 541.36 437.441 540.934 428.925 534.973C422.112 530.204 418.989 513.966 418.279 506.443Z" fill="#E5E5E5"/>
<path d="M336.097 258.191C335.756 270.795 348.729 309.147 355.259 326.747C348.871 316.528 334.734 289.872 329.284 265.004C322.471 233.919 336.097 227.958 341.633 218.164C347.168 208.37 384.214 203.26 404.654 208.37C425.093 213.48 434.035 227.958 443.403 255.21C452.771 282.462 408.06 319.509 415.725 312.27C423.39 305.031 425.093 280.759 427.648 268.41C430.203 256.062 421.686 250.952 415.725 237.751C409.764 224.551 373.995 223.274 357.814 227.958C341.633 232.642 336.523 242.435 336.097 258.191Z" fill="#E5E5E5"/>
<path d="M328.351 311.361L287.847 332.804C284.795 334.419 284.223 338.621 286.274 341.398C299.093 358.759 306.157 394.145 305.012 431.925C303.734 474.081 304.16 503.888 310.973 504.314C317.786 504.74 318.212 491.114 325.451 486.855C332.69 482.597 361.646 482.171 387.621 484.3C413.596 486.43 425.093 476.21 431.054 496.649C437.016 517.088 445.106 520.921 450.216 535.399C453.823 545.619 452.391 570.958 450.834 586.431C450.533 589.416 452.859 592.033 455.859 592.033H461.694C464.505 592.033 466.764 589.723 466.705 586.912C466.303 567.688 465.893 529.512 466.823 496.649C468.1 451.512 460.01 434.054 459.584 389.769C459.158 345.484 483.43 332.709 477.468 328.451C473.064 325.305 448.712 315.865 434.391 310.526C432.391 309.78 430.158 310.393 428.788 312.03C414.752 328.8 387.934 357.211 376.975 355.277C366.287 353.391 345.833 328.154 334.819 312.891C333.34 310.841 330.585 310.178 328.351 311.361Z" fill="#E5E5E5"/>
<path d="M480.943 477.485C480.95 476.64 480.943 475.788 480.958 474.944V474.092V473.255C481.361 442.447 477.661 407.804 485.675 378.235C487.94 369.884 492.067 361.804 494.278 353.105C494.712 351.401 494.937 349.611 495.69 347.961C495.503 347.83 495.294 347.744 495.108 347.613C495.294 347.744 495.511 347.83 495.69 347.961C506.255 355.522 511.158 365.554 514.975 377.398C533.352 434.46 539.217 502.003 557.75 559.87C560.395 565.246 557.16 571.436 557.563 576.037L554.926 576.734L519.815 588.424L516.689 589.478C503.09 556.5 492.757 512.345 481.951 477.353L480.927 477.5L480.943 477.485Z" fill="#E5E5E5"/>
<path d="M280.949 473.415C274.929 502.701 257.518 561.194 246.064 588.626L242.56 587.715L207.588 576.807L203.823 575.558C204.345 570.885 203.522 566.833 203.689 562.223C223.124 502.937 228.424 431.006 248.342 372.969C252.63 360.474 255.849 354.105 266.718 345.623C266.971 345.427 267.24 345.254 267.493 345.058L268.435 348.395C282.515 380.611 288.044 434.698 282.373 469.284L282.175 469.3V470.156L282.048 470.117C281.882 471.067 281.178 472.277 280.941 473.407L280.949 473.415Z" fill="#E5E5E5"/>
<path d="M471.924 600.713C471.781 604.816 472.634 624.159 469.628 625.197L295.773 626.098C292.767 625.112 294.378 604.842 294.33 600.661L298.069 600.582L469.405 600.549L471.916 600.726L471.924 600.713Z" fill="#E5E5E5"/>
<path d="M487.647 329.388C485.211 338.952 480.681 347.834 478.202 357.015C469.405 389.522 473.467 427.616 473.024 461.477C473.024 462.098 473.024 462.712 473.024 463.333C473.016 464.262 473.024 465.198 473.007 466.127C472.479 508.359 473.229 550.72 472.019 592.927C471.866 598.241 472.777 623.296 469.567 624.642L283.833 625.809C280.622 624.531 282.343 598.275 282.292 592.859C281.874 550.013 281.866 507.141 281.687 464.287C281.687 463.044 281.67 461.8 281.67 460.565V459.637" stroke="#A3A3A3" stroke-width="5" stroke-linecap="round" stroke-linejoin="round"/>
<path d="M442.518 589.052C440.406 579.181 445.397 547.287 442.331 540.057C440.73 536.276 431.694 529.224 428.279 524.344C424.259 518.596 419.013 501.044 417.37 499.57C412.447 495.142 349.043 499.953 338.142 497.458C334.011 503.096 334.795 511.11 330.477 518.8C326.525 525.826 315.633 535.118 314.066 538.686C310.745 546.24 315.429 579.675 313.053 589.989" stroke="#A3A3A3" stroke-width="5" stroke-linecap="round" stroke-linejoin="round"/>
<path d="M286.285 592.748L469.328 592.705" stroke="#A3A3A3" stroke-width="5" stroke-linecap="round" stroke-linejoin="round"/>
<path d="M432.555 300.509C447.492 309.204 475.188 314.194 488.558 323.349C488.763 323.494 489.001 323.588 489.197 323.733C500.796 332.045 506.179 343.073 510.369 356.095C530.544 418.827 536.982 493.081 557.328 556.698C560.232 562.608 556.681 569.413 557.124 574.472C557.643 580.433 564.218 591.113 560.658 595.345C559.466 596.768 528.739 607.583 525.715 607.916C518.553 608.699 514.891 595.643 512.251 589.239C497.322 552.985 485.978 504.442 474.115 465.973L473.016 462.413" stroke="#A3A3A3" stroke-width="5" stroke-linecap="round" stroke-linejoin="round"/>
<path d="M322.19 299.895C306.359 308.974 279.949 314.237 265.855 324.891C265.582 325.104 265.284 325.291 265.02 325.504C253.327 334.702 249.852 341.609 245.236 355.158C223.792 418.094 218.086 496.096 197.162 560.386C196.974 565.376 197.86 569.779 197.306 574.847C196.506 582.111 191.592 589.035 194.206 595.328C195.373 596.759 226.049 607.6 228.962 607.899C237.103 608.733 239.999 595.703 242.775 589.009C255.107 559.262 273.852 495.832 280.332 464.074C280.588 462.839 281.346 461.536 281.525 460.506C281.576 460.191 281.814 459.91 281.865 459.603C287.972 422.097 282.027 363.445 266.86 328.51" stroke="#A3A3A3" stroke-width="5" stroke-linecap="round" stroke-linejoin="round"/>
<path d="M401.844 326.509C410.207 316.817 421.176 308.114 429.25 298.337C447.875 275.777 452.96 244.624 432.35 221.119C381.243 162.816 268.989 219.68 325.052 297.996C333.671 310.038 344.674 320.599 353.539 332.428C355.456 335.809 370.691 351.317 374.302 352.944C388.286 359.246 397.126 323.247 401.725 314.739L401.853 314.484" stroke="#A3A3A3" stroke-width="5" stroke-linecap="round" stroke-linejoin="round"/>
<path d="M554.237 575.23L515.691 588.081" stroke="#A3A3A3" stroke-width="5" stroke-linecap="round" stroke-linejoin="round"/>
<path d="M239.012 588.03L201.361 576.201" stroke="#A3A3A3" stroke-width="5" stroke-linecap="round" stroke-linejoin="round"/>
<path d="M339.929 408.931C346.032 384.375 357.558 332.198 354.833 319.934C351.426 304.605 330.987 261.597 336.948 245.416C342.91 229.235 363.349 224.977 381.233 224.977C399.118 224.977 417.428 235.622 417.428 245.416C417.428 255.21 422.538 268.41 402.95 314.399C387.28 351.19 394.717 391.33 400.395 406.801" stroke="#A3A3A3" stroke-width="5" stroke-linecap="round" stroke-linejoin="round"/>
</g>
<defs>
<clipPath id="clip0_65_3497">
<rect width="760" height="760" fill="white"/>
</clipPath>
</defs>
</svg>
