<svg viewBox="0 0 760 760" fill="none" xmlns="http://www.w3.org/2000/svg">
<g clip-path="url(#clip0_65_3424)">
<rect width="760" height="760" fill="white"/>
<path d="M760 0H0V760H760V0Z" fill="#FCFCFD"/>
<path d="M760.001 483.698C691.263 482.938 622.525 482.262 574.898 446.88C527.356 411.413 500.925 341.324 469.765 290.236C438.689 239.062 402.969 206.804 369.952 161.542C336.934 116.364 306.618 58.1822 276.303 0H760.001V483.698Z" fill="#F5F5F5"/>
<path d="M0 276.302C60.6311 288.124 121.178 299.947 181.978 320.804C242.693 341.578 303.493 371.471 342 418C380.507 464.529 396.72 527.693 416.649 587.396C436.493 647.182 460.053 703.591 483.698 760H0V276.302Z" fill="#F5F5F5"/>
<path d="M207 381.5C252 336.499 538.999 341.5 563.499 366C587.999 390.5 572.049 509.225 583 601C429.875 609.134 344.148 608.877 191 601C183.528 511.946 173.001 415.5 207 381.5Z" fill="#E5E5E5"/>
<path d="M581.57 177.51C580.03 179.118 577.922 178.568 575.886 178.72C555.633 180.248 527.89 177.909 506.666 177.793C506.317 177.793 505.969 177.778 505.62 177.778C480.453 177.648 455.286 178.017 430.119 177.988C403.916 177.959 377.704 177.901 351.501 177.909C325.638 177.923 299.774 178.068 273.91 178.061C273.562 178.061 273.213 178.061 272.865 178.061C250.43 178.061 227.977 178.075 205.542 177.822C203.277 177.793 201.04 178.024 198.812 177.546C198.904 177.278 199.097 177.039 199.179 176.771C202.388 166.965 197.428 153.936 210.704 150.88H569.679C582.68 153.023 578.242 167.653 581.57 177.51Z" fill="#E5E5E5"/>
<path d="M424.383 204.282L424.098 208.364L428.695 281.886L428.455 285.272H427.6L427.562 285.856L426.753 285.272H354.15L353.955 281.886C355.86 257.384 357.472 232.859 359.407 208.364C359.519 206.948 359.024 205.495 360.082 204.192C381.513 204.177 402.952 204.244 424.383 204.274V204.282Z" fill="#E5E5E5"/>
<path d="M590.923 206.458C597.729 230.06 617.029 259.236 621.206 282.314L617.777 282.454H545.404C545.276 281.385 545.329 280.295 545.193 279.234C542.345 257.106 532.744 233.147 529.269 210.803L529.209 206.738C546.703 206.849 569.553 209.099 586.24 207.632C587.917 207.485 589.654 208.009 590.923 206.465V206.458Z" fill="#E5E5E5"/>
<path d="M252.03 201.013C251.718 201.013 251.406 201.013 251.094 201.013L250.831 205.164L234.541 280.071L234.459 283.588C233.212 283.588 231.964 283.588 230.709 283.588H156.57L152.385 283.343C152.45 283.015 152.532 282.694 152.598 282.372C157.883 256.267 177.333 226.637 184.817 200.471C184.899 200.188 185.072 199.936 185.146 199.653C185.072 199.936 184.891 200.188 184.817 200.471C186.803 200.975 188.814 200.738 190.841 200.761C210.923 201.029 231.021 201.006 251.102 201.013C251.414 201.013 251.726 201.013 252.038 201.013H252.03Z" fill="#E5E5E5"/>
<path d="M357.497 318.28C379.114 361.742 430.124 342.184 422.206 296.609L421.475 296.065H356.01H354.468L354.198 296.665C354.198 296.665 352.623 301.878 357.497 318.28Z" fill="#E5E5E5"/>
<path d="M621.482 296.065C630.257 347.959 569.171 367.372 547.634 320.524C546.896 318.911 546.842 317.297 544.975 316.445C546.627 308.599 544.975 304.862 544.207 297.617C544.161 297.161 544.422 296.674 544.376 296.217H617.994L621.482 296.065Z" fill="#E5E5E5"/>
<path d="M226.956 297.241L227.27 298.469C238.883 361.449 143.822 362.654 155.674 296.999C155.733 296.682 155.808 296.374 155.868 296.065C155.808 296.381 155.733 296.69 155.674 296.999L159.482 297.234H226.956V297.241Z" fill="#E5E5E5"/>
<path d="M248.119 433.577C251.543 432.038 318.368 431.727 323.163 432.84C328.048 433.978 330.528 434.584 333.171 439.306C340.512 452.418 329.879 556.777 334.28 578.752V582.787C303.113 582.869 271.929 582.664 240.77 583.032L240.713 578.752V442.072C241.173 437.841 244.531 435.189 248.127 433.577H248.119Z" fill="#F5F5F5"/>
<path d="M414.94 433.176C420.07 431.785 515.705 431.901 521.226 433.176C528.623 434.877 529.573 436.521 531.036 443.798C531.964 448.411 532 506.652 531.036 510.801C529.696 516.58 528.906 518.188 522.863 519.788C507.314 517.087 418.527 523.785 410.854 518.644C408.173 516.848 407.63 515.32 406.767 512.431C405.753 509.027 405.862 444.783 406.767 441.344C408.115 436.231 409.818 434.566 414.94 433.176Z" fill="#F5F5F5"/>
<path d="M380.397 405.701C387.256 403.84 515.121 403.995 522.503 405.701C532.394 407.979 533.663 410.18 535.62 419.921C536.86 426.096 536.908 504.058 535.62 509.612C533.827 517.348 532.771 519.499 524.692 521.642C503.903 518.026 385.192 526.992 374.933 520.11C371.349 517.706 370.622 515.661 369.469 511.793C368.113 507.238 368.258 421.24 369.469 416.635C371.271 409.792 373.548 407.563 380.397 405.701Z" stroke="#A3A3A3" stroke-width="5" stroke-linecap="round" stroke-linejoin="round"/>
<path d="M330.172 312.511C361.143 372.91 437.485 346.195 426.141 282.86" stroke="#A3A3A3" stroke-width="5" stroke-linecap="round" stroke-linejoin="round"/>
<path d="M307.16 501.955L305.871 473.525" stroke="#A3A3A3" stroke-width="5" stroke-linecap="round" stroke-linejoin="round"/>
<path d="M144.283 618.981C145.543 611.672 141.28 588.815 147.567 584.851C150.813 582.806 214.421 583.697 224.157 583.581C260.921 583.145 297.714 583.387 334.488 583.29C371.261 583.193 408.432 583.387 445.4 583.571C483.452 583.756 521.553 583.319 559.606 583.862C567.714 583.978 608.789 582.728 612.151 585.51C616.413 589.038 616.462 616.596 611.25 618.981H144.283Z" stroke="#A3A3A3" stroke-width="5" stroke-linecap="round" stroke-linejoin="round"/>
<path d="M335.27 583.032C330.077 556.996 341.832 428.878 333.181 413.359C330.061 407.766 327.136 407.049 321.372 405.701C315.714 404.383 236.868 404.752 232.828 406.574C228.594 408.493 224.632 411.624 224.08 416.635V583.032" stroke="#A3A3A3" stroke-width="5" stroke-linecap="round" stroke-linejoin="round"/>
<path d="M177.3 583.032L177.074 373.985" stroke="#A3A3A3" stroke-width="5" stroke-linecap="round" stroke-linejoin="round"/>
<path d="M583.836 583.032L583.719 373.985" stroke="#A3A3A3" stroke-width="5" stroke-linecap="round" stroke-linejoin="round"/>
<path d="M141.059 282.454L229.63 282.454C231.12 282.454 232.61 282.454 234.11 282.454L328.082 282.454C328.827 282.454 329.572 282.454 330.317 282.454L425.231 282.454C425.603 282.454 425.976 282.454 426.348 282.454L427.466 282.454C459.983 282.454 492.5 282.454 525.016 282.454L618.94 282.454" stroke="#A3A3A3" stroke-width="5" stroke-linecap="round" stroke-linejoin="round"/>
<path d="M524.383 312.512C551.538 372.183 631.972 348.017 620.909 281.92C615.552 249.903 590.8 209.405 582.072 176.652C578.555 163.459 583.244 143.879 569.507 141.01H190.193C176.156 145.1 181.397 162.548 178.016 175.663C177.929 176.022 177.716 176.341 177.628 176.7C168.784 209.89 145.834 247.46 139.595 280.562C139.518 280.979 139.421 281.386 139.343 281.794C123.969 368.354 247.282 366.754 232.218 283.732" stroke="#A3A3A3" stroke-width="5" stroke-linecap="round" stroke-linejoin="round"/>
<path d="M501.734 177.535C506.2 208.543 519.598 251.746 523.25 282.454" stroke="#A3A3A3" stroke-width="5" stroke-linecap="round" stroke-linejoin="round"/>
<path d="M421.898 178.102L425.862 281.886" stroke="#A3A3A3" stroke-width="5" stroke-linecap="round" stroke-linejoin="round"/>
<path d="M177.297 177.077C201.787 177.465 226.297 177.431 250.788 177.442C251.168 177.442 251.548 177.442 251.929 177.442C280.162 177.442 308.395 177.232 336.629 177.21C365.232 177.188 393.846 177.287 422.449 177.332C449.922 177.376 477.395 176.811 504.868 177.01C505.248 177.01 505.628 177.032 506.008 177.032C529.188 177.21 559.463 180.778 581.571 178.451" stroke="#A3A3A3" stroke-width="5" stroke-linecap="round" stroke-linejoin="round"/>
<path d="M338.666 177.535C336.167 209.231 330.935 250.18 328.475 281.886" stroke="#A3A3A3" stroke-width="5" stroke-linecap="round" stroke-linejoin="round"/>
<path d="M523.482 283.887C524.451 293.125 526.534 297.875 524.451 307.868C514.299 356.547 441.087 360.183 425.297 313.646" stroke="#A3A3A3" stroke-width="5" stroke-linecap="round" stroke-linejoin="round"/>
<path d="M256 178.669L232.785 281.886" stroke="#A3A3A3" stroke-width="5" stroke-linecap="round" stroke-linejoin="round"/>
<path d="M232.221 310.544C245.396 355.481 320.055 356.615 329.335 310.544C329.413 310.165 329.393 309.768 329.461 309.39C330.73 302.081 328.502 290.702 328.706 282.947" stroke="#A3A3A3" stroke-width="5" stroke-linecap="round" stroke-linejoin="round"/>
</g>
<defs>
<clipPath id="clip0_65_3424">
<rect width="760" height="760" fill="white"/>
</clipPath>
</defs>
</svg>
