<svg viewBox="0 0 760 760" fill="none" xmlns="http://www.w3.org/2000/svg">
<rect width="760" height="760" fill="white"/>
<path d="M313.863 430.914C357.895 429.203 371.999 379.5 365.499 368.769C357.493 368.769 348.402 368.427 337.88 364.778C324.728 360.217 270.998 358.057 265.499 364.778C260 371.5 263.54 433.765 313.863 430.914Z" fill="#E5E5E5"/>
<path d="M464 430C503.581 428.778 517.594 386.5 512.594 368.5C501.594 367 494.194 364 486.594 364C477.094 364 473.594 367 443.594 365.5C419.594 364.3 415.261 370 416.094 373C415.427 391.667 415.406 431.5 464 430Z" fill="#E5E5E5"/>
<path d="M362 357C367 363.5 368 368.5 368 372C368 405.413 340.913 432.5 307.5 432.5C274.087 432.5 247 405.413 247 372V355" stroke="#A3A3A3" stroke-width="5" stroke-linecap="round"/>
<path d="M399 357C394 363.5 393 368.5 393 372C393 405.413 420.087 432.5 453.5 432.5C486.913 432.5 514 405.413 514 372V355" stroke="#A3A3A3" stroke-width="5" stroke-linecap="round"/>
<path d="M247 354.5C252.833 352.5 273 348.5 307 348.5C349.5 348.5 334.5 357 380 357" stroke="#A3A3A3" stroke-width="5" stroke-linecap="round"/>
<path d="M512.5 354.5C506.667 352.5 486.5 348.5 452.5 348.5C410 348.5 425.5 357 380 357" stroke="#A3A3A3" stroke-width="5" stroke-linecap="round"/>
<path d="M368 371C377 366 384 366 393 371" stroke="#A3A3A3" stroke-width="5" stroke-linecap="round"/>
<path d="M334.5 335C334.5 335 327 326.5 319.5 328C312 329.5 248 354.5 248 354.5" stroke="#A3A3A3" stroke-width="5" stroke-linecap="round" stroke-linejoin="round"/>
<path d="M427 335C427 335 434.5 326.5 442 328C449.5 329.5 513.5 354.5 513.5 354.5" stroke="#A3A3A3" stroke-width="5" stroke-linecap="round" stroke-linejoin="round"/>
<path d="M367 191.177C376 186.177 383 186.177 392 191.178" stroke="#A3A3A3" stroke-width="5" stroke-linecap="round"/>
<path d="M336.5 185.178C336.5 185.178 329 176.677 321.5 178.177C314 179.677 250 204.678 250 204.678" stroke="#A3A3A3" stroke-width="5" stroke-linecap="round" stroke-linejoin="round"/>
<path d="M423 185.178C423 185.178 430.5 176.677 438 178.177C445.5 179.677 509.5 204.678 509.5 204.678" stroke="#A3A3A3" stroke-width="5" stroke-linecap="round" stroke-linejoin="round"/>
<path d="M502 219C502 243.024 492.524 254.5 468.5 254.5C444.476 254.5 425 235.024 425 211C425 186.976 434.475 175.5 458.5 175.5C482.524 175.5 502 194.976 502 219Z" fill="#E5E5E5"/>
<path d="M364.5 218.5C364.5 242.524 350.024 254.5 326 254.5C301.976 254.5 282.5 235.024 282.5 211C282.5 186.976 296.975 175 321 175C345.024 175 364.5 194.476 364.5 218.5Z" fill="#E5E5E5"/>
<circle cx="308" cy="208" r="59.5" stroke="#A3A3A3" stroke-width="5"/>
<circle cx="451" cy="208" r="59.5" stroke="#A3A3A3" stroke-width="5"/>
<path d="M367 528C378.52 522.667 387.48 522.667 399 528" stroke="#A3A3A3" stroke-width="5" stroke-linecap="round"/>
<path d="M250 509.5C255.833 507.5 276 503.5 310 503.5C352.5 503.5 337.5 512 383 512" stroke="#A3A3A3" stroke-width="5" stroke-linecap="round"/>
<path d="M515.5 509.5C509.667 507.5 489.5 503.5 455.5 503.5C413 503.5 428.5 512 383 512" stroke="#A3A3A3" stroke-width="5" stroke-linecap="round"/>
<path d="M336.5 490.178C336.5 490.178 329 481.677 321.5 483.177C314 484.677 250 509.678 250 509.678" stroke="#A3A3A3" stroke-width="5" stroke-linecap="round" stroke-linejoin="round"/>
<path d="M429.5 490.178C429.5 490.178 437 481.677 444.5 483.177C452 484.677 516 509.678 516 509.678" stroke="#A3A3A3" stroke-width="5" stroke-linecap="round" stroke-linejoin="round"/>
<path d="M366.514 559.76V527.76C366.514 517.76 340.514 530.26 325.514 535.76C310.514 541.26 297.514 557.26 298.014 563.76C298.514 570.26 340.014 572.76 353.514 572.76C364.314 572.76 366.681 564.093 366.514 559.76Z" fill="#E5E5E5"/>
<path d="M513.991 556.536V518.472C513.991 506.577 483.256 521.446 465.524 527.988C447.793 534.531 432.425 553.563 433.017 561.294C433.608 569.026 482.665 572 498.623 572C511.39 572 514.188 561.691 513.991 556.536Z" fill="#E5E5E5"/>
<path d="M250 510V555C250 566.046 258.954 575 270 575H347C358.046 575 367 566.046 367 555V510" stroke="#A3A3A3" stroke-width="5"/>
<path d="M399 510V555C399 566.046 407.954 575 419 575H496C507.046 575 516 566.046 516 555V510" stroke="#A3A3A3" stroke-width="5"/>
</svg>
