<svg preserveAspectRatio="xMidYMid slice" viewBox="0 0 760 760" fill="none" xmlns="http://www.w3.org/2000/svg">
<rect width="760" height="760" fill="white"/>
<path d="M479.595 564.449C479.592 564.454 479.589 564.459 479.586 564.463L479.573 564.449C479.58 564.449 479.587 564.449 479.595 564.449C480.192 563.505 479.689 562.628 479.586 561.711C479.586 561.711 477.582 539.765 474.557 527.232C471.532 514.699 462.889 513.403 462.889 503.031C462.889 492.659 519.501 503.896 535.486 461.535C541.378 467.439 545.982 472.903 552.563 478.173L553.084 478.545C559.132 483.334 564.516 486.114 571.045 489.803L571.631 490.092C577.171 493.202 583.115 495.899 588.812 498.693L589.93 499.257C622.42 515.043 651.41 519.199 683.249 531.557C696.88 536.856 708.026 544.219 703.994 562.041C702.33 562.22 700.769 562.729 699.156 563.073C630.093 578.06 592.844 564.835 527.175 562.633C512.368 562.137 495.157 564.571 479.595 564.449Z" fill="#E5E5E5"/>
<path d="M449.463 562.686C427.459 562.526 404.413 559.159 382.894 559.529C381.814 559.553 380.722 559.738 379.642 559.714C379.58 558.382 379.928 556.926 379.928 555.582C379.928 555.384 379.952 555.187 379.952 554.99C379.952 540.238 380.685 518.825 382.559 504.357C382.608 503.963 382.559 503.568 382.621 503.185C382.571 503.568 382.621 503.975 382.559 504.357L385.239 504.296C420.05 507.305 444.908 524.08 449.463 560.207C449.562 561.046 450.046 561.823 449.463 562.674V562.686Z" fill="#E5E5E5"/>
<path d="M610.629 506.413L600.664 522.672" stroke="#A3A3A3" stroke-width="5" stroke-linecap="round" stroke-linejoin="round"/>
<path d="M379.382 554.698C379.382 554.46 379.412 554.222 379.412 553.984C379.412 536.194 380.292 510.37 382.544 492.922C382.604 492.446 382.544 491.97 382.619 491.508C389.257 444.146 410.38 472.29 435.799 479.638C467.184 488.712 507.789 479.802 527.077 452C533.835 458.381 539.115 464.287 546.663 469.984C546.857 470.133 547.066 470.252 547.26 470.386C554.197 475.562 560.372 478.567 567.861 482.554C568.084 482.673 568.308 482.747 568.532 482.866C574.887 486.228 581.704 489.143 588.238 492.163C588.67 492.356 589.088 492.579 589.52 492.773C626.784 509.835 660.034 514.327 696.551 527.685C712.185 533.412 724.969 541.37 720.344 560.633C716.988 574.661 680.113 597.658 667.657 595.01C662.988 594.013 654.067 584.91 648.622 586.992C642.074 589.491 637.718 598.773 629.588 600.901C626.217 601.778 564.206 601.719 559.82 600.901C550.318 599.13 545.097 592.303 536.564 588.807C516.143 580.432 504.463 597.375 485.816 600.335C475.762 601.927 455.877 601.183 444.943 601.034C412.17 600.618 380.948 603.414 379.009 559.637C378.934 558.03 379.352 556.275 379.352 554.654L379.382 554.698Z" stroke="#A3A3A3" stroke-width="5" stroke-linecap="round" stroke-linejoin="round"/>
<path d="M593.772 484.859L575.26 514.208" stroke="#A3A3A3" stroke-width="5" stroke-linecap="round" stroke-linejoin="round"/>
<path d="M573.29 474.283L556.27 502.293" stroke="#A3A3A3" stroke-width="5" stroke-linecap="round" stroke-linejoin="round"/>
<path d="M380.502 559.473C406.368 559.027 436.529 563.088 462.977 563.281C480.818 563.415 500.583 560.782 517.574 561.318C592.906 563.683 639.713 577.978 718.923 561.794" stroke="#A3A3A3" stroke-width="5" stroke-linecap="round" stroke-linejoin="round"/>
<path d="M552.048 460.881L532.939 491.702" stroke="#A3A3A3" stroke-width="5" stroke-linecap="round" stroke-linejoin="round"/>
<path d="M384.127 492.862C425.97 496.492 457.488 518.36 462.963 561.93" stroke="#A3A3A3" stroke-width="5" stroke-linecap="round" stroke-linejoin="round"/>
<path d="M512.398 570.867C468.243 573.843 410.464 569.628 387.094 567.149C398.282 571.611 430.503 580.536 469.884 580.536C519.111 580.536 504.94 574.586 571.321 582.768C624.426 589.313 642.178 583.016 644.415 579.049C609.36 584.999 567.592 567.149 512.398 570.867Z" fill="#E5E5E5"/>
<path d="M275.339 234.699C274.469 244.199 274.729 253.699 274.729 263.219C274.729 281.479 275.099 299.729 275.139 317.989C275.159 327.229 275.049 336.479 275.139 345.709C275.239 355.559 274.969 365.429 275.139 375.269C275.289 384.109 274.199 394.609 274.799 403.029C276.009 420.149 279.849 432.749 299.159 436.409C349.339 431.389 409.029 441.799 458.039 436.779C478.639 434.669 484.599 421.499 485.869 402.969C486.439 394.589 484.899 384.059 485.039 375.209C485.189 365.349 485.209 355.439 485.279 345.569C485.339 336.339 484.969 327.149 484.979 317.939C485.019 298.529 485.179 279.129 485.429 259.719C485.539 251.379 485.659 243.009 485.809 234.669" fill="white"/>
<path d="M270.36 262.559C264.37 266.079 247.45 289.409 241.88 288.079C238.42 287.259 192.33 240.999 192 237.459C192.12 235.589 192.93 234.299 194.03 232.839C201.1 223.499 267.46 158.119 275.14 154.139C277.74 152.789 280.64 152.489 283.45 151.919C287.28 151.139 325.34 150.709 327.25 151.779C331.26 154.039 333.38 164.579 336.84 169.099C356.12 194.299 405.07 194.539 423.48 168.179C426.07 164.469 429.02 152.809 430.73 151.779C433.26 150.259 480.13 150.859 485.74 154.499C495.76 165.719 566.61 228.889 567.95 236.519C568.95 242.249 525.55 281.359 518.99 287.879C513.75 289.429 494.53 267.279 489.59 262.539" fill="white"/>
<path d="M323.269 167.474C321.556 166.506 309.167 166.895 305.734 167.601V167.592C303.215 168.107 284.769 167.601 284.769 179.769V260.269C284.76 276.775 283.232 301.237 283.268 317.751L301.602 317.625H482.922L486.373 317.751C486.4 300.188 486.552 282.651 486.776 265.096C489.062 264.563 489.456 266.625 490.514 267.647C494.942 271.934 512.17 291.966 516.867 290.565C522.748 284.668 561.651 249.296 560.754 244.114C559.553 237.213 496.045 180.082 487.063 169.934C482.034 166.642 440.021 166.099 437.753 167.474C436.22 168.406 433.576 178.951 431.254 182.306C414.752 206.147 353.551 205.93 336.269 183.138C333.167 179.051 326.863 169.518 323.269 167.474Z" fill="#E5E5E5"/>
<path d="M482.647 408.769H316.089C316.089 408.769 314.27 410.269 314.27 416.269C314.27 422.269 316.909 433.314 332.736 436.313C373.865 432.2 422.789 440.729 462.959 436.616C479.844 434.887 484.737 424.106 485.77 408.917L482.647 408.769Z" fill="#E5E5E5"/>
<path d="M481.322 350.769H312.882C312.882 350.769 309.769 350.269 308.769 355.769C307.77 361.269 309.676 367.489 309.817 375.769L312.89 375.618H481.322L484.57 375.727C484.703 367.439 484.711 359.1 484.769 350.811L481.322 350.769Z" fill="#E5E5E5"/>
<path d="M275.341 234.699C274.471 244.199 274.731 253.699 274.731 263.219C274.731 281.479 275.101 299.729 275.141 317.989C275.161 327.229 275.051 336.479 275.141 345.709C275.241 355.559 274.971 365.429 275.141 375.269C275.291 384.109 274.201 394.609 274.801 403.029C276.011 420.149 279.851 432.749 299.161 436.409C349.341 431.389 409.031 441.799 458.041 436.779C478.641 434.669 484.601 421.499 485.871 402.969C486.441 394.589 484.901 384.059 485.041 375.209C485.191 365.349 485.211 355.439 485.281 345.569C485.341 336.339 484.971 327.149 484.981 317.939C485.021 298.529 485.181 279.129 485.431 259.719C485.541 251.379 485.661 243.009 485.811 234.669" stroke="#A3A3A3" stroke-width="5" stroke-linecap="round" stroke-linejoin="round"/>
<path d="M270.36 262.559C264.37 266.079 247.45 289.409 241.88 288.079C238.42 287.259 192.33 240.999 192 237.459C192.12 235.589 192.93 234.299 194.03 232.839C201.1 223.499 267.46 158.119 275.14 154.139C277.74 152.789 280.64 152.489 283.45 151.919C287.28 151.139 325.34 150.709 327.25 151.779C331.26 154.039 333.38 164.579 336.84 169.099C356.12 194.299 405.07 194.539 423.48 168.179C426.07 164.469 429.02 152.809 430.73 151.779C433.26 150.259 480.13 150.859 485.74 154.499C495.76 165.719 566.61 228.889 567.95 236.519C568.95 242.249 525.55 281.359 518.99 287.879C513.75 289.429 494.53 267.279 489.59 262.539" stroke="#A3A3A3" stroke-width="5" stroke-linecap="round" stroke-linejoin="round"/>
<path d="M278.84 402.799H482.05" stroke="#A3A3A3" stroke-width="5" stroke-linecap="round" stroke-linejoin="round"/>
<path d="M278.84 375.089H481.13" stroke="#A3A3A3" stroke-width="5" stroke-linecap="round" stroke-linejoin="round"/>
<path d="M278.84 345.529H481.13" stroke="#A3A3A3" stroke-width="5" stroke-linecap="round" stroke-linejoin="round"/>
<path d="M278.84 317.819H481.13" stroke="#A3A3A3" stroke-width="5" stroke-linecap="round" stroke-linejoin="round"/>
<path d="M380.439 191.279V262.399" stroke="#A3A3A3" stroke-width="5" stroke-linecap="round" stroke-linejoin="round"/>
<path d="M276.554 541.835C235.77 539.863 168.58 550.408 151.628 553.238C134.676 556.069 133.959 556.766 133.959 556.766C147.354 576.611 194.463 609.032 219.068 608.265C227.548 607.995 261.041 583.777 271.597 578.079C281.199 572.896 291.215 568.288 301.687 565.214C301.855 565.166 302.011 565.053 302.179 565.005C311.085 562.446 320.543 560.643 329.959 561.997L329.665 557.569C311.427 552.53 295.788 542.763 276.554 541.835Z" fill="#E5E5E5"/>
<path d="M65.9231 561.068C66.8173 563.393 67.6095 562.661 69.854 563.932L148.798 547.891C135.914 483.204 137.562 456.419 168.58 438.699C151.092 439.148 127.478 445.679 111.97 453.852C108.244 455.817 99.6407 461.259 92.7125 467.255C77.0935 480.774 62.0703 490.964 62.0703 510.372C62.0703 529.78 64.4228 557.179 65.9231 561.068Z" fill="#E5E5E5"/>
<path d="M283.619 531.914C281.505 531.618 278.901 532.14 276.649 532.002L266.862 472.357C258.967 452.429 213.193 432.124 193.145 434.735C181.659 436.232 162.449 451.366 154.913 460.122C153.623 461.62 148.515 470.835 147.88 470.829C147.691 470.829 146.301 468.432 144.27 469.602C148.924 455.442 158.85 443.887 170.821 435.345C176.753 431.111 183.584 427.702 190.654 425.935L190.912 424.746C192.755 424.884 194.655 424.695 196.485 424.884C196.649 424.903 196.819 424.878 196.982 424.89C197.278 424.922 197.593 424.834 197.888 424.865C198.247 424.903 198.612 424.903 198.964 424.947C199.171 424.972 199.366 425.041 199.574 425.066C222.565 427.954 253.161 439.855 267.723 458.594C277.631 471.338 280.512 511.552 282.914 528.939C283.053 529.964 283.424 530.914 283.625 531.914H283.619Z" fill="white"/>
<path d="M283.41 530.393C246.229 528.115 202.72 537.645 166.11 544.746L165.708 542.247C165.41 522.217 154.561 491.616 160.784 472.748C162.666 471.661 163.948 473.875 164.129 473.881C164.723 473.892 169.454 465.373 170.643 463.99C177.629 455.901 195.424 441.92 206.058 440.537C224.629 438.125 267.03 456.883 274.343 475.293L283.41 530.393Z" fill="#E5E5E5"/>
<path d="M123.006 553.238C137.046 574.072 187.852 610.505 213.643 609.7C222.525 609.423 257.637 583.991 268.702 578.009C278.767 572.568 289.259 567.737 300.242 564.504C300.418 564.454 300.581 564.334 300.757 564.284C310.099 561.598 320.006 559.705 329.875 561.126C337.902 562.284 345.589 565.605 352.829 569.083L353.414 569.366L353.999 569.65" stroke="#A3A3A3" stroke-width="5" stroke-linecap="round" stroke-linejoin="round"/>
<path d="M198.957 424.953L197.881 424.871C197.579 424.84 197.271 424.928 196.975 424.897C194.849 425.073 192.729 425.425 190.647 425.941C183.577 427.702 176.752 431.111 170.814 435.351C158.843 443.893 148.917 455.449 144.262 469.608C137.544 490.033 149.42 524.944 149.741 546.633" stroke="#A3A3A3" stroke-width="5" stroke-linecap="round" stroke-linejoin="round"/>
<path d="M282.907 531.842C280.51 514.462 277.623 471.338 267.716 458.594C253.154 439.855 222.558 427.954 199.567 425.066L196.478 424.884C194.641 424.695 192.748 424.884 190.905 424.746C181.595 424.041 170.556 423.922 161.177 424.01C154.547 424.073 149.785 423.343 142.985 424.425C124.146 427.425 102.117 436.829 87.0138 448.555C69.2374 462.356 51.7314 483.887 49.0832 506.916C48.4541 512.376 51.549 556.056 53.1216 560.139C54.0651 562.579 54.6878 563.579 57.0341 564.913C62.6954 568.121 112.408 555.094 122.491 553.043C127.178 552.087 131.87 551.156 136.563 550.231C141.255 549.307 145.533 548.413 150.024 547.539C189.54 539.852 236.516 529.536 276.654 532.002C278.906 532.14 281.511 531.612 283.624 531.914C293.84 533.354 345.854 552.798 351.773 559.535C354.12 562.202 353.692 565.07 353.906 568.316L353.994 569.65" stroke="#A3A3A3" stroke-width="5" stroke-linecap="round" stroke-linejoin="round"/>
<path d="M300.395 564.875C314.202 573.266 339.47 580.978 353.422 570.021L353.994 569.65" stroke="#A3A3A3" stroke-width="5" stroke-linecap="round" stroke-linejoin="round"/>
<path d="M160.434 422.714C153.408 416.7 145.362 415.637 139.676 424.286" stroke="#A3A3A3" stroke-width="5" stroke-linecap="round" stroke-linejoin="round"/>
</svg>
