<svg viewBox="0 0 760 760" fill="none" xmlns="http://www.w3.org/2000/svg">
<rect width="760" height="760" fill="white"/>
<path d="M220.595 428.523C220.592 428.528 220.589 428.532 220.586 428.537L220.573 428.523C220.58 428.523 220.587 428.523 220.595 428.523C221.192 427.579 220.689 426.702 220.586 425.785C220.586 425.785 218.582 403.839 215.557 391.306C212.532 378.773 203.889 377.477 203.889 367.105C203.889 356.733 260.501 367.97 276.486 325.609C282.378 331.513 286.982 336.977 293.563 342.247L294.084 342.619C300.132 347.408 305.516 350.188 312.045 353.877L312.631 354.166C318.171 357.276 324.115 359.973 329.812 362.767L330.93 363.331C363.42 379.117 392.41 383.273 424.249 395.631C437.88 400.93 449.026 408.293 444.994 426.115C443.33 426.294 441.769 426.803 440.156 427.147C371.093 442.134 333.844 428.909 268.175 426.707C253.368 426.211 236.157 428.645 220.595 428.523Z" fill="#E5E5E5"/>
<path d="M190.463 426.76C168.459 426.6 145.413 423.233 123.894 423.603C122.814 423.627 121.722 423.812 120.642 423.788C120.58 422.455 120.928 421 120.928 419.656C120.928 419.458 120.952 419.261 120.952 419.064C120.952 404.312 121.685 382.899 123.559 368.431C123.608 368.036 123.559 367.642 123.621 367.259C123.571 367.642 123.621 368.049 123.559 368.431L126.239 368.37C161.05 371.379 185.908 388.154 190.463 424.281C190.562 425.12 191.046 425.897 190.463 426.748V426.76Z" fill="#E5E5E5"/>
<path d="M351.628 370.487L341.663 386.746" stroke="#A3A3A3" stroke-width="5" stroke-linecap="round" stroke-linejoin="round"/>
<path d="M120.382 418.772C120.382 418.534 120.412 418.296 120.412 418.058C120.412 400.268 121.292 374.444 123.544 356.996C123.604 356.52 123.544 356.044 123.619 355.582C130.257 308.22 151.38 336.364 176.799 343.712C208.184 352.786 248.789 343.876 268.077 316.074C274.835 322.455 280.115 328.361 287.663 334.058C287.857 334.207 288.066 334.326 288.26 334.46C295.197 339.636 301.372 342.641 308.861 346.628C309.084 346.747 309.308 346.821 309.532 346.94C315.887 350.302 322.704 353.217 329.238 356.237C329.67 356.43 330.088 356.653 330.52 356.847C367.784 373.909 401.034 378.401 437.551 391.759C453.185 397.486 465.969 405.444 461.344 424.707C457.988 438.735 421.113 461.732 408.657 459.084C403.988 458.087 395.067 448.984 389.622 451.066C383.074 453.565 378.718 462.847 370.588 464.975C367.217 465.852 305.206 465.793 300.82 464.975C291.318 463.204 286.097 456.377 277.564 452.881C257.143 444.506 245.463 461.449 226.816 464.409C216.762 466.001 196.877 465.257 185.943 465.108C153.17 464.692 121.948 467.488 120.009 423.711C119.934 422.104 120.352 420.349 120.352 418.728L120.382 418.772Z" stroke="#A3A3A3" stroke-width="5" stroke-linecap="round" stroke-linejoin="round"/>
<path d="M334.772 348.933L316.26 378.282" stroke="#A3A3A3" stroke-width="5" stroke-linecap="round" stroke-linejoin="round"/>
<path d="M314.291 338.357L297.271 366.367" stroke="#A3A3A3" stroke-width="5" stroke-linecap="round" stroke-linejoin="round"/>
<path d="M121.502 423.547C147.368 423.101 177.529 427.162 203.977 427.355C221.818 427.489 241.583 424.856 258.574 425.392C333.906 427.757 380.713 442.052 459.923 425.868" stroke="#A3A3A3" stroke-width="5" stroke-linecap="round" stroke-linejoin="round"/>
<path d="M293.048 324.954L273.939 355.776" stroke="#A3A3A3" stroke-width="5" stroke-linecap="round" stroke-linejoin="round"/>
<path d="M125.127 356.936C166.97 360.566 198.488 382.434 203.963 426.004" stroke="#A3A3A3" stroke-width="5" stroke-linecap="round" stroke-linejoin="round"/>
<path d="M253.398 434.941C209.243 437.916 151.464 433.702 128.094 431.223C139.282 435.685 171.503 444.61 210.884 444.61C260.111 444.61 245.94 438.66 312.321 446.842C365.426 453.387 383.178 447.09 385.415 443.123C350.36 449.073 308.592 431.223 253.398 434.941Z" fill="#E5E5E5"/>
<path d="M303.501 247.852C305.073 227.222 322.579 213.796 333.204 208.621C334.456 208.012 335.953 208.431 336.707 209.602C344.649 221.937 346.872 238.683 347.05 247.958C347.081 249.575 345.754 250.855 344.136 250.855H306.381C304.724 250.855 303.375 249.504 303.501 247.852Z" fill="#E5E5E5"/>
<path d="M322.591 256.473H612.494C614.279 256.473 615.658 258.038 614.987 259.691C612.74 265.221 605.864 272.463 589.907 272.463C565.706 272.463 583.424 261.227 533.294 261.227C483.164 261.227 494.832 269.87 465.878 269.87C436.923 269.87 437.787 263.387 415.747 263.387C393.707 263.387 405.808 269.87 366.049 269.87C341.914 269.87 327.865 264.727 321.107 260.296C319.07 258.96 320.155 256.473 322.591 256.473Z" fill="#E5E5E5"/>
<path d="M546.039 250.855L546.232 247.725C549.1 219.967 560.935 189.568 588.179 183.006C591.204 182.142 591.379 179.634 592.501 176.956C593.562 174.422 593.824 170.261 593.797 170.042C592.418 157 594.598 164.067 593.054 151.053C591.758 140.263 596.666 121.785 581.914 122.114C562.832 122.526 545.46 128.731 523.758 127.029C517.802 126.562 497.479 121.565 494.694 122.114C489.455 123.103 448.92 157.258 439.985 163.435C415.113 180.65 386.958 194.021 357.839 201.956C358.391 202.917 358.832 203.933 359.356 204.921C366.939 219.088 368.897 231.855 367.877 247.78L367.821 250.855C427.218 250.855 486.642 250.855 546.039 250.855Z" fill="#E5E5E5"/>
<path d="M581.696 251.426C597.664 251.426 613.802 250.939 629.77 251.426C630.767 251.451 631.741 251.28 632.69 251.719C632.423 234.715 630.232 214.881 628.455 197.829C628.455 197.633 628.431 197.463 628.406 197.267C628.406 197.463 628.431 197.633 628.455 197.829L625.875 198.365C601.826 204.196 584.422 223.981 581.891 248.645L581.72 251.426H581.696Z" fill="#E5E5E5"/>
<path d="M425.796 279.251C428.98 281.652 427.825 287.857 434.598 289.759C437.408 290.538 489.942 290.538 492.72 289.759C503.988 286.61 492.72 273.202 510.918 269.461C517.005 268.213 552.402 270.957 557.146 273.795C563.42 277.568 558.02 285.394 568.352 289.322C570.849 290.258 618.139 290.507 621.573 289.728C637.336 286.236 633.934 264.441 633.715 251.626C633.372 229.893 630.563 204.544 628.284 182.749C628.284 182.499 628.253 182.281 628.221 182.032C626.661 167.221 623.321 152.691 621.573 137.912C620.106 125.658 625.662 104.674 608.962 105.048C587.362 105.516 567.697 112.562 543.131 110.629C536.389 110.099 513.384 104.424 510.231 105.048C504.3 106.17 458.415 144.958 448.302 151.974C420.146 171.524 388.276 186.709 355.314 195.72C333.713 201.613 322.039 200.21 309.366 223.283C293.384 252.468 312.644 279.47 342.141 287.919C348.977 289.884 390.898 291.287 397.453 289.728C405.288 287.888 403.197 281.309 407.692 279.376C408.534 279.002 425.047 278.721 425.765 279.251H425.796Z" stroke="#A3A3A3" stroke-width="5" stroke-linecap="round" stroke-linejoin="round"/>
<path d="M356.11 196.835C364.694 212.924 367.83 229.675 366.675 247.759" stroke="#A3A3A3" stroke-width="5" stroke-linecap="round" stroke-linejoin="round"/>
<path d="M416.12 174.192L443.963 204.53" stroke="#A3A3A3" stroke-width="5" stroke-linecap="round" stroke-linejoin="round"/>
<path d="M444.868 156.7L470.589 184.949" stroke="#A3A3A3" stroke-width="5" stroke-linecap="round" stroke-linejoin="round"/>
<path d="M471.212 136.963L497.245 164.65" stroke="#A3A3A3" stroke-width="5" stroke-linecap="round" stroke-linejoin="round"/>
<path d="M497.121 116.695L524.559 145.755" stroke="#A3A3A3" stroke-width="5" stroke-linecap="round" stroke-linejoin="round"/>
<path d="M624.975 183.466C594.135 190.918 571.816 216.205 568.57 247.728" stroke="#A3A3A3" stroke-width="5" stroke-linecap="round" stroke-linejoin="round"/>
<path d="M632.69 251.719H305.116" stroke="#A3A3A3" stroke-width="5" stroke-linecap="round"/>
<path d="M542.109 613.821C542.109 583.743 566.886 559.225 579.274 550.726C586.423 545.108 582.3 533.44 577.546 537.762C572.792 542.083 561.124 556.344 526.551 556.344C491.979 556.344 491.547 547.269 461.728 547.269C431.909 547.269 415.919 592.646 383.507 592.646C306.583 592.646 307.448 606.907 307.448 613.821C317.82 613.821 393.447 611.66 439.256 611.66C485.064 611.66 520.933 613.821 542.109 613.821Z" fill="#E5E5E5"/>
<path d="M578.93 611.117C578.93 611.137 578.946 611.153 578.966 611.152C595.377 610.935 611.825 610.682 628.236 610.465C629.554 610.563 630.648 609.534 630.476 608.224C630.329 607.098 630.147 605.94 630.147 604.818C630.324 581.113 630.092 578.524 623.741 557.481C623.325 556.1 621.863 555.313 620.484 555.733C595.647 560.149 577.093 583.75 578.93 608.583V611.117Z" fill="#E5E5E5"/>
<path d="M639.321 604.028C639.537 574.627 639.234 572.422 630.895 544.492C628.562 536.666 621.433 506.746 617.458 503.115C604.193 490.965 590.366 513.275 578.268 519.415C548.887 534.288 534.456 513.924 514.234 499.353C507.883 494.813 502.655 491.527 494.661 495.289C478.847 502.682 442.898 535.325 425.831 547.777C425.615 547.95 425.399 548.123 425.183 548.253C399.043 567.277 394.463 568.358 362.791 573.849C332.935 578.994 298.239 572.941 297.029 615.312C296.208 644.497 313.059 641.946 336.435 646.226C391.481 656.343 438.448 658.116 493.192 648.474C517.994 644.108 517.389 648.301 539.165 653.922C552.992 657.467 622.038 652.841 632.624 645.491C642.561 638.573 639.71 621.754 640.012 610.945C640.055 608.784 639.407 606.319 639.407 603.984L639.321 604.028Z" stroke="#A3A3A3" stroke-width="5" stroke-linecap="round" stroke-linejoin="round"/>
<path d="M449.075 533.077L457.5 541.033C458.451 541.941 459.401 542.805 460.309 543.713L466.444 549.507" stroke="#A3A3A3" stroke-width="5" stroke-linecap="round" stroke-linejoin="round"/>
<path d="M468.089 515.214L476.515 523.169C477.466 524.077 478.416 524.942 479.323 525.85L485.459 531.644" stroke="#A3A3A3" stroke-width="5" stroke-linecap="round" stroke-linejoin="round"/>
<path d="M637.074 610.729C617.76 610.989 598.403 611.291 579.089 611.551L300.227 615.312" stroke="#A3A3A3" stroke-width="5" stroke-linecap="round" stroke-linejoin="round"/>
<path d="M627.957 545.4C598.749 550.674 576.929 578.864 579.089 608.524" stroke="#A3A3A3" stroke-width="5" stroke-linecap="round" stroke-linejoin="round"/>
<path d="M424.787 550.674C427.596 553.312 430.404 555.906 433.213 558.543L440.515 565.331" stroke="#A3A3A3" stroke-width="5" stroke-linecap="round" stroke-linejoin="round"/>
<path d="M336.469 623.617L620.723 620.66C636.713 620.494 594.794 638.379 572.754 638.379C550.714 638.379 539.91 628.871 510.955 628.871C482.001 628.871 469.036 638.379 410.695 638.379C372.347 638.379 347.516 631.766 335.724 626.69C333.907 625.909 334.492 623.637 336.469 623.617Z" fill="#E5E5E5"/>
</svg>
