<svg viewBox="0 0 760 760" fill="none" xmlns="http://www.w3.org/2000/svg">
<rect width="760" height="760" fill="white"/>
<path d="M618.798 398.382C618.637 398.179 618.41 398.03 618.248 397.834L608.309 398.662C613.228 414.915 613.587 433.341 613.276 450.38C613.132 458.129 612.756 477.782 611.065 484.494C608.226 495.786 586.088 497.668 576.556 498.526C544.324 501.426 501.622 497.216 471.099 502.379C464.86 503.433 468.38 506.322 467.442 511.682C456.732 511.664 446.028 511.64 435.318 511.622C437.404 472.291 426.114 430.798 461.16 402.795C485.969 382.969 551.693 386.971 583.734 388.49C586.011 388.597 598.239 391.301 598.92 389.865V382.325C606.528 386.453 612.696 391.152 618.242 397.84C618.41 398.042 618.631 398.191 618.792 398.388L618.798 398.382Z" fill="#E5E5E5"/>
<path d="M598.92 382.32V389.859C598.239 391.295 586.017 388.591 583.734 388.484C551.693 386.965 485.969 382.963 461.161 402.789C426.12 430.792 437.404 472.285 435.318 511.616L416.486 511.581H415.93L415.948 511.003C417.185 456.866 404.712 380.86 481.313 374.178C505.542 372.064 579.437 371.754 598.92 382.32Z" fill="white"/>
<path d="M618.799 398.382C643.715 429.113 632.545 475.168 635.276 511.378L634.715 511.98L467.449 511.67C468.387 506.316 464.867 503.421 471.106 502.367C501.628 497.204 544.331 501.414 576.563 498.514C586.095 497.656 608.232 495.78 611.071 484.482C612.757 477.77 613.139 458.117 613.283 450.369C613.593 433.33 613.229 414.903 608.316 398.65L618.255 397.822C618.422 398.025 618.644 398.173 618.805 398.37L618.799 398.382Z" fill="#E5E5E5"/>
<path d="M645.299 522.73C648.001 525.38 650.893 527.816 653.583 530.43C653.768 540.328 650.003 535.903 648.616 537.309C648.234 537.696 645.754 545.164 644.2 547.213C636.753 557.022 619.475 558.32 608.035 559.595C581.5 562.549 554.527 561.93 527.979 563.996C515.644 564.955 503.47 568.052 490.984 567.849L490.71 575.991C465.65 575.907 430.52 578.546 406.787 575.77C407.181 568.362 405.071 562.418 408.442 555.468C409.859 552.549 432.498 530.901 434.667 530.436H642.819C644.122 528.667 641.349 523.111 644.749 522.182C644.935 522.366 645.114 522.551 645.299 522.73Z" fill="#E5E5E5"/>
<path d="M645.298 522.73C645.113 522.545 644.933 522.36 644.748 522.182C641.348 523.105 644.115 528.667 642.818 530.436H434.66C432.491 530.901 409.851 552.549 408.435 555.468C405.064 562.412 407.168 568.362 406.779 575.77C389.8 573.787 370.496 558.839 385.246 541.99C394.42 531.508 408.19 523.694 415.935 511.581H416.491L435.323 511.616C446.033 511.634 456.737 511.658 467.447 511.676L634.714 511.986L635.275 511.384V511.986C638.132 515.66 641.425 518.9 644.748 522.182C644.933 522.366 645.113 522.551 645.298 522.73Z" fill="white"/>
<path d="M490.701 575.991L490.976 567.849C503.461 568.052 515.63 564.955 527.971 563.996C554.525 561.93 581.497 562.549 608.027 559.595C619.466 558.32 636.745 557.028 644.191 547.213C645.745 545.164 648.226 537.696 648.608 537.309C650.001 535.903 653.76 540.328 653.575 530.43C663.269 539.87 680.111 548.899 667.93 563.99C660.322 573.418 651.1 575.324 639.769 575.985C592.649 578.724 538.556 576.146 490.695 575.985L490.701 575.991Z" fill="#E5E5E5"/>
<path d="M635.27 511.986V511.384C632.544 475.18 643.714 429.119 618.798 398.388C618.637 398.185 618.41 398.036 618.248 397.84C612.702 391.152 606.534 386.453 598.926 382.325C579.443 371.76 505.554 372.07 481.319 374.184C404.718 380.86 417.191 456.866 415.954 511.003L415.936 511.581" stroke="#A3A3A3" stroke-width="5" stroke-linecap="round" stroke-linejoin="round"/>
<path d="M415.936 511.581H416.491L435.324 511.616C446.034 511.634 456.738 511.658 467.448 511.676L634.714 511.986H635.269" stroke="#A3A3A3" stroke-width="5" stroke-linecap="round" stroke-linejoin="round"/>
<path d="M415.935 511.581C408.184 523.694 394.42 531.502 385.246 541.99C370.496 558.844 389.8 573.787 406.779 575.77C430.512 578.546 465.643 575.907 490.702 575.991C538.563 576.152 592.656 578.73 639.776 575.991C651.101 575.33 660.329 573.424 667.937 563.996C680.117 548.899 663.276 539.876 653.582 530.436C650.892 527.816 647.999 525.386 645.298 522.735C645.113 522.551 644.933 522.366 644.748 522.188C641.425 518.906 638.132 515.666 635.269 511.991" stroke="#A3A3A3" stroke-width="5" stroke-linecap="round" stroke-linejoin="round"/>
<path d="M576.554 275.583C535.77 273.611 468.58 284.156 451.628 286.986C434.676 289.817 433.959 290.514 433.959 290.514C447.354 310.359 494.463 342.78 519.068 342.013C527.548 341.744 561.041 317.525 571.597 311.827C581.199 306.644 591.215 302.036 601.687 298.962C601.855 298.915 602.011 298.801 602.179 298.753C611.085 296.194 620.543 294.391 629.959 295.745L629.665 291.317C611.427 286.278 595.788 276.511 576.554 275.583Z" fill="#E5E5E5"/>
<path d="M365.923 294.816C366.817 297.141 367.61 296.41 369.854 297.68L448.798 281.639C435.914 216.952 437.562 190.167 468.58 172.447C451.092 172.896 427.478 179.427 411.97 187.6C408.244 189.565 399.641 195.007 392.713 201.003C377.093 214.522 362.07 224.712 362.07 244.12C362.07 263.528 364.423 290.928 365.923 294.816Z" fill="#E5E5E5"/>
<path d="M583.619 265.662C581.505 265.366 578.901 265.888 576.649 265.75L566.862 206.105C558.967 186.177 513.193 165.872 493.145 168.483C481.659 169.98 462.449 185.114 454.913 193.87C453.623 195.368 448.515 204.583 447.88 204.577C447.691 204.577 446.301 202.18 444.27 203.35C448.924 189.19 458.85 177.635 470.821 169.093C476.753 164.86 483.584 161.45 490.654 159.683L490.912 158.494C492.755 158.632 494.655 158.443 496.485 158.632C496.649 158.651 496.819 158.626 496.982 158.638C497.278 158.67 497.593 158.582 497.888 158.613C498.247 158.651 498.612 158.651 498.964 158.695C499.171 158.72 499.366 158.789 499.574 158.815C522.565 161.702 553.161 173.603 567.723 192.342C577.631 205.086 580.512 245.3 582.914 262.687C583.053 263.712 583.424 264.662 583.625 265.662H583.619Z" fill="white"/>
<path d="M583.41 264.141C546.229 261.863 502.72 271.393 466.11 278.494L465.708 275.995C465.41 255.965 454.561 225.364 460.784 206.496C462.666 205.409 463.948 207.623 464.129 207.629C464.723 207.64 469.454 199.121 470.643 197.738C477.629 189.649 495.424 175.668 506.058 174.285C524.629 171.874 567.03 190.632 574.343 209.041L583.41 264.141Z" fill="#E5E5E5"/>
<path d="M423.006 286.986C437.046 307.82 487.852 344.253 513.643 343.448C522.525 343.171 557.637 317.74 568.702 311.757C578.767 306.316 589.259 301.485 600.242 298.252C600.418 298.202 600.581 298.082 600.757 298.032C610.099 295.346 620.006 293.453 629.875 294.874C637.902 296.032 645.589 299.353 652.829 302.831L653.414 303.115L653.999 303.398" stroke="#A3A3A3" stroke-width="5" stroke-linecap="round" stroke-linejoin="round"/>
<path d="M498.957 158.701L497.881 158.62C497.579 158.588 497.271 158.676 496.975 158.645C494.849 158.821 492.729 159.173 490.647 159.689C483.577 161.45 476.752 164.86 470.814 169.099C458.843 177.641 448.917 189.197 444.262 203.356C437.544 223.781 449.42 258.692 449.741 280.381" stroke="#A3A3A3" stroke-width="5" stroke-linecap="round" stroke-linejoin="round"/>
<path d="M582.907 265.59C580.51 248.21 577.623 205.086 567.716 192.342C553.154 173.603 522.558 161.702 499.567 158.815L496.478 158.632C494.641 158.443 492.748 158.632 490.905 158.494C481.595 157.789 470.556 157.67 461.177 157.758C454.547 157.821 449.785 157.091 442.985 158.173C424.146 161.173 402.117 170.577 387.014 182.303C369.237 196.104 351.731 217.635 349.083 240.664C348.454 246.124 351.549 289.804 353.122 293.887C354.065 296.327 354.688 297.327 357.034 298.661C362.695 301.869 412.408 288.842 422.491 286.791C427.178 285.835 431.87 284.904 436.563 283.979C441.255 283.055 445.533 282.161 450.024 281.287C489.54 273.6 536.516 263.284 576.654 265.75C578.906 265.888 581.511 265.36 583.624 265.662C593.84 267.102 645.854 286.546 651.773 293.283C654.12 295.95 653.692 298.818 653.906 302.064L653.994 303.398" stroke="#A3A3A3" stroke-width="5" stroke-linecap="round" stroke-linejoin="round"/>
<path d="M600.395 298.623C614.202 307.015 639.47 314.726 653.422 303.769L653.994 303.398" stroke="#A3A3A3" stroke-width="5" stroke-linecap="round" stroke-linejoin="round"/>
<path d="M460.434 156.462C453.408 150.448 445.362 149.385 439.676 158.035" stroke="#A3A3A3" stroke-width="5" stroke-linecap="round" stroke-linejoin="round"/>
<path d="M255.964 431.56C229.789 431.56 179.048 430.412 156.949 429.838C135.424 429.838 137.146 473.749 165.559 473.749C193.972 473.749 230.995 460.834 252.52 460.834C274.045 460.834 274.045 457.39 336.037 473.749C398.029 490.108 363.589 429.838 348.952 429.838C334.315 429.838 288.682 431.56 255.964 431.56Z" fill="#E5E5E5"/>
<path d="M302.471 410.743C302.255 353.615 283.832 320.382 270.134 306.06C269.303 305.192 268.14 306.354 268.759 307.384C285.967 335.96 269.009 385.859 256.714 410.313C256.377 410.983 256.864 411.757 257.613 411.757H301.487C302.039 411.757 302.473 411.296 302.471 410.743Z" fill="#E5E5E5"/>
<path d="M348.963 411.603C348.667 348.242 320.656 317.505 303.28 307.886C302.334 307.363 301.539 308.508 302.254 309.319C330.928 341.833 330.498 389.761 326.348 411.433C326.229 412.055 326.703 412.618 327.337 412.618H347.967C348.52 412.618 348.966 412.155 348.963 411.603Z" fill="#E5E5E5"/>
<path d="M139.926 413.479H164.572C165.124 413.479 165.572 413.015 165.573 412.463C165.696 352.433 176.751 325.289 185.872 308.685C186.38 307.759 185.331 306.807 184.487 307.442C151.17 332.506 140.28 386.745 138.93 412.457C138.9 413.026 139.356 413.479 139.926 413.479Z" fill="#E5E5E5"/>
<path d="M222.21 283.777L222.313 284.57C216.372 287.531 208.262 292.801 203.233 297.106C202.665 293.558 199.531 293.972 197.172 294.557C187.753 296.865 166.572 313.568 159.804 321.059C135.128 348.387 136.42 378.849 137.642 413.875L133.733 413.926C130.513 428.718 117.185 440.221 112.518 454.566C109.901 462.642 111.451 468.651 111.244 476.865C80.1792 461.212 117.512 432.266 122.523 413.806C125.072 404.455 121.266 379.779 123.367 366.743C130.823 320.508 174.304 289.098 218.869 283.898C219.954 283.777 221.091 283.898 222.193 283.795L222.21 283.777Z" fill="white"/>
<path d="M252.423 283.456C246.004 282.678 239.572 282.864 233.153 283.305C232.923 283.317 232.693 283.34 232.452 283.363C231.908 283.398 231.315 283.34 230.759 283.398C229.997 283.468 229.2 283.386 228.426 283.468L228.631 281.622C226.407 268.017 254.612 268.005 252.411 281.622V283.456H252.423Z" fill="#E5E5E5"/>
<path d="M225.602 283.64C234.763 282.986 243.924 282.71 253.051 283.864C254.962 284.105 256.891 284.26 258.785 284.587C259.043 284.639 259.319 284.656 259.577 284.708C307.535 293.128 347.055 328.033 350.12 378.247C350.688 387.459 347.778 405.489 349.534 413.221C349.586 413.427 349.603 413.634 349.655 413.84C353.305 427.169 374.934 446.076 373.367 461.919C370.043 495.412 295.067 471.803 275.385 468.944C251.759 465.518 230.165 464.743 206.401 467.67C183.327 470.512 130.754 486.698 111.226 476.866C80.1616 461.213 117.495 432.266 122.506 413.806C125.054 404.456 121.249 379.779 123.349 366.744C130.806 320.508 174.286 289.099 218.852 283.898C219.936 283.778 221.073 283.898 222.175 283.795C222.967 283.709 223.811 283.795 224.586 283.743C223.828 284.002 223.019 284.208 222.278 284.587C216.337 287.549 208.227 292.818 203.199 297.123C168.414 327.017 166.003 368.397 165.521 410.81" stroke="#A3A3A3" stroke-width="5" stroke-linecap="round" stroke-linejoin="round"/>
<path d="M259.422 286.051C262.384 289.512 268.049 296.193 271.579 299.672C304.263 331.976 306.14 367.553 306.708 410.809" stroke="#A3A3A3" stroke-width="5" stroke-linecap="round" stroke-linejoin="round"/>
<path d="M253.05 281.143C256.184 260.944 216.01 260.961 219.178 281.143" stroke="#A3A3A3" stroke-width="5" stroke-linecap="round" stroke-linejoin="round"/>
<path d="M124.244 413.479H348.965" stroke="#A3A3A3" stroke-width="5" stroke-linecap="round"/>
</svg>
