<svg viewBox="0 0 760 760" fill="none" xmlns="http://www.w3.org/2000/svg">
<rect width="760" height="760" fill="white"/>
<rect x="480.218" y="279.857" width="12.8302" height="64.1508" rx="6.41508" fill="#E5E5E5"/>
<rect width="12.8302" height="64.1508" rx="6.41508" transform="matrix(-1 0 0 1 626.802 279.857)" fill="#E5E5E5"/>
<path d="M507.95 334.093C505.457 320.805 501.477 292.59 510.689 284.348C522.878 273.442 547.255 289.519 547.255 322.878V405.593C547.255 410.198 543.521 413.932 538.915 413.932C534.309 413.932 530.576 410.198 530.576 405.593V352.178C530.576 347.006 526.632 342.687 521.481 342.219L516.566 341.772C512.288 341.383 508.742 338.315 507.95 334.093Z" fill="#E5E5E5"/>
<path d="M599.069 334.093C601.563 320.805 605.543 292.59 596.331 284.348C584.142 273.442 559.765 289.519 559.765 322.878V405.593C559.765 410.198 563.498 413.932 568.104 413.932C572.71 413.932 576.444 410.198 576.444 405.593V352.178C576.444 347.006 580.388 342.687 585.538 342.219L590.453 341.772C594.731 341.383 598.277 338.315 599.069 334.093Z" fill="#E5E5E5"/>
<path d="M532.992 282.036C521.188 270.233 494.288 268.992 482.313 269.848C467.558 269.848 470.124 290.055 470.124 307.055C470.124 324.055 468.841 344.583 480.709 343.942C490.203 343.429 512.25 341.804 522.086 341.055V407.451C522.086 428.493 546.464 429.263 546.464 407.451V336.565C546.891 323.307 544.796 293.84 532.992 282.036Z" stroke="#A3A3A3" stroke-width="5" stroke-linejoin="round"/>
<path d="M574.028 282.036C585.831 270.233 612.732 268.992 624.707 269.848C639.462 269.848 636.895 290.055 636.895 307.055C636.895 324.055 638.179 344.583 626.311 343.942C616.816 343.429 594.77 341.804 584.933 341.055V407.451C584.933 428.493 560.556 429.263 560.556 407.451V336.565C560.128 323.307 562.224 293.84 574.028 282.036Z" stroke="#A3A3A3" stroke-width="5" stroke-linejoin="round"/>
<path d="M492.406 269.633L492.406 342.765" stroke="#A3A3A3" stroke-width="5" stroke-linejoin="round"/>
<path d="M614.613 269.633L614.613 342.765" stroke="#A3A3A3" stroke-width="5" stroke-linejoin="round"/>
<path d="M522.557 388.953L546.292 388.953" stroke="#A3A3A3" stroke-width="5" stroke-linejoin="round"/>
<path d="M584.462 388.953L560.726 388.953" stroke="#A3A3A3" stroke-width="5" stroke-linejoin="round"/>
<path d="M419.018 400.812C492.469 395.164 545.536 453.698 542.92 524.857C541.733 525.628 540.833 525.16 539.601 525.061C536.902 524.85 530.755 524.623 529.477 522.279C528.971 521.357 528.925 504.943 528.366 501.253C510.992 386.78 344.336 386.893 326.742 500.633C326.175 504.285 325.926 522.007 325.261 522.899C323.461 525.303 317.761 523.935 315.13 525.031L312.219 525.439C309.671 459.678 351.034 406.036 419.018 400.812Z" fill="#E5E5E5"/>
<path d="M491.387 536.259C493.489 535.941 500.112 536.017 502.516 536.138C502.72 536.145 502.924 536.251 503.136 536.259C502.924 536.243 502.728 536.145 502.516 536.138C500.989 543.237 511.543 541.861 513.033 548.567V636.39C511.264 642.378 502.834 642.907 504.376 649.318C494.51 650.112 482.254 650.914 478.769 639.172L478.89 546.397C480.213 539.479 485.089 537.211 491.379 536.251L491.387 536.259Z" fill="#E5E5E5"/>
<path d="M354.702 536.258C363.623 536.258 372.635 534.807 375.856 545.785L376.227 636.7C373.898 651.201 361.907 650.067 350.377 649.19C351.337 641.932 343.172 643.988 341.72 635.77C340.261 627.483 340.171 556.437 341.72 548.559C343.24 540.81 352.925 543.796 352.237 536.372C353.054 536.326 353.9 536.251 354.709 536.251L354.702 536.258Z" fill="#E5E5E5"/>
<path d="M327.794 569.29C329.101 569.147 330.493 569.381 331.816 569.404C331.423 584.563 331.46 600.379 331.816 615.538C325.382 615.062 316.793 617.33 311.402 614.124C310.608 612.143 310.631 573.441 311.402 571.445C312.174 569.449 324.369 569.653 327.794 569.283V569.29Z" fill="#E5E5E5"/>
<path d="M522.93 570.024C526.967 570.508 542.043 568.119 543.343 572.073C543.986 574.038 543.986 611.546 543.343 613.512C542.043 617.481 526.967 615.054 522.93 615.561C523.262 600.47 523.255 585.115 522.93 570.024Z" fill="#E5E5E5"/>
<path d="M522.929 629.283C521.901 645.183 520.76 647.995 504.376 649.318C494.51 650.112 482.254 650.913 478.769 639.172L478.89 546.397C480.213 539.479 485.089 537.211 491.379 536.251C493.481 535.933 500.104 536.009 502.509 536.13C502.713 536.137 502.917 536.243 503.128 536.251C528.691 537.702 522.491 549.905 522.922 570.016C523.247 585.107 523.255 600.462 522.922 615.553C522.824 620.097 523.217 624.769 522.922 629.275L522.929 629.283Z" stroke="#A3A3A3" stroke-width="5" stroke-linecap="round" stroke-linejoin="round"/>
<path d="M331.815 555.061C333.327 537.634 335.694 537.234 352.229 536.379C353.045 536.334 353.892 536.258 354.701 536.258C363.622 536.258 372.635 534.807 375.855 545.785L376.226 636.7C373.897 651.201 361.906 650.067 350.376 649.19C326.591 647.39 332.261 634.114 331.823 615.53C331.468 600.364 331.43 584.555 331.823 569.396C331.944 564.746 331.43 559.567 331.823 555.054L331.815 555.061Z" stroke="#A3A3A3" stroke-width="5" stroke-linecap="round" stroke-linejoin="round"/>
<path d="M525.401 560.603C535.616 561.382 545.58 557.436 552.12 568.05C554.381 571.725 554.23 614.245 551.871 618.146C546.049 627.801 534.459 623.802 525.401 625.042" stroke="#A3A3A3" stroke-width="5" stroke-linecap="round" stroke-linejoin="round"/>
<path d="M329.343 560.581C318.872 561.919 309.587 556.77 302.873 568.05C301.392 570.538 300.583 610.54 301.513 614.434C304.733 627.945 319.166 624.21 329.343 624.988" stroke="#A3A3A3" stroke-width="5" stroke-linecap="round" stroke-linejoin="round"/>
<path d="M313.943 558.154C313.481 547.244 312.642 536.349 312.219 525.439C309.671 459.678 351.034 406.036 419.018 400.812C492.469 395.164 545.536 453.698 542.92 524.857C542.512 535.956 541.226 547.047 540.735 558.146" stroke="#A3A3A3" stroke-width="5" stroke-linecap="round" stroke-linejoin="round"/>
<path d="M539.608 525.061C536.909 524.85 530.762 524.623 529.484 522.279C528.978 521.357 528.932 504.943 528.373 501.253C510.991 386.78 344.335 386.893 326.742 500.633C326.175 504.285 325.925 522.007 325.26 522.899C323.461 525.303 317.76 523.935 315.129 525.031" stroke="#A3A3A3" stroke-width="5" stroke-linecap="round" stroke-linejoin="round"/>
<path d="M316.391 126.797C298.179 120.499 277.859 117.699 258.556 119.188V119.198C219.764 122.175 181.616 146.512 161.877 179.78C146.491 205.71 143.312 232.951 146.315 262.846C150.065 260.202 153.151 260.671 157.213 259.89C156.911 258.579 157.4 257.381 157.597 256.153C162.241 226.747 154.657 213.798 173.326 184.163C236.116 84.504 386.079 141.661 372.231 256.726L371.597 259.234L392.541 266.687C397.902 207.594 383.16 158.93 328.369 127.734C328.774 134.979 319.933 128.025 316.391 126.797Z" fill="#E5E5E5"/>
<path d="M391.336 338.106C396.406 329.768 392.905 296.906 393.134 284.217C382.225 274.328 369.321 268.766 351.422 268.03V258.599C344.171 259.411 339.267 255.685 332.151 259.078C330.468 259.88 330.343 263.471 326.021 262.003C323.227 290.296 327.912 323.366 326.25 352.148C329.938 362.776 347.921 361.86 351.474 351.19L352.097 351.075C367.733 348.973 381.352 354.511 391.336 338.106Z" fill="#E5E5E5"/>
<path d="M193.709 257.912C196.701 257.652 200.451 259.151 203.703 258.495L203.474 352.731C199.454 362.619 181.647 361.402 178.583 351.253L177.949 351.128C163.81 348.848 151.031 354.178 140.497 341.02L144.933 339.552C146.699 322.263 142.564 300.06 144.933 283.363C147.385 266.052 164.381 267.479 177.907 267.822C177.928 270.372 177.949 272.912 177.97 275.462C192.618 277.055 177.72 259.307 193.709 257.902V257.912Z" fill="#E5E5E5"/>
<path d="M393.788 272.933C393.559 285.622 396.416 329.768 391.346 338.106C381.363 354.511 367.743 348.973 352.108 351.076L351.484 351.19" stroke="#A3A3A3" stroke-width="5" stroke-linecap="round" stroke-linejoin="round"/>
<path d="M351.433 257.423C358.279 257.704 364.865 257.631 371.618 259.245C380.823 261.452 381.217 262.742 388.209 267.687C388.334 267.77 388.407 267.916 388.531 267.999C389.508 268.686 390.38 269.717 391.388 270.477C392.292 271.153 393.227 271.84 394.11 272.548C400.749 277.878 405.642 276.597 407.595 287.183C408.021 289.526 407.958 316.215 407.481 318.203C405.964 324.449 400.219 327.811 394.941 330.746" stroke="#A3A3A3" stroke-width="5" stroke-linecap="round" stroke-linejoin="round"/>
<path d="M136.186 274.557L135.459 329.466C136.633 333.359 137.921 337.804 140.498 341.02C151.032 354.177 163.81 348.848 177.949 351.127L178.583 351.252" stroke="#A3A3A3" stroke-width="5" stroke-linecap="round" stroke-linejoin="round"/>
<path d="M177.825 257.257C171.03 258.443 163.976 258.589 157.203 259.89C153.141 260.671 150.055 260.202 146.305 262.846C142.908 265.23 140.477 270.352 137.287 272.787C130.451 278.002 124.478 275.358 122.379 287.183C121.932 289.723 121.984 316.142 122.493 318.203C124.01 324.355 127.626 326.916 132.955 329.695" stroke="#A3A3A3" stroke-width="5" stroke-linecap="round" stroke-linejoin="round"/>
<path d="M351.485 351.19C347.932 361.86 329.948 362.776 326.26 352.148C327.923 323.366 323.237 290.296 326.032 262.003C326.416 258.069 325.471 255.529 329.065 252.291C334.073 247.784 349.386 249.294 351.433 257.423" stroke="#A3A3A3" stroke-width="5" stroke-linecap="round" stroke-linejoin="round"/>
<path d="M351.433 257.423V258.6V268.03C351.453 295.75 351.464 323.46 351.485 351.18" stroke="#A3A3A3" stroke-width="6.19" stroke-linecap="round" stroke-linejoin="round"/>
<path d="M177.824 257.257C182.468 247.659 202.103 246.129 203.703 258.495L203.474 352.731C199.454 362.619 181.647 361.402 178.583 351.253" stroke="#A3A3A3" stroke-width="5" stroke-linecap="round" stroke-linejoin="round"/>
<path d="M177.824 257.257L177.907 267.832C177.928 270.383 177.949 272.923 177.97 275.473L178.572 351.263" stroke="#A3A3A3" stroke-width="6.19" stroke-linecap="round" stroke-linejoin="round"/>
<path d="M157.598 258.225C162.241 228.818 154.658 213.787 173.326 184.152C236.117 84.4937 386.08 142.702 372.242 257.777" stroke="#A3A3A3" stroke-width="5" stroke-linecap="round" stroke-linejoin="round"/>
<path d="M391.502 269.81C396.863 210.717 383.16 158.931 328.369 127.734C259.221 88.3659 171.518 121.426 142.949 195.863C134.357 218.263 137.152 247.253 137.495 270.851" stroke="#A3A3A3" stroke-width="6" stroke-linecap="round" stroke-linejoin="round"/>
</svg>
