<svg viewBox="0 0 760 760" fill="none" xmlns="http://www.w3.org/2000/svg">
<rect width="760" height="760" fill="white"/>
<path d="M228.364 295.356C222.342 298.789 216.809 303.025 211.757 307.791C211.129 307.4 209.392 307.923 209.057 307.442C207.927 305.844 209.51 272.851 209.636 268.239C212.49 268.706 227.212 267.227 227.98 269.202C229.647 273.507 226.424 289.766 228.364 295.349V295.356Z" fill="#E5E5E5"/>
<path d="M343.08 311.238C337.115 305.049 331.619 300.614 324.153 296.367L324.55 268.343L343.116 268.141L343.073 311.238H343.08Z" fill="#E5E5E5"/>
<path d="M179.853 428.567C179.819 442.971 179.621 457.408 179.819 471.803C155.658 471.613 161.227 445.169 160.822 428.542H177.949L179.853 428.567Z" fill="#E5E5E5"/>
<path d="M179.854 406.157C179.777 411.682 179.906 417.216 179.854 422.749C177.217 423.198 161.417 424.051 160.771 422.586C160.426 421.81 160.883 415.638 161.245 414.475C162.193 411.492 166.451 410.665 165.063 407.079C169.287 406.036 173.717 407.838 177.941 406.484L179.854 406.165V406.157Z" fill="#E5E5E5"/>
<path d="M381.663 406.89C381.129 410.932 386.18 411.544 387.387 415.431C388.016 417.448 387.826 420.008 387.861 422.112L368.674 422.741C368.648 417.543 368.82 412.337 368.768 407.139H370.691C373.854 407.2 378.681 406.424 381.663 406.898V406.89Z" fill="#E5E5E5"/>
<path d="M368.536 471.45C368.777 457.158 368.648 442.824 368.657 428.533L370.691 428.55H387.327C388.533 444.91 391.585 471.381 368.536 471.45Z" fill="#E5E5E5"/>
<path fill-rule="evenodd" clip-rule="evenodd" d="M262.984 340.731V340.731C262.611 354.672 262.278 367.128 263.161 368.386C263.792 369.287 265.389 368.316 266.159 367.848C266.378 367.715 266.531 367.622 266.574 367.626C266.971 367.65 267.679 367.701 268.612 367.768L268.613 367.768C274.885 368.22 291.351 369.407 292.304 368.111C292.649 351.093 292.816 334.066 292.983 317.043L292.983 317.04L292.983 317.032C293.036 311.652 293.088 306.273 293.147 300.895C329.666 305.864 360.811 339.302 363.673 376.009C365.336 397.306 364.571 419.918 363.809 442.452V442.453C363.2 460.455 362.593 478.407 363.227 495.6C361.298 498.327 359.028 500.512 355.826 501.645C331.683 500.689 307.088 501.278 282.523 501.867H282.523C258.012 502.454 233.53 503.04 209.553 502.09C202.525 501.815 197.629 500.755 195.416 493.359C196.362 475.346 195.886 456.599 195.411 437.844C194.872 416.592 194.333 395.328 195.861 375.111C198.626 338.606 226.885 308.251 262.488 300.984V300.976C263.931 305.335 263.429 324.091 262.984 340.731ZM324.403 413.276V459.313C320.903 466.226 318.231 466.7 311.051 467.183C297.533 468.091 283.501 467.692 269.465 467.293H269.465C256.724 466.93 243.979 466.568 231.614 467.183C227.657 465.856 225.072 463.27 223.744 459.313V413.276C234.93 413.276 246.115 413.254 257.301 413.232C279.67 413.188 302.038 413.144 324.403 413.276ZM320.351 397.063H228.277H228.269C223.009 397.899 223.413 401.907 223.838 406.115C223.887 406.596 223.936 407.08 223.976 407.562L324.402 406.846C324.41 406.638 324.419 406.429 324.427 406.222C324.586 402.327 324.73 398.782 320.351 397.063Z" fill="#E5E5E5"/>
<path d="M272.927 340.398C277.202 338.89 279.891 345.674 275.314 347.294C270.737 348.915 268.479 341.967 272.927 340.398Z" stroke="#A3A3A3" stroke-width="5" stroke-linecap="round" stroke-linejoin="round"/>
<path d="M220.408 413.276H223.753C257.3 413.276 290.856 413.078 324.403 413.276C325.36 413.276 326.316 413.276 327.273 413.276" stroke="#A3A3A3" stroke-width="5" stroke-linecap="round" stroke-linejoin="round"/>
<path d="M218.503 410.898C218.745 404.209 216.926 398.46 223.27 393.814C231.26 387.97 305.017 394.745 319.645 391.909C332.669 394.012 328.919 404.442 329.333 413.354C330.074 429.49 336.117 468.459 315.826 472.156C307.733 473.63 241.233 473.786 232.812 472.441C226.778 471.476 222.115 468.605 219.451 462.899C217.512 458.744 218.236 418.345 218.495 410.898H218.503Z" stroke="#A3A3A3" stroke-width="5" stroke-linecap="round" stroke-linejoin="round"/>
<path d="M288.598 282.906C266.575 281.053 247.767 281.898 228.045 293.155C220.607 297.396 213.772 302.628 207.531 308.515C177.061 337.269 180.362 368.507 179.862 406.157C179.785 411.682 179.914 417.216 179.862 422.749C179.845 424.689 179.862 426.637 179.862 428.576C179.828 442.979 179.63 457.417 179.828 471.812C180.043 487.473 174.958 504.73 196.567 507.272L354.959 506.798C372.422 503.04 367.682 490.818 367.983 478.604C367.983 478.414 368.018 478.225 368.018 478.035C368.07 475.837 368.509 473.665 368.544 471.458C368.785 457.167 368.656 442.833 368.664 428.542C368.664 426.611 368.69 424.68 368.682 422.749C368.656 417.552 368.828 412.346 368.776 407.148C368.371 369.325 371.655 341.062 342.745 311.109C335.617 303.722 329.049 298.43 320.128 293.362C314.585 290.215 297.26 283.01 291.287 282.294L288.606 282.923L288.598 282.906Z" stroke="#A3A3A3" stroke-width="5" stroke-linecap="round" stroke-linejoin="round"/>
<path d="M370.69 428.55H387.326H390.257" stroke="#A3A3A3" stroke-width="5" stroke-linecap="round" stroke-linejoin="round"/>
<path d="M157.435 428.55H177.949" stroke="#A3A3A3" stroke-width="5" stroke-linecap="round" stroke-linejoin="round"/>
<path d="M370.69 407.139C373.854 407.191 378.681 406.424 381.663 406.889C387.567 407.82 391.248 409.915 392.825 416.147C393.446 418.603 393.446 452.719 392.92 456.219C391.118 468.209 381.309 476.208 369.785 478.061" stroke="#A3A3A3" stroke-width="5" stroke-linecap="round" stroke-linejoin="round"/>
<path d="M177.94 406.476C173.725 407.829 169.286 406.036 165.062 407.07C158.856 408.605 156.641 411.32 155.521 417.569C154.685 422.232 154.9 452.995 155.9 457.641C158.15 468.071 166.804 477.233 177.931 477.302" stroke="#A3A3A3" stroke-width="5" stroke-linecap="round" stroke-linejoin="round"/>
<path d="M290.779 282.096C290.58 276.743 292.39 269.08 287.676 265.288C284.245 262.53 263.351 262.495 260.007 265.193C255.706 268.658 257.524 275.778 257.145 280.648" stroke="#A3A3A3" stroke-width="5" stroke-linecap="round" stroke-linejoin="round"/>
<path d="M299.131 283.035C299.691 269.615 299.985 257.392 283.383 254.884C278.789 254.186 262.533 254.574 258.576 256.41C246.845 261.866 248.5 272.192 249.086 283.027" stroke="#A3A3A3" stroke-width="5" stroke-linecap="round" stroke-linejoin="round"/>
<path d="M232.846 288.759C231.656 282.734 234.432 260.013 230.906 256.315C229.82 255.177 228.545 254.798 227.088 254.41C226.002 254.117 205.746 254.117 204.669 254.41C202.427 255.013 201.066 255.66 199.798 257.746C196.385 263.409 200.997 304.705 198.937 314.04" stroke="#A3A3A3" stroke-width="5" stroke-linecap="round" stroke-linejoin="round"/>
<path d="M348.745 314.523V259.659C348.521 257.832 347.297 256.573 345.883 255.556C343.021 253.496 319.318 253.66 316.784 256.324C313.06 260.228 316.353 282.656 314.818 288.767" stroke="#A3A3A3" stroke-width="5" stroke-linecap="round" stroke-linejoin="round"/>
<path d="M260.369 284.518V358.215H288.383V283.225" stroke="#A3A3A3" stroke-width="5" stroke-linecap="round" stroke-linejoin="round"/>
<path d="M462.261 418.598C453.637 422.363 445.306 428.592 439.11 435.572C439.088 434.654 439.095 433.737 439.095 432.805C439.08 420.426 438.64 413.98 439.66 401.631C443.092 401.703 459.995 400.214 461.542 401.905L462.107 417.528L462.261 418.598Z" fill="#E5E5E5"/>
<path d="M581.995 438.158C576.677 432.327 567.012 425.037 559.662 421.888L559.887 420.723L560.997 401.094H582.184C583.642 402.352 582.496 432.931 582.67 437.691L582.002 439.882L581.995 438.158Z" fill="#E5E5E5"/>
<path d="M523.46 412.299C516.555 411.685 505.431 411.678 498.534 412.299L498.669 411.219C495.711 391.221 525.542 390.592 523.316 410.745L523.452 412.299H523.46Z" fill="#E5E5E5"/>
<path d="M461.702 418.075L460.982 390.058C459.008 387.871 437.45 389.796 433.072 389.703C431.772 405.679 432.333 421.823 432.352 437.837" fill="white"/>
<path d="M461.702 418.075L460.982 390.058C459.008 387.871 437.45 389.796 433.072 389.703C431.772 405.679 432.333 421.823 432.352 437.837" stroke="#A3A3A3" stroke-width="5" stroke-linecap="round" stroke-linejoin="round"/>
<path d="M413.776 635.992C413.711 635.823 413.842 635.571 413.776 635.393C407.585 618.94 411.148 572.461 411.288 552.605C411.56 512.791 403.722 474.146 432.361 441.408C440.264 432.378 450.889 424.319 461.889 419.449C470.091 415.813 483.148 413.073 492.071 412.251C500.62 411.466 514.406 411.475 522.964 412.251C531.569 413.027 545.038 415.56 552.941 418.972C562.416 423.067 574.874 432.546 581.73 440.127C582.095 440.529 582.394 440.978 582.749 441.389L583.498 442.212C610.809 475.604 603.925 512.698 603.607 552.783C603.513 565.066 603.831 631.878 601.081 638.263C595.731 650.659 582.403 658.409 569.505 659.932C554.905 661.662 444.352 661.335 435.335 657.773C425.337 653.828 419.921 648.135 414.992 638.777C414.525 637.889 414.141 636.898 413.776 635.982V635.992Z" fill="white" stroke="#A3A3A3" stroke-width="5" stroke-linecap="round" stroke-linejoin="round"/>
<path fill-rule="evenodd" clip-rule="evenodd" d="M603.506 501.924C599.867 442.678 552.947 423.589 497.533 428.571L497.543 428.581C460.631 431.893 430.168 457.273 426.041 493.371C423.151 518.623 424.517 547.269 425.867 575.589C426.887 596.992 427.899 618.208 427.058 637.633C430.038 646.835 435.543 656.265 445.521 657.917C460.264 660.36 556.426 661.673 571.289 659.268C580.38 657.798 596.598 648.601 600.824 640.688C601.184 631.811 601.617 622.673 602.058 613.377C603.806 576.524 605.671 537.2 603.506 501.924ZM505.319 552.845C485.827 554.12 466.2 555.403 448.469 553.229L447.003 555.322C440.387 555.332 440.33 555.465 438.5 559.746C438.418 559.937 438.333 560.136 438.243 560.344C438.243 561.849 438.218 563.138 438.197 564.255C438.107 568.865 438.075 570.535 440.092 572.367C440.862 573.066 451.49 574.505 453.585 574.732C484.556 578.072 538.59 577.352 569.961 574.692C570.216 574.67 570.459 574.65 570.691 574.63C575.17 574.253 575.218 574.249 576.038 572.367C575.237 562.041 573.883 555.332 566.125 553.229C547.787 550.069 526.633 551.452 505.319 552.845Z" fill="#E5E5E5"/>
<path d="M487.749 483.456C493.305 484.214 524.32 481.905 526.986 483.69C528.398 484.634 528.819 502.312 528.183 504.284C527.547 506.257 527.107 506.378 525.19 506.444L486.852 506.977L487.749 483.466V483.456Z" stroke="#A3A3A3" stroke-width="5" stroke-linecap="round" stroke-linejoin="round"/>
<path d="M455.116 571.19C483.325 574.359 532.541 573.667 561.115 571.152" stroke="#A3A3A3" stroke-width="5" stroke-linecap="round" stroke-linejoin="round"/>
<path d="M449.122 552.783C482.933 557.102 532.748 547.043 564.726 552.783C576.268 554.858 575.856 560.346 576.586 570.143C577.156 577.808 577.689 616.08 576.109 621.633C574.154 628.466 570.31 631.14 563.529 632.411C553.661 634.253 461.262 634.281 451.516 632.411C444.716 631.112 440.704 628.56 438.936 621.633C437.935 617.716 438.365 563.393 439.535 560.57C441.443 555.952 444.604 554.241 449.122 552.783Z" stroke="#A3A3A3" stroke-width="5" stroke-linecap="round" stroke-linejoin="round"/>
<path d="M532.383 411.494C538.257 370.614 477.022 370.679 482.671 411.494" stroke="#A3A3A3" stroke-width="5" stroke-linecap="round" stroke-linejoin="round"/>
<path d="M522.796 410.297C525.556 384.842 488.583 385.637 492.249 410.895" stroke="#A3A3A3" stroke-width="5" stroke-linecap="round" stroke-linejoin="round"/>
<path d="M583.291 442.025C583.198 441.913 583.114 441.782 583.02 441.67C582.796 440.969 582.627 440.268 582.599 439.529C582.375 433.341 583.853 391.339 581.973 389.703H554.661L553.23 417.467" stroke="#A3A3A3" stroke-width="5" stroke-linecap="round" stroke-linejoin="round"/>
<path d="M463.361 140.204C457.339 143.638 451.806 147.873 446.754 152.639C446.126 152.249 444.389 152.772 444.054 152.29C442.924 150.692 444.508 117.7 444.633 113.087C447.487 113.555 462.209 112.076 462.977 114.05C464.644 118.356 461.421 134.615 463.361 140.197V140.204Z" fill="#E5E5E5"/>
<path d="M578.078 156.087C572.113 149.897 566.617 145.463 559.151 141.216L559.548 113.192L578.114 112.989L578.071 156.087H578.078Z" fill="#E5E5E5"/>
<path d="M523.596 127.755C501.573 125.902 482.765 126.746 463.043 138.003C455.605 142.244 448.77 147.476 442.529 153.363C412.059 182.118 415.36 213.355 414.86 251.005C414.783 256.53 414.912 262.064 414.86 267.598C414.843 269.537 414.86 271.485 414.86 273.425C414.826 287.828 414.628 302.266 414.826 316.66C415.041 332.322 409.956 349.578 431.565 352.121L589.957 351.647C607.42 347.889 602.68 335.666 602.981 323.452C602.981 323.263 603.016 323.073 603.016 322.883C603.068 320.686 603.507 318.513 603.542 316.307C603.783 302.016 603.654 287.681 603.662 273.39C603.662 271.459 603.688 269.529 603.68 267.598C603.654 262.4 603.826 257.194 603.774 251.997C603.369 214.174 606.653 185.911 577.743 155.958C570.615 148.571 564.047 143.278 555.126 138.21C549.583 135.064 532.258 127.858 526.285 127.143L523.604 127.772L523.596 127.755Z" fill="white" stroke="#A3A3A3" stroke-width="5" stroke-linecap="round" stroke-linejoin="round"/>
<path fill-rule="evenodd" clip-rule="evenodd" d="M598.67 220.858C595.808 184.151 564.663 150.712 528.144 145.744C528.144 145.744 518.908 144.669 512.829 144.683C506.733 144.698 497.485 145.833 497.485 145.833C461.882 153.1 433.623 183.455 430.858 219.96C429.33 240.177 429.869 261.44 430.408 282.693C430.883 301.448 431.359 320.195 430.413 338.207C432.626 345.604 437.522 346.664 444.55 346.939C468.527 347.889 493.009 347.302 517.52 346.715H517.52C542.086 346.127 566.68 345.538 590.823 346.494C594.025 345.361 596.295 343.176 598.224 340.449C597.59 323.256 598.197 305.303 598.806 287.301C599.568 264.766 600.333 242.154 598.67 220.858ZM559.4 258.125V304.162C555.9 311.075 553.228 311.549 546.048 312.032C532.53 312.94 518.498 312.541 504.462 312.141H504.462C491.721 311.779 478.977 311.416 466.611 312.032C462.654 310.704 460.069 308.118 458.741 304.162V258.125C469.927 258.125 481.112 258.103 492.298 258.081C514.667 258.037 537.036 257.993 559.4 258.125ZM555.348 241.912H463.274H463.266C458.006 242.747 458.41 246.755 458.835 250.964C458.884 251.445 458.933 251.929 458.973 252.41L559.399 251.695C559.407 251.486 559.416 251.278 559.424 251.071C559.583 247.176 559.727 243.63 555.348 241.912Z" fill="#E5E5E5"/>
<path d="M455.405 258.125H458.75C492.297 258.125 525.853 257.927 559.4 258.125C560.357 258.125 561.313 258.125 562.27 258.125" stroke="#A3A3A3" stroke-width="5" stroke-linecap="round" stroke-linejoin="round"/>
<path d="M453.501 255.746C453.743 249.057 451.924 243.308 458.268 238.662C466.258 232.818 540.016 239.593 554.643 236.757C567.667 238.86 563.917 249.29 564.331 258.203C565.072 274.338 571.115 313.307 550.824 317.005C542.731 318.479 476.231 318.634 467.81 317.289C461.776 316.324 457.113 313.454 454.45 307.748C452.51 303.593 453.234 263.193 453.493 255.746H453.501Z" stroke="#A3A3A3" stroke-width="5" stroke-linecap="round" stroke-linejoin="round"/>
<path d="M467.844 133.607C466.654 127.582 469.43 104.861 465.904 101.164C464.818 100.026 463.543 99.6465 462.086 99.2586C461 98.9656 440.744 98.9656 439.667 99.2586C437.426 99.862 436.064 100.508 434.797 102.594C431.383 108.257 435.995 149.554 433.935 158.888" stroke="#A3A3A3" stroke-width="5" stroke-linecap="round" stroke-linejoin="round"/>
<path d="M583.743 159.371V104.508C583.519 102.681 582.295 101.422 580.881 100.405C578.019 98.3449 554.316 98.5087 551.782 101.172C548.058 105.077 551.351 127.505 549.816 133.616" stroke="#A3A3A3" stroke-width="5" stroke-linecap="round" stroke-linejoin="round"/>
</svg>
