<svg preserveAspectRatio="xMidYMid slice" viewBox="0 0 760 760" fill="none" xmlns="http://www.w3.org/2000/svg">
<rect width="760" height="760" fill="white"/>
<path d="M108.164 379.584C109.782 388.986 112.492 398.095 114.956 407.29C119.682 424.928 124.763 442.461 129.528 460.088C131.939 469.008 134.226 477.971 136.702 486.864C139.348 496.352 141.642 505.956 144.353 515.416C146.786 523.916 148.451 534.341 151.209 542.318C156.809 558.542 163.779 569.719 183.379 568.256C230.55 550.42 290.9 545.026 336.941 527.492C356.293 520.123 358.641 505.859 355.072 487.631C353.453 479.39 349.241 469.617 347.085 461.032C344.678 451.469 342.133 441.892 339.646 432.34C337.315 423.409 334.579 414.628 332.205 405.729C327.22 386.97 322.353 368.19 317.571 349.377C315.519 341.292 313.468 333.176 311.455 325.082" fill="white"/>
<path d="M110.564 407.784C105.689 412.735 95.3835 439.649 89.6591 439.806C86.1048 439.909 29.6123 407.155 28.3773 403.821C28.0092 401.983 28.4577 400.528 29.1424 398.833C33.5541 387.981 80.7314 307.654 87.1196 301.821C89.2816 299.845 92.0051 298.804 94.5718 297.526C98.0695 295.782 134.721 285.516 136.843 286.055C141.301 287.2 146.077 296.832 150.589 300.303C175.734 319.654 223.079 307.217 234.039 276.99C235.58 272.736 235.412 260.71 236.797 259.272C238.848 257.149 284.276 245.598 290.637 247.662C303.219 255.906 388.005 298.586 391.274 305.61C393.723 310.886 361.924 359.896 357.275 367.891C352.615 370.745 328.317 354.324 322.318 351.024" fill="white"/>
<path d="M137.059 302.245C135.154 301.754 123.288 305.336 120.155 306.906L120.152 306.897C117.853 308.047 99.9031 312.332 103.053 324.086L123.888 401.843C128.151 417.789 149.237 516.803 159.897 542.031C168.386 557.356 181.748 552.74 181.748 552.74L356.889 505.811L356.081 489.463L355.567 487.532C349.82 465.954 324.447 370.68 320.261 354.222C322.331 353.115 323.246 355.005 324.532 355.718C329.919 358.713 351.745 373.604 355.919 371.034C360.073 363.817 388.495 319.582 386.288 314.808C383.342 308.453 307.211 269.705 295.909 262.228C290.199 260.35 249.477 270.7 247.642 272.615C246.403 273.911 246.578 284.782 245.204 288.623C235.434 315.923 176.262 331.553 153.67 314.011C149.616 310.865 141.06 303.289 137.059 302.245Z" fill="#E5E5E5"/>
<path d="M108.164 379.585C109.782 388.986 112.492 398.095 114.956 407.291C119.682 424.929 124.763 442.461 129.528 460.088C131.939 469.008 134.226 477.972 136.702 486.864C139.348 496.352 141.642 505.956 144.353 515.417C146.786 523.917 148.451 534.341 151.209 542.319C156.809 558.542 163.779 569.719 183.379 568.257C230.55 550.42 290.9 545.026 336.941 527.493C356.293 520.123 358.641 505.859 355.072 487.632C353.453 479.39 349.241 469.617 347.085 461.033C344.678 451.47 342.133 441.892 339.646 432.34C337.315 423.409 334.579 414.628 332.205 405.73C327.22 386.971 322.353 368.19 317.571 349.377C315.519 341.293 313.468 333.177 311.455 325.082" stroke="#A3A3A3" stroke-width="5" stroke-linecap="round" stroke-linejoin="round"/>
<path d="M198.443 310.442L216.851 379.139" stroke="#A3A3A3" stroke-width="5" stroke-linecap="round" stroke-linejoin="round"/>
<path d="M110.564 407.784C105.689 412.735 95.3835 439.649 89.6591 439.806C86.1048 439.909 29.6123 407.155 28.3773 403.821C28.0092 401.983 28.4577 400.528 29.1424 398.833C33.5541 387.981 80.7314 307.654 87.1196 301.821C89.2816 299.845 92.0051 298.804 94.5718 297.526C98.0695 295.782 134.721 285.516 136.843 286.055C141.301 287.2 146.077 296.832 150.589 300.303C175.734 319.654 223.079 307.216 234.039 276.99C235.58 272.736 235.412 260.71 236.797 259.272C238.848 257.149 284.276 245.598 290.637 247.662C303.219 255.906 388.005 298.586 391.274 305.61C393.723 310.886 361.924 359.896 357.275 367.891C352.615 370.745 328.317 354.324 322.318 351.024" stroke="#A3A3A3" stroke-width="5" stroke-linecap="round" stroke-linejoin="round"/>
<path d="M449.168 315.417C445.869 324.368 443.661 333.612 441.197 342.808C436.471 360.445 432.105 378.169 427.418 395.818C425.046 404.748 422.545 413.654 420.243 422.593C417.791 432.133 414.975 441.597 412.593 451.146C410.45 459.723 406.679 469.583 405.079 477.872C401.817 494.722 402.265 507.886 419.97 516.419C469.739 524.558 524.701 550.062 573.34 557.898C593.785 561.191 602.95 550.013 608.973 532.443C611.692 524.496 612.93 513.926 615.356 505.414C618.053 495.929 620.637 486.362 623.259 476.846C625.706 467.946 627.727 458.973 630.121 450.08C635.183 431.342 640.359 412.644 645.624 393.96C647.888 385.933 650.171 377.879 652.474 369.862" fill="white"/>
<path d="M437.146 341.039C430.449 342.889 408.068 361.045 403.032 358.318C399.902 356.631 367.355 300.018 367.953 296.513C368.553 294.738 369.669 293.702 371.109 292.576C380.356 285.384 461.376 239.407 469.825 237.551C472.685 236.919 475.564 237.38 478.426 237.557C482.327 237.795 519.202 247.23 520.77 248.758C524.058 251.979 523.378 262.708 525.55 267.97C537.651 297.301 584.871 310.202 609.476 289.505C612.938 286.592 618.806 276.093 620.724 275.541C623.561 274.727 668.679 287.438 673.155 292.406C679.93 305.837 732.016 385.191 731.336 392.908C730.819 398.702 678.775 425.246 670.751 429.846C665.289 429.987 652.456 403.618 648.911 397.761" fill="white"/>
<path fill-rule="evenodd" clip-rule="evenodd" d="M512.862 262.888C511.458 261.51 499.391 258.679 495.892 258.472L495.894 258.463C495.538 258.442 494.89 258.322 494.029 258.162C488.695 257.175 475.203 254.678 472.491 264.799L451.656 342.556C450.547 346.687 447.627 356.214 443.85 368.536L443.85 368.536C433.053 403.763 415.253 461.833 412.748 481.967C412.436 499.483 426.316 502.167 426.316 502.167L601.457 549.096L608.932 534.535L609.452 532.605L609.456 532.59C615.276 511 640.928 415.844 645.531 399.502C647.238 399.558 647.622 400.681 647.996 401.774C648.137 402.184 648.275 402.59 648.482 402.933C649.136 404.024 650.142 405.904 651.372 408.2L651.372 408.201L651.372 408.201C656.1 417.029 664.117 432.001 668.006 431.891C669.381 431.095 672.195 429.573 675.853 427.595L675.853 427.594L675.853 427.594L675.854 427.594C691.364 419.207 722.035 402.62 722.42 398.382C722.828 393.83 703.145 361.75 687.737 336.638C679.533 323.267 672.54 311.87 670.438 307.657C666.433 303.175 625.992 291.777 623.445 292.518C622.569 292.775 620.769 295.363 618.803 298.191C616.907 300.918 614.856 303.867 613.329 305.163C591.219 323.92 532.159 307.87 521.364 281.383C520.954 280.376 520.468 279.096 519.928 277.676L519.928 277.675L519.928 277.674L519.928 277.674C517.922 272.393 515.181 265.177 512.862 262.888ZM557.721 341.71C556.72 345.444 552.882 347.66 549.148 346.659C545.413 345.659 543.197 341.82 544.198 338.086C545.198 334.352 549.037 332.136 552.771 333.136C556.505 334.137 558.721 337.975 557.721 341.71ZM537.242 391.092C540.976 392.093 544.814 389.877 545.815 386.142C546.816 382.408 544.6 378.57 540.865 377.569C537.131 376.568 533.293 378.785 532.292 382.519C531.292 386.253 533.508 390.091 537.242 391.092ZM533.909 430.575C532.909 434.309 529.07 436.525 525.336 435.525C521.602 434.524 519.386 430.686 520.386 426.951C521.387 423.217 525.225 421.001 528.96 422.002C532.694 423.002 534.91 426.841 533.909 430.575ZM513.43 479.957C517.165 480.958 521.003 478.742 522.004 475.007C523.004 471.273 520.788 467.435 517.054 466.434C513.32 465.434 509.481 467.65 508.481 471.384C507.48 475.118 509.696 478.957 513.43 479.957Z" fill="#E5E5E5"/>
<path d="M449.168 315.417C445.869 324.368 443.661 333.612 441.197 342.808C436.471 360.445 432.105 378.169 427.418 395.817C425.046 404.748 422.545 413.654 420.243 422.593C417.791 432.133 414.975 441.597 412.593 451.146C410.45 459.723 406.679 469.583 405.079 477.872C401.817 494.722 402.265 507.886 419.97 516.419C469.739 524.558 524.701 550.062 573.34 557.898C593.785 561.191 602.95 550.013 608.973 532.443C611.692 524.496 612.93 513.926 615.356 505.414C618.053 495.929 620.637 486.361 623.259 476.846C625.706 467.946 627.727 458.973 630.121 450.08C635.183 431.341 640.359 412.644 645.624 393.96C647.888 385.933 650.171 377.879 652.474 369.862" stroke="#A3A3A3" stroke-width="5" stroke-linecap="round" stroke-linejoin="round"/>
<path d="M437.146 341.039C430.449 342.889 408.068 361.045 403.032 358.318C399.902 356.631 367.355 300.018 367.953 296.513C368.553 294.738 369.669 293.702 371.109 292.576C380.356 285.384 461.376 239.407 469.825 237.551C472.685 236.919 475.564 237.38 478.426 237.557C482.327 237.795 519.202 247.23 520.77 248.758C524.058 251.979 523.378 262.708 525.55 267.97C537.651 297.301 584.871 310.202 609.476 289.505C612.938 286.592 618.806 276.093 620.724 275.541C623.561 274.727 668.679 287.438 673.155 292.406C679.93 305.837 732.016 385.191 731.336 392.908C730.819 398.702 678.775 425.246 670.751 429.846C665.289 429.987 652.456 403.618 648.911 397.761" stroke="#A3A3A3" stroke-width="5" stroke-linecap="round" stroke-linejoin="round"/>
<circle cx="549.288" cy="338.414" r="7" transform="rotate(15 549.288 338.414)" fill="#A3A3A3"/>
<circle cx="537.381" cy="382.847" r="7" transform="rotate(15 537.381 382.847)" fill="#A3A3A3"/>
<circle cx="525.475" cy="427.28" r="7" transform="rotate(15 525.475 427.28)" fill="#A3A3A3"/>
<circle cx="513.569" cy="471.712" r="7" transform="rotate(15 513.569 471.712)" fill="#A3A3A3"/>
<path d="M276.101 246.699C275.231 256.199 275.491 265.699 275.491 275.219C275.491 293.479 275.861 311.729 275.901 329.989C275.921 339.229 275.811 348.479 275.901 357.709C276.001 367.559 275.731 377.429 275.901 387.269C276.051 396.109 274.961 406.609 275.561 415.029C276.771 432.149 280.611 444.749 299.921 448.409C350.101 443.389 409.791 453.799 458.801 448.779C479.401 446.669 485.361 433.499 486.631 414.969C487.201 406.589 485.661 396.059 485.801 387.209C485.951 377.349 485.971 367.439 486.041 357.569C486.101 348.339 485.731 339.149 485.741 329.939C485.781 310.529 485.941 291.129 486.191 271.719C486.301 263.379 486.421 255.009 486.571 246.669" fill="white"/>
<path d="M271.12 274.559C265.13 278.079 248.21 301.409 242.64 300.079C239.18 299.259 193.09 252.999 192.76 249.459C192.88 247.589 193.69 246.299 194.79 244.839C201.86 235.499 268.22 170.119 275.9 166.139C278.5 164.789 281.4 164.489 284.21 163.919C288.04 163.139 326.1 162.709 328.01 163.779C332.02 166.039 334.14 176.579 337.6 181.099C356.88 206.299 405.83 206.539 424.24 180.179C426.83 176.469 429.78 164.809 431.49 163.779C434.02 162.259 480.89 162.859 486.5 166.499C496.52 177.719 567.37 240.889 568.71 248.519C569.71 254.249 526.31 293.359 519.75 299.879C514.51 301.429 495.29 279.279 490.35 274.539" fill="white"/>
<path d="M324.028 179.474C322.316 178.506 309.927 178.895 306.494 179.601V179.592C303.975 180.107 285.528 179.601 285.528 191.769V272.269C285.519 288.775 283.992 313.237 284.028 329.751L302.362 329.625H483.681L487.132 329.751C487.159 312.188 487.312 294.651 487.536 277.096C489.822 276.563 490.216 278.625 491.274 279.647C495.702 283.934 512.93 303.966 517.627 302.565C523.507 296.668 562.41 261.296 561.514 256.114C560.313 249.213 496.804 192.082 487.823 181.934C482.794 178.642 440.781 178.099 438.513 179.474C436.98 180.406 434.336 190.951 432.014 194.306C415.512 218.147 354.311 217.93 337.028 195.138C333.927 191.051 327.623 181.518 324.028 179.474Z" fill="#E5E5E5"/>
<path d="M483.405 420.769H316.847C316.847 420.769 315.027 422.269 315.027 428.269C315.027 434.269 317.666 445.314 333.494 448.313C374.623 444.2 423.547 452.729 463.717 448.616C480.601 446.887 485.495 436.106 486.527 420.917L483.405 420.769Z" fill="#E5E5E5"/>
<path d="M482.08 362.769H313.639C313.639 362.769 310.527 362.269 309.527 367.769C308.527 373.269 310.434 379.489 310.575 387.769L313.648 387.618H482.08L485.327 387.727C485.461 379.439 485.469 371.1 485.527 362.811L482.08 362.769Z" fill="#E5E5E5"/>
<path d="M276.101 246.699C275.231 256.199 275.491 265.699 275.491 275.219C275.491 293.479 275.861 311.729 275.901 329.989C275.921 339.229 275.811 348.479 275.901 357.709C276.001 367.559 275.731 377.429 275.901 387.269C276.051 396.109 274.961 406.609 275.561 415.029C276.771 432.149 280.611 444.749 299.921 448.409C350.101 443.389 409.791 453.799 458.801 448.779C479.401 446.669 485.361 433.499 486.631 414.969C487.201 406.589 485.661 396.059 485.801 387.209C485.951 377.349 485.971 367.439 486.041 357.569C486.101 348.339 485.731 339.149 485.741 329.939C485.781 310.529 485.941 291.129 486.191 271.719C486.301 263.379 486.421 255.009 486.571 246.669" stroke="#A3A3A3" stroke-width="5" stroke-linecap="round" stroke-linejoin="round"/>
<path d="M271.12 274.559C265.13 278.079 248.21 301.409 242.64 300.079C239.18 299.259 193.09 252.999 192.76 249.459C192.88 247.589 193.69 246.299 194.79 244.839C201.86 235.499 268.22 170.119 275.9 166.139C278.5 164.789 281.4 164.489 284.21 163.919C288.04 163.139 326.1 162.709 328.01 163.779C332.02 166.039 334.14 176.579 337.6 181.099C356.88 206.299 405.83 206.539 424.24 180.179C426.83 176.469 429.78 164.809 431.49 163.779C434.02 162.259 480.89 162.859 486.5 166.499C496.52 177.719 567.37 240.889 568.71 248.519C569.71 254.249 526.31 293.359 519.75 299.879C514.51 301.429 495.29 279.279 490.35 274.539" stroke="#A3A3A3" stroke-width="5" stroke-linecap="round" stroke-linejoin="round"/>
<path d="M279.6 414.799H482.81" stroke="#A3A3A3" stroke-width="5" stroke-linecap="round" stroke-linejoin="round"/>
<path d="M279.6 387.089H481.89" stroke="#A3A3A3" stroke-width="5" stroke-linecap="round" stroke-linejoin="round"/>
<path d="M279.6 357.529H481.89" stroke="#A3A3A3" stroke-width="5" stroke-linecap="round" stroke-linejoin="round"/>
<path d="M279.6 329.819H481.89" stroke="#A3A3A3" stroke-width="5" stroke-linecap="round" stroke-linejoin="round"/>
<path d="M381.199 203.279V274.399" stroke="#A3A3A3" stroke-width="5" stroke-linecap="round" stroke-linejoin="round"/>
</svg>
