<svg viewBox="0 0 760 760" fill="none" xmlns="http://www.w3.org/2000/svg">
<rect width="760" height="760" fill="white"/>
<path d="M220.595 428.523C220.592 428.528 220.589 428.532 220.586 428.537L220.573 428.523C220.58 428.523 220.587 428.523 220.595 428.523C221.192 427.579 220.689 426.702 220.586 425.785C220.586 425.785 218.582 403.839 215.557 391.306C212.532 378.773 203.889 377.477 203.889 367.105C203.889 356.733 260.501 367.97 276.486 325.609C282.378 331.513 286.982 336.977 293.563 342.247L294.084 342.619C300.132 347.408 305.516 350.188 312.045 353.877L312.631 354.166C318.171 357.276 324.115 359.973 329.812 362.767L330.93 363.331C363.42 379.117 392.41 383.273 424.249 395.631C437.88 400.93 449.026 408.293 444.994 426.115C443.33 426.294 441.769 426.803 440.156 427.147C371.093 442.134 333.844 428.909 268.175 426.707C253.368 426.211 236.157 428.645 220.595 428.523Z" fill="#E5E5E5"/>
<path d="M190.463 426.76C168.459 426.6 145.413 423.233 123.894 423.603C122.814 423.627 121.722 423.812 120.642 423.788C120.58 422.455 120.928 421 120.928 419.656C120.928 419.458 120.952 419.261 120.952 419.064C120.952 404.312 121.685 382.899 123.559 368.431C123.608 368.036 123.559 367.642 123.621 367.259C123.571 367.642 123.621 368.049 123.559 368.431L126.239 368.37C161.05 371.379 185.908 388.154 190.463 424.281C190.562 425.12 191.046 425.897 190.463 426.748V426.76Z" fill="#E5E5E5"/>
<path d="M351.629 370.487L341.664 386.746" stroke="#A3A3A3" stroke-width="5" stroke-linecap="round" stroke-linejoin="round"/>
<path d="M120.382 418.772C120.382 418.534 120.412 418.296 120.412 418.058C120.412 400.268 121.292 374.444 123.544 356.996C123.604 356.52 123.544 356.044 123.619 355.582C130.257 308.22 151.38 336.364 176.799 343.712C208.184 352.786 248.789 343.876 268.077 316.074C274.835 322.455 280.115 328.361 287.663 334.058C287.857 334.207 288.066 334.326 288.26 334.46C295.197 339.636 301.372 342.641 308.861 346.628C309.084 346.747 309.308 346.821 309.532 346.94C315.887 350.302 322.704 353.217 329.238 356.237C329.67 356.43 330.088 356.653 330.52 356.847C367.784 373.909 401.034 378.401 437.551 391.759C453.185 397.486 465.969 405.444 461.344 424.707C457.988 438.735 421.113 461.732 408.657 459.084C403.988 458.087 395.067 448.984 389.622 451.066C383.074 453.565 378.718 462.847 370.588 464.975C367.217 465.852 305.206 465.793 300.82 464.975C291.318 463.204 286.097 456.377 277.564 452.881C257.143 444.506 245.463 461.449 226.816 464.409C216.762 466.001 196.877 465.257 185.943 465.108C153.17 464.692 121.948 467.488 120.009 423.711C119.934 422.104 120.352 420.349 120.352 418.728L120.382 418.772Z" stroke="#A3A3A3" stroke-width="5" stroke-linecap="round" stroke-linejoin="round"/>
<path d="M334.772 348.933L316.26 378.282" stroke="#A3A3A3" stroke-width="5" stroke-linecap="round" stroke-linejoin="round"/>
<path d="M314.29 338.357L297.27 366.367" stroke="#A3A3A3" stroke-width="5" stroke-linecap="round" stroke-linejoin="round"/>
<path d="M121.502 423.547C147.368 423.101 177.529 427.162 203.977 427.355C221.818 427.489 241.583 424.856 258.574 425.392C333.906 427.757 380.713 442.052 459.923 425.868" stroke="#A3A3A3" stroke-width="5" stroke-linecap="round" stroke-linejoin="round"/>
<path d="M293.048 324.954L273.939 355.776" stroke="#A3A3A3" stroke-width="5" stroke-linecap="round" stroke-linejoin="round"/>
<path d="M125.127 356.936C166.97 360.566 198.488 382.434 203.963 426.004" stroke="#A3A3A3" stroke-width="5" stroke-linecap="round" stroke-linejoin="round"/>
<path d="M253.398 434.941C209.243 437.916 151.464 433.702 128.094 431.223C139.282 435.685 171.503 444.61 210.884 444.61C260.111 444.61 245.94 438.66 312.321 446.842C365.426 453.387 383.178 447.09 385.415 443.123C350.36 449.073 308.592 431.223 253.398 434.941Z" fill="#E5E5E5"/>
<path d="M303.502 247.852C305.074 227.222 322.58 213.796 333.205 208.621C334.457 208.012 335.954 208.431 336.708 209.602C344.65 221.937 346.873 238.683 347.051 247.958C347.082 249.575 345.755 250.855 344.137 250.855H306.382C304.725 250.855 303.376 249.504 303.502 247.852Z" fill="#E5E5E5"/>
<path d="M322.593 256.473H612.496C614.281 256.473 615.66 258.038 614.989 259.691C612.742 265.221 605.866 272.463 589.908 272.463C565.708 272.463 583.426 261.227 533.296 261.227C483.166 261.227 494.834 269.87 465.879 269.87C436.925 269.87 437.789 263.387 415.749 263.387C393.709 263.387 405.81 269.87 366.051 269.87C341.916 269.87 327.867 264.727 321.109 260.296C319.072 258.96 320.157 256.473 322.593 256.473Z" fill="#E5E5E5"/>
<path d="M546.041 250.855L546.234 247.725C549.102 219.967 560.937 189.568 588.181 183.006C591.206 182.142 591.381 179.634 592.503 176.956C593.564 174.422 593.826 170.261 593.799 170.042C592.42 157 594.6 164.067 593.056 151.053C591.76 140.263 596.668 121.785 581.916 122.114C562.834 122.526 545.462 128.731 523.76 127.029C517.804 126.562 497.481 121.565 494.696 122.114C489.457 123.103 448.922 157.258 439.987 163.435C415.115 180.65 386.96 194.021 357.841 201.956C358.393 202.917 358.834 203.933 359.358 204.921C366.941 219.088 368.899 231.855 367.879 247.78L367.823 250.855C427.22 250.855 486.644 250.855 546.041 250.855Z" fill="#E5E5E5"/>
<path d="M581.697 251.426C597.665 251.426 613.803 250.939 629.77 251.426C630.768 251.451 631.742 251.28 632.691 251.719C632.424 234.715 630.233 214.881 628.456 197.829C628.456 197.633 628.432 197.463 628.407 197.267C628.407 197.463 628.432 197.633 628.456 197.829L625.876 198.365C601.827 204.196 584.423 223.981 581.892 248.645L581.721 251.426H581.697Z" fill="#E5E5E5"/>
<path d="M425.797 279.251C428.981 281.652 427.826 287.857 434.599 289.759C437.409 290.538 489.943 290.538 492.721 289.759C503.989 286.61 492.721 273.202 510.919 269.461C517.005 268.213 552.403 270.957 557.147 273.795C563.421 277.568 558.021 285.394 568.353 289.322C570.85 290.258 618.14 290.507 621.574 289.728C637.337 286.236 633.935 264.441 633.716 251.626C633.373 229.893 630.564 204.544 628.285 182.749C628.285 182.499 628.254 182.281 628.222 182.032C626.662 167.221 623.322 152.691 621.574 137.912C620.107 125.658 625.663 104.674 608.963 105.048C587.363 105.516 567.698 112.562 543.132 110.629C536.39 110.099 513.385 104.424 510.232 105.048C504.301 106.17 458.416 144.958 448.303 151.974C420.147 171.524 388.277 186.709 355.315 195.72C333.714 201.613 322.04 200.21 309.367 223.283C293.385 252.468 312.645 279.47 342.142 287.919C348.978 289.884 390.899 291.287 397.454 289.728C405.289 287.888 403.198 281.309 407.693 279.376C408.535 279.002 425.048 278.721 425.766 279.251H425.797Z" stroke="#A3A3A3" stroke-width="5" stroke-linecap="round" stroke-linejoin="round"/>
<path d="M356.111 196.835C364.695 212.924 367.831 229.675 366.676 247.759" stroke="#A3A3A3" stroke-width="5" stroke-linecap="round" stroke-linejoin="round"/>
<path d="M416.12 174.192L443.963 204.53" stroke="#A3A3A3" stroke-width="5" stroke-linecap="round" stroke-linejoin="round"/>
<path d="M444.869 156.7L470.59 184.949" stroke="#A3A3A3" stroke-width="5" stroke-linecap="round" stroke-linejoin="round"/>
<path d="M471.213 136.963L497.246 164.65" stroke="#A3A3A3" stroke-width="5" stroke-linecap="round" stroke-linejoin="round"/>
<path d="M497.121 116.695L524.559 145.755" stroke="#A3A3A3" stroke-width="5" stroke-linecap="round" stroke-linejoin="round"/>
<path d="M624.977 183.466C594.137 190.918 571.818 216.205 568.572 247.728" stroke="#A3A3A3" stroke-width="5" stroke-linecap="round" stroke-linejoin="round"/>
<path d="M632.691 251.719H305.117" stroke="#A3A3A3" stroke-width="5" stroke-linecap="round"/>
<path d="M542.11 613.821C542.11 583.743 566.887 559.225 579.275 550.726C586.424 545.108 582.3 533.44 577.547 537.762C572.793 542.083 561.125 556.344 526.552 556.344C491.98 556.344 491.548 547.269 461.729 547.269C431.91 547.269 415.92 592.646 383.508 592.646C306.584 592.646 307.449 606.907 307.449 613.821C317.821 613.821 393.448 611.66 439.257 611.66C485.065 611.66 520.934 613.821 542.11 613.821Z" fill="#E5E5E5"/>
<path d="M578.931 611.117C578.931 611.137 578.947 611.153 578.967 611.152C595.378 610.935 611.826 610.682 628.237 610.465C629.555 610.563 630.649 609.534 630.477 608.224C630.33 607.098 630.148 605.94 630.148 604.818C630.325 581.113 630.093 578.524 623.742 557.481C623.326 556.1 621.864 555.313 620.485 555.733C595.648 560.149 577.094 583.75 578.931 608.583V611.117Z" fill="#E5E5E5"/>
<path d="M639.322 604.028C639.538 574.627 639.235 572.422 630.896 544.492C628.563 536.666 621.434 506.746 617.459 503.115C604.194 490.965 590.367 513.275 578.269 519.415C548.888 534.288 534.457 513.924 514.235 499.353C507.884 494.813 502.656 491.527 494.662 495.289C478.848 502.682 442.899 535.325 425.832 547.777C425.616 547.95 425.4 548.123 425.184 548.253C399.044 567.277 394.464 568.358 362.792 573.849C332.936 578.994 298.24 572.941 297.03 615.312C296.209 644.497 313.06 641.946 336.436 646.226C391.482 656.343 438.449 658.116 493.193 648.474C517.995 644.108 517.39 648.301 539.166 653.922C552.993 657.467 622.039 652.841 632.625 645.491C642.562 638.573 639.711 621.754 640.013 610.945C640.056 608.784 639.408 606.319 639.408 603.984L639.322 604.028Z" stroke="#A3A3A3" stroke-width="5" stroke-linecap="round" stroke-linejoin="round"/>
<path d="M449.076 533.077L457.501 541.033C458.452 541.941 459.402 542.805 460.31 543.713L466.445 549.507" stroke="#A3A3A3" stroke-width="5" stroke-linecap="round" stroke-linejoin="round"/>
<path d="M468.089 515.214L476.515 523.169C477.466 524.077 478.416 524.942 479.323 525.85L485.459 531.644" stroke="#A3A3A3" stroke-width="5" stroke-linecap="round" stroke-linejoin="round"/>
<path d="M637.074 610.729C617.76 610.989 598.403 611.291 579.089 611.551L300.227 615.312" stroke="#A3A3A3" stroke-width="5" stroke-linecap="round" stroke-linejoin="round"/>
<path d="M627.957 545.4C598.749 550.674 576.929 578.864 579.089 608.524" stroke="#A3A3A3" stroke-width="5" stroke-linecap="round" stroke-linejoin="round"/>
<path d="M424.788 550.674C427.597 553.312 430.405 555.906 433.214 558.543L440.516 565.331" stroke="#A3A3A3" stroke-width="5" stroke-linecap="round" stroke-linejoin="round"/>
<path d="M336.47 623.617L620.724 620.66C636.714 620.494 594.795 638.379 572.755 638.379C550.715 638.379 539.911 628.871 510.956 628.871C482.002 628.871 469.037 638.379 410.696 638.379C372.348 638.379 347.517 631.766 335.725 626.69C333.908 625.909 334.493 623.637 336.47 623.617Z" fill="#E5E5E5"/>
</svg>
