<svg viewBox="0 0 760 760" fill="none" xmlns="http://www.w3.org/2000/svg">
<rect width="760" height="760" fill="white"/>
<path d="M150.34 202.699C149.47 212.199 149.73 221.699 149.73 231.219C149.73 249.479 150.1 267.729 150.14 285.989C150.16 295.229 150.05 304.479 150.14 313.709C150.24 323.559 149.97 333.429 150.14 343.269C150.29 352.109 149.2 362.609 149.8 371.029C151.01 388.149 154.85 400.749 174.16 404.409C224.34 399.389 284.03 409.799 333.04 404.779C353.64 402.669 359.6 389.499 360.87 370.969C361.44 362.589 359.9 352.059 360.04 343.209C360.19 333.349 360.21 323.439 360.28 313.569C360.34 304.339 359.97 295.149 359.98 285.939C360.02 266.529 360.18 247.129 360.43 227.719C360.54 219.379 360.66 211.009 360.81 202.669" fill="white"/>
<path d="M145.36 230.559C139.37 234.079 122.45 257.409 116.88 256.079C113.42 255.259 67.33 208.999 67 205.459C67.12 203.589 67.93 202.299 69.03 200.839C76.1 191.499 142.46 126.119 150.14 122.139C152.74 120.789 155.64 120.489 158.45 119.919C162.28 119.139 200.34 118.709 202.25 119.779C206.26 122.039 208.38 132.579 211.84 137.099C231.12 162.299 280.07 162.539 298.48 136.179C301.07 132.469 304.02 120.809 305.73 119.779C308.26 118.259 355.13 118.859 360.74 122.499C370.76 133.719 441.61 196.889 442.95 204.519C443.95 210.249 400.55 249.359 393.99 255.879C388.75 257.429 369.53 235.279 364.59 230.539" fill="white"/>
<path fill-rule="evenodd" clip-rule="evenodd" d="M198.269 135.474C196.557 134.506 184.168 134.895 180.735 135.601V135.592C180.385 135.663 179.728 135.715 178.855 135.784C173.447 136.211 159.769 137.291 159.769 147.769V228.269C159.766 232.547 159.412 242.505 158.953 255.384L158.953 255.384C157.64 292.205 155.477 352.903 158.268 373C162.501 390 176.602 389 176.602 389H357.922L361.373 373L361.376 371.002L361.376 370.986C361.41 348.625 361.56 250.072 361.776 233.096C363.439 232.708 364.101 233.694 364.746 234.653C364.987 235.012 365.226 235.368 365.514 235.647C366.428 236.532 367.887 238.087 369.669 239.986L369.67 239.987L369.67 239.987C376.521 247.29 388.14 259.677 391.868 258.565C392.99 257.439 395.315 255.241 398.336 252.383L398.336 252.383L398.336 252.383L398.336 252.383C411.147 240.267 436.48 216.307 435.755 212.114C434.971 207.611 407.656 181.719 386.274 161.451C374.888 150.658 365.184 141.46 362.063 137.934C357.035 134.642 315.021 134.099 312.753 135.474C311.973 135.948 310.905 138.915 309.737 142.155C308.612 145.28 307.394 148.659 306.255 150.306C289.752 174.147 228.551 173.93 211.269 151.138C210.612 150.272 209.811 149.162 208.922 147.93L208.922 147.929L208.921 147.928L208.921 147.928C205.617 143.346 201.101 137.085 198.269 135.474ZM262 200C262 203.866 258.866 207 255 207C251.134 207 248 203.866 248 200C248 196.134 251.134 193 255 193C258.866 193 262 196.134 262 200ZM255 253C258.866 253 262 249.866 262 246C262 242.134 258.866 239 255 239C251.134 239 248 242.134 248 246C248 249.866 251.134 253 255 253ZM262 292C262 295.866 258.866 299 255 299C251.134 299 248 295.866 248 292C248 288.134 251.134 285 255 285C258.866 285 262 288.134 262 292ZM255 345C258.866 345 262 341.866 262 338C262 334.134 258.866 331 255 331C251.134 331 248 334.134 248 338C248 341.866 251.134 345 255 345Z" fill="#E5E5E5"/>
<path d="M150.34 202.699C149.47 212.199 149.73 221.699 149.73 231.219C149.73 249.479 150.1 267.729 150.14 285.989C150.16 295.229 150.05 304.479 150.14 313.709C150.24 323.559 149.97 333.429 150.14 343.269C150.29 352.109 149.2 362.609 149.8 371.029C151.01 388.149 154.85 400.749 174.16 404.409C224.34 399.389 284.03 409.799 333.04 404.779C353.64 402.669 359.6 389.499 360.87 370.969C361.44 362.589 359.9 352.059 360.04 343.209C360.19 333.349 360.21 323.439 360.28 313.569C360.34 304.339 359.97 295.149 359.98 285.939C360.02 266.529 360.18 247.129 360.43 227.719C360.54 219.379 360.66 211.009 360.81 202.669" stroke="#A3A3A3" stroke-width="5" stroke-linecap="round" stroke-linejoin="round"/>
<path d="M145.36 230.559C139.37 234.079 122.45 257.409 116.88 256.079C113.42 255.259 67.33 208.999 67 205.459C67.12 203.589 67.93 202.299 69.03 200.839C76.1 191.499 142.46 126.119 150.14 122.139C152.74 120.789 155.64 120.489 158.45 119.919C162.28 119.139 200.34 118.709 202.25 119.779C206.26 122.039 208.38 132.579 211.84 137.099C231.12 162.299 280.07 162.539 298.48 136.179C301.07 132.469 304.02 120.809 305.73 119.779C308.26 118.259 355.13 118.859 360.74 122.499C370.76 133.719 441.61 196.889 442.95 204.519C443.95 210.249 400.55 249.359 393.99 255.879C388.75 257.429 369.53 235.279 364.59 230.539" stroke="#A3A3A3" stroke-width="5" stroke-linecap="round" stroke-linejoin="round"/>
<circle cx="253" cy="199" r="7" fill="#A3A3A3"/>
<circle cx="253" cy="245" r="7" fill="#A3A3A3"/>
<circle cx="253" cy="291" r="7" fill="#A3A3A3"/>
<circle cx="253" cy="337" r="7" fill="#A3A3A3"/>
<path d="M400.341 335.699C399.471 345.199 399.731 354.699 399.731 364.219C399.731 382.479 400.101 400.729 400.141 418.989C400.161 428.229 400.051 437.479 400.141 446.709C400.241 456.559 399.971 466.429 400.141 476.269C400.291 485.109 399.201 495.609 399.801 504.029C401.011 521.149 404.851 533.749 424.161 537.409C474.341 532.389 534.031 542.799 583.041 537.779C603.641 535.669 609.601 522.499 610.871 503.969C611.441 495.589 609.901 485.059 610.041 476.209C610.191 466.349 610.211 456.439 610.281 446.569C610.341 437.339 609.971 428.149 609.981 418.939C610.021 399.529 610.181 380.129 610.431 360.719C610.541 352.379 610.661 344.009 610.811 335.669" fill="white"/>
<path d="M395.36 363.559C389.37 367.079 372.45 390.409 366.88 389.079C363.42 388.259 317.33 341.999 317 338.459C317.12 336.589 317.93 335.299 319.03 333.839C326.1 324.499 392.46 259.119 400.14 255.139C402.74 253.789 405.64 253.489 408.45 252.919C412.28 252.139 450.34 251.709 452.25 252.779C456.26 255.039 458.38 265.579 461.84 270.099C481.12 295.299 530.07 295.539 548.48 269.179C551.07 265.469 554.02 253.809 555.73 252.779C558.26 251.259 605.13 251.859 610.74 255.499C620.76 266.719 691.61 329.889 692.95 337.519C693.95 343.249 650.55 382.359 643.99 388.879C638.75 390.429 619.53 368.279 614.59 363.539" fill="white"/>
<path d="M448.269 268.474C446.557 267.506 434.168 267.895 430.735 268.601V268.592C428.216 269.107 409.769 268.601 409.769 280.769V361.269C409.76 377.775 404.501 478.873 408.268 506C412.501 523 426.602 522 426.602 522H607.922L611.373 506L611.376 504.002C611.41 481.672 611.56 383.076 611.776 366.096C614.062 365.563 614.457 367.625 615.514 368.647C619.942 372.934 637.171 392.966 641.868 391.565C647.748 385.668 686.651 350.296 685.755 345.114C684.554 338.213 621.045 281.082 612.063 270.934C607.035 267.642 565.021 267.099 562.753 268.474C561.221 269.406 558.576 279.951 556.255 283.306C539.752 307.147 478.551 306.93 461.269 284.138C458.167 280.051 451.863 270.518 448.269 268.474Z" fill="#E5E5E5"/>
<path d="M400.34 335.699C399.47 345.199 399.73 354.699 399.73 364.219C399.73 382.479 400.1 400.729 400.14 418.989C400.16 428.229 400.05 437.479 400.14 446.709C400.24 456.559 399.97 466.429 400.14 476.269C400.29 485.109 399.2 495.609 399.8 504.029C401.01 521.149 404.85 533.749 424.16 537.409C474.34 532.389 534.03 542.799 583.04 537.779C603.64 535.669 609.6 522.499 610.87 503.969C611.44 495.589 609.9 485.059 610.04 476.209C610.19 466.349 610.21 456.439 610.28 446.569C610.34 437.339 609.97 428.149 609.98 418.939C610.02 399.529 610.18 380.129 610.43 360.719C610.54 352.379 610.66 344.009 610.81 335.669" stroke="#A3A3A3" stroke-width="5" stroke-linecap="round" stroke-linejoin="round"/>
<path d="M505.44 292.279V363.399" stroke="#A3A3A3" stroke-width="5" stroke-linecap="round" stroke-linejoin="round"/>
<path d="M395.36 363.559C389.37 367.079 372.45 390.409 366.88 389.079C363.42 388.259 317.33 341.999 317 338.459C317.12 336.589 317.93 335.299 319.03 333.839C326.1 324.499 392.46 259.119 400.14 255.139C402.74 253.789 405.64 253.489 408.45 252.919C412.28 252.139 450.34 251.709 452.25 252.779C456.26 255.039 458.38 265.579 461.84 270.099C481.12 295.299 530.07 295.539 548.48 269.179C551.07 265.469 554.02 253.809 555.73 252.779C558.26 251.259 605.13 251.859 610.74 255.499C620.76 266.719 691.61 329.889 692.95 337.519C693.95 343.249 650.55 382.359 643.99 388.879C638.75 390.429 619.53 368.279 614.59 363.539" stroke="#A3A3A3" stroke-width="5" stroke-linecap="round" stroke-linejoin="round"/>
<path d="M225.34 436.699C224.47 446.199 224.73 455.699 224.73 465.219C224.73 483.479 225.1 501.729 225.14 519.989C225.16 529.229 225.05 538.479 225.14 547.709C225.24 557.559 224.97 567.429 225.14 577.269C225.29 586.109 224.2 596.609 224.8 605.029C226.01 622.149 229.85 634.749 249.16 638.409C299.34 633.389 359.03 643.799 408.04 638.779C428.64 636.669 434.6 623.499 435.87 604.969C436.44 596.589 434.9 586.059 435.04 577.209C435.19 567.349 435.21 557.439 435.28 547.569C435.34 538.339 434.97 529.149 434.98 519.939C435.02 500.529 435.18 481.129 435.43 461.719C435.54 453.379 435.66 445.009 435.81 436.669" fill="white"/>
<path d="M220.36 464.559C214.37 468.079 197.45 491.409 191.88 490.079C188.42 489.259 142.33 442.999 142 439.459C142.12 437.589 142.93 436.299 144.03 434.839C151.1 425.499 217.46 360.119 225.14 356.139C227.74 354.789 230.64 354.489 233.45 353.919C237.28 353.139 275.34 352.709 277.25 353.779C281.26 356.039 283.38 366.579 286.84 371.099C306.12 396.299 355.07 396.539 373.48 370.179C376.07 366.469 379.02 354.809 380.73 353.779C383.26 352.259 430.13 352.859 435.74 356.499C445.76 367.719 516.61 430.889 517.95 438.519C518.95 444.249 475.55 483.359 468.99 489.879C463.75 491.429 444.53 469.279 439.59 464.539" fill="white"/>
<path d="M273.269 369.474C271.556 368.506 259.167 368.895 255.734 369.601V369.592C253.215 370.107 234.769 369.601 234.769 381.769V462.269C234.76 478.775 233.232 503.237 233.268 519.751L251.602 519.625H432.922L436.373 519.751C436.4 502.188 436.552 484.651 436.776 467.096C439.062 466.563 439.456 468.625 440.514 469.647C444.942 473.934 462.17 493.966 466.867 492.565C472.748 486.668 511.651 451.296 510.754 446.114C509.553 439.213 446.045 382.082 437.063 371.934C432.034 368.642 390.021 368.099 387.753 369.474C386.22 370.406 383.576 380.951 381.254 384.306C364.752 408.147 303.551 407.93 286.269 385.138C283.167 381.051 276.863 371.518 273.269 369.474Z" fill="#E5E5E5"/>
<path d="M432.646 610.769H266.088C266.088 610.769 264.269 612.269 264.269 618.269C264.269 624.269 266.908 635.314 282.735 638.313C323.864 634.2 372.788 642.729 412.958 638.616C429.843 636.887 434.736 626.106 435.769 610.917L432.646 610.769Z" fill="#E5E5E5"/>
<path d="M431.321 552.769H262.881C262.881 552.769 259.768 552.269 258.768 557.769C257.769 563.269 259.675 569.489 259.816 577.769L262.889 577.618H431.321L434.569 577.727C434.702 569.439 434.71 561.1 434.768 552.811L431.321 552.769Z" fill="#E5E5E5"/>
<path d="M225.34 436.699C224.47 446.199 224.73 455.699 224.73 465.219C224.73 483.479 225.1 501.729 225.14 519.989C225.16 529.229 225.05 538.479 225.14 547.709C225.24 557.559 224.97 567.429 225.14 577.269C225.29 586.109 224.2 596.609 224.8 605.029C226.01 622.149 229.85 634.749 249.16 638.409C299.34 633.389 359.03 643.799 408.04 638.779C428.64 636.669 434.6 623.499 435.87 604.969C436.44 596.589 434.9 586.059 435.04 577.209C435.19 567.349 435.21 557.439 435.28 547.569C435.34 538.339 434.97 529.149 434.98 519.939C435.02 500.529 435.18 481.129 435.43 461.719C435.54 453.379 435.66 445.009 435.81 436.669" stroke="#A3A3A3" stroke-width="5" stroke-linecap="round" stroke-linejoin="round"/>
<path d="M220.36 464.559C214.37 468.079 197.45 491.409 191.88 490.079C188.42 489.259 142.33 442.999 142 439.459C142.12 437.589 142.93 436.299 144.03 434.839C151.1 425.499 217.46 360.119 225.14 356.139C227.74 354.789 230.64 354.489 233.45 353.919C237.28 353.139 275.34 352.709 277.25 353.779C281.26 356.039 283.38 366.579 286.84 371.099C306.12 396.299 355.07 396.539 373.48 370.179C376.07 366.469 379.02 354.809 380.73 353.779C383.26 352.259 430.13 352.859 435.74 356.499C445.76 367.719 516.61 430.889 517.95 438.519C518.95 444.249 475.55 483.359 468.99 489.879C463.75 491.429 444.53 469.279 439.59 464.539" stroke="#A3A3A3" stroke-width="5" stroke-linecap="round" stroke-linejoin="round"/>
<path d="M228.84 604.799H432.05" stroke="#A3A3A3" stroke-width="5" stroke-linecap="round" stroke-linejoin="round"/>
<path d="M228.84 577.089H431.13" stroke="#A3A3A3" stroke-width="5" stroke-linecap="round" stroke-linejoin="round"/>
<path d="M228.84 547.529H431.13" stroke="#A3A3A3" stroke-width="5" stroke-linecap="round" stroke-linejoin="round"/>
<path d="M228.84 519.819H431.13" stroke="#A3A3A3" stroke-width="5" stroke-linecap="round" stroke-linejoin="round"/>
<path d="M330.44 393.279V464.399" stroke="#A3A3A3" stroke-width="5" stroke-linecap="round" stroke-linejoin="round"/>
</svg>
