<svg viewBox="0 0 1280 720" fill="none" xmlns="http://www.w3.org/2000/svg">
<g clip-path="url(#clip0_65_3351)">
<rect width="1280" height="720" fill="white"/>
<g clip-path="url(#clip1_65_3351)">
<path d="M1280 0H0V720H1280V0Z" fill="#FCFCFD"/>
<path d="M1280 458.24C1205.76 406.64 1131.52 355.12 1030.12 339.28C928.854 323.36 800.569 343.2 708.836 321.28C617.103 299.44 561.92 235.84 527.36 175.36C492.943 114.88 479.147 57.44 465.352 0H1280V458.24Z" fill="#F5F5F5"/>
<path d="M0 261.76C102.969 273.44 205.938 285.04 305.351 305.36C404.622 325.68 500.338 354.72 576 396C651.662 437.28 707.271 490.72 743.68 546.72C780.089 602.72 797.298 661.36 814.649 720H0V261.76Z" fill="#F5F5F5"/>
</g>
<path d="M694.052 561.76C694.052 574.663 682.748 578.44 677.096 578.716H559.233H436.407C427.143 578.716 424.276 567.412 424 561.76V306.596C424 295.348 432.271 292.811 436.407 292.949H475.693C476.224 292.949 476.732 292.738 477.107 292.363L504.885 264.586C505.26 264.211 505.769 264 506.299 264H611.753C612.284 264 612.792 264.211 613.167 264.586L640.945 292.363C641.32 292.738 641.828 292.949 642.359 292.949H680.405C691.323 292.949 694.052 302.047 694.052 306.596V561.76Z" fill="white" stroke="#A3A3A3" stroke-width="5" stroke-linecap="round" stroke-linejoin="round"/>
<path d="M569.17 562.537C575.204 478.761 575.026 433.186 569.938 367.968C569.52 362.612 575.815 359.381 579.922 362.845C585.45 367.507 591.324 372.379 593.144 373.592C596.866 376.074 616.717 334.305 646.079 311.972C664.37 299.003 679.719 306.892 685.03 310.48C686.355 311.375 687.07 312.821 687.156 314.418C691.289 390.961 691.556 543.124 687.021 555.143C683.165 565.362 678.735 568.445 674.542 568.416C674.04 568.412 673.528 568.418 673.032 568.496C635.092 574.445 612.244 572.83 574.551 568.975C571.323 568.645 568.937 565.773 569.17 562.537Z" fill="#E5E5E5"/>
<path d="M594.983 332.145L588.532 324.676C586.02 321.767 586.867 317.288 590.17 315.322C604.878 306.563 612.793 298.097 620.971 283.816C623.021 280.236 627.952 279.526 630.793 282.517L636.81 288.85C638.997 291.152 639.011 294.76 636.843 297.079L603.908 332.321C601.472 334.927 597.315 334.845 594.983 332.145Z" fill="#E5E5E5"/>
<path d="M549.321 333.44L556.055 325.643C558.087 323.289 557.985 319.773 555.819 317.542L522.643 283.37C520.268 280.925 516.336 280.946 513.988 283.417L507.366 290.388C504.842 293.044 505.28 297.316 508.222 299.499C521.612 309.431 529.899 317.937 539.541 332.694C541.768 336.103 546.659 336.522 549.321 333.44Z" fill="#E5E5E5"/>
<path d="M505.885 264.827L557.768 320.732C558.559 321.584 559.908 321.584 560.699 320.732L612.582 264.827" stroke="#A3A3A3" stroke-width="5" stroke-linecap="round" stroke-linejoin="round"/>
<path d="M641.944 292.949L588.062 351.656C587.247 352.543 585.839 352.515 585.061 351.596L559.232 321.071" stroke="#A3A3A3" stroke-width="5" stroke-linecap="round" stroke-linejoin="round"/>
<path d="M477.761 292.949L531.644 351.656C532.458 352.543 533.866 352.515 534.644 351.596L560.473 321.071" stroke="#A3A3A3" stroke-width="5" stroke-linecap="round" stroke-linejoin="round"/>
<path d="M559.646 322.311V579.13" stroke="#A3A3A3" stroke-width="5" stroke-linecap="round" stroke-linejoin="round"/>
<path fill-rule="evenodd" clip-rule="evenodd" d="M445.345 307.01H471.221C473.047 307.01 474.821 307.634 476.237 308.788C497.817 326.375 509.139 338.695 523.679 360.165C525.85 363.369 529.982 364.632 533.542 363.115L539.367 360.634C544.432 358.477 550.114 361.986 550.463 367.48C554.75 434.939 554.76 478.249 549.326 542.21C548.126 540.526 546.158 539.428 543.933 539.428C540.279 539.428 537.316 542.391 537.316 546.045C537.316 549.7 540.279 552.662 543.933 552.662C545.743 552.662 547.384 551.935 548.578 550.757C548.345 553.352 548.104 555.981 547.854 558.649C547.503 562.391 544.58 565.395 540.844 565.805C508.862 569.312 485.46 569.181 444.742 565.756C440.363 565.388 437.112 561.532 437.454 557.152C443.954 473.817 443.661 417.862 437.355 315.537C437.071 310.929 440.728 307.01 445.345 307.01ZM461.223 409.572C458.939 409.572 457.087 411.423 457.087 413.707C457.087 415.991 458.939 417.843 461.223 417.843H516.639C518.923 417.843 520.775 415.991 520.775 413.707C520.775 411.423 518.923 409.572 516.639 409.572H461.223ZM550.55 379.796C550.55 383.45 547.587 386.413 543.933 386.413C540.279 386.413 537.316 383.45 537.316 379.796C537.316 376.141 540.279 373.179 543.933 373.179C547.587 373.179 550.55 376.141 550.55 379.796ZM543.933 441.829C547.587 441.829 550.55 438.867 550.55 435.212C550.55 431.558 547.587 428.595 543.933 428.595C540.279 428.595 537.316 431.558 537.316 435.212C537.316 438.867 540.279 441.829 543.933 441.829ZM550.55 490.629C550.55 494.283 547.587 497.246 543.933 497.246C540.279 497.246 537.316 494.283 537.316 490.629C537.316 486.974 540.279 484.012 543.933 484.012C547.587 484.012 550.55 486.974 550.55 490.629Z" fill="#E5E5E5"/>
<path d="M455.018 408.745H514.57" stroke="#A3A3A3" stroke-width="5" stroke-linecap="round" stroke-linejoin="round"/>
<circle cx="543.103" cy="378.141" r="4.1169" stroke="#A3A3A3" stroke-width="5"/>
<circle cx="543.103" cy="433.558" r="4.1169" stroke="#A3A3A3" stroke-width="5"/>
<circle cx="543.103" cy="488.974" r="4.1169" stroke="#A3A3A3" stroke-width="5"/>
<circle cx="543.103" cy="544.391" r="4.1169" stroke="#A3A3A3" stroke-width="5"/>
<path d="M775.677 499.76C775.677 512.663 764.373 516.44 758.721 516.716H640.858H518.032C508.768 516.716 505.901 505.412 505.625 499.76V244.596C505.625 233.348 513.896 230.811 518.032 230.949H557.318C557.849 230.949 558.357 230.738 558.732 230.363L586.51 202.586C586.885 202.211 587.394 202 587.924 202H693.378C693.909 202 694.417 202.211 694.792 202.586L722.57 230.363C722.945 230.738 723.453 230.949 723.984 230.949H762.03C772.948 230.949 775.677 240.047 775.677 244.596V499.76Z" fill="white" stroke="#A3A3A3" stroke-width="5" stroke-linecap="round" stroke-linejoin="round"/>
<path d="M650.795 500.537C656.829 416.761 656.651 371.186 651.563 305.968C651.145 300.612 657.44 297.381 661.547 300.845C667.075 305.507 672.949 310.379 674.769 311.592C678.491 314.074 698.342 272.305 727.704 249.972C745.995 237.003 761.344 244.892 766.655 248.48C767.98 249.375 768.695 250.821 768.781 252.418C772.914 328.961 773.181 481.124 768.646 493.143C764.79 503.362 760.36 506.445 756.167 506.416C755.665 506.412 755.153 506.418 754.657 506.496C716.717 512.445 693.869 510.83 656.176 506.975C652.948 506.645 650.562 503.773 650.795 500.537Z" fill="#E5E5E5"/>
<path d="M676.608 270.145L670.157 262.676C667.645 259.767 668.492 255.288 671.795 253.322C686.503 244.563 694.418 236.097 702.596 221.816C704.646 218.236 709.577 217.526 712.418 220.517L718.435 226.85C720.622 229.152 720.636 232.76 718.468 235.079L685.533 270.321C683.097 272.927 678.94 272.845 676.608 270.145Z" fill="#E5E5E5"/>
<path d="M630.946 271.44L637.68 263.643C639.712 261.289 639.61 257.773 637.444 255.542L604.268 221.37C601.893 218.925 597.961 218.946 595.613 221.417L588.991 228.388C586.467 231.044 586.905 235.316 589.847 237.499C603.237 247.431 611.524 255.937 621.166 270.694C623.393 274.103 628.284 274.522 630.946 271.44Z" fill="#E5E5E5"/>
<path d="M587.51 202.827L639.393 258.732C640.184 259.584 641.533 259.584 642.324 258.732L694.207 202.827" stroke="#A3A3A3" stroke-width="5" stroke-linecap="round" stroke-linejoin="round"/>
<path d="M723.569 230.949L669.687 289.656C668.872 290.543 667.464 290.515 666.686 289.596L640.857 259.071" stroke="#A3A3A3" stroke-width="5" stroke-linecap="round" stroke-linejoin="round"/>
<path d="M559.386 230.949L613.269 289.656C614.083 290.543 615.491 290.515 616.269 289.596L642.098 259.071" stroke="#A3A3A3" stroke-width="5" stroke-linecap="round" stroke-linejoin="round"/>
<path d="M641.271 260.311V517.13" stroke="#A3A3A3" stroke-width="5" stroke-linecap="round" stroke-linejoin="round"/>
<path fill-rule="evenodd" clip-rule="evenodd" d="M526.97 245.01H552.846C554.672 245.01 556.446 245.634 557.862 246.788C579.442 264.375 590.764 276.695 605.304 298.165C607.475 301.369 611.607 302.632 615.167 301.115L620.992 298.634C626.057 296.477 631.739 299.986 632.088 305.48C636.375 372.939 636.385 416.249 630.951 480.21C629.751 478.526 627.783 477.428 625.558 477.428C621.904 477.428 618.941 480.391 618.941 484.045C618.941 487.7 621.904 490.662 625.558 490.662C627.368 490.662 629.009 489.935 630.203 488.757C629.97 491.352 629.729 493.981 629.479 496.649C629.128 500.391 626.205 503.395 622.469 503.805C590.487 507.312 567.085 507.181 526.367 503.756C521.988 503.388 518.737 499.532 519.079 495.152C525.579 411.817 525.286 355.862 518.98 253.537C518.696 248.929 522.353 245.01 526.97 245.01ZM542.848 347.572C540.564 347.572 538.712 349.423 538.712 351.707C538.712 353.991 540.564 355.843 542.848 355.843H598.264C600.548 355.843 602.4 353.991 602.4 351.707C602.4 349.423 600.548 347.572 598.264 347.572H542.848ZM632.175 317.796C632.175 321.45 629.212 324.413 625.558 324.413C621.904 324.413 618.941 321.45 618.941 317.796C618.941 314.141 621.904 311.179 625.558 311.179C629.212 311.179 632.175 314.141 632.175 317.796ZM625.558 379.829C629.212 379.829 632.175 376.867 632.175 373.212C632.175 369.558 629.212 366.595 625.558 366.595C621.904 366.595 618.941 369.558 618.941 373.212C618.941 376.867 621.904 379.829 625.558 379.829ZM632.175 428.629C632.175 432.283 629.212 435.246 625.558 435.246C621.904 435.246 618.941 432.283 618.941 428.629C618.941 424.974 621.904 422.012 625.558 422.012C629.212 422.012 632.175 424.974 632.175 428.629Z" fill="#E5E5E5"/>
<path d="M536.643 346.745H596.195" stroke="#A3A3A3" stroke-width="5" stroke-linecap="round" stroke-linejoin="round"/>
<circle cx="624.728" cy="316.141" r="4.1169" stroke="#A3A3A3" stroke-width="5"/>
<circle cx="624.728" cy="371.558" r="4.1169" stroke="#A3A3A3" stroke-width="5"/>
<circle cx="624.728" cy="426.974" r="4.1169" stroke="#A3A3A3" stroke-width="5"/>
<circle cx="624.728" cy="482.391" r="4.1169" stroke="#A3A3A3" stroke-width="5"/>
<path d="M856.677 437.76C856.677 450.663 845.373 454.44 839.721 454.716H721.858H599.032C589.768 454.716 586.901 443.412 586.625 437.76V182.596C586.625 171.348 594.896 168.811 599.032 168.949H638.318C638.849 168.949 639.357 168.738 639.732 168.363L667.51 140.586C667.885 140.211 668.394 140 668.924 140H774.378C774.909 140 775.417 140.211 775.792 140.586L803.57 168.363C803.945 168.738 804.453 168.949 804.984 168.949H843.03C853.948 168.949 856.677 178.047 856.677 182.596V437.76Z" fill="white" stroke="#A3A3A3" stroke-width="5" stroke-linecap="round" stroke-linejoin="round"/>
<path d="M731.795 438.537C737.829 354.761 737.651 309.186 732.563 243.968C732.145 238.612 738.44 235.381 742.547 238.845C748.075 243.507 753.949 248.379 755.769 249.592C759.491 252.074 779.342 210.305 808.704 187.972C826.995 175.003 842.344 182.892 847.655 186.48C848.98 187.375 849.695 188.821 849.781 190.418C853.914 266.961 854.181 419.124 849.646 431.143C845.79 441.362 841.36 444.445 837.167 444.416C836.665 444.412 836.153 444.418 835.657 444.496C797.717 450.445 774.869 448.83 737.176 444.975C733.948 444.645 731.562 441.773 731.795 438.537Z" fill="#E5E5E5"/>
<path d="M757.608 208.145L751.157 200.676C748.645 197.767 749.492 193.288 752.795 191.322C767.503 182.563 775.418 174.097 783.596 159.816C785.646 156.236 790.577 155.526 793.418 158.517L799.435 164.85C801.622 167.152 801.636 170.76 799.468 173.079L766.533 208.321C764.097 210.927 759.94 210.845 757.608 208.145Z" fill="#E5E5E5"/>
<path d="M711.946 209.44L718.68 201.643C720.712 199.289 720.61 195.773 718.444 193.542L685.268 159.37C682.893 156.925 678.961 156.946 676.613 159.417L669.991 166.388C667.467 169.044 667.905 173.316 670.847 175.499C684.237 185.431 692.524 193.937 702.166 208.694C704.393 212.103 709.284 212.522 711.946 209.44Z" fill="#E5E5E5"/>
<path d="M668.51 140.827L720.393 196.732C721.184 197.584 722.533 197.584 723.324 196.732L775.207 140.827" stroke="#A3A3A3" stroke-width="5" stroke-linecap="round" stroke-linejoin="round"/>
<path d="M804.569 168.949L750.687 227.656C749.872 228.543 748.464 228.515 747.686 227.596L721.857 197.071" stroke="#A3A3A3" stroke-width="5" stroke-linecap="round" stroke-linejoin="round"/>
<path d="M640.386 168.949L694.269 227.656C695.083 228.543 696.491 228.515 697.269 227.596L723.098 197.071" stroke="#A3A3A3" stroke-width="5" stroke-linecap="round" stroke-linejoin="round"/>
<path d="M722.271 198.311V455.13" stroke="#A3A3A3" stroke-width="5" stroke-linecap="round" stroke-linejoin="round"/>
<path fill-rule="evenodd" clip-rule="evenodd" d="M607.97 183.01H633.846C635.672 183.01 637.446 183.634 638.862 184.788C660.442 202.375 671.764 214.695 686.304 236.165C688.475 239.369 692.607 240.632 696.167 239.115L701.992 236.634C707.057 234.477 712.739 237.986 713.088 243.48C717.375 310.939 717.385 354.249 711.951 418.21C710.751 416.526 708.783 415.428 706.558 415.428C702.904 415.428 699.941 418.391 699.941 422.045C699.941 425.7 702.904 428.662 706.558 428.662C708.368 428.662 710.009 427.935 711.203 426.757C710.97 429.352 710.729 431.981 710.479 434.649C710.128 438.391 707.205 441.395 703.469 441.805C671.487 445.312 648.085 445.181 607.367 441.756C602.988 441.388 599.737 437.532 600.079 433.152C606.579 349.817 606.286 293.862 599.98 191.537C599.696 186.929 603.353 183.01 607.97 183.01ZM623.848 285.572C621.564 285.572 619.712 287.423 619.712 289.707C619.712 291.991 621.564 293.843 623.848 293.843H679.264C681.548 293.843 683.4 291.991 683.4 289.707C683.4 287.423 681.548 285.572 679.264 285.572H623.848ZM713.175 255.796C713.175 259.45 710.212 262.413 706.558 262.413C702.904 262.413 699.941 259.45 699.941 255.796C699.941 252.141 702.904 249.179 706.558 249.179C710.212 249.179 713.175 252.141 713.175 255.796ZM706.558 317.829C710.212 317.829 713.175 314.867 713.175 311.212C713.175 307.558 710.212 304.595 706.558 304.595C702.904 304.595 699.941 307.558 699.941 311.212C699.941 314.867 702.904 317.829 706.558 317.829ZM713.175 366.629C713.175 370.283 710.212 373.246 706.558 373.246C702.904 373.246 699.941 370.283 699.941 366.629C699.941 362.974 702.904 360.012 706.558 360.012C710.212 360.012 713.175 362.974 713.175 366.629Z" fill="#E5E5E5"/>
<path d="M617.643 284.745H677.195" stroke="#A3A3A3" stroke-width="5" stroke-linecap="round" stroke-linejoin="round"/>
<circle cx="705.728" cy="254.141" r="4.1169" stroke="#A3A3A3" stroke-width="5"/>
<circle cx="705.728" cy="309.558" r="4.1169" stroke="#A3A3A3" stroke-width="5"/>
<circle cx="705.728" cy="364.974" r="4.1169" stroke="#A3A3A3" stroke-width="5"/>
<circle cx="705.728" cy="420.391" r="4.1169" stroke="#A3A3A3" stroke-width="5"/>
</g>
<defs>
<clipPath id="clip0_65_3351">
<rect width="1280" height="720" fill="white"/>
</clipPath>
<clipPath id="clip1_65_3351">
<rect width="1280" height="720" fill="white"/>
</clipPath>
</defs>
</svg>
