<svg preserveAspectRatio="xMidYMid slice" viewBox="0 0 980 700" fill="none" xmlns="http://www.w3.org/2000/svg">
<g clip-path="url(#clip0_65_3351)">
<rect width="980" height="700" fill="white"/>
<g clip-path="url(#clip1_65_3351)">
<path d="M1125 0H-155V720H1125V0Z" fill="#FCFCFD"/>
<path d="M1125 458.24C1050.76 406.64 976.52 355.12 875.116 339.28C773.854 323.36 645.569 343.2 553.836 321.28C462.103 299.44 406.92 235.84 372.36 175.36C337.943 114.88 324.147 57.44 310.352 0H1125V458.24Z" fill="#F5F5F5"/>
<path d="M-155 261.76C-52.0311 273.44 50.9378 285.04 150.351 305.36C249.622 325.68 345.338 354.72 421 396C496.662 437.28 552.271 490.72 588.68 546.72C625.089 602.72 642.298 661.36 659.649 720H-155V261.76Z" fill="#F5F5F5"/>
</g>
<path d="M544.052 551.76C544.052 564.663 532.748 568.44 527.096 568.716H409.233H286.407C277.143 568.716 274.276 557.412 274 551.76V296.596C274 285.348 282.271 282.811 286.407 282.949H325.693C326.224 282.949 326.732 282.738 327.107 282.363L354.885 254.586C355.26 254.211 355.769 254 356.299 254H461.753C462.284 254 462.792 254.211 463.167 254.586L490.945 282.363C491.32 282.738 491.828 282.949 492.359 282.949H530.405C541.323 282.949 544.052 292.047 544.052 296.596V551.76Z" fill="white" stroke="#A3A3A3" stroke-width="5" stroke-linecap="round" stroke-linejoin="round"/>
<path d="M419.17 552.537C425.204 468.761 425.026 423.186 419.938 357.968C419.52 352.612 425.815 349.381 429.922 352.845C435.45 357.507 441.324 362.379 443.144 363.592C446.866 366.074 466.717 324.305 496.079 301.972C514.37 289.003 529.719 296.892 535.03 300.48C536.355 301.375 537.07 302.821 537.156 304.418C541.289 380.961 541.556 533.124 537.021 545.143C533.165 555.362 528.735 558.445 524.542 558.416C524.04 558.412 523.528 558.418 523.032 558.496C485.092 564.445 462.244 562.83 424.551 558.975C421.323 558.645 418.937 555.773 419.17 552.537Z" fill="#E5E5E5"/>
<path d="M444.983 322.145L438.532 314.676C436.02 311.767 436.867 307.288 440.17 305.322C454.878 296.563 462.793 288.097 470.971 273.816C473.021 270.236 477.952 269.526 480.793 272.517L486.81 278.85C488.997 281.152 489.011 284.76 486.843 287.079L453.908 322.321C451.472 324.927 447.315 324.845 444.983 322.145Z" fill="#E5E5E5"/>
<path d="M399.321 323.44L406.055 315.643C408.087 313.289 407.985 309.773 405.819 307.542L372.643 273.37C370.268 270.925 366.336 270.946 363.988 273.417L357.366 280.388C354.842 283.044 355.28 287.316 358.222 289.499C371.612 299.431 379.899 307.937 389.541 322.694C391.768 326.103 396.659 326.522 399.321 323.44Z" fill="#E5E5E5"/>
<path d="M355.885 254.827L407.768 310.732C408.559 311.584 409.908 311.584 410.699 310.732L462.582 254.827" stroke="#A3A3A3" stroke-width="5" stroke-linecap="round" stroke-linejoin="round"/>
<path d="M491.944 282.949L438.062 341.656C437.247 342.543 435.839 342.515 435.061 341.596L409.232 311.071" stroke="#A3A3A3" stroke-width="5" stroke-linecap="round" stroke-linejoin="round"/>
<path d="M327.761 282.949L381.644 341.656C382.458 342.543 383.866 342.515 384.644 341.596L410.473 311.071" stroke="#A3A3A3" stroke-width="5" stroke-linecap="round" stroke-linejoin="round"/>
<path d="M409.646 312.311V569.13" stroke="#A3A3A3" stroke-width="5" stroke-linecap="round" stroke-linejoin="round"/>
<path fill-rule="evenodd" clip-rule="evenodd" d="M295.345 297.01H321.221C323.047 297.01 324.821 297.634 326.237 298.788C347.817 316.375 359.139 328.695 373.679 350.165C375.85 353.369 379.982 354.632 383.542 353.115L389.367 350.634C394.432 348.477 400.114 351.986 400.463 357.48C404.75 424.938 404.76 468.249 399.326 532.209C398.126 530.526 396.158 529.428 393.934 529.428C390.279 529.428 387.317 532.391 387.317 536.045C387.317 539.7 390.279 542.662 393.934 542.662C395.744 542.662 397.384 541.936 398.578 540.758C398.345 543.352 398.104 545.982 397.854 548.649C397.503 552.391 394.58 555.395 390.844 555.805C358.862 559.312 335.46 559.181 294.742 555.756C290.363 555.388 287.112 551.532 287.454 547.152C293.954 463.817 293.661 407.862 287.355 305.537C287.071 300.929 290.728 297.01 295.345 297.01ZM311.224 399.572C308.94 399.572 307.088 401.423 307.088 403.707C307.088 405.991 308.94 407.843 311.224 407.843H366.641C368.925 407.843 370.776 405.991 370.776 403.707C370.776 401.423 368.925 399.572 366.641 399.572H311.224ZM400.551 369.796C400.551 373.45 397.588 376.413 393.934 376.413C390.279 376.413 387.317 373.45 387.317 369.796C387.317 366.141 390.279 363.179 393.934 363.179C397.588 363.179 400.551 366.141 400.551 369.796ZM393.934 431.829C397.588 431.829 400.551 428.867 400.551 425.212C400.551 421.558 397.588 418.595 393.934 418.595C390.279 418.595 387.317 421.558 387.317 425.212C387.317 428.867 390.279 431.829 393.934 431.829ZM400.551 480.629C400.551 484.283 397.588 487.246 393.934 487.246C390.279 487.246 387.317 484.283 387.317 480.629C387.317 476.974 390.279 474.012 393.934 474.012C397.588 474.012 400.551 476.974 400.551 480.629Z" fill="#E5E5E5"/>
<path d="M305.018 398.745H364.57" stroke="#A3A3A3" stroke-width="5" stroke-linecap="round" stroke-linejoin="round"/>
<circle cx="393.103" cy="368.141" r="4.1169" stroke="#A3A3A3" stroke-width="5"/>
<circle cx="393.103" cy="423.558" r="4.1169" stroke="#A3A3A3" stroke-width="5"/>
<circle cx="393.103" cy="478.974" r="4.1169" stroke="#A3A3A3" stroke-width="5"/>
<circle cx="393.103" cy="534.391" r="4.1169" stroke="#A3A3A3" stroke-width="5"/>
<path d="M625.677 489.76C625.677 502.663 614.373 506.44 608.721 506.716H490.858H368.032C358.768 506.716 355.901 495.412 355.625 489.76V234.596C355.625 223.348 363.896 220.811 368.032 220.949H407.318C407.849 220.949 408.357 220.738 408.732 220.363L436.51 192.586C436.885 192.211 437.394 192 437.924 192H543.378C543.909 192 544.417 192.211 544.792 192.586L572.57 220.363C572.945 220.738 573.453 220.949 573.984 220.949H612.03C622.948 220.949 625.677 230.047 625.677 234.596V489.76Z" fill="white" stroke="#A3A3A3" stroke-width="5" stroke-linecap="round" stroke-linejoin="round"/>
<path d="M500.795 490.537C506.829 406.761 506.651 361.186 501.563 295.968C501.145 290.612 507.44 287.381 511.547 290.845C517.075 295.507 522.949 300.379 524.769 301.592C528.491 304.074 548.342 262.305 577.704 239.972C595.995 227.003 611.344 234.892 616.655 238.48C617.98 239.375 618.695 240.821 618.781 242.418C622.914 318.961 623.181 471.124 618.646 483.143C614.79 493.362 610.36 496.445 606.167 496.416C605.665 496.412 605.153 496.418 604.657 496.496C566.717 502.445 543.869 500.83 506.176 496.975C502.948 496.645 500.562 493.773 500.795 490.537Z" fill="#E5E5E5"/>
<path d="M526.608 260.145L520.157 252.676C517.645 249.767 518.492 245.288 521.795 243.322C536.503 234.563 544.418 226.097 552.596 211.816C554.646 208.236 559.577 207.526 562.418 210.517L568.435 216.85C570.622 219.152 570.636 222.76 568.468 225.079L535.533 260.321C533.097 262.927 528.94 262.845 526.608 260.145Z" fill="#E5E5E5"/>
<path d="M480.946 261.44L487.68 253.643C489.712 251.289 489.61 247.773 487.444 245.542L454.268 211.37C451.893 208.925 447.961 208.946 445.613 211.417L438.991 218.388C436.467 221.044 436.905 225.316 439.847 227.499C453.237 237.431 461.524 245.937 471.166 260.694C473.393 264.103 478.284 264.522 480.946 261.44Z" fill="#E5E5E5"/>
<path d="M437.51 192.827L489.393 248.732C490.184 249.584 491.533 249.584 492.324 248.732L544.207 192.827" stroke="#A3A3A3" stroke-width="5" stroke-linecap="round" stroke-linejoin="round"/>
<path d="M573.569 220.949L519.687 279.656C518.872 280.543 517.464 280.515 516.686 279.596L490.857 249.071" stroke="#A3A3A3" stroke-width="5" stroke-linecap="round" stroke-linejoin="round"/>
<path d="M409.386 220.949L463.269 279.656C464.083 280.543 465.491 280.515 466.269 279.596L492.098 249.071" stroke="#A3A3A3" stroke-width="5" stroke-linecap="round" stroke-linejoin="round"/>
<path d="M491.271 250.311V507.13" stroke="#A3A3A3" stroke-width="5" stroke-linecap="round" stroke-linejoin="round"/>
<path fill-rule="evenodd" clip-rule="evenodd" d="M376.97 235.01H402.846C404.672 235.01 406.446 235.634 407.862 236.788C429.442 254.375 440.764 266.695 455.304 288.165C457.475 291.369 461.607 292.632 465.167 291.115L470.992 288.634C476.057 286.477 481.739 289.986 482.088 295.48C486.375 362.938 486.385 406.249 480.951 470.209C479.751 468.526 477.783 467.428 475.559 467.428C471.904 467.428 468.942 470.391 468.942 474.045C468.942 477.7 471.904 480.662 475.559 480.662C477.369 480.662 479.009 479.936 480.203 478.758C479.97 481.352 479.729 483.982 479.479 486.649C479.128 490.391 476.205 493.395 472.469 493.805C440.487 497.312 417.085 497.181 376.367 493.756C371.988 493.388 368.737 489.532 369.079 485.152C375.579 401.817 375.286 345.862 368.98 243.537C368.696 238.929 372.353 235.01 376.97 235.01ZM392.849 337.572C390.565 337.572 388.713 339.423 388.713 341.707C388.713 343.991 390.565 345.843 392.849 345.843H448.266C450.55 345.843 452.401 343.991 452.401 341.707C452.401 339.423 450.55 337.572 448.266 337.572H392.849ZM482.176 307.796C482.176 311.45 479.213 314.413 475.559 314.413C471.904 314.413 468.942 311.45 468.942 307.796C468.942 304.141 471.904 301.179 475.559 301.179C479.213 301.179 482.176 304.141 482.176 307.796ZM475.559 369.829C479.213 369.829 482.176 366.867 482.176 363.212C482.176 359.558 479.213 356.595 475.559 356.595C471.904 356.595 468.942 359.558 468.942 363.212C468.942 366.867 471.904 369.829 475.559 369.829ZM482.176 418.629C482.176 422.283 479.213 425.246 475.559 425.246C471.904 425.246 468.942 422.283 468.942 418.629C468.942 414.974 471.904 412.012 475.559 412.012C479.213 412.012 482.176 414.974 482.176 418.629Z" fill="#E5E5E5"/>
<path d="M386.643 336.745H446.195" stroke="#A3A3A3" stroke-width="5" stroke-linecap="round" stroke-linejoin="round"/>
<circle cx="474.728" cy="306.141" r="4.1169" stroke="#A3A3A3" stroke-width="5"/>
<circle cx="474.728" cy="361.558" r="4.1169" stroke="#A3A3A3" stroke-width="5"/>
<circle cx="474.728" cy="416.974" r="4.1169" stroke="#A3A3A3" stroke-width="5"/>
<circle cx="474.728" cy="472.391" r="4.1169" stroke="#A3A3A3" stroke-width="5"/>
<path d="M706.677 427.76C706.677 440.663 695.373 444.44 689.721 444.716H571.858H449.032C439.768 444.716 436.901 433.412 436.625 427.76V172.596C436.625 161.348 444.896 158.811 449.032 158.949H488.318C488.849 158.949 489.357 158.738 489.732 158.363L517.51 130.586C517.885 130.211 518.394 130 518.924 130H624.378C624.909 130 625.417 130.211 625.792 130.586L653.57 158.363C653.945 158.738 654.453 158.949 654.984 158.949H693.03C703.948 158.949 706.677 168.047 706.677 172.596V427.76Z" fill="white" stroke="#A3A3A3" stroke-width="5" stroke-linecap="round" stroke-linejoin="round"/>
<path d="M581.795 428.537C587.829 344.761 587.651 299.186 582.563 233.968C582.145 228.612 588.44 225.381 592.547 228.845C598.075 233.507 603.949 238.379 605.769 239.592C609.491 242.074 629.342 200.305 658.704 177.972C676.995 165.003 692.344 172.892 697.655 176.48C698.98 177.375 699.695 178.821 699.781 180.418C703.914 256.961 704.181 409.124 699.646 421.143C695.79 431.362 691.36 434.445 687.167 434.416C686.665 434.412 686.153 434.418 685.657 434.496C647.717 440.445 624.869 438.83 587.176 434.975C583.948 434.645 581.562 431.773 581.795 428.537Z" fill="#E5E5E5"/>
<path d="M607.608 198.145L601.157 190.676C598.645 187.767 599.492 183.288 602.795 181.322C617.503 172.563 625.418 164.097 633.596 149.816C635.646 146.236 640.577 145.526 643.418 148.517L649.435 154.85C651.622 157.152 651.636 160.76 649.468 163.079L616.533 198.321C614.097 200.927 609.94 200.845 607.608 198.145Z" fill="#E5E5E5"/>
<path d="M561.946 199.44L568.68 191.643C570.712 189.289 570.61 185.773 568.444 183.542L535.268 149.37C532.893 146.925 528.961 146.946 526.613 149.417L519.991 156.388C517.467 159.044 517.905 163.316 520.847 165.499C534.237 175.431 542.524 183.937 552.166 198.694C554.393 202.103 559.284 202.522 561.946 199.44Z" fill="#E5E5E5"/>
<path d="M518.51 130.827L570.393 186.732C571.184 187.584 572.533 187.584 573.324 186.732L625.207 130.827" stroke="#A3A3A3" stroke-width="5" stroke-linecap="round" stroke-linejoin="round"/>
<path d="M654.569 158.949L600.687 217.656C599.872 218.543 598.464 218.515 597.686 217.596L571.857 187.071" stroke="#A3A3A3" stroke-width="5" stroke-linecap="round" stroke-linejoin="round"/>
<path d="M490.386 158.949L544.269 217.656C545.083 218.543 546.491 218.515 547.269 217.596L573.098 187.071" stroke="#A3A3A3" stroke-width="5" stroke-linecap="round" stroke-linejoin="round"/>
<path d="M572.271 188.311V445.13" stroke="#A3A3A3" stroke-width="5" stroke-linecap="round" stroke-linejoin="round"/>
<path fill-rule="evenodd" clip-rule="evenodd" d="M457.97 173.01H483.846C485.672 173.01 487.446 173.634 488.862 174.788C510.442 192.375 521.764 204.695 536.304 226.165C538.475 229.369 542.607 230.632 546.167 229.115L551.992 226.634C557.057 224.477 562.739 227.986 563.088 233.48C567.375 300.938 567.385 344.249 561.951 408.209C560.751 406.526 558.783 405.428 556.559 405.428C552.904 405.428 549.942 408.391 549.942 412.045C549.942 415.7 552.904 418.662 556.559 418.662C558.369 418.662 560.009 417.936 561.203 416.758C560.97 419.352 560.729 421.982 560.479 424.649C560.128 428.391 557.205 431.395 553.469 431.805C521.487 435.312 498.085 435.181 457.367 431.756C452.988 431.388 449.737 427.532 450.079 423.152C456.579 339.817 456.286 283.862 449.98 181.537C449.696 176.929 453.353 173.01 457.97 173.01ZM473.849 275.572C471.565 275.572 469.713 277.423 469.713 279.707C469.713 281.991 471.565 283.843 473.849 283.843H529.266C531.55 283.843 533.401 281.991 533.401 279.707C533.401 277.423 531.55 275.572 529.266 275.572H473.849ZM563.176 245.796C563.176 249.45 560.213 252.413 556.559 252.413C552.904 252.413 549.942 249.45 549.942 245.796C549.942 242.141 552.904 239.179 556.559 239.179C560.213 239.179 563.176 242.141 563.176 245.796ZM556.559 307.829C560.213 307.829 563.176 304.867 563.176 301.212C563.176 297.558 560.213 294.595 556.559 294.595C552.904 294.595 549.942 297.558 549.942 301.212C549.942 304.867 552.904 307.829 556.559 307.829ZM563.176 356.629C563.176 360.283 560.213 363.246 556.559 363.246C552.904 363.246 549.942 360.283 549.942 356.629C549.942 352.974 552.904 350.012 556.559 350.012C560.213 350.012 563.176 352.974 563.176 356.629Z" fill="#E5E5E5"/>
<path d="M467.643 274.745H527.195" stroke="#A3A3A3" stroke-width="5" stroke-linecap="round" stroke-linejoin="round"/>
<circle cx="555.728" cy="244.141" r="4.1169" stroke="#A3A3A3" stroke-width="5"/>
<circle cx="555.728" cy="299.558" r="4.1169" stroke="#A3A3A3" stroke-width="5"/>
<circle cx="555.728" cy="354.974" r="4.1169" stroke="#A3A3A3" stroke-width="5"/>
<circle cx="555.728" cy="410.391" r="4.1169" stroke="#A3A3A3" stroke-width="5"/>
</g>
<defs>
<clipPath id="clip0_65_3351">
<rect width="980" height="700" fill="white"/>
</clipPath>
<clipPath id="clip1_65_3351">
<rect width="980" height="700" fill="white"/>
</clipPath>
</defs>
</svg>
