<svg viewBox="0 0 1280 720" fill="none" xmlns="http://www.w3.org/2000/svg">
<g clip-path="url(#clip0_65_3281)">
<rect width="1280" height="720" fill="white"/>
<path d="M1280 0H0V720H1280V0Z" fill="#FCFCFD"/>
<path d="M1280 584.04C1211.02 526.8 1142.04 469.44 1062.26 443.52C982.471 417.48 892.018 422.64 815.36 392.04C738.702 361.32 675.982 294.84 640.427 223.56C604.871 152.16 596.338 76.08 587.805 0H1280V584.04Z" fill="#F5F5F5"/>
<path d="M0 135.96C89.4578 147.72 178.916 159.6 261.831 186.72C344.747 213.84 421.12 256.2 486.684 309.36C552.391 362.4 607.147 426.24 639.573 496.44C672 566.76 682.098 643.32 692.196 720H0V135.96Z" fill="#F5F5F5"/>
<path d="M550.427 469.981C513.765 394.412 490.822 355.032 453.808 301.096C450.767 296.666 454.603 290.721 459.892 291.667C467.011 292.941 474.534 294.223 476.716 294.363C481.18 294.651 477.487 248.553 491.75 214.532C501.105 194.154 518.343 193.312 524.736 193.764C526.331 193.876 527.673 194.771 528.546 196.111C570.396 260.333 646.71 391.976 648.792 404.653C650.562 415.43 648.266 420.316 644.621 422.386C644.184 422.634 643.744 422.896 643.354 423.211C613.471 447.333 592.876 457.358 558.306 472.866C555.346 474.195 551.843 472.901 550.427 469.981Z" fill="#E5E5E5"/>
<path d="M457.586 257.55L448.264 254.307C444.634 253.044 443.129 248.741 445.005 245.387C453.364 230.447 455.986 219.158 455.927 202.701C455.913 198.576 459.828 195.496 463.784 196.666L472.161 199.142C475.206 200.042 477.022 203.159 476.305 206.252L465.402 253.239C464.596 256.714 460.955 258.722 457.586 257.55Z" fill="#E5E5E5"/>
<path d="M418.688 281.502L420.621 271.383C421.204 268.328 419.357 265.334 416.366 264.485L370.549 251.48C367.269 250.549 363.874 252.534 363.077 255.848L360.827 265.196C359.97 268.758 362.485 272.239 366.125 272.658C382.686 274.564 394.116 277.788 409.844 285.746C413.478 287.585 417.923 285.502 418.688 281.502Z" fill="#E5E5E5"/>
<path d="M658.19 406.868C664.641 418.042 656.74 426.965 651.983 430.03L549.911 488.962L443.54 550.375C435.517 555.007 427.382 546.651 424.318 541.894L296.736 320.915C291.111 311.174 297.006 304.841 300.656 302.893L334.68 283.25C335.139 282.985 335.474 282.548 335.611 282.035L345.779 244.091C345.916 243.579 346.251 243.142 346.71 242.876L438.036 190.149C438.496 189.884 439.042 189.812 439.554 189.95L477.499 200.117C478.011 200.254 478.557 200.182 479.016 199.917L511.965 180.894C521.42 175.435 528.333 181.95 530.608 185.889L658.19 406.868Z" stroke="#A3A3A3" stroke-width="5" stroke-linecap="round" stroke-linejoin="round"/>
<path d="M346.764 243.8L419.648 266.274C420.759 266.616 421.928 265.942 422.187 264.808L439.166 190.451" stroke="#A3A3A3" stroke-width="5" stroke-linecap="round" stroke-linejoin="round"/>
<path d="M478.657 200.124L461.348 277.908C461.086 279.083 459.853 279.762 458.719 279.355L421.088 265.834" stroke="#A3A3A3" stroke-width="5" stroke-linecap="round" stroke-linejoin="round"/>
<path d="M336.472 282.215L412.488 306.116C413.637 306.478 414.843 305.749 415.057 304.564L422.162 265.214" stroke="#A3A3A3" stroke-width="5" stroke-linecap="round" stroke-linejoin="round"/>
<path d="M422.066 266.702L550.476 489.113" stroke="#A3A3A3" stroke-width="5" stroke-linecap="round" stroke-linejoin="round"/>
<path fill-rule="evenodd" clip-rule="evenodd" d="M315.427 310.602L337.836 297.664C339.417 296.751 341.266 296.404 343.069 296.696C370.552 301.136 386.516 306.145 409.844 317.468C413.326 319.158 417.535 318.185 419.861 315.092L423.664 310.031C426.972 305.63 433.647 305.828 436.697 310.412C474.139 366.689 495.803 404.192 523.077 462.301C521.196 461.442 518.942 461.475 517.015 462.588C513.85 464.415 512.766 468.462 514.593 471.627C516.42 474.792 520.467 475.876 523.632 474.049C525.2 473.143 526.257 471.693 526.703 470.075C527.798 472.439 528.904 474.838 530.022 477.273C531.589 480.689 530.559 484.752 527.529 486.975C501.585 506.003 481.253 517.591 444.277 534.984C440.301 536.855 435.558 535.141 433.664 531.176C397.626 455.756 369.395 407.445 312.771 321.981C310.221 318.133 311.428 312.91 315.427 310.602ZM380.457 391.484C378.479 392.626 377.802 395.155 378.944 397.133C380.086 399.112 382.615 399.789 384.593 398.647L432.585 370.939C434.563 369.797 435.241 367.268 434.099 365.29C432.957 363.312 430.428 362.634 428.45 363.776L380.457 391.484ZM442.929 321.034C444.756 324.198 443.672 328.245 440.507 330.072C437.342 331.9 433.296 330.815 431.468 327.651C429.641 324.486 430.726 320.439 433.89 318.612C437.055 316.784 441.102 317.869 442.929 321.034ZM468.215 378.065C471.38 376.237 472.465 372.191 470.637 369.026C468.81 365.861 464.763 364.777 461.599 366.604C458.434 368.431 457.349 372.478 459.177 375.643C461.004 378.807 465.051 379.892 468.215 378.065ZM498.346 417.018C500.173 420.183 499.089 424.229 495.924 426.057C492.759 427.884 488.712 426.799 486.885 423.635C485.058 420.47 486.142 416.423 489.307 414.596C492.472 412.769 496.518 413.853 498.346 417.018Z" fill="#E5E5E5"/>
<path d="M374.672 393.87L426.245 364.094" stroke="#A3A3A3" stroke-width="5" stroke-linecap="round" stroke-linejoin="round"/>
<circle cx="435.656" cy="323.323" r="4.1169" transform="rotate(-30 435.656 323.323)" stroke="#A3A3A3" stroke-width="5"/>
<circle cx="463.363" cy="371.315" r="4.1169" transform="rotate(-30 463.363 371.315)" stroke="#A3A3A3" stroke-width="5"/>
<circle cx="491.072" cy="419.307" r="4.1169" transform="rotate(-30 491.072 419.307)" stroke="#A3A3A3" stroke-width="5"/>
<circle cx="518.779" cy="467.299" r="4.1169" transform="rotate(-30 518.779 467.299)" stroke="#A3A3A3" stroke-width="5"/>
<path d="M749.399 480.126C796.513 410.591 819.146 371.032 847.348 312.009C849.665 307.161 856.731 307.51 858.556 312.563C861.013 319.365 863.664 326.521 864.633 328.482C866.616 332.492 904.692 306.244 941.286 301.585C963.612 299.498 972.96 314.006 975.765 319.768C976.465 321.206 976.361 322.815 975.637 324.241C940.945 392.596 865.095 524.507 855.158 532.648C846.709 539.57 841.331 540.025 837.715 537.903C837.282 537.649 836.835 537.398 836.366 537.218C800.535 523.4 781.556 510.577 750.84 488.392C748.21 486.492 747.579 482.812 749.399 480.126Z" fill="#E5E5E5"/>
<path d="M886.949 293.507L885.097 283.813C884.375 280.037 887.349 276.583 891.192 276.531C908.309 276.299 919.397 272.926 933.62 264.647C937.185 262.571 941.81 264.422 942.775 268.433L944.819 276.926C945.562 280.013 943.771 283.144 940.734 284.069L894.59 298.121C891.178 299.16 887.618 297.011 886.949 293.507Z" fill="#E5E5E5"/>
<path d="M846.757 271.797L856.487 268.412C859.424 267.39 861.093 264.293 860.333 261.278L848.687 215.097C847.854 211.791 844.437 209.844 841.168 210.81L831.948 213.536C828.435 214.574 826.677 218.493 828.134 221.854C834.765 237.15 837.688 248.66 838.66 266.261C838.884 270.327 842.91 273.136 846.757 271.797Z" fill="#E5E5E5"/>
<path d="M857.937 541.894C851.486 553.068 839.808 550.687 834.775 548.1L732.702 489.169L626.332 427.755C618.309 423.124 621.478 411.901 624.065 406.868L751.647 185.889C757.272 176.148 765.703 178.087 769.215 180.274L803.238 199.917C803.698 200.182 804.244 200.254 804.756 200.117L842.701 189.95C843.213 189.812 843.759 189.884 844.218 190.149L935.544 242.877C936.004 243.142 936.339 243.579 936.476 244.091L946.643 282.036C946.781 282.548 947.116 282.985 947.575 283.25L980.524 302.273C989.979 307.732 987.794 316.976 985.519 320.915L857.937 541.894Z" stroke="#A3A3A3" stroke-width="5" stroke-linecap="round" stroke-linejoin="round"/>
<path d="M843.445 190.658L860.425 265.015C860.684 266.149 861.852 266.823 862.964 266.481L935.848 244.007" stroke="#A3A3A3" stroke-width="5" stroke-linecap="round" stroke-linejoin="round"/>
<path d="M947.216 283.043L871.199 306.944C870.05 307.305 868.845 306.576 868.631 305.391L861.525 266.041" stroke="#A3A3A3" stroke-width="5" stroke-linecap="round" stroke-linejoin="round"/>
<path d="M805.03 200.952L822.34 278.735C822.601 279.91 823.835 280.59 824.968 280.182L862.599 266.661" stroke="#A3A3A3" stroke-width="5" stroke-linecap="round" stroke-linejoin="round"/>
<path d="M861.262 267.322L732.853 489.733" stroke="#A3A3A3" stroke-width="5" stroke-linecap="round" stroke-linejoin="round"/>
<path fill-rule="evenodd" clip-rule="evenodd" d="M769.925 196.919L792.334 209.857C793.915 210.77 795.14 212.198 795.789 213.905C805.685 239.926 809.329 256.256 811.187 282.12C811.464 285.98 814.412 289.139 818.253 289.606L824.538 290.37C830.003 291.034 833.169 296.914 830.724 301.847C800.708 362.411 779.062 399.925 742.374 452.599C742.177 450.541 741.022 448.606 739.095 447.494C735.93 445.666 731.883 446.751 730.056 449.915C728.229 453.08 729.313 457.127 732.478 458.954C734.046 459.86 735.83 460.05 737.454 459.627C735.955 461.758 734.431 463.914 732.88 466.099C730.706 469.164 726.672 470.304 723.232 468.791C693.781 455.838 673.58 444.023 640.029 420.698C636.422 418.19 635.534 413.225 638.02 409.603C685.317 340.683 713.04 292.078 758.742 200.309C760.8 196.176 765.926 194.61 769.925 196.919ZM732.394 293.679C730.416 292.537 727.886 293.215 726.744 295.193C725.602 297.171 726.28 299.7 728.258 300.842L776.25 328.55C778.228 329.692 780.757 329.015 781.899 327.037C783.041 325.059 782.364 322.529 780.386 321.387L732.394 293.679ZM824.642 312.556C822.814 315.721 818.768 316.805 815.603 314.978C812.438 313.151 811.354 309.104 813.181 305.939C815.008 302.774 819.055 301.69 822.22 303.517C825.384 305.345 826.469 309.391 824.642 312.556ZM787.895 362.97C791.059 364.797 795.106 363.713 796.933 360.548C798.761 357.383 797.676 353.337 794.511 351.509C791.347 349.682 787.3 350.767 785.473 353.931C783.645 357.096 784.73 361.143 787.895 362.97ZM769.225 408.54C767.398 411.705 763.351 412.789 760.186 410.962C757.021 409.135 755.937 405.088 757.764 401.923C759.592 398.759 763.638 397.674 766.803 399.501C769.968 401.329 771.052 405.375 769.225 408.54Z" fill="#E5E5E5"/>
<path d="M727.436 289.861L779.009 319.637" stroke="#A3A3A3" stroke-width="5" stroke-linecap="round" stroke-linejoin="round"/>
<circle cx="819.022" cy="307.401" r="4.1169" transform="rotate(30 819.022 307.401)" stroke="#A3A3A3" stroke-width="5"/>
<circle cx="791.313" cy="355.393" r="4.1169" transform="rotate(30 791.313 355.393)" stroke="#A3A3A3" stroke-width="5"/>
<circle cx="763.606" cy="403.386" r="4.1169" transform="rotate(30 763.606 403.386)" stroke="#A3A3A3" stroke-width="5"/>
<circle cx="735.897" cy="451.378" r="4.1169" transform="rotate(30 735.897 451.378)" stroke="#A3A3A3" stroke-width="5"/>
<path d="M775.427 552.631C775.427 565.534 764.123 569.311 758.471 569.586H640.608H517.782C508.518 569.586 505.651 558.283 505.375 552.631V297.467C505.375 286.218 513.646 283.681 517.782 283.819H557.068C557.599 283.819 558.107 283.609 558.482 283.233L586.26 255.456C586.635 255.081 587.144 254.87 587.674 254.87H693.128C693.659 254.87 694.167 255.081 694.542 255.456L722.32 283.233C722.695 283.609 723.203 283.819 723.734 283.819H761.78C772.698 283.819 775.427 292.917 775.427 297.467V552.631Z" fill="white" stroke="#A3A3A3" stroke-width="5" stroke-linecap="round" stroke-linejoin="round"/>
<path d="M650.545 553.407C656.579 469.632 656.401 424.056 651.313 358.839C650.895 353.482 657.19 350.251 661.297 353.715C666.825 358.377 672.699 363.249 674.519 364.463C678.241 366.944 698.092 325.175 727.454 302.843C745.745 289.873 761.094 297.763 766.405 301.35C767.73 302.246 768.445 303.691 768.531 305.288C772.664 381.831 772.931 533.995 768.396 546.014C764.54 556.232 760.11 559.315 755.917 559.286C755.415 559.282 754.903 559.289 754.407 559.367C716.467 565.315 693.619 563.7 655.926 559.846C652.698 559.516 650.312 556.644 650.545 553.407Z" fill="#E5E5E5"/>
<path d="M676.358 323.016L669.907 315.546C667.395 312.637 668.242 308.159 671.545 306.192C686.253 297.433 694.168 288.968 702.346 274.686C704.396 271.107 709.327 270.397 712.168 273.387L718.185 279.72C720.372 282.022 720.386 285.63 718.218 287.95L685.283 323.191C682.847 325.797 678.69 325.715 676.358 323.016Z" fill="#E5E5E5"/>
<path d="M630.696 324.31L637.43 316.513C639.462 314.16 639.36 310.643 637.194 308.412L604.018 274.241C601.643 271.795 597.711 271.816 595.363 274.288L588.741 281.258C586.217 283.915 586.655 288.187 589.597 290.37C602.987 300.301 611.274 308.807 620.916 323.564C623.143 326.973 628.034 327.392 630.696 324.31Z" fill="#E5E5E5"/>
<path d="M587.26 255.697L639.143 311.602C639.934 312.455 641.283 312.455 642.074 311.602L693.957 255.697" stroke="#A3A3A3" stroke-width="5" stroke-linecap="round" stroke-linejoin="round"/>
<path d="M723.319 283.819L669.437 342.527C668.622 343.414 667.214 343.385 666.436 342.466L640.607 311.941" stroke="#A3A3A3" stroke-width="5" stroke-linecap="round" stroke-linejoin="round"/>
<path d="M559.136 283.819L613.019 342.527C613.833 343.414 615.241 343.385 616.019 342.466L641.848 311.941" stroke="#A3A3A3" stroke-width="5" stroke-linecap="round" stroke-linejoin="round"/>
<path d="M641.021 313.182V570" stroke="#A3A3A3" stroke-width="5" stroke-linecap="round" stroke-linejoin="round"/>
<path fill-rule="evenodd" clip-rule="evenodd" d="M526.72 297.88H552.596C554.422 297.88 556.196 298.504 557.612 299.658C579.192 317.245 590.514 329.566 605.054 351.035C607.225 354.24 611.357 355.502 614.917 353.985L620.742 351.505C625.807 349.347 631.489 352.856 631.838 358.351C636.125 425.809 636.135 469.12 630.701 533.08C629.501 531.397 627.533 530.299 625.308 530.299C621.654 530.299 618.691 533.261 618.691 536.916C618.691 540.57 621.654 543.532 625.308 543.532C627.118 543.532 628.759 542.805 629.953 541.628C629.72 544.222 629.479 546.852 629.229 549.519C628.878 553.261 625.955 556.265 622.219 556.675C590.237 560.182 566.835 560.051 526.117 556.626C521.738 556.258 518.487 552.403 518.829 548.022C525.329 464.687 525.036 408.733 518.73 306.407C518.446 301.799 522.103 297.88 526.72 297.88ZM542.598 400.442C540.314 400.442 538.462 402.294 538.462 404.578C538.462 406.862 540.314 408.713 542.598 408.713H598.014C600.298 408.713 602.15 406.862 602.15 404.578C602.15 402.294 600.298 400.442 598.014 400.442H542.598ZM631.925 370.666C631.925 374.32 628.962 377.283 625.308 377.283C621.654 377.283 618.691 374.32 618.691 370.666C618.691 367.012 621.654 364.049 625.308 364.049C628.962 364.049 631.925 367.012 631.925 370.666ZM625.308 432.699C628.962 432.699 631.925 429.737 631.925 426.083C631.925 422.428 628.962 419.466 625.308 419.466C621.654 419.466 618.691 422.428 618.691 426.083C618.691 429.737 621.654 432.699 625.308 432.699ZM631.925 481.499C631.925 485.153 628.962 488.116 625.308 488.116C621.654 488.116 618.691 485.153 618.691 481.499C618.691 477.845 621.654 474.882 625.308 474.882C628.962 474.882 631.925 477.845 631.925 481.499Z" fill="#E5E5E5"/>
<path d="M536.393 399.615H595.945" stroke="#A3A3A3" stroke-width="5" stroke-linecap="round" stroke-linejoin="round"/>
<circle cx="624.478" cy="369.012" r="4.1169" stroke="#A3A3A3" stroke-width="5"/>
<circle cx="624.478" cy="424.428" r="4.1169" stroke="#A3A3A3" stroke-width="5"/>
<circle cx="624.478" cy="479.845" r="4.1169" stroke="#A3A3A3" stroke-width="5"/>
<circle cx="624.478" cy="535.261" r="4.1169" stroke="#A3A3A3" stroke-width="5"/>
</g>
<defs>
<clipPath id="clip0_65_3281">
<rect width="1280" height="720" fill="white"/>
</clipPath>
</defs>
</svg>
