<svg viewBox="0 0 1280 720" fill="none" xmlns="http://www.w3.org/2000/svg">
<g clip-path="url(#clip0_65_2987)">
<rect width="1280" height="720" fill="#F5F5F5"/>
<path d="M1190 423C1250.8 419.8 1280.67 401.667 1288 393V730H-6.00076C-9.33409 572 -14.0008 256 -6.00076 256C3.99924 256 14.9992 260 34.9992 273C54.9992 286 58.9992 301 87.9992 306C116.999 311 124.999 312 143.999 328C162.999 344 169.999 339 188.999 339C207.999 339 220.999 323 242.999 312C260.599 303.2 274.333 287.667 279 281C278 277 281.2 276.4 302 306C328 343 338 350 359 339C380 328 391 323 417 301C443 279 451 286 525 220C599 154 655 123 669 112C713 143 807 286 832 323C857 360 837 376 862 374C887 372 968 263 1003 286C1038 309 1059 393 1073 410C1087 427 1114 427 1190 423Z" fill="#A3A3A3"/>
<path d="M174 175C226 174.2 391 171.333 467 170C467 157 467 161 459 154C451 147 441 161 438 154C435 147 418 135 406 135C394 135 393 143 381 143C369 143 364 135 356 135C349.6 135 344 140.333 342 143C339 138 330.6 126.4 321 120C311.4 113.6 301 117.333 297 120C297 105 279 81.0001 255 81.0001C235.8 81.0001 225 87 222 90C218.333 74.3334 200.8 43.0001 160 43.0001C119.2 43.0001 100.333 79 96 97C95.6667 94.3333 87.6 89.2 58 90C21 91 27 120 10 120H-4.99996V175C33 175.333 122 175.8 174 175Z" fill="#FCFCFD"/>
<path d="M1295 221H900C900 204 925 203 946 199C967 195 965 187 983 187C1001 187 1004 194 1021 193C1038 192 1031 184 1053 176C1075 168 1092 181 1091 176C1090 171 1082 153 1122 121C1162 89 1212 125 1217 116C1217 56.8 1269 35.3333 1295 32V221Z" fill="#FCFCFD"/>
<path d="M926.5 321.817C954.922 296.374 985.026 273.375 1003 285.186C1017.03 294.405 1028.81 313.424 1038.79 334C1053.71 364.76 1025 337.5 1025 337.5C1025 337.5 1010.66 325.101 992 319.5C973.214 313.86 942.499 328 942.499 328C942.499 328 882.68 361.83 898 347.921C906.907 339.835 916.601 330.678 926.5 321.817Z" fill="#FCFCFD"/>
<path d="M832.001 322C857.001 359 837.001 375 862.001 373C862.001 373 848.886 378.417 840 379C805.68 381.251 801.834 341.155 779.5 315C757.714 289.487 759.318 237.994 727 247C713.604 250.733 712.786 267.175 699 269C675.147 272.157 686.803 222.513 663 219C633.715 214.678 646.297 288.695 618 280C603.48 275.538 604.461 259.039 591 252C552.086 231.653 546.464 328.264 503 322C490.649 320.22 485.253 313.362 473 311C433.325 303.352 384 338.667 376 347C368 355.333 342.628 360.383 322 355C301.518 349.655 283.334 327.333 279.001 322C274.667 316.667 263.204 342.97 252 338C241.84 333.493 243 311 243 311C260.6 302.2 274.334 286.667 279.001 280C278.001 276 281.201 275.4 302.001 305C328.001 342 338.001 349 359.001 338C380.001 327 391.001 322 417.001 300C443.001 278 451.001 285 525.001 219C599.001 153 655.001 122 669.001 111C713.001 142 807.001 285 832.001 322Z" fill="#FCFCFD"/>
<path d="M469.841 492.457C470.21 488.758 461.367 465.944 456.9 455C450.43 465.636 444.42 490.145 444.42 494.769C444.42 499.394 437.487 522.516 437.025 525.753C436.563 528.99 440.722 527.14 442.571 528.527C444.42 529.915 437.025 531.302 434.714 532.689C432.403 534.076 428.706 549.337 430.092 551.187C436.101 552.574 443.496 558.586 444.42 560.898C445.344 563.21 432.865 566.447 425.933 569.684C419 572.921 419 589.106 419 592.806C419 596.505 452.277 591.418 454.589 591.418C456.9 591.418 454.589 599.742 454.589 604.367C454.589 608.991 454.127 610.378 458.286 609.916C462.446 609.453 460.135 594.193 461.984 591.418C463.832 588.644 490.639 590.956 493.412 591.418C496.185 591.881 488.328 569.222 486.941 564.135C485.555 559.048 487.403 561.36 488.328 558.586C489.252 555.811 473.538 506.33 472.152 501.244C470.765 496.157 466.143 498.469 465.219 496.157C464.294 493.845 469.378 497.082 469.841 492.457Z" fill="#D4D4D4"/>
<path d="M729.841 534.457C730.21 530.758 721.367 507.944 716.9 497C710.43 507.636 704.42 532.145 704.42 536.769C704.42 541.394 697.487 564.516 697.025 567.753C696.563 570.99 700.722 569.14 702.571 570.527C704.42 571.915 697.025 573.302 694.714 574.689C692.403 576.076 688.706 591.337 690.092 593.187C696.101 594.574 703.496 600.586 704.42 602.898C705.344 605.21 692.865 608.447 685.933 611.684C679 614.921 679 631.106 679 634.806C679 638.505 712.277 633.418 714.589 633.418C716.9 633.418 714.589 641.742 714.589 646.367C714.589 650.991 714.127 652.378 718.286 651.916C722.446 651.453 720.135 636.193 721.984 633.418C723.832 630.644 750.639 632.956 753.412 633.418C756.185 633.881 748.328 611.222 746.941 606.135C745.555 601.048 747.403 603.36 748.328 600.586C749.252 597.811 733.538 548.33 732.152 543.244C730.765 538.157 726.143 540.469 725.219 538.157C724.294 535.845 729.378 539.082 729.841 534.457Z" fill="#D4D4D4"/>
<path d="M762.841 512.457C763.21 508.758 754.367 485.944 749.9 475C743.43 485.636 737.42 510.145 737.42 514.769C737.42 519.394 730.487 542.516 730.025 545.753C729.563 548.99 733.722 547.14 735.571 548.527C737.42 549.915 730.025 551.302 727.714 552.689C725.403 554.076 721.706 569.337 723.092 571.187C729.101 572.574 736.496 578.586 737.42 580.898C738.344 583.21 725.865 586.447 718.933 589.684C712 592.921 712 609.106 712 612.806C712 616.505 745.277 611.418 747.589 611.418C749.9 611.418 747.589 619.742 747.589 624.367C747.589 628.991 747.127 630.378 751.286 629.916C755.446 629.453 753.135 614.193 754.984 611.418C756.832 608.644 783.639 610.956 786.412 611.418C789.185 611.881 781.328 589.222 779.941 584.135C778.555 579.048 780.403 581.36 781.328 578.586C782.252 575.811 766.538 526.33 765.152 521.244C763.765 516.157 759.143 518.469 758.219 516.157C757.294 513.845 762.378 517.082 762.841 512.457Z" fill="#D4D4D4"/>
<path d="M793.841 487.457C794.21 483.758 785.367 460.944 780.9 450C774.43 460.636 768.42 485.145 768.42 489.769C768.42 494.394 761.487 517.516 761.025 520.753C760.563 523.99 764.722 522.14 766.571 523.527C768.42 524.915 761.025 526.302 758.714 527.689C756.403 529.076 752.706 544.337 754.092 546.187C760.101 547.574 767.496 553.586 768.42 555.898C769.344 558.21 756.865 561.447 749.933 564.684C743 567.921 743 584.106 743 587.806C743 591.505 776.277 586.418 778.589 586.418C780.9 586.418 778.589 594.742 778.589 599.367C778.589 603.991 778.127 605.378 782.286 604.916C786.446 604.453 784.135 589.193 785.984 586.418C787.832 583.644 814.639 585.956 817.412 586.418C820.185 586.881 812.328 564.222 810.941 559.135C809.555 554.048 811.403 556.36 812.328 553.586C813.252 550.811 797.538 501.33 796.152 496.244C794.765 491.157 790.143 493.469 789.219 491.157C788.294 488.845 793.378 492.082 793.841 487.457Z" fill="#D4D4D4"/>
<path d="M830.841 446.457C831.21 442.758 822.367 419.944 817.9 409C811.43 419.636 805.42 444.145 805.42 448.769C805.42 453.394 798.487 476.516 798.025 479.753C797.563 482.99 801.722 481.14 803.571 482.527C805.42 483.915 798.025 485.302 795.714 486.689C793.403 488.076 789.706 503.337 791.092 505.187C797.101 506.574 804.496 512.586 805.42 514.898C806.344 517.21 793.865 520.447 786.933 523.684C780 526.921 780 543.106 780 546.806C780 550.505 813.277 545.418 815.589 545.418C817.9 545.418 815.589 553.742 815.589 558.367C815.589 562.991 815.127 564.378 819.286 563.916C823.446 563.453 821.135 548.193 822.984 545.418C824.832 542.644 851.639 544.956 854.412 545.418C857.185 545.881 849.328 523.222 847.941 518.135C846.555 513.048 848.403 515.36 849.328 512.586C850.252 509.811 834.538 460.33 833.152 455.244C831.765 450.157 827.143 452.469 826.219 450.157C825.294 447.845 830.378 451.082 830.841 446.457Z" fill="#D4D4D4"/>
<path d="M870.841 452.457C871.21 448.758 862.367 425.944 857.9 415C851.43 425.636 845.42 450.145 845.42 454.769C845.42 459.394 838.487 482.516 838.025 485.753C837.563 488.99 841.722 487.14 843.571 488.527C845.42 489.915 838.025 491.302 835.714 492.689C833.403 494.076 829.706 509.337 831.092 511.187C837.101 512.574 844.496 518.586 845.42 520.898C846.344 523.21 833.865 526.447 826.933 529.684C820 532.921 820 549.106 820 552.806C820 556.505 853.277 551.418 855.589 551.418C857.9 551.418 855.589 559.742 855.589 564.367C855.589 568.991 855.127 570.378 859.286 569.916C863.446 569.453 861.135 554.193 862.984 551.418C864.832 548.644 891.639 550.956 894.412 551.418C897.185 551.881 889.328 529.222 887.941 524.135C886.555 519.048 888.403 521.36 889.328 518.586C890.252 515.811 874.538 466.33 873.152 461.244C871.765 456.157 867.143 458.469 866.219 456.157C865.294 453.845 870.378 457.082 870.841 452.457Z" fill="#D4D4D4"/>
<path d="M906.908 412.84C907.307 408.807 897.757 383.933 892.932 372C885.944 383.597 879.454 410.319 879.454 415.362C879.454 420.404 871.966 445.614 871.467 449.143C870.968 452.673 875.46 450.656 877.457 452.168C879.454 453.681 871.467 455.194 868.971 456.706C866.475 458.219 862.482 474.858 863.98 476.874C870.469 478.387 878.455 484.942 879.454 487.463C880.452 489.984 866.975 493.513 859.487 497.043C852 500.572 852 518.219 852 522.253C852 526.286 887.939 520.74 890.436 520.74C892.932 520.74 890.436 529.816 890.436 534.858C890.436 539.9 889.937 541.412 894.429 540.908C898.921 540.404 896.426 523.765 898.422 520.74C900.419 517.715 929.37 520.236 932.365 520.74C935.36 521.244 926.874 496.538 925.377 490.992C923.879 485.446 925.876 487.967 926.874 484.942C927.872 481.916 910.901 427.967 909.404 422.42C907.906 416.874 902.915 419.395 901.916 416.874C900.918 414.353 906.409 417.883 906.908 412.84Z" fill="#D4D4D4"/>
<path d="M974.687 396.915C975.135 392.381 964.406 364.416 958.985 351C951.135 364.038 943.843 394.081 943.843 399.75C943.843 405.418 935.431 433.761 934.87 437.729C934.31 441.697 939.357 439.43 941.6 441.13C943.843 442.831 934.87 444.531 932.066 446.232C929.263 447.932 924.776 466.639 926.459 468.906C933.749 470.607 942.721 477.976 943.843 480.81C944.964 483.644 929.823 487.612 921.412 491.58C913 495.548 913 515.388 913 519.923C913 524.458 953.376 518.223 956.181 518.223C958.986 518.223 956.181 528.426 956.181 534.095C956.181 539.763 955.62 541.464 960.667 540.897C965.714 540.33 962.91 521.624 965.153 518.223C967.397 514.821 999.922 517.656 1003.29 518.223C1006.65 518.789 997.118 491.013 995.435 484.778C993.753 478.543 995.996 481.377 997.118 477.976C998.239 474.575 979.173 413.921 977.491 407.686C975.808 401.45 970.2 404.284 969.079 401.45C967.957 398.616 974.126 402.584 974.687 396.915Z" fill="#D4D4D4"/>
<path d="M1018.91 400.84C1019.31 396.807 1009.76 371.933 1004.93 360C997.944 371.597 991.454 398.319 991.454 403.362C991.454 408.404 983.966 433.614 983.467 437.143C982.968 440.673 987.46 438.656 989.457 440.168C991.454 441.681 983.467 443.194 980.971 444.706C978.475 446.219 974.482 462.858 975.98 464.874C982.469 466.387 990.455 472.942 991.454 475.463C992.452 477.984 978.975 481.513 971.487 485.043C964 488.572 964 506.219 964 510.253C964 514.286 999.939 508.74 1002.44 508.74C1004.93 508.74 1002.44 517.816 1002.44 522.858C1002.44 527.9 1001.94 529.412 1006.43 528.908C1010.92 528.404 1008.43 511.765 1010.42 508.74C1012.42 505.715 1041.37 508.236 1044.36 508.74C1047.36 509.244 1038.87 484.538 1037.38 478.992C1035.88 473.446 1037.88 475.967 1038.87 472.942C1039.87 469.916 1022.9 415.967 1021.4 410.42C1019.91 404.874 1014.91 407.395 1013.92 404.874C1012.92 402.353 1018.41 405.883 1018.91 400.84Z" fill="#D4D4D4"/>
<path d="M1050.04 388.399C1050.5 383.816 1039.54 355.557 1034 342C1025.97 355.175 1018.52 385.535 1018.52 391.263C1018.52 396.991 1009.92 425.632 1009.35 429.642C1008.78 433.652 1013.94 431.36 1016.23 433.079C1018.52 434.797 1009.35 436.516 1006.49 438.234C1003.62 439.953 999.035 458.856 1000.75 461.147C1008.2 462.866 1017.37 470.312 1018.52 473.176C1019.67 476.041 1004.19 480.05 995.597 484.06C987 488.07 987 508.119 987 512.701C987 517.284 1028.26 510.983 1031.13 510.983C1034 510.983 1031.13 521.294 1031.13 527.022C1031.13 532.75 1030.56 534.469 1035.71 533.896C1040.87 533.323 1038.01 514.42 1040.3 510.983C1042.59 507.546 1075.83 510.41 1079.27 510.983C1082.71 511.556 1072.97 483.487 1071.25 477.186C1069.53 470.885 1071.82 473.749 1072.97 470.312C1074.11 466.875 1054.63 405.583 1052.91 399.282C1051.19 392.981 1045.46 395.845 1044.31 392.981C1043.17 390.117 1049.47 394.127 1050.04 388.399Z" fill="#D4D4D4"/>
<path d="M1101.02 338.657C1101.62 332.666 1087.35 295.723 1080.14 278C1069.71 295.223 1060.01 334.912 1060.01 342.401C1060.01 349.889 1048.83 387.332 1048.08 392.574C1047.33 397.816 1054.05 394.82 1057.03 397.067C1060.01 399.313 1048.08 401.56 1044.35 403.806C1040.62 406.053 1034.66 430.765 1036.9 433.76C1046.59 436.007 1058.52 445.742 1060.01 449.486C1061.5 453.23 1041.37 458.472 1030.18 463.714C1019 468.956 1019 495.166 1019 501.156C1019 507.147 1072.69 498.91 1076.42 498.91C1080.15 498.91 1076.42 512.389 1076.42 519.878C1076.42 527.366 1075.67 529.613 1082.38 528.864C1089.09 528.115 1085.36 503.403 1088.35 498.91C1091.33 494.417 1134.58 498.161 1139.05 498.91C1143.53 499.659 1130.85 462.965 1128.61 454.728C1126.38 446.491 1129.36 450.235 1130.85 445.742C1132.34 441.249 1106.99 361.122 1104.75 352.885C1102.51 344.647 1095.06 348.392 1093.57 344.647C1092.08 340.903 1100.28 346.145 1101.02 338.657Z" fill="#D4D4D4"/>
<path d="M1184.43 283.298C1185.2 275.565 1166.69 227.877 1157.34 205C1143.79 227.233 1131.21 278.465 1131.21 288.131C1131.21 297.797 1116.7 346.129 1115.73 352.896C1114.76 359.662 1123.47 355.796 1127.34 358.696C1131.21 361.596 1115.73 364.495 1110.89 367.395C1106.06 370.295 1098.32 402.194 1101.22 406.061C1113.8 408.961 1129.28 421.527 1131.21 426.36C1133.15 431.194 1107.02 437.96 1092.51 444.726C1078 451.493 1078 485.325 1078 493.058C1078 500.792 1147.66 490.159 1152.5 490.159C1157.34 490.159 1152.5 507.558 1152.5 517.224C1152.5 526.891 1151.53 529.791 1160.24 528.824C1168.95 527.857 1164.11 495.958 1167.98 490.159C1171.85 484.359 1227.96 489.192 1233.77 490.159C1239.57 491.125 1223.13 443.76 1220.22 433.127C1217.32 422.494 1221.19 427.327 1223.13 421.527C1225.06 415.727 1192.17 312.297 1189.26 301.664C1186.36 291.031 1176.69 295.864 1174.75 291.031C1172.82 286.198 1183.46 292.964 1184.43 283.298Z" fill="#D4D4D4"/>
<path d="M1253.02 316.415C1253.62 310.448 1239.35 273.652 1232.14 256C1221.71 273.155 1212.01 312.686 1212.01 320.144C1212.01 327.603 1200.83 364.896 1200.08 370.117C1199.33 375.338 1206.05 372.355 1209.03 374.592C1212.01 376.83 1200.08 379.067 1196.35 381.305C1192.62 383.543 1186.66 408.156 1188.9 411.14C1198.59 413.377 1210.52 423.073 1212.01 426.803C1213.5 430.532 1193.37 435.753 1182.18 440.974C1171 446.195 1171 472.3 1171 478.267C1171 484.234 1224.69 476.03 1228.42 476.03C1232.15 476.03 1228.42 489.455 1228.42 496.914C1228.42 504.373 1227.67 506.61 1234.38 505.864C1241.09 505.118 1237.36 480.505 1240.35 476.03C1243.33 471.555 1286.58 475.284 1291.05 476.03C1295.53 476.776 1282.85 440.228 1280.61 432.024C1278.38 423.819 1281.36 427.549 1282.85 423.073C1284.34 418.598 1258.99 338.791 1256.75 330.586C1254.51 322.382 1247.06 326.111 1245.57 322.382C1244.08 318.653 1252.28 323.874 1253.02 316.415Z" fill="#D4D4D4"/>
<path d="M1308.18 330.923C1308.69 325.696 1296.31 293.463 1290.06 278C1281 293.028 1272.59 327.657 1272.59 334.19C1272.59 340.724 1262.88 373.393 1262.24 377.967C1261.59 382.54 1267.41 379.927 1270 381.887C1272.59 383.847 1262.24 385.807 1259 387.767C1255.76 389.727 1250.59 411.289 1252.53 413.902C1260.94 415.862 1271.29 424.356 1272.59 427.623C1273.88 430.89 1256.41 435.464 1246.71 440.037C1237 444.611 1237 467.479 1237 472.706C1237 477.933 1283.59 470.746 1286.82 470.746C1290.06 470.746 1286.82 482.507 1286.82 489.041C1286.82 495.574 1286.18 497.534 1292 496.881C1297.82 496.228 1294.59 474.666 1297.18 470.746C1299.77 466.826 1337.29 470.093 1341.18 470.746C1345.06 471.399 1334.06 439.384 1332.12 432.197C1330.18 425.01 1332.76 428.277 1334.06 424.356C1335.35 420.436 1313.35 350.525 1311.41 343.338C1309.47 336.15 1303 339.417 1301.71 336.15C1300.41 332.884 1307.53 337.457 1308.18 330.923Z" fill="#D4D4D4"/>
<path d="M431.841 449.457C432.21 445.758 423.367 422.944 418.9 412C412.43 422.636 406.42 447.145 406.42 451.769C406.42 456.394 399.487 479.516 399.025 482.753C398.563 485.99 402.722 484.14 404.571 485.527C406.42 486.915 399.025 488.302 396.714 489.689C394.403 491.076 390.706 506.337 392.092 508.187C398.101 509.574 405.496 515.586 406.42 517.898C407.344 520.21 394.865 523.447 387.933 526.684C381 529.921 381 546.106 381 549.806C381 553.505 414.277 548.418 416.589 548.418C418.9 548.418 416.589 556.742 416.589 561.367C416.589 565.991 416.127 567.378 420.286 566.916C424.446 566.453 422.135 551.193 423.984 548.418C425.832 545.644 452.639 547.956 455.412 548.418C458.185 548.881 450.328 526.222 448.941 521.135C447.555 516.048 449.403 518.36 450.328 515.586C451.252 512.811 435.538 463.33 434.152 458.244C432.765 453.157 428.143 455.469 427.219 453.157C426.294 450.845 431.378 454.082 431.841 449.457Z" fill="#D4D4D4"/>
<path d="M400.841 416.457C401.21 412.758 392.367 389.944 387.9 379C381.43 389.636 375.42 414.145 375.42 418.769C375.42 423.394 368.487 446.516 368.025 449.753C367.563 452.99 371.722 451.14 373.571 452.527C375.42 453.915 368.025 455.302 365.714 456.689C363.403 458.076 359.706 473.337 361.092 475.187C367.101 476.574 374.496 482.586 375.42 484.898C376.344 487.21 363.865 490.447 356.933 493.684C350 496.921 350 513.106 350 516.806C350 520.505 383.277 515.418 385.589 515.418C387.9 515.418 385.589 523.742 385.589 528.367C385.589 532.991 385.127 534.378 389.286 533.916C393.446 533.453 391.135 518.193 392.984 515.418C394.832 512.644 421.639 514.956 424.412 515.418C427.185 515.881 419.328 493.222 417.941 488.135C416.555 483.048 418.403 485.36 419.328 482.586C420.252 479.811 404.538 430.33 403.152 425.244C401.765 420.157 397.143 422.469 396.219 420.157C395.294 417.845 400.378 421.082 400.841 416.457Z" fill="#D4D4D4"/>
<path d="M352.975 391.015C353.404 386.767 343.146 360.568 337.964 348C330.459 360.214 323.487 388.36 323.487 393.671C323.487 398.981 315.445 425.534 314.909 429.251C314.373 432.969 319.198 430.845 321.343 432.438C323.487 434.031 314.909 435.624 312.228 437.217C309.548 438.81 305.259 456.335 306.867 458.459C313.837 460.053 322.415 466.956 323.487 469.612C324.559 472.267 310.084 475.984 302.042 479.702C294 483.419 294 502.006 294 506.254C294 510.503 332.601 504.661 335.283 504.661C337.965 504.661 335.283 514.22 335.283 519.531C335.283 524.841 334.747 526.434 339.572 525.903C344.397 525.372 341.716 507.847 343.861 504.661C346.005 501.475 377.101 504.13 380.318 504.661C383.535 505.192 374.42 479.171 372.812 473.329C371.204 467.487 373.348 470.143 374.42 466.956C375.493 463.77 357.264 406.947 355.656 401.105C354.047 395.264 348.686 397.919 347.614 395.264C346.542 392.609 352.439 396.326 352.975 391.015Z" fill="#D4D4D4"/>
<path d="M307.667 341.69C308.254 335.795 294.223 299.44 287.134 282C276.869 298.949 267.333 338.005 267.333 345.375C267.333 352.744 256.333 389.589 255.6 394.748C254.866 399.906 261.466 396.958 264.4 399.169C267.333 401.38 255.6 403.591 251.933 405.801C248.266 408.012 242.4 432.33 244.6 435.278C254.133 437.489 265.866 447.069 267.333 450.753C268.8 454.438 249 459.596 238 464.754C227 469.913 227 495.705 227 501.6C227 507.495 279.799 499.389 283.467 499.389C287.135 499.389 283.467 512.654 283.467 520.023C283.467 527.392 282.734 529.603 289.334 528.866C295.934 528.129 292.267 503.811 295.201 499.389C298.134 494.968 340.667 498.652 345.067 499.389C349.467 500.126 337 464.018 334.8 455.911C332.6 447.805 335.534 451.49 337 447.069C338.467 442.647 313.534 363.797 311.334 355.691C309.134 347.585 301.801 351.27 300.334 347.585C298.867 343.901 306.934 349.059 307.667 341.69Z" fill="#D4D4D4"/>
<path d="M245.157 311.215C245.813 304.675 230.131 264.347 222.209 245C210.736 263.802 200.078 307.127 200.078 315.302C200.078 323.477 187.784 364.35 186.964 370.072C186.145 375.795 193.521 372.525 196.8 374.977C200.078 377.43 186.964 379.882 182.866 382.334C178.768 384.787 172.212 411.763 174.67 415.033C185.325 417.485 198.439 428.112 200.078 432.2C201.717 436.287 179.588 442.009 167.294 447.732C155 453.454 155 482.065 155 488.605C155 495.145 214.011 486.153 218.111 486.153C222.21 486.153 218.111 500.867 218.111 509.042C218.111 517.216 217.291 519.669 224.667 518.851C232.044 518.034 227.946 491.057 231.224 486.153C234.503 481.248 282.039 485.335 286.957 486.153C291.875 486.97 277.941 446.914 275.483 437.922C273.024 428.93 276.302 433.017 277.941 428.112C279.581 423.208 251.714 335.739 249.255 326.747C246.797 317.755 238.601 321.842 236.961 317.755C235.322 313.667 244.338 319.389 245.157 311.215Z" fill="#D4D4D4"/>
<path d="M175.849 250.889C176.663 242.703 157.208 192.219 147.379 168C133.146 191.536 119.924 245.773 119.924 256.006C119.924 266.239 104.672 317.405 103.655 324.569C102.638 331.732 111.789 327.639 115.857 330.709C119.924 333.779 103.655 336.849 98.5711 339.919C93.4871 342.989 85.3527 376.758 88.4031 380.852C101.621 383.921 117.89 397.225 119.924 402.341C121.957 407.458 94.5039 414.621 79.2519 421.785C64 428.948 64 464.764 64 472.951C64 481.137 137.209 469.881 142.295 469.881C147.381 469.881 142.295 488.301 142.295 498.534C142.295 508.767 141.278 511.837 150.43 510.814C159.581 509.79 154.497 476.021 158.564 469.881C162.631 463.741 221.605 468.857 227.706 469.881C233.807 470.904 216.521 420.761 213.471 409.505C210.421 398.248 214.488 403.365 216.521 397.225C218.555 391.085 183.984 281.589 180.933 270.332C177.883 259.076 167.715 264.193 165.681 259.076C163.648 253.959 174.833 261.123 175.849 250.889Z" fill="#D4D4D4"/>
<path d="M93.0229 284.898C93.6194 278.884 79.3527 241.793 72.1447 224C61.7069 241.292 52.0108 281.139 52.0108 288.657C52.0108 296.176 40.826 333.767 40.0804 339.03C39.3347 344.293 46.0456 341.286 49.0282 343.541C52.0108 345.797 40.0804 348.052 36.3521 350.307C32.6239 352.563 26.6587 377.373 28.8956 380.381C38.5891 382.636 50.5195 392.41 52.0108 396.169C53.5021 399.928 33.3695 405.191 22.1848 410.454C11 415.717 11 442.031 11 448.045C11 454.06 64.6868 445.79 68.4164 445.79C72.146 445.79 68.4164 459.323 68.4164 466.841C68.4164 474.359 67.6708 476.615 74.3817 475.863C81.0925 475.111 77.3643 450.301 80.3469 445.79C83.3295 441.279 126.577 445.038 131.051 445.79C135.525 446.542 122.849 409.702 120.612 401.432C118.375 393.162 121.358 396.921 122.849 392.41C124.34 387.899 98.9881 307.453 96.7512 299.183C94.5142 290.913 87.0577 294.672 85.5664 290.913C84.0751 287.154 92.2773 292.417 93.0229 284.898Z" fill="#D4D4D4"/>
<path d="M25.6477 240.706C26.3724 233.427 9.04001 188.536 0.283234 167C-12.3974 187.929 -24.177 236.156 -24.177 245.256C-24.177 254.356 -37.7651 299.853 -38.6709 306.223C-39.5768 312.593 -31.424 308.953 -27.8005 311.683C-24.177 314.412 -38.6709 317.142 -43.2003 319.872C-47.7297 322.602 -54.9767 352.63 -52.259 356.27C-40.4827 359 -25.9887 370.83 -24.177 375.379C-22.3652 379.929 -46.8238 386.299 -60.4119 392.668C-74 399.038 -74 430.886 -74 438.166C-74 445.446 -8.77714 435.436 -4.24613 435.436C0.284874 435.436 -4.24613 451.815 -4.24613 460.915C-4.24613 470.014 -5.15201 472.744 3.00085 471.834C11.1537 470.924 6.62434 440.896 10.2478 435.436C13.8713 429.977 66.412 434.526 71.8472 435.436C77.2824 436.346 61.8826 391.758 59.165 381.749C56.4474 371.74 60.0708 376.289 61.8826 370.83C63.6944 365.37 32.8947 268.005 30.177 257.995C27.4594 247.986 18.4007 252.536 16.589 247.986C14.7772 243.436 24.7418 249.806 25.6477 240.706Z" fill="#D4D4D4"/>
<path d="M1288 729V470C1198 470 1089 495 927 515C765 535 690 579 400 507C168 449.4 67.3333 431.667 -4 421V729H1288Z" fill="#E5E5E5"/>
<path d="M559 724.5C647.8 620.5 824.333 543.833 901.5 518.5C751.5 594.1 653.333 687.333 623 724.5H559Z" fill="#FAFAFA"/>
</g>
<defs>
<clipPath id="clip0_65_2987">
<rect width="1280" height="720" fill="white"/>
</clipPath>
</defs>
</svg>
