<svg preserveAspectRatio="xMidYMid slice" viewBox="0 0 1300 730" fill="none" xmlns="http://www.w3.org/2000/svg">
<g clip-path="url(#clip0_65_2835)">
<rect width="1300" height="730" fill="#F5F5F5"/>
<path d="M1251.51 356.435L1300 341.166V730H4V341.166C5.68355 348.97 11.677 368.242 22.1824 382.9C35.3141 401.222 129.256 425.651 164.611 427.687C199.966 429.723 213.097 392.061 235.32 401.222C253.099 408.551 273.705 415.133 281.786 417.508L295.928 407.329H306.03C320.845 395.115 359.567 364.781 395.931 341.166C441.387 311.648 528.259 236.324 554.522 238.36C580.786 240.395 637.353 310.63 669.677 309.612C702.002 308.594 763.62 260.753 825.238 228.181C870.367 204.325 909.908 177.511 927.894 164.298C930.28 162.546 933.64 163.19 935.462 165.523C960.474 197.571 1035.18 219.508 1096.96 273.986C1148.68 319.587 1221.55 347.952 1251.51 356.435Z" fill="#A3A3A3"/>
<path d="M1291.36 360.979L1297.76 367.628C1299.2 369.118 1300 371.108 1300 373.178V722C1300 726.418 1296.42 730 1292 730H8.17717C3.77058 730 0.193903 726.521 0.178752 722.115C-0.292071 585.18 -0.111572 332.037 4.24368 355.812C9.79403 386.111 45.1144 395.2 54.1968 401.26C63.2792 407.32 145.587 425.816 170.754 423.984C198.506 421.964 209.102 397.22 227.772 398.735C243.395 400.003 271.67 412.874 280.752 412.874C289.835 412.874 288.321 407.69 295.385 405.805C302.954 403.785 306.991 404.795 317.587 400.25C328.183 395.705 341.302 395.2 357.953 391.665C374.604 388.13 439.19 359.347 449.786 355.812C460.382 352.277 460.887 321.473 475.015 321.473C489.143 321.473 503.271 339.148 502.766 334.603C502.262 330.058 507.307 319.958 513.867 312.384C520.426 304.809 532.032 305.314 547.169 299.254C562.306 293.195 580.976 256.331 596.113 271.986C611.25 287.64 654.14 323.493 668.772 325.513C683.405 327.533 698.542 307.839 709.139 312.384C719.735 316.929 750.009 318.444 766.156 312.384C782.302 306.324 805.513 262.391 810.054 267.441C814.595 272.491 826.201 276.53 830.742 276.53C835.283 276.53 855.971 239.667 860.512 242.697C865.053 245.727 877.163 267.441 888.768 262.391C900.374 257.341 925.098 236.132 928.63 230.073C932.162 224.013 908.447 206.844 922.575 209.873C929.079 211.268 936.118 212.061 941.883 212.483C946.987 212.856 950.775 208.163 950.025 203.101C948.815 194.936 948.459 186.749 951.841 188.159C957.896 190.684 973.538 200.279 982.62 209.873C991.702 219.468 1038.63 297.739 1037.62 289.155C1036.61 280.57 1047.21 249.767 1051.24 247.242C1055.28 244.717 1055.78 256.331 1058.31 262.391C1060.83 268.451 1067.39 264.916 1074.45 267.441C1077.93 268.683 1081.71 280.05 1084.69 291.908C1085.59 295.457 1091.26 295.236 1091.72 291.605C1092.13 288.422 1097.61 287.07 1099.88 289.334C1130.8 320.139 1244.95 375.867 1254.08 374.496C1260.46 373.54 1272.27 366.02 1280.61 360.079C1283.94 357.709 1288.52 358.039 1291.36 360.979Z" fill="#D4D4D4"/>
<path d="M799.923 503.811C931.935 465.844 1188.31 432.117 1300 420V730H0V449.283C46.2848 439.186 42.2601 451.303 345.124 464.43C647.988 477.557 634.907 551.27 799.923 503.811Z" fill="#E5E5E5"/>
<path d="M916.532 552.436C1001.33 519.909 986.034 481.926 967.534 467L932.533 473.176C911.532 525.159 682.524 590.523 440.515 616.771C246.908 637.77 75.5022 701.007 14 730H477.016C527.518 682.65 810.528 593.096 916.532 552.436Z" fill="#F5F5F5"/>
<path d="M1150 321.5C1150.4 317.5 1140.83 292.833 1136 281C1129 292.5 1122.5 319 1122.5 324C1122.5 329 1115 354 1114.5 357.5C1114 361 1118.5 359 1120.5 360.5C1122.5 362 1114.5 363.5 1112 365C1109.5 366.5 1105.5 383 1107 385C1113.5 386.5 1121.5 393 1122.5 395.5C1123.5 398 1110 401.5 1102.5 405C1095 408.5 1095 426 1095 430C1095 434 1131 428.5 1133.5 428.5C1136 428.5 1133.5 437.5 1133.5 442.5C1133.5 447.5 1133 449 1137.5 448.5C1142 448 1139.5 431.5 1141.5 428.5C1143.5 425.5 1172.5 428 1175.5 428.5C1178.5 429 1170 404.5 1168.5 399C1167 393.5 1169 396 1170 393C1171 390 1154 336.5 1152.5 331C1151 325.5 1146 328 1145 325.5C1144 323 1149.5 326.5 1150 321.5Z" fill="#E5E5E5"/>
<path d="M1250.24 263.582C1250.79 258.092 1237.7 224.24 1231.09 208C1221.52 223.782 1212.62 260.151 1212.62 267.013C1212.62 273.875 1202.36 308.184 1201.68 312.988C1200.99 317.791 1207.15 315.046 1209.89 317.105C1212.62 319.163 1201.68 321.222 1198.26 323.281C1194.84 325.339 1189.36 347.984 1191.42 350.728C1200.31 352.787 1211.25 361.708 1212.62 365.139C1213.99 368.569 1195.52 373.373 1185.26 378.176C1175 382.98 1175 406.996 1175 412.486C1175 417.975 1224.25 410.427 1227.67 410.427C1231.09 410.427 1227.67 422.779 1227.67 429.641C1227.67 436.503 1226.99 438.561 1233.14 437.875C1239.3 437.189 1235.88 414.545 1238.62 410.427C1241.35 406.31 1281.03 409.741 1285.13 410.427C1289.23 411.114 1277.61 377.49 1275.55 369.942C1273.5 362.394 1276.24 365.825 1277.61 361.708C1278.97 357.59 1255.72 284.168 1253.66 276.619C1251.61 269.071 1244.77 272.502 1243.4 269.071C1242.04 265.64 1249.56 270.444 1250.24 263.582Z" fill="#E5E5E5"/>
<path d="M325.841 354.457C326.21 350.758 317.367 327.944 312.9 317C306.43 327.636 300.42 352.145 300.42 356.769C300.42 361.394 293.487 384.516 293.025 387.753C292.563 390.99 296.722 389.14 298.571 390.527C300.42 391.915 293.025 393.302 290.714 394.689C288.403 396.076 284.706 411.337 286.092 413.187C292.101 414.574 299.496 420.586 300.42 422.898C301.344 425.21 288.865 428.447 281.933 431.684C275 434.921 275 451.106 275 454.806C275 458.505 308.277 453.418 310.589 453.418C312.9 453.418 310.589 461.742 310.589 466.367C310.589 470.991 310.127 472.378 314.286 471.916C318.446 471.453 316.135 456.193 317.984 453.418C319.832 450.644 346.639 452.956 349.412 453.418C352.185 453.881 344.328 431.222 342.941 426.135C341.555 421.048 343.403 423.36 344.328 420.586C345.252 417.811 329.538 368.33 328.152 363.244C326.765 358.157 322.143 360.469 321.219 358.157C320.294 355.845 325.378 359.082 325.841 354.457Z" fill="#E5E5E5"/>
<path d="M245.975 327.015C246.404 322.767 236.146 296.568 230.964 284C223.459 296.214 216.487 324.36 216.487 329.671C216.487 334.981 208.445 361.534 207.909 365.251C207.373 368.969 212.198 366.845 214.343 368.438C216.487 370.031 207.909 371.624 205.228 373.217C202.548 374.81 198.259 392.335 199.867 394.459C206.837 396.053 215.415 402.956 216.487 405.612C217.559 408.267 203.084 411.984 195.042 415.702C187 419.419 187 438.006 187 442.254C187 446.503 225.601 440.661 228.283 440.661C230.965 440.661 228.283 450.22 228.283 455.531C228.283 460.841 227.747 462.434 232.572 461.903C237.397 461.372 234.716 443.847 236.861 440.661C239.005 437.475 270.101 440.13 273.318 440.661C276.535 441.192 267.42 415.171 265.812 409.329C264.204 403.487 266.348 406.143 267.42 402.956C268.493 399.77 250.264 342.947 248.656 337.105C247.047 331.264 241.686 333.919 240.614 331.264C239.542 328.609 245.439 332.326 245.975 327.015Z" fill="#E5E5E5"/>
<path d="M153.936 232.806C154.641 225.813 137.78 182.688 129.262 162C116.926 182.105 105.467 228.436 105.467 237.177C105.467 245.919 92.2489 289.626 91.3677 295.745C90.4865 301.864 98.4175 298.368 101.942 300.99C105.467 303.613 91.3677 306.235 86.9616 308.858C82.5555 311.48 75.5057 340.327 78.1494 343.824C89.6053 346.446 103.705 357.81 105.467 362.181C107.23 366.552 83.4367 372.671 70.2184 378.79C57 384.909 57 415.504 57 422.497C57 429.491 120.448 419.875 124.856 419.875C129.264 419.875 124.856 435.61 124.856 444.351C124.856 453.093 123.975 455.715 131.906 454.841C139.837 453.967 135.43 425.12 138.955 419.875C142.48 414.63 193.591 419.001 198.879 419.875C204.166 420.749 189.185 377.916 186.541 368.3C183.898 358.684 187.423 363.055 189.185 357.81C190.948 352.565 160.986 259.031 158.342 249.415C155.699 239.8 146.886 244.17 145.124 239.8C143.361 235.429 153.055 241.548 153.936 232.806Z" fill="#E5E5E5"/>
<path d="M52.6672 273.723C53.2538 267.923 39.2229 232.158 32.134 215C21.8688 231.675 12.3329 270.098 12.3329 277.348C12.3329 284.598 1.33303 320.847 0.599709 325.922C-0.133617 330.997 6.46632 328.097 9.39962 330.272C12.3329 332.447 0.599709 334.622 -3.06692 336.797C-6.73355 338.971 -12.6002 362.896 -10.4002 365.796C-0.866943 367.971 10.8663 377.395 12.3329 381.02C13.7996 384.645 -6.00023 389.72 -17.0001 394.795C-28 399.87 -28 425.244 -28 431.044C-28 436.844 24.7995 428.869 28.4674 428.869C32.1354 428.869 28.4674 441.919 28.4674 449.168C28.4674 456.418 27.7341 458.593 34.334 457.868C40.934 457.143 37.2673 433.219 40.2006 428.869C43.1339 424.519 85.6668 428.144 90.0668 428.869C94.4667 429.594 82.0002 394.07 79.8002 386.095C77.6002 378.12 80.5335 381.745 82.0002 377.395C83.4669 373.045 58.5338 295.473 56.3338 287.498C54.1338 279.523 46.8006 283.148 45.3339 279.523C43.8673 275.898 51.9338 280.973 52.6672 273.723Z" fill="#E5E5E5"/>
<path d="M427.5 160C441.1 160 445.167 171.667 445.5 177.5C445.5 177.5 383.109 183.775 343 184C298.993 184.247 230.5 177.5 230.5 177.5C230.5 147.5 264.833 155 282 162.5C282 136 328 106.5 343 106.5C358 106.5 368.5 108.5 378.5 123.5C388.5 138.5 396.5 145 402.5 151.5C408.5 158 407 168 410.5 168C414 168 410.5 160 427.5 160Z" fill="#FCFCFD"/>
<path d="M609.358 83.6761C618.91 83.6761 621.766 91.892 622 96C622 96 568.433 102.926 534 102C509.295 101.336 471 96 471 96C471 74.8732 495.113 80.1549 507.17 85.4366C507.17 66.7746 539.477 46 550.012 46C560.547 46 567.921 47.4085 574.944 57.9718C581.967 68.5352 587.586 73.1127 591.8 77.6901C596.014 82.2676 594.96 89.3099 597.419 89.3099C599.877 89.3099 597.419 83.6761 609.358 83.6761Z" fill="#FCFCFD"/>
<path d="M1059.64 89.6761C1050.09 89.6761 1047.23 97.892 1047 102C1047 102 1104.55 105.969 1139 107C1163.73 107.74 1198 102 1198 102C1198 80.8732 1173.89 86.1549 1161.83 91.4366C1161.83 72.7746 1129.52 52 1118.99 52C1108.45 52 1101.08 53.4085 1094.06 63.9718C1087.03 74.5352 1081.41 79.1127 1077.2 83.6901C1072.99 88.2676 1074.04 95.3099 1071.58 95.3099C1069.12 95.3099 1071.58 89.6761 1059.64 89.6761Z" fill="#FCFCFD"/>
<path d="M1299 440C1254.41 441.587 1068.48 474.881 981.593 491.081C981.593 495.049 982.062 497.033 981 501C1029.42 487.907 1213.17 478.022 1299 474.22V440Z" fill="#FAFAFA"/>
<path d="M782 595L815.185 583.937C894 585.949 1005.48 557.286 1098.3 548.737C1172.55 541.898 1263.7 518.063 1300 507V557.286C1261.98 556.615 1167.99 557.99 1096.22 568.851C1024.46 579.713 856.84 590.81 782 595Z" fill="#F5F5F5"/>
<path d="M741.096 562.62L770 555.041C721.162 557.062 583.56 539.378 490.868 536.346C398.176 533.314 371.266 507.04 236.215 506.03C128.174 505.221 33.7212 521.188 0 529.272V599C67.9408 579.294 216.381 539.782 266.614 539.378C329.405 538.872 393.193 564.641 529.739 560.094C638.976 556.456 722.159 560.262 741.096 562.62Z" fill="#F5F5F5"/>
</g>
<defs>
<clipPath id="clip0_65_2835">
<rect width="1300" height="730" fill="white"/>
</clipPath>
</defs>
</svg>
