<svg viewBox="0 0 1280 720" fill="none" xmlns="http://www.w3.org/2000/svg">
<g clip-path="url(#clip0_65_2835)">
<rect width="1280" height="720" fill="#F5F5F5"/>
<path d="M1234 353L1282 338V720H-1V338C0.666667 345.667 6.6 364.6 17 379C30 397 123 421 158 423C193 425 206 388 228 397C245.6 404.2 266 410.667 274 413L288 403H298C312.667 391 351 361.2 387 338C432 309 518 235 544 237C570 239 626 308 658 307C690 306 751 259 812 227C856.655 203.575 895.783 177.246 913.601 164.259C915.982 162.523 919.322 163.164 921.146 165.478C945.934 196.944 1019.86 218.499 1081 272C1132.2 316.8 1204.33 344.667 1234 353Z" fill="#A3A3A3"/>
<path d="M1274.48 359.161L1280.76 365.676C1282.2 367.167 1283 369.158 1283 371.229V716.5C1283 720.918 1279.42 724.5 1275 724.5H2.97019C-1.43639 724.5 -5.01307 721.02 -5.02822 716.613C-5.49443 581.01 -5.3148 330.464 -0.999906 354C4.50009 384 39.5 393 48.5 399C57.5 405 139.061 423.314 164 421.5C191.5 419.5 202 395 220.5 396.5C235.981 397.755 264 410.5 273 410.5C282 410.5 280.5 405.367 287.5 403.5C295 401.5 299 402.5 309.5 398C320 393.5 333 393 349.5 389.5C366 386 430 357.5 440.5 354C451 350.5 451.5 320 465.5 320C479.5 320 493.499 337.5 492.999 333C492.499 328.5 497.499 318.5 503.999 311C510.499 303.5 521.999 304 536.999 298C551.999 292 570.499 255.5 585.499 271C600.499 286.5 642.999 322 657.499 324C671.999 326 686.999 306.5 697.499 311C707.999 315.5 737.999 317 753.999 311C769.999 305 792.999 261.5 797.499 266.5C801.999 271.5 813.499 275.5 817.999 275.5C822.499 275.5 842.999 239 847.499 242C851.999 245 863.999 266.5 875.499 261.5C886.999 256.5 911.5 235.5 915 229.5C918.5 223.5 895 206.5 909 209.5C915.41 210.874 922.344 211.658 928.04 212.077C933.144 212.453 936.932 207.759 936.186 202.695C934.999 194.644 934.663 186.61 938 188C944 190.5 959.5 200 968.5 209.5C977.5 219 1024 296.5 1023 288C1022 279.5 1032.5 249 1036.5 246.5C1040.5 244 1041 255.5 1043.5 261.5C1046 267.5 1052.5 264 1059.5 266.5C1062.94 267.73 1066.69 278.986 1069.65 290.726C1070.53 294.243 1076.16 294.024 1076.61 290.426C1077.01 287.272 1082.44 285.933 1084.7 288.176C1115.33 318.676 1228.45 373.858 1237.5 372.5C1243.8 371.555 1255.48 364.137 1263.74 358.261C1267.06 355.895 1271.64 356.224 1274.48 359.161Z" fill="#D4D4D4"/>
<path d="M790 503C921.2 465.4 1176 432 1287 420V727H-5V449C41 439 37 451 338 464C639 477 626 550 790 503Z" fill="#E5E5E5"/>
<path d="M917 548C1001.8 516.4 986.5 479.5 968 465L933 471C912 521.5 683 585 441 610.5C247.4 630.9 76 692.333 14.5 720.5H477.5C528 674.5 811 587.5 917 548Z" fill="#F5F5F5"/>
<path d="M1150 311C1150.4 307 1140.83 282.333 1136 270.5C1129 282 1122.5 308.5 1122.5 313.5C1122.5 318.5 1115 343.5 1114.5 347C1114 350.5 1118.5 348.5 1120.5 350C1122.5 351.5 1114.5 353 1112 354.5C1109.5 356 1105.5 372.5 1107 374.5C1113.5 376 1121.5 382.5 1122.5 385C1123.5 387.5 1110 391 1102.5 394.5C1095 398 1095 415.5 1095 419.5C1095 423.5 1131 418 1133.5 418C1136 418 1133.5 427 1133.5 432C1133.5 437 1133 438.5 1137.5 438C1142 437.5 1139.5 421 1141.5 418C1143.5 415 1172.5 417.5 1175.5 418C1178.5 418.5 1170 394 1168.5 388.5C1167 383 1169 385.5 1170 382.5C1171 379.5 1154 326 1152.5 320.5C1151 315 1146 317.5 1145 315C1144 312.5 1149.5 316 1150 311Z" fill="#E5E5E5"/>
<path d="M1250.24 263.582C1250.79 258.092 1237.7 224.24 1231.09 208C1221.52 223.782 1212.62 260.151 1212.62 267.013C1212.62 273.875 1202.36 308.184 1201.68 312.988C1200.99 317.791 1207.15 315.046 1209.89 317.105C1212.62 319.163 1201.68 321.222 1198.26 323.281C1194.84 325.339 1189.36 347.984 1191.42 350.728C1200.31 352.787 1211.25 361.708 1212.62 365.139C1213.99 368.569 1195.52 373.373 1185.26 378.176C1175 382.98 1175 406.996 1175 412.486C1175 417.975 1224.25 410.427 1227.67 410.427C1231.09 410.427 1227.67 422.779 1227.67 429.641C1227.67 436.503 1226.99 438.561 1233.14 437.875C1239.3 437.189 1235.88 414.545 1238.62 410.427C1241.35 406.31 1281.03 409.741 1285.13 410.427C1289.23 411.114 1277.61 377.49 1275.55 369.942C1273.5 362.394 1276.24 365.825 1277.61 361.708C1278.97 357.59 1255.72 284.168 1253.66 276.619C1251.61 269.071 1244.77 272.502 1243.4 269.071C1242.04 265.64 1249.56 270.444 1250.24 263.582Z" fill="#E5E5E5"/>
<path d="M325.841 354.457C326.21 350.758 317.367 327.944 312.9 317C306.43 327.636 300.42 352.145 300.42 356.769C300.42 361.394 293.487 384.516 293.025 387.753C292.563 390.99 296.722 389.14 298.571 390.527C300.42 391.915 293.025 393.302 290.714 394.689C288.403 396.076 284.706 411.337 286.092 413.187C292.101 414.574 299.496 420.586 300.42 422.898C301.344 425.21 288.865 428.447 281.933 431.684C275 434.921 275 451.106 275 454.806C275 458.505 308.277 453.418 310.589 453.418C312.9 453.418 310.589 461.742 310.589 466.367C310.589 470.991 310.127 472.378 314.286 471.916C318.446 471.453 316.135 456.193 317.984 453.418C319.832 450.644 346.639 452.956 349.412 453.418C352.185 453.881 344.328 431.222 342.941 426.135C341.555 421.048 343.403 423.36 344.328 420.586C345.252 417.811 329.538 368.33 328.152 363.244C326.765 358.157 322.143 360.469 321.219 358.157C320.294 355.845 325.378 359.082 325.841 354.457Z" fill="#E5E5E5"/>
<path d="M245.975 323.015C246.404 318.767 236.146 292.568 230.964 280C223.459 292.214 216.487 320.36 216.487 325.671C216.487 330.981 208.445 357.534 207.909 361.251C207.373 364.969 212.198 362.845 214.343 364.438C216.487 366.031 207.909 367.624 205.228 369.217C202.548 370.81 198.259 388.335 199.867 390.459C206.837 392.053 215.415 398.956 216.487 401.612C217.559 404.267 203.084 407.984 195.042 411.702C187 415.419 187 434.006 187 438.254C187 442.503 225.601 436.661 228.283 436.661C230.965 436.661 228.283 446.22 228.283 451.531C228.283 456.841 227.747 458.434 232.572 457.903C237.397 457.372 234.716 439.847 236.861 436.661C239.005 433.475 270.101 436.13 273.318 436.661C276.535 437.192 267.42 411.171 265.812 405.329C264.204 399.487 266.348 402.143 267.42 398.956C268.493 395.77 250.264 338.947 248.656 333.105C247.047 327.264 241.686 329.919 240.614 327.264C239.542 324.609 245.439 328.326 245.975 323.015Z" fill="#E5E5E5"/>
<path d="M153.936 232.806C154.641 225.813 137.78 182.688 129.262 162C116.926 182.105 105.467 228.436 105.467 237.177C105.467 245.919 92.2489 289.626 91.3677 295.745C90.4865 301.864 98.4175 298.368 101.942 300.99C105.467 303.613 91.3677 306.235 86.9616 308.858C82.5555 311.48 75.5057 340.327 78.1494 343.824C89.6053 346.446 103.705 357.81 105.467 362.181C107.23 366.552 83.4367 372.671 70.2184 378.79C57 384.909 57 415.504 57 422.497C57 429.491 120.448 419.875 124.856 419.875C129.264 419.875 124.856 435.61 124.856 444.351C124.856 453.093 123.975 455.715 131.906 454.841C139.837 453.967 135.43 425.12 138.955 419.875C142.48 414.63 193.591 419.001 198.879 419.875C204.166 420.749 189.185 377.916 186.541 368.3C183.898 358.684 187.423 363.055 189.185 357.81C190.948 352.565 160.986 259.031 158.342 249.415C155.699 239.8 146.886 244.17 145.124 239.8C143.361 235.429 153.055 241.548 153.936 232.806Z" fill="#E5E5E5"/>
<path d="M52.6672 273.723C53.2538 267.923 39.2229 232.158 32.134 215C21.8688 231.675 12.3329 270.098 12.3329 277.348C12.3329 284.598 1.33303 320.847 0.599709 325.922C-0.133617 330.997 6.46632 328.097 9.39962 330.272C12.3329 332.447 0.599709 334.622 -3.06692 336.797C-6.73355 338.971 -12.6002 362.896 -10.4002 365.796C-0.866943 367.971 10.8663 377.395 12.3329 381.02C13.7996 384.645 -6.00023 389.72 -17.0001 394.795C-28 399.87 -28 425.244 -28 431.044C-28 436.844 24.7995 428.869 28.4674 428.869C32.1354 428.869 28.4674 441.919 28.4674 449.168C28.4674 456.418 27.7341 458.593 34.334 457.868C40.934 457.143 37.2673 433.219 40.2006 428.869C43.1339 424.519 85.6668 428.144 90.0668 428.869C94.4667 429.594 82.0002 394.07 79.8002 386.095C77.6002 378.12 80.5335 381.745 82.0002 377.395C83.4669 373.045 58.5338 295.473 56.3338 287.498C54.1338 279.523 46.8006 283.148 45.3339 279.523C43.8673 275.898 51.9338 280.973 52.6672 273.723Z" fill="#E5E5E5"/>
<path d="M427.5 160C441.1 160 445.167 171.667 445.5 177.5C445.5 177.5 383.109 183.775 343 184C298.993 184.247 230.5 177.5 230.5 177.5C230.5 147.5 264.833 155 282 162.5C282 136 328 106.5 343 106.5C358 106.5 368.5 108.5 378.5 123.5C388.5 138.5 396.5 145 402.5 151.5C408.5 158 407 168 410.5 168C414 168 410.5 160 427.5 160Z" fill="#FCFCFD"/>
<path d="M609.358 83.6761C618.91 83.6761 621.766 91.892 622 96C622 96 568.433 102.926 534 102C509.295 101.336 471 96 471 96C471 74.8732 495.113 80.1549 507.17 85.4366C507.17 66.7746 539.477 46 550.012 46C560.547 46 567.921 47.4085 574.944 57.9718C581.967 68.5352 587.586 73.1127 591.8 77.6901C596.014 82.2676 594.96 89.3099 597.419 89.3099C599.877 89.3099 597.419 83.6761 609.358 83.6761Z" fill="#FCFCFD"/>
<path d="M1059.64 89.6761C1050.09 89.6761 1047.23 97.892 1047 102C1047 102 1104.55 105.969 1139 107C1163.73 107.74 1198 102 1198 102C1198 80.8732 1173.89 86.1549 1161.83 91.4366C1161.83 72.7746 1129.52 52 1118.99 52C1108.45 52 1101.08 53.4085 1094.06 63.9718C1087.03 74.5352 1081.41 79.1127 1077.2 83.6901C1072.99 88.2676 1074.04 95.3099 1071.58 95.3099C1069.12 95.3099 1071.58 89.6761 1059.64 89.6761Z" fill="#FCFCFD"/>
<path d="M1280.5 439.5C1238.5 441.1 1064.33 474.667 982.499 491C982.499 495 981.999 497 980.999 501C1026.6 487.8 1199.67 477.833 1280.5 474V439.5Z" fill="#FAFAFA"/>
<path d="M782 595L814 584C890 586 997.5 557.5 1087 549C1158.6 542.2 1246.5 518.5 1281.5 507.5V557.5C1244.83 556.833 1154.2 558.2 1085 569C1015.8 579.8 854.167 590.833 782 595Z" fill="#F5F5F5"/>
<path d="M723 562.5L752 555C703 557 583 539.5 490 536.5C397 533.5 370 507.5 234.5 506.5C126.1 505.7 31.3333 521.5 -2.5 529.5V598.5C65.6667 579 214.6 539.9 265 539.5C328 539 392 564.5 529 560C638.6 556.4 704 560.167 723 562.5Z" fill="#F5F5F5"/>
</g>
<defs>
<clipPath id="clip0_65_2835">
<rect width="1280" height="720" fill="white"/>
</clipPath>
</defs>
</svg>
