<svg preserveAspectRatio="xMaxYMid slice" viewBox="0 0 1300 730" fill="none" xmlns="http://www.w3.org/2000/svg">
<g clip-path="url(#clip0_65_3281)">
<rect width="1300" height="730" fill="white"/>
<path d="M1300 0H0V730H1300V0Z" fill="#FCFCFD"/>
<path d="M1300.2 584.04C1231.22 526.8 1162.24 469.44 1082.45 443.52C1002.67 417.48 912.213 422.64 835.556 392.04C758.898 361.32 696.178 294.84 660.622 223.56C625.067 152.16 616.533 76.08 608 0H1300.2V584.04Z" fill="#F5F5F5"/>
<path d="M0 146C89.4578 157.76 178.916 169.64 261.831 196.76C344.747 223.88 421.12 266.24 486.684 319.4C552.391 372.44 607.147 436.28 639.573 506.48C672 576.8 682.098 653.36 692.196 730.04H0V146Z" fill="#F5F5F5"/>
<path d="M558.989 474.981C522.327 399.412 499.385 360.032 462.37 306.096C459.33 301.666 463.165 295.721 468.454 296.667C475.573 297.941 483.096 299.223 485.279 299.364C489.743 299.651 486.05 253.553 500.312 219.532C509.668 199.154 526.905 198.312 533.298 198.764C534.894 198.877 536.235 199.771 537.108 201.111C578.959 265.333 655.273 396.976 657.354 409.653C659.124 420.43 656.829 425.316 653.184 427.386C652.747 427.634 652.307 427.896 651.916 428.211C622.034 452.333 601.439 462.358 566.869 477.867C563.908 479.195 560.406 477.901 558.989 474.981Z" fill="#E5E5E5"/>
<path d="M466.148 262.55L456.827 259.307C453.197 258.044 451.691 253.742 453.568 250.387C461.926 235.447 464.548 224.159 464.49 207.701C464.475 203.577 468.391 200.496 472.347 201.666L480.723 204.142C483.768 205.042 485.585 208.159 484.867 211.252L473.965 258.24C473.158 261.714 469.517 263.722 466.148 262.55Z" fill="#E5E5E5"/>
<path d="M427.25 286.502L429.183 276.383C429.767 273.329 427.92 270.334 424.928 269.485L379.111 256.48C375.832 255.549 372.437 257.534 371.639 260.848L369.39 270.196C368.532 273.758 371.047 277.239 374.687 277.658C391.249 279.564 402.678 282.788 418.407 290.746C422.041 292.585 426.486 290.502 427.25 286.502Z" fill="#E5E5E5"/>
<path d="M666.752 411.868C673.204 423.042 665.303 431.965 660.546 435.03L558.473 493.962L452.103 555.375C444.08 560.007 435.945 551.651 432.88 546.894L305.298 325.915C299.674 316.174 305.569 309.842 309.219 307.893L343.242 288.25C343.701 287.985 344.037 287.548 344.174 287.036L354.341 249.091C354.478 248.579 354.814 248.142 355.273 247.877L446.599 195.149C447.058 194.884 447.604 194.812 448.117 194.95L486.061 205.117C486.574 205.254 487.119 205.182 487.579 204.917L520.527 185.894C529.983 180.435 536.896 186.95 539.17 190.889L666.752 411.868Z" stroke="#A3A3A3" stroke-width="5" stroke-linecap="round" stroke-linejoin="round"/>
<path d="M355.326 248.8L428.21 271.274C429.322 271.617 430.49 270.942 430.749 269.808L447.729 195.452" stroke="#A3A3A3" stroke-width="5" stroke-linecap="round" stroke-linejoin="round"/>
<path d="M487.22 205.125L469.91 282.908C469.649 284.083 468.415 284.763 467.282 284.355L429.651 270.834" stroke="#A3A3A3" stroke-width="5" stroke-linecap="round" stroke-linejoin="round"/>
<path d="M345.034 287.215L421.051 311.116C422.2 311.478 423.405 310.749 423.619 309.564L430.725 270.214" stroke="#A3A3A3" stroke-width="5" stroke-linecap="round" stroke-linejoin="round"/>
<path d="M430.629 271.702L559.038 494.113" stroke="#A3A3A3" stroke-width="5" stroke-linecap="round" stroke-linejoin="round"/>
<path fill-rule="evenodd" clip-rule="evenodd" d="M323.989 315.602L346.398 302.664C347.98 301.751 349.829 301.404 351.632 301.696C379.114 306.136 395.079 311.145 418.406 322.468C421.888 324.158 426.098 323.185 428.423 320.092L432.227 315.031C435.535 310.63 442.21 310.828 445.259 315.412C482.701 371.689 504.366 409.192 531.64 467.301C529.759 466.442 527.505 466.475 525.578 467.588C522.413 469.415 521.328 473.462 523.156 476.627C524.983 479.792 529.03 480.876 532.194 479.049C533.762 478.144 534.82 476.693 535.265 475.076C536.361 477.439 537.467 479.838 538.584 482.273C540.151 485.689 539.122 489.752 536.091 491.975C510.148 511.004 489.816 522.591 452.84 539.984C448.864 541.855 444.121 540.141 442.226 536.177C406.188 460.757 377.957 412.445 321.334 326.982C318.784 323.133 319.991 317.91 323.989 315.602ZM389.02 396.484C387.042 397.626 386.365 400.156 387.507 402.134C388.649 404.112 391.178 404.789 393.156 403.647L441.148 375.939C443.126 374.797 443.804 372.268 442.662 370.29C441.52 368.312 438.991 367.634 437.013 368.776L389.02 396.484ZM451.491 326.034C453.319 329.199 452.234 333.245 449.069 335.073C445.905 336.9 441.858 335.815 440.031 332.651C438.203 329.486 439.288 325.439 442.453 323.612C445.617 321.785 449.664 322.869 451.491 326.034ZM476.778 383.065C479.943 381.237 481.028 377.191 479.2 374.026C477.373 370.861 473.326 369.777 470.162 371.604C466.997 373.431 465.912 377.478 467.74 380.643C469.567 383.807 473.614 384.892 476.778 383.065ZM506.907 422.018C508.735 425.183 507.65 429.23 504.485 431.057C501.321 432.884 497.274 431.8 495.447 428.635C493.619 425.47 494.704 421.423 497.869 419.596C501.033 417.769 505.08 418.853 506.907 422.018Z" fill="#E5E5E5"/>
<path d="M383.234 398.87L434.808 369.094" stroke="#A3A3A3" stroke-width="5" stroke-linecap="round" stroke-linejoin="round"/>
<circle cx="444.219" cy="328.323" r="4.1169" transform="rotate(-30 444.219 328.323)" stroke="#A3A3A3" stroke-width="5"/>
<circle cx="471.926" cy="376.315" r="4.1169" transform="rotate(-30 471.926 376.315)" stroke="#A3A3A3" stroke-width="5"/>
<circle cx="499.635" cy="424.307" r="4.1169" transform="rotate(-30 499.635 424.307)" stroke="#A3A3A3" stroke-width="5"/>
<circle cx="527.342" cy="472.3" r="4.1169" transform="rotate(-30 527.342 472.3)" stroke="#A3A3A3" stroke-width="5"/>
<path d="M757.962 485.126C805.075 415.591 827.709 376.032 855.911 317.009C858.227 312.161 865.294 312.51 867.119 317.563C869.575 324.365 872.226 331.521 873.196 333.482C875.178 337.492 913.254 311.244 949.849 306.585C972.174 304.498 981.522 319.006 984.327 324.768C985.028 326.206 984.924 327.815 984.2 329.241C949.507 397.596 873.657 529.507 863.72 537.648C855.272 544.57 849.893 545.025 846.277 542.903C845.844 542.649 845.397 542.399 844.929 542.218C809.098 528.4 790.118 515.577 759.403 493.392C756.772 491.493 756.142 487.812 757.962 485.126Z" fill="#E5E5E5"/>
<path d="M895.511 298.507L893.659 288.813C892.938 285.037 895.911 281.583 899.754 281.531C916.872 281.299 927.959 277.926 942.182 269.647C945.747 267.572 950.373 269.422 951.338 273.433L953.382 281.926C954.125 285.013 952.334 288.144 949.296 289.069L903.152 303.121C899.74 304.16 896.18 302.011 895.511 298.507Z" fill="#E5E5E5"/>
<path d="M855.319 276.797L865.049 273.412C867.986 272.39 869.656 269.293 868.895 266.278L857.25 220.097C856.416 216.791 853 214.844 849.731 215.81L840.511 218.536C836.997 219.574 835.24 223.493 836.697 226.855C843.327 242.15 846.25 253.66 847.222 271.261C847.447 275.327 851.473 278.136 855.319 276.797Z" fill="#E5E5E5"/>
<path d="M866.5 546.894C860.048 558.068 848.37 555.688 843.338 553.1L741.265 494.169L634.894 432.756C626.872 428.124 630.04 416.901 632.628 411.868L760.21 190.89C765.834 181.148 774.265 183.087 777.778 185.274L811.801 204.917C812.26 205.182 812.806 205.254 813.319 205.117L851.263 194.95C851.776 194.812 852.321 194.884 852.781 195.15L944.107 247.877C944.566 248.142 944.901 248.579 945.039 249.091L955.206 287.036C955.343 287.548 955.678 287.985 956.137 288.25L989.086 307.273C998.541 312.732 996.356 321.976 994.082 325.916L866.5 546.894Z" stroke="#A3A3A3" stroke-width="5" stroke-linecap="round" stroke-linejoin="round"/>
<path d="M852.008 195.658L868.987 270.015C869.246 271.149 870.415 271.823 871.526 271.481L944.411 249.007" stroke="#A3A3A3" stroke-width="5" stroke-linecap="round" stroke-linejoin="round"/>
<path d="M955.778 288.043L879.762 311.944C878.613 312.305 877.407 311.576 877.193 310.391L870.088 271.041" stroke="#A3A3A3" stroke-width="5" stroke-linecap="round" stroke-linejoin="round"/>
<path d="M813.593 205.952L830.902 283.735C831.164 284.91 832.397 285.59 833.531 285.183L871.162 271.662" stroke="#A3A3A3" stroke-width="5" stroke-linecap="round" stroke-linejoin="round"/>
<path d="M869.824 272.322L741.415 494.733" stroke="#A3A3A3" stroke-width="5" stroke-linecap="round" stroke-linejoin="round"/>
<path fill-rule="evenodd" clip-rule="evenodd" d="M778.487 201.919L800.896 214.857C802.478 215.77 803.702 217.198 804.352 218.905C814.247 244.926 817.892 261.256 819.749 287.12C820.027 290.98 822.974 294.139 826.816 294.606L833.1 295.37C838.566 296.034 841.732 301.914 839.287 306.847C809.27 367.411 787.624 404.924 750.937 457.599C750.74 455.541 749.584 453.606 747.658 452.494C744.493 450.666 740.446 451.751 738.619 454.916C736.792 458.08 737.876 462.127 741.041 463.954C742.608 464.86 744.393 465.05 746.016 464.628C744.517 466.758 742.993 468.914 741.443 471.099C739.268 474.164 735.235 475.304 731.794 473.791C702.344 460.838 682.142 449.023 648.592 425.698C644.984 423.19 644.096 418.225 646.583 414.603C693.879 345.683 721.603 297.078 767.304 205.309C769.363 201.176 774.489 199.61 778.487 201.919ZM740.956 298.679C738.978 297.537 736.449 298.215 735.307 300.193C734.165 302.171 734.842 304.7 736.82 305.842L784.813 333.55C786.791 334.692 789.32 334.015 790.462 332.037C791.604 330.059 790.926 327.529 788.948 326.387L740.956 298.679ZM833.205 317.556C831.377 320.721 827.331 321.805 824.166 319.978C821.001 318.151 819.917 314.104 821.744 310.939C823.571 307.775 827.618 306.69 830.783 308.517C833.947 310.345 835.032 314.391 833.205 317.556ZM796.457 367.97C799.622 369.797 803.668 368.713 805.496 365.548C807.323 362.384 806.238 358.337 803.074 356.509C799.909 354.682 795.862 355.767 794.035 358.931C792.208 362.096 793.292 366.143 796.457 367.97ZM777.787 413.54C775.959 416.705 771.913 417.79 768.748 415.962C765.583 414.135 764.499 410.088 766.326 406.924C768.153 403.759 772.2 402.674 775.365 404.502C778.529 406.329 779.614 410.376 777.787 413.54Z" fill="#E5E5E5"/>
<path d="M735.998 294.861L787.572 324.637" stroke="#A3A3A3" stroke-width="5" stroke-linecap="round" stroke-linejoin="round"/>
<circle cx="827.584" cy="312.402" r="4.1169" transform="rotate(30 827.584 312.402)" stroke="#A3A3A3" stroke-width="5"/>
<circle cx="799.875" cy="360.394" r="4.1169" transform="rotate(30 799.875 360.394)" stroke="#A3A3A3" stroke-width="5"/>
<circle cx="772.168" cy="408.386" r="4.1169" transform="rotate(30 772.168 408.386)" stroke="#A3A3A3" stroke-width="5"/>
<circle cx="744.459" cy="456.378" r="4.1169" transform="rotate(30 744.459 456.378)" stroke="#A3A3A3" stroke-width="5"/>
<path d="M783.99 557.631C783.99 570.534 772.686 574.311 767.034 574.587H649.17H526.344C517.081 574.587 514.213 563.283 513.938 557.631V302.467C513.938 291.218 522.209 288.681 526.344 288.819H565.631C566.161 288.819 566.67 288.609 567.045 288.234L594.822 260.456C595.197 260.081 595.706 259.87 596.236 259.87H701.691C702.221 259.87 702.73 260.081 703.105 260.456L730.882 288.234C731.257 288.609 731.766 288.819 732.296 288.819H770.342C781.26 288.819 783.99 297.918 783.99 302.467V557.631Z" fill="white" stroke="#A3A3A3" stroke-width="5" stroke-linecap="round" stroke-linejoin="round"/>
<path d="M659.108 558.407C665.142 474.632 664.964 429.056 659.876 363.839C659.458 358.482 665.752 355.251 669.859 358.715C675.387 363.377 681.261 368.249 683.081 369.463C686.803 371.944 706.654 330.175 736.017 307.843C754.308 294.873 769.657 302.763 774.967 306.35C776.293 307.246 777.007 308.691 777.093 310.288C781.226 386.831 781.494 538.995 776.959 551.014C773.103 561.232 768.672 564.315 764.48 564.286C763.978 564.282 763.466 564.289 762.97 564.367C725.03 570.315 702.182 568.7 664.489 564.846C661.261 564.516 658.875 561.644 659.108 558.407Z" fill="#E5E5E5"/>
<path d="M684.921 328.016L678.47 320.546C675.957 317.637 676.805 313.159 680.107 311.192C694.816 302.433 702.731 293.968 710.909 279.686C712.959 276.107 717.89 275.397 720.731 278.387L726.747 284.721C728.934 287.023 728.949 290.63 726.781 292.95L693.845 328.191C691.41 330.797 687.252 330.715 684.921 328.016Z" fill="#E5E5E5"/>
<path d="M639.259 329.31L645.992 321.513C648.025 319.16 647.923 315.643 645.756 313.412L612.58 279.241C610.206 276.795 606.273 276.816 603.925 279.288L597.303 286.258C594.78 288.915 595.217 293.187 598.16 295.37C611.55 305.301 619.836 313.807 629.478 328.564C631.706 331.974 636.597 332.392 639.259 329.31Z" fill="#E5E5E5"/>
<path d="M595.822 260.698L647.705 316.602C648.496 317.455 649.846 317.455 650.637 316.602L702.52 260.698" stroke="#A3A3A3" stroke-width="5" stroke-linecap="round" stroke-linejoin="round"/>
<path d="M731.881 288.819L677.999 347.527C677.185 348.414 675.777 348.386 674.999 347.466L649.17 316.941" stroke="#A3A3A3" stroke-width="5" stroke-linecap="round" stroke-linejoin="round"/>
<path d="M567.699 288.819L621.581 347.527C622.395 348.414 623.803 348.386 624.581 347.466L650.41 316.941" stroke="#A3A3A3" stroke-width="5" stroke-linecap="round" stroke-linejoin="round"/>
<path d="M649.584 318.182V575" stroke="#A3A3A3" stroke-width="5" stroke-linecap="round" stroke-linejoin="round"/>
<path fill-rule="evenodd" clip-rule="evenodd" d="M535.282 302.88H561.158C562.984 302.88 564.759 303.504 566.175 304.658C587.755 322.245 599.076 334.566 613.617 356.035C615.787 359.24 619.919 360.502 623.48 358.985L629.304 356.505C634.369 354.347 640.051 357.856 640.4 363.351C644.687 430.809 644.698 474.119 639.263 538.079C638.064 536.396 636.096 535.299 633.871 535.299C630.217 535.299 627.254 538.261 627.254 541.916C627.254 545.57 630.217 548.533 633.871 548.533C635.681 548.533 637.321 547.806 638.516 546.629C638.283 549.223 638.041 551.852 637.791 554.519C637.44 558.261 634.517 561.265 630.781 561.675C598.8 565.182 575.398 565.051 534.679 561.627C530.301 561.258 527.05 557.403 527.391 553.022C533.891 469.687 533.599 413.733 527.293 311.408C527.009 306.799 530.665 302.88 535.282 302.88ZM551.162 405.442C548.878 405.442 547.026 407.294 547.026 409.578C547.026 411.862 548.878 413.713 551.162 413.713H606.578C608.862 413.713 610.714 411.862 610.714 409.578C610.714 407.294 608.862 405.442 606.578 405.442H551.162ZM640.488 375.666C640.488 379.321 637.526 382.283 633.871 382.283C630.217 382.283 627.254 379.321 627.254 375.666C627.254 372.012 630.217 369.049 633.871 369.049C637.526 369.049 640.488 372.012 640.488 375.666ZM633.871 437.7C637.526 437.7 640.488 434.737 640.488 431.083C640.488 427.428 637.526 424.466 633.871 424.466C630.217 424.466 627.254 427.428 627.254 431.083C627.254 434.737 630.217 437.7 633.871 437.7ZM640.488 486.499C640.488 490.154 637.526 493.116 633.871 493.116C630.217 493.116 627.254 490.154 627.254 486.499C627.254 482.845 630.217 479.882 633.871 479.882C637.526 479.882 640.488 482.845 640.488 486.499Z" fill="#E5E5E5"/>
<path d="M544.955 404.615H604.507" stroke="#A3A3A3" stroke-width="5" stroke-linecap="round" stroke-linejoin="round"/>
<circle cx="633.041" cy="374.012" r="4.1169" stroke="#A3A3A3" stroke-width="5"/>
<circle cx="633.041" cy="429.428" r="4.1169" stroke="#A3A3A3" stroke-width="5"/>
<circle cx="633.041" cy="484.845" r="4.1169" stroke="#A3A3A3" stroke-width="5"/>
<circle cx="633.041" cy="540.261" r="4.1169" stroke="#A3A3A3" stroke-width="5"/>
</g>
<defs>
<clipPath id="clip0_65_3281">
<rect width="1300" height="730" fill="white"/>
</clipPath>
</defs>
</svg>
