<svg preserveAspectRatio="xMidYMid slice" viewBox="0 0 525 525" fill="none" xmlns="http://www.w3.org/2000/svg">
<rect width="525" height="525" fill="white"/>
<path d="M239.872 275.199L237.36 276.741C236.665 277.168 236.084 277.758 235.67 278.46L224.453 297.458C222.485 300.791 224.888 305 228.759 305H272.221C276.096 305 278.499 300.782 276.522 297.449L265.256 278.455C264.842 277.756 264.263 277.169 263.571 276.744L261.13 275.246C259.025 273.954 256.292 274.393 254.697 276.279L254.349 276.691C252.379 279.021 248.799 279.058 246.781 276.77L246.237 276.153C244.629 274.331 241.944 273.928 239.872 275.199Z" fill="#E5E5E5"/>
<path d="M273.155 305H225.845C221.955 305 219.555 300.754 221.561 297.422L245.216 258.118C247.159 254.889 251.841 254.889 253.784 258.118L277.439 297.422C279.445 300.754 277.045 305 273.155 305Z" stroke="#A3A3A3" stroke-width="2" stroke-linejoin="round"/>
<path d="M315.18 305H247.82C243.936 305 241.535 300.765 243.53 297.432L277.21 241.167C279.151 237.924 283.849 237.924 285.79 241.167L319.47 297.432C321.465 300.765 319.064 305 315.18 305Z" fill="white" stroke="#A3A3A3" stroke-width="2" stroke-linejoin="round"/>
<path d="M269.591 265.156L264.708 268.118C264.01 268.542 263.427 269.129 263.009 269.829L246.518 297.436C244.527 300.769 246.929 305 250.811 305H314.169C318.055 305 320.456 300.76 318.456 297.427L301.893 269.824C301.475 269.127 300.893 268.543 300.199 268.121L295.387 265.203C293.293 263.932 290.587 264.366 288.995 266.227L286.367 269.299C284.398 271.599 280.853 271.636 278.837 269.377L275.915 266.102C274.31 264.304 271.652 263.907 269.591 265.156Z" fill="#E5E5E5"/>
<path d="M262.484 301.992C210.083 306.393 183.401 307.843 176.61 308.018H173V324H353V299.895C349.648 298.935 340.725 297.013 331.854 297.013C320.765 297.013 327.986 296.489 262.484 301.992Z" fill="#D4D4D4"/>
<path d="M263.516 306.992C315.917 311.393 342.599 312.843 349.39 313.018H353V324H173L173 304.895C176.352 303.935 185.275 302.013 194.146 302.013C205.235 302.013 198.014 301.489 263.516 306.992Z" fill="#E5E5E5"/>
<path d="M262.484 310.992C210.083 315.393 183.401 316.843 176.61 317.018H173V323C173 328.523 177.477 333 183 333H343C348.523 333 353 328.523 353 323V308.895C349.648 307.935 340.725 306.013 331.854 306.013C320.765 306.013 327.986 305.489 262.484 310.992Z" fill="#F5F5F5"/>
<path d="M352 306.891C348.685 305.932 339.861 304.013 331.089 304.013C320.123 304.013 327.264 303.49 262.49 308.984C210.671 313.378 184.286 314.826 177.57 315H174" stroke="#A3A3A3" stroke-width="2" stroke-linecap="round" stroke-linejoin="round"/>
<path d="M352 300.238C348.795 299.164 340.264 297.015 331.782 297.015C321.18 297.015 328.084 296.429 265.457 302.582C256.132 303.498 247.658 304.3 240 305" stroke="#A3A3A3" stroke-width="2" stroke-linecap="round" stroke-linejoin="round"/>
<path d="M174 304.798C177.216 303.869 185.776 302.013 194.287 302.013C204.925 302.013 197.998 301.507 260.836 306.823C265.796 307.243 270.515 307.634 275 308" stroke="#A3A3A3" stroke-width="2" stroke-linecap="round" stroke-linejoin="round"/>
<circle cx="204.5" cy="213.5" r="4.5" fill="#E5E5E5"/>
<circle cx="203.5" cy="212.5" r="5.5" stroke="#A3A3A3" stroke-width="2"/>
<rect x="174" y="194" width="178" height="138" rx="7" stroke="#A3A3A3" stroke-width="2"/>
</svg>
