<svg viewBox="0 0 1280 720" fill="none" xmlns="http://www.w3.org/2000/svg">
<rect width="1280" height="720" fill="white"/>
<path d="M616.872 372.199L614.36 373.741C613.665 374.168 613.084 374.758 612.67 375.46L601.453 394.458C599.485 397.791 601.888 402 605.759 402H649.221C653.096 402 655.499 397.782 653.522 394.449L642.256 375.455C641.842 374.756 641.263 374.169 640.571 373.744L638.13 372.246C636.025 370.954 633.292 371.393 631.697 373.279L631.349 373.691C629.379 376.021 625.799 376.058 623.781 373.77L623.237 373.153C621.629 371.331 618.944 370.928 616.872 372.199Z" fill="#E5E5E5"/>
<path d="M650.155 402H602.845C598.955 402 596.555 397.754 598.561 394.422L622.216 355.118C624.159 351.889 628.841 351.889 630.784 355.118L654.439 394.422C656.445 397.754 654.045 402 650.155 402Z" stroke="#A3A3A3" stroke-width="2" stroke-linejoin="round"/>
<path d="M692.18 402H624.82C620.936 402 618.535 397.765 620.53 394.432L654.21 338.167C656.151 334.924 660.849 334.924 662.79 338.167L696.47 394.432C698.465 397.765 696.064 402 692.18 402Z" fill="white" stroke="#A3A3A3" stroke-width="2" stroke-linejoin="round"/>
<path d="M646.591 362.156L641.708 365.118C641.01 365.542 640.427 366.129 640.009 366.829L623.518 394.436C621.527 397.769 623.929 402 627.811 402H691.169C695.055 402 697.456 397.76 695.456 394.427L678.893 366.824C678.475 366.127 677.893 365.543 677.199 365.121L672.387 362.203C670.293 360.932 667.587 361.366 665.995 363.227L663.367 366.299C661.398 368.599 657.853 368.636 655.837 366.377L652.915 363.102C651.31 361.304 648.652 360.907 646.591 362.156Z" fill="#E5E5E5"/>
<path d="M639.484 398.992C587.083 403.393 560.401 404.843 553.61 405.018H550V421H730V396.895C726.648 395.935 717.725 394.013 708.854 394.013C697.765 394.013 704.986 393.489 639.484 398.992Z" fill="#D4D4D4"/>
<path d="M640.516 403.992C692.917 408.393 719.599 409.843 726.39 410.018H730V421H550L550 401.895C553.352 400.935 562.275 399.013 571.146 399.013C582.235 399.013 575.014 398.489 640.516 403.992Z" fill="#E5E5E5"/>
<path d="M639.484 407.992C587.083 412.393 560.401 413.843 553.61 414.018H550V420C550 425.523 554.477 430 560 430H720C725.523 430 730 425.523 730 420V405.895C726.648 404.935 717.725 403.013 708.854 403.013C697.765 403.013 704.986 402.489 639.484 407.992Z" fill="#F5F5F5"/>
<path d="M729 403.891C725.685 402.932 716.861 401.013 708.089 401.013C697.123 401.013 704.264 400.49 639.49 405.984C587.671 410.378 561.286 411.826 554.57 412H551" stroke="#A3A3A3" stroke-width="2" stroke-linecap="round" stroke-linejoin="round"/>
<path d="M729 397.238C725.795 396.164 717.264 394.015 708.782 394.015C698.18 394.015 705.084 393.429 642.457 399.582C633.132 400.498 624.658 401.3 617 402" stroke="#A3A3A3" stroke-width="2" stroke-linecap="round" stroke-linejoin="round"/>
<path d="M551 401.798C554.216 400.869 562.776 399.013 571.287 399.013C581.925 399.013 574.998 398.507 637.836 403.823C642.796 404.243 647.515 404.634 652 405" stroke="#A3A3A3" stroke-width="2" stroke-linecap="round" stroke-linejoin="round"/>
<circle cx="581.5" cy="310.5" r="4.5" fill="#E5E5E5"/>
<circle cx="580.5" cy="309.5" r="5.5" stroke="#A3A3A3" stroke-width="2"/>
<rect x="551" y="291" width="178" height="138" rx="7" stroke="#A3A3A3" stroke-width="2"/>
</svg>
