<svg viewBox="0 0 1280 720" fill="none" xmlns="http://www.w3.org/2000/svg">
<g clip-path="url(#clip0_65_2798)">
<rect width="1280" height="720" fill="#F5F5F5"/>
<circle cx="649" cy="390" r="152" fill="#FCFCFD"/>
<path d="M-5 408.02C-5 408.02 12.6467 377.667 32 372.02C51.1158 366.442 62.7979 387.292 82 382.02C100.422 376.961 103.507 361.197 119 350.02C134.48 338.852 143.979 333.658 161 325.02C175.816 317.501 183.511 310.062 200 308.02C217.332 305.874 226.709 318.479 244 316.02C262.331 313.412 267.492 294.572 286 294.02C301.808 293.548 309.54 301.614 324 308.02C337.254 313.891 345.644 316.009 357 325.02C368.947 334.499 369.85 345.803 382 355.02C396.098 365.713 406.306 371.884 424 372.02C449.789 372.217 454.265 335.348 480 337.02C499.917 338.314 507.359 374.04 524 363.02C527.684 360.58 528.409 357.594 532 355.02C551.447 341.079 564.137 374.962 587 382.02C602.588 386.832 611.687 405.333 628 405.5C653.586 405.763 666.627 379.81 691 372.02C710.293 365.853 722.293 364.853 740 355.02C756.529 345.841 760.91 333.108 778 325.02C788.718 319.947 795.167 316.786 807 316.02C826.349 314.767 834.648 330.815 854 332.02C870.596 333.053 879.928 320.754 896 325.02C911.328 329.088 914.155 342.286 928 350.02C940.092 356.775 947.182 362.055 961 363.02C974.607 363.97 981.396 354.018 995 355.02C1010.86 356.188 1017.62 365.223 1032 372.02C1046.53 378.888 1052.98 388.837 1069 390.02C1085.38 391.229 1092.66 378.699 1109 377.02C1125.82 375.292 1135.1 382.242 1152 382.02C1173.83 381.733 1185.64 376.511 1207 372.02C1222.3 368.804 1230.44 364.535 1246 363.02C1257.66 361.884 1276 363.02 1276 363.02V725.02H-5V408.02Z" fill="#A3A3A3"/>
<path d="M918.5 257L913.741 206.99L895.477 218.523L907.01 200.259L857 195.5L907.01 190.741L895.477 172.477L913.741 184.01L918.5 134L923.259 184.01L941.523 172.477L929.99 190.741L980 195.5L929.99 200.259L941.523 218.523L923.259 206.99L918.5 257Z" fill="#D4D4D4"/>
<path d="M352.5 194L348.747 154.561L334.344 163.656L343.439 149.253L304 145.5L343.439 141.747L334.344 127.344L348.747 136.439L352.5 97L356.253 136.439L370.656 127.344L361.561 141.747L401 145.5L361.561 149.253L370.656 163.656L356.253 154.561L352.5 194Z" fill="#D4D4D4"/>
<path d="M575 211L573.839 198.396L569.385 201.302L572.198 196.699L560 195.5L572.198 194.301L569.385 189.698L573.839 192.604L575 180L576.161 192.604L580.615 189.698L577.802 194.301L590 195.5L577.802 196.699L580.615 201.302L576.161 198.396L575 211Z" fill="#D4D4D4"/>
<path d="M709 135L707.839 122.396L703.385 125.302L706.198 120.699L694 119.5L706.198 118.301L703.385 113.698L707.839 116.604L709 104L710.161 116.604L714.615 113.698L711.802 118.301L724 119.5L711.802 120.699L714.615 125.302L710.161 122.396L709 135Z" fill="#D4D4D4"/>
<path d="M1092 59L1090.84 46.3958L1086.38 49.3024L1089.2 44.6995L1077 43.5L1089.2 42.3005L1086.38 37.6976L1090.84 40.6042L1092 28L1093.16 40.6042L1097.62 37.6976L1094.8 42.3005L1107 43.5L1094.8 44.6995L1097.62 49.3024L1093.16 46.3958L1092 59Z" fill="#D4D4D4"/>
<path d="M1214 235L1212.84 222.396L1208.38 225.302L1211.2 220.699L1199 219.5L1211.2 218.301L1208.38 213.698L1212.84 216.604L1214 204L1215.16 216.604L1219.62 213.698L1216.8 218.301L1229 219.5L1216.8 220.699L1219.62 225.302L1215.16 222.396L1214 235Z" fill="#D4D4D4"/>
<path d="M183 234L181.839 221.396L177.385 224.302L180.198 219.699L168 218.5L180.198 217.301L177.385 212.698L181.839 215.604L183 203L184.161 215.604L188.615 212.698L185.802 217.301L198 218.5L185.802 219.699L188.615 224.302L184.161 221.396L183 234Z" fill="#D4D4D4"/>
<path d="M446 265L444.839 252.802L440.385 255.615L443.198 251.161L431 250L443.198 248.839L440.385 244.385L444.839 247.198L446 235L447.161 247.198L451.615 244.385L448.802 248.839L461 250L448.802 251.161L451.615 255.615L447.161 252.802L446 265Z" fill="#D4D4D4"/>
<path d="M362.5 64L361.687 55.0551L358.569 57.1179L360.538 53.8512L352 53L360.538 52.1488L358.569 48.8821L361.687 50.9449L362.5 42L363.313 50.9449L366.431 48.8821L364.462 52.1488L373 53L364.462 53.8512L366.431 57.1179L363.313 55.0551L362.5 64Z" fill="#D4D4D4"/>
<path d="M767 250L766.149 241.055L762.882 243.118L764.945 239.851L756 239L764.945 238.149L762.882 234.882L766.149 236.945L767 228L767.851 236.945L771.118 234.882L769.055 238.149L778 239L769.055 239.851L771.118 243.118L767.851 241.055L767 250Z" fill="#D4D4D4"/>
<path d="M221 137L220.149 128.055L216.882 130.118L218.945 126.851L210 126L218.945 125.149L216.882 121.882L220.149 123.945L221 115L221.851 123.945L225.118 121.882L223.055 125.149L232 126L223.055 126.851L225.118 130.118L221.851 128.055L221 137Z" fill="#D4D4D4"/>
<path d="M959 94L958.149 85.0551L954.882 87.1179L956.945 83.8512L948 83L956.945 82.1488L954.882 78.8821L958.149 80.9449L959 72L959.851 80.9449L963.118 78.8821L961.055 82.1488L970 83L961.055 83.8512L963.118 87.1179L959.851 85.0551L959 94Z" fill="#D4D4D4"/>
<path d="M800.5 114L800.074 109.121L798.441 110.246L799.472 108.464L795 108L799.472 107.536L798.441 105.754L800.074 106.879L800.5 102L800.926 106.879L802.559 105.754L801.528 107.536L806 108L801.528 108.464L802.559 110.246L800.926 109.121L800.5 114Z" fill="#D4D4D4"/>
<path d="M842.5 49L842.074 44.1209L840.441 45.2461L841.472 43.4643L837 43L841.472 42.5357L840.441 40.7539L842.074 41.8791L842.5 37L842.926 41.8791L844.559 40.7539L843.528 42.5357L848 43L843.528 43.4643L844.559 45.2461L842.926 44.1209L842.5 49Z" fill="#D4D4D4"/>
<path d="M1187.5 61L1187.07 56.1209L1185.44 57.2461L1186.47 55.4643L1182 55L1186.47 54.5357L1185.44 52.7539L1187.07 53.8791L1187.5 49L1187.93 53.8791L1189.56 52.7539L1188.53 54.5357L1193 55L1188.53 55.4643L1189.56 57.2461L1187.93 56.1209L1187.5 61Z" fill="#D4D4D4"/>
<path d="M1112.5 115L1112.07 110.121L1110.44 111.246L1111.47 109.464L1107 109L1111.47 108.536L1110.44 106.754L1112.07 107.879L1112.5 103L1112.93 107.879L1114.56 106.754L1113.53 108.536L1118 109L1113.53 109.464L1114.56 111.246L1112.93 110.121L1112.5 115Z" fill="#D4D4D4"/>
<path d="M1193.5 161L1193.07 156.121L1191.44 157.246L1192.47 155.464L1188 155L1192.47 154.536L1191.44 152.754L1193.07 153.879L1193.5 149L1193.93 153.879L1195.56 152.754L1194.53 154.536L1199 155L1194.53 155.464L1195.56 157.246L1193.93 156.121L1193.5 161Z" fill="#D4D4D4"/>
<path d="M1137.5 215L1137.07 210.121L1135.44 211.246L1136.47 209.464L1132 209L1136.47 208.536L1135.44 206.754L1137.07 207.879L1137.5 203L1137.93 207.879L1139.56 206.754L1138.53 208.536L1143 209L1138.53 209.464L1139.56 211.246L1137.93 210.121L1137.5 215Z" fill="#D4D4D4"/>
<path d="M611.5 137L611.074 132.121L609.441 133.246L610.472 131.464L606 131L610.472 130.536L609.441 128.754L611.074 129.879L611.5 125L611.926 129.879L613.559 128.754L612.528 130.536L617 131L612.528 131.464L613.559 133.246L611.926 132.121L611.5 137Z" fill="#D4D4D4"/>
<path d="M694 186L693.536 181.121L691.754 182.246L692.879 180.464L688 180L692.879 179.536L691.754 177.754L693.536 178.879L694 174L694.464 178.879L696.246 177.754L695.121 179.536L700 180L695.121 180.464L696.246 182.246L694.464 181.121L694 186Z" fill="#D4D4D4"/>
<path d="M468.5 161L468.074 156.528L466.441 157.559L467.472 155.926L463 155.5L467.472 155.074L466.441 153.441L468.074 154.472L468.5 150L468.926 154.472L470.559 153.441L469.528 155.074L474 155.5L469.528 155.926L470.559 157.559L468.926 156.528L468.5 161Z" fill="#D4D4D4"/>
<path d="M479.5 54L479.074 49.5275L477.441 50.5589L478.472 48.9256L474 48.5L478.472 48.0744L477.441 46.4411L479.074 47.4725L479.5 43L479.926 47.4725L481.559 46.4411L480.528 48.0744L485 48.5L480.528 48.9256L481.559 50.5589L479.926 49.5275L479.5 54Z" fill="#D4D4D4"/>
<path d="M146.5 94L146.074 89.5275L144.441 90.5589L145.472 88.9256L141 88.5L145.472 88.0744L144.441 86.4411L146.074 87.4725L146.5 83L146.926 87.4725L148.559 86.4411L147.528 88.0744L152 88.5L147.528 88.9256L148.559 90.5589L146.926 89.5275L146.5 94Z" fill="#D4D4D4"/>
<path d="M62.5 191L62.0744 186.528L60.4411 187.559L61.4725 185.926L57 185.5L61.4725 185.074L60.4411 183.441L62.0744 184.472L62.5 180L62.9256 184.472L64.5589 183.441L63.5275 185.074L68 185.5L63.5275 185.926L64.5589 187.559L62.9256 186.528L62.5 191Z" fill="#D4D4D4"/>
<path d="M55.5 39L55.0744 34.5275L53.4411 35.5589L54.4725 33.9256L50 33.5L54.4725 33.0744L53.4411 31.4411L55.0744 32.4725L55.5 28L55.9256 32.4725L57.5589 31.4411L56.5275 33.0744L61 33.5L56.5275 33.9256L57.5589 35.5589L55.9256 34.5275L55.5 39Z" fill="#D4D4D4"/>
<path d="M157.5 158L157.074 153.528L155.441 154.559L156.472 152.926L152 152.5L156.472 152.074L155.441 150.441L157.074 151.472L157.5 147L157.926 151.472L159.559 150.441L158.528 152.074L163 152.5L158.528 152.926L159.559 154.559L157.926 153.528L157.5 158Z" fill="#D4D4D4"/>
<path d="M232.5 186L232.074 181.528L230.441 182.559L231.472 180.926L227 180.5L231.472 180.074L230.441 178.441L232.074 179.472L232.5 175L232.926 179.472L234.559 178.441L233.528 180.074L238 180.5L233.528 180.926L234.559 182.559L232.926 181.528L232.5 186Z" fill="#D4D4D4"/>
<path d="M376 244L375.536 239.121L373.754 240.246L374.879 238.464L370 238L374.879 237.536L373.754 235.754L375.536 236.879L376 232L376.464 236.879L378.246 235.754L377.121 237.536L382 238L377.121 238.464L378.246 240.246L376.464 239.121L376 244Z" fill="#D4D4D4"/>
<path d="M971 125L970.536 120.528L968.754 121.559L969.879 119.926L965 119.5L969.879 119.074L968.754 117.441L970.536 118.472L971 114L971.464 118.472L973.246 117.441L972.121 119.074L977 119.5L972.121 119.926L973.246 121.559L971.464 120.528L971 125Z" fill="#D4D4D4"/>
<path d="M1000 234L999.536 229.121L997.754 230.246L998.879 228.464L994 228L998.879 227.536L997.754 225.754L999.536 226.879L1000 222L1000.46 226.879L1002.25 225.754L1001.12 227.536L1006 228L1001.12 228.464L1002.25 230.246L1000.46 229.121L1000 234Z" fill="#D4D4D4"/>
<path d="M831 198L830.536 193.121L828.754 194.246L829.879 192.464L825 192L829.879 191.536L828.754 189.754L830.536 190.879L831 186L831.464 190.879L833.246 189.754L832.121 191.536L837 192L832.121 192.464L833.246 194.246L831.464 193.121L831 198Z" fill="#D4D4D4"/>
<path d="M0 424.5C0 424.5 40.2822 444.465 74.5 448C109.991 451.667 124.145 419.304 159.5 414.5C201.586 408.782 224.531 431.56 267 431C309.663 430.437 331.874 409.638 374.5 411.5C392.818 412.3 402.755 416.171 421 418C443.568 420.262 456.319 421.064 479 421C510.929 420.91 528.711 417.484 560.5 414.5C591.394 411.6 608.471 405.87 639.5 406C669.365 406.125 685.922 410.367 715.5 414.5C739.599 417.867 752.77 426.733 777 424.5C795.215 422.822 803.861 413.862 822 411.5C855.299 407.165 873.479 422.494 907 424.5C950.15 427.082 974.451 421.924 1017.5 418C1056.48 414.447 1077.87 405.333 1117 406C1151.29 406.584 1169.75 419.706 1204 418C1234.76 416.469 1281 401 1281 401V723H0V424.5Z" fill="#D4D4D4"/>
<path d="M1280.5 722.5V516.39C1280.5 516.39 1238.34 513.976 1211.5 516.39C1182.4 519.007 1167.17 528.716 1138 530.295C1101.5 532.27 1081.28 515.359 1045 519.79C1019.76 522.872 990.25 535.51 982.5 538C974.75 540.49 956.715 529.959 940 525.492C922.89 520.92 913.606 515.318 895.9 514.915C869.75 514.32 856.832 526.753 831.8 534.337C806.767 541.922 793.603 550.129 767.7 553.76C742.909 557.235 728.61 552.108 703.6 553.182C670.582 554.602 651.943 568.903 619.5 562.605C592.273 557.32 583.062 530.019 555.4 532.027C536.631 533.39 529.955 548.974 511.3 551.45C489.96 554.282 478.412 544.543 457.2 540.872C428.397 535.889 412.155 527.095 383.1 530.295C352.151 533.704 309 559.717 309 559.717C309 559.717 277.329 578.24 254.9 579.14C223.62 580.395 212.08 547.307 180.8 548.562C158.37 549.463 149.02 565.6 126.7 567.985C101.472 570.681 87.2691 563.334 62.5999 557.407C37.0364 551.266 -1.50012 536.83 -1.50012 536.83V722.5H1280.5Z" fill="#F5F5F5"/>
<path d="M942.02 462.652C953.774 439.793 910.28 443.682 888.482 436.591C864.713 428.859 850.585 426.109 825.937 426.522C803.611 426.896 791.726 436.697 769.397 436.591C747.648 436.488 736.088 427.621 714.358 426.522C705.964 426.098 701.211 427.424 692.843 426.522C677.55 424.874 670.067 416.802 654.816 414.677C624.731 410.484 608.485 427.051 578.262 429.484C556.428 431.241 543.622 424.059 522.222 429.484C510.342 432.495 504.767 443.559 492.764 441.329C484.453 439.786 481.82 432.035 473.688 429.484C458.969 424.865 449.96 440.836 435.161 436.591C429.201 434.881 426.652 430.976 420.65 429.484C408.199 426.388 391.844 422.019 388.628 436.591C386.104 448.029 402.676 450.894 401.637 462.652C400.1 480.049 365.105 462.204 366.612 479.606C368.12 497.007 464.798 505.407 477.691 505.037C490.584 504.667 497.901 503.303 510.714 505.037C523.262 506.735 529.696 511.817 542.237 513.588C556.206 515.561 564.256 512.018 578.262 513.588C592.728 515.21 600.315 520.454 614.788 521.991C627.438 523.335 634.687 520.336 647.311 521.991C667.139 524.592 676.417 540.031 696.346 538.945C711.217 538.135 718.072 527.939 732.872 526.026C749.06 523.934 758.21 532.532 774.401 530.468C785.819 529.013 791.916 525.876 802.921 521.991C818.479 516.499 826.415 510.625 841.949 505.037C855.441 500.183 871.014 509.764 876.974 494.635C879.095 489.25 876.29 484.626 878.975 479.606C884.054 470.107 893.679 477.292 902.992 475.09C918.47 471.43 933.813 478.611 942.02 462.652Z" fill="#FCFCFD"/>
</g>
<defs>
<clipPath id="clip0_65_2798">
<rect width="1280" height="720" fill="white"/>
</clipPath>
</defs>
</svg>
