<svg viewBox="0 0 1052 400" fill="none" xmlns="http://www.w3.org/2000/svg">
<g clip-path="url(#clip0_65_2798)">
<rect width="1052" height="400" fill="#F5F5F5"/>
<circle cx="534.998" cy="242.131" r="124.342" fill="#FCFCFD"/>
<path d="M0 226.43C0 226.43 14.4921 209.811 30.3856 206.719C46.0842 203.665 55.6779 215.081 71.4473 212.194C86.576 209.425 89.1095 200.793 101.833 194.673C114.546 188.558 122.346 185.714 136.325 180.985C148.492 176.868 154.812 172.794 168.353 171.676C182.587 170.501 190.287 177.403 204.487 176.057C219.542 174.629 223.78 164.313 238.979 164.011C251.961 163.752 258.311 168.169 270.186 171.676C281.071 174.891 287.96 176.051 297.286 180.985C307.097 186.175 307.839 192.364 317.817 197.411C329.395 203.266 337.778 206.645 352.309 206.719C373.488 206.827 377.164 186.64 398.298 187.555C414.655 188.263 420.767 207.825 434.432 201.791C437.458 200.455 438.053 198.82 441.002 197.411C456.973 189.778 467.395 208.33 486.17 212.194C498.971 214.829 506.444 224.959 519.841 225.051C540.853 225.194 551.563 210.984 571.578 206.719C587.423 203.342 597.277 202.795 611.819 197.411C625.393 192.385 628.991 185.413 643.026 180.985C651.828 178.207 657.124 176.476 666.842 176.057C682.731 175.371 689.547 184.158 705.439 184.817C719.069 185.383 726.733 178.649 739.931 180.985C752.519 183.212 754.841 190.438 766.211 194.673C776.141 198.372 781.964 201.263 793.311 201.791C804.486 202.311 810.062 196.862 821.233 197.411C834.257 198.05 839.813 202.997 851.619 206.719C863.549 210.48 868.844 215.927 882.005 216.575C895.457 217.237 901.436 210.376 914.854 209.457C928.665 208.51 936.285 212.316 950.167 212.194C968.094 212.037 977.79 209.178 995.335 206.719C1007.9 204.958 1014.59 202.621 1027.36 201.791C1036.94 201.169 1052 201.791 1052 201.791V400H0V226.43Z" fill="#A3A3A3"/>
<path d="M755.46 133.331L751.567 92.4208L736.627 101.855L746.061 86.915L705.151 83.0218L746.061 79.1286L736.627 64.1884L751.567 73.6227L755.46 32.7123L759.354 73.6227L774.294 64.1884L764.859 79.1286L805.77 83.0218L764.859 86.915L774.294 101.855L759.354 92.4208L755.46 133.331Z" fill="#D4D4D4"/>
<path d="M292.449 81.7947L289.379 49.532L277.597 56.9721L285.037 45.19L252.774 42.1197L285.037 39.0495L277.597 27.2674L289.379 34.7075L292.449 2.44479L295.52 34.7075L307.302 27.2674L299.862 39.0495L332.124 42.1197L299.862 45.19L307.302 56.9721L295.52 49.532L292.449 81.7947Z" fill="#D4D4D4"/>
<path d="M474.463 95.7014L473.514 85.3906L469.87 87.7684L472.171 84.003L462.193 83.0218L472.171 82.0406L469.87 78.2751L473.514 80.6529L474.463 70.3421L475.413 80.6529L479.057 78.2751L476.756 82.0406L486.734 83.0218L476.756 84.003L479.057 87.7684L475.413 85.3906L474.463 95.7014Z" fill="#D4D4D4"/>
<path d="M584.081 33.5303L583.131 23.2196L579.487 25.5973L581.788 21.8319L571.81 20.8507L581.788 19.8695L579.487 16.1041L583.131 18.4818L584.081 8.17107L585.03 18.4818L588.674 16.1041L586.373 19.8695L596.352 20.8507L586.373 21.8319L588.674 25.5973L585.03 23.2196L584.081 33.5303Z" fill="#D4D4D4"/>
<path d="M997.191 115.334L996.242 105.024L992.598 107.401L994.899 103.636L984.921 102.655L994.899 101.674L992.598 97.9081L996.242 100.286L997.191 89.9751L998.141 100.286L1001.78 97.9081L999.484 101.674L1009.46 102.655L999.484 103.636L1001.78 107.401L998.141 105.024L997.191 115.334Z" fill="#D4D4D4"/>
<path d="M153.792 114.516L152.842 104.206L149.198 106.583L151.499 102.818L141.521 101.837L151.499 100.855L149.198 97.0901L152.842 99.4678L153.792 89.1571L154.741 99.4678L158.385 97.0901L156.084 100.855L166.062 101.837L156.084 102.818L158.385 106.583L154.741 104.206L153.792 114.516Z" fill="#D4D4D4"/>
<path d="M368.936 139.876L367.987 129.897L364.343 132.198L366.644 128.555L356.666 127.605L366.644 126.655L364.343 123.011L367.987 125.313L368.936 115.334L369.886 125.313L373.53 123.011L371.229 126.655L381.207 127.605L371.229 128.555L373.53 132.198L369.886 129.897L368.936 139.876Z" fill="#D4D4D4"/>
<path d="M631.527 127.605L630.831 120.288L628.159 121.975L629.846 119.303L622.529 118.607L629.846 117.91L628.159 115.238L630.831 116.925L631.527 109.608L632.224 116.925L634.896 115.238L633.208 117.91L640.526 118.607L633.208 119.303L634.896 121.975L632.224 120.288L631.527 127.605Z" fill="#D4D4D4"/>
<path d="M184.877 35.1664L184.181 27.8491L181.509 29.5365L183.196 26.8643L175.879 26.168L183.196 25.4716L181.509 22.7994L184.181 24.4868L184.877 17.1695L185.573 24.4868L188.246 22.7994L186.558 25.4716L193.876 26.168L186.558 26.8643L188.246 29.5365L185.573 27.8491L184.877 35.1664Z" fill="#D4D4D4"/>
<path d="M658.932 16.3515L658.583 12.3602L657.247 13.2806L658.091 11.8231L654.432 11.4432L658.091 11.0634L657.247 9.60583L658.583 10.5263L658.932 6.53499L659.28 10.5263L660.616 9.60583L659.772 11.0634L663.431 11.4432L659.772 11.8231L660.616 13.2806L659.28 12.3602L658.932 16.3515Z" fill="#D4D4D4"/>
<path d="M914.16 17.1695L913.812 13.1783L912.476 14.0987L913.32 12.6411L909.661 12.2613L913.32 11.8814L912.476 10.4239L913.812 11.3443L914.16 7.35303L914.508 11.3443L915.844 10.4239L915.001 11.8814L918.659 12.2613L915.001 12.6411L915.844 14.0987L914.508 13.1783L914.16 17.1695Z" fill="#D4D4D4"/>
<path d="M980.421 54.7994L980.073 50.8081L978.737 51.7285L979.581 50.271L975.922 49.8911L979.581 49.5113L978.737 48.0537L980.073 48.9742L980.421 44.9829L980.77 48.9742L982.106 48.0537L981.262 49.5113L984.921 49.8911L981.262 50.271L982.106 51.7285L980.77 50.8081L980.421 54.7994Z" fill="#D4D4D4"/>
<path d="M934.611 98.9736L934.263 94.9823L932.927 95.9027L933.771 94.4451L930.112 94.0653L933.771 93.6855L932.927 92.2279L934.263 93.1483L934.611 89.1571L934.959 93.1483L936.295 92.2279L935.452 93.6855L939.11 94.0653L935.452 94.4451L936.295 95.9027L934.959 94.9823L934.611 98.9736Z" fill="#D4D4D4"/>
<path d="M504.322 35.1664L503.974 31.1751L502.638 32.0956L503.481 30.638L499.823 30.2582L503.481 29.8783L502.638 28.4208L503.974 29.3412L504.322 25.3499L504.67 29.3412L506.006 28.4208L505.163 29.8783L508.821 30.2582L505.163 30.638L506.006 32.0956L504.67 31.1751L504.322 35.1664Z" fill="#D4D4D4"/>
<path d="M571.81 75.2504L571.43 71.2591L569.973 72.1795L570.893 70.722L566.902 70.3421L570.893 69.9623L569.973 68.5047L571.43 69.4252L571.81 65.4339L572.19 69.4252L573.648 68.5047L572.727 69.9623L576.719 70.3421L572.727 70.722L573.648 72.1795L572.19 71.2591L571.81 75.2504Z" fill="#D4D4D4"/>
<path d="M387.342 54.7994L386.994 51.1407L385.658 51.9844L386.502 50.6483L382.843 50.3002L386.502 49.952L385.658 48.6159L386.994 49.4596L387.342 45.8009L387.69 49.4596L389.026 48.6159L388.183 49.952L391.841 50.3002L388.183 50.6483L389.026 51.9844L387.69 51.1407L387.342 54.7994Z" fill="#D4D4D4"/>
<path d="M55.2177 79.3406L54.8696 75.6819L53.5334 76.5257L54.3772 75.1895L50.7185 74.8414L54.3772 74.4932L53.5334 73.1571L54.8696 74.0008L55.2177 70.3421L55.5659 74.0008L56.902 73.1571L56.0583 74.4932L59.7169 74.8414L56.0583 75.1895L56.902 76.5257L55.5659 75.6819L55.2177 79.3406Z" fill="#D4D4D4"/>
<path d="M132.932 52.3453L132.583 48.6866L131.247 49.5303L132.091 48.1942L128.432 47.846L132.091 47.4979L131.247 46.1617L132.583 47.0055L132.932 43.3468L133.28 47.0055L134.616 46.1617L133.772 47.4979L137.431 47.846L133.772 48.1942L134.616 49.5303L133.28 48.6866L132.932 52.3453Z" fill="#D4D4D4"/>
<path d="M194.285 75.2504L193.936 71.5917L192.6 72.4354L193.444 71.0993L189.785 70.7512L193.444 70.403L192.6 69.0669L193.936 69.9106L194.285 66.2519L194.633 69.9106L195.969 69.0669L195.125 70.403L198.784 70.7512L195.125 71.0993L195.969 72.4354L194.633 71.5917L194.285 75.2504Z" fill="#D4D4D4"/>
<path d="M311.673 122.697L311.294 118.705L309.836 119.626L310.756 118.168L306.765 117.788L310.756 117.409L309.836 115.951L311.294 116.872L311.673 112.88L312.053 116.872L313.511 115.951L312.59 117.409L316.582 117.788L312.59 118.168L313.511 119.626L312.053 118.705L311.673 122.697Z" fill="#D4D4D4"/>
<path d="M798.407 25.3499L798.028 21.6913L796.57 22.535L797.491 21.1989L793.499 20.8507L797.491 20.5025L796.57 19.1664L798.028 20.0101L798.407 16.3515L798.787 20.0101L800.245 19.1664L799.324 20.5025L803.316 20.8507L799.324 21.1989L800.245 22.535L798.787 21.6913L798.407 25.3499Z" fill="#D4D4D4"/>
<path d="M822.131 114.516L821.751 110.525L820.293 111.445L821.214 109.988L817.222 109.608L821.214 109.228L820.293 107.771L821.751 108.691L822.131 104.7L822.51 108.691L823.968 107.771L823.048 109.228L827.039 109.608L823.048 109.988L823.968 111.445L822.51 110.525L822.131 114.516Z" fill="#D4D4D4"/>
<path d="M683.882 85.0669L683.502 81.0756L682.044 81.996L682.965 80.5385L678.974 80.1586L682.965 79.7788L682.044 78.3212L683.502 79.2417L683.882 75.2504L684.262 79.2417L685.719 78.3212L684.799 79.7788L688.79 80.1586L684.799 80.5385L685.719 81.996L684.262 81.0756L683.882 85.0669Z" fill="#D4D4D4"/>
<path d="M0 261.874C0 261.874 33.0811 271.113 61.1819 272.748C90.328 274.445 101.952 259.47 130.987 257.247C165.549 254.601 184.392 265.141 219.269 264.882C254.305 264.622 272.546 254.997 307.552 255.859C322.596 256.229 330.756 258.02 345.739 258.866C364.273 259.913 374.745 260.284 393.371 260.255C419.592 260.213 434.195 258.627 460.301 257.247C485.672 255.905 499.697 253.253 525.179 253.314C549.705 253.372 563.302 255.335 587.592 257.247C607.383 258.805 618.2 262.907 638.098 261.874C653.057 261.098 660.157 256.951 675.054 255.859C702.401 253.853 717.33 260.946 744.859 261.874C780.295 263.069 800.252 260.682 835.605 258.866C867.614 257.222 885.18 253.005 917.318 253.314C945.48 253.584 960.634 259.656 988.765 258.866C1014.02 258.158 1052 251 1052 251V400H0V261.874Z" fill="#D4D4D4"/>
<path d="M1052 405V345.254C1052 345.254 1017.4 343.23 995.379 345.254C971.504 347.447 959.002 355.584 935.065 356.908C905.117 358.563 888.522 344.39 858.75 348.103C838.043 350.686 813.823 361.278 807.463 363.365C801.104 365.452 786.304 356.626 772.588 352.883C758.548 349.051 750.929 344.355 736.4 344.017C714.942 343.518 704.342 353.939 683.8 360.296C663.258 366.653 652.456 373.531 631.2 376.574C610.856 379.487 599.123 375.189 578.6 376.09C551.506 377.28 536.211 389.266 509.588 383.988C487.246 379.558 479.687 356.676 456.988 358.36C441.586 359.502 436.108 372.563 420.8 374.638C403.288 377.012 393.813 368.849 376.406 365.773C352.77 361.596 339.443 354.225 315.6 356.908C290.204 359.765 254.794 381.567 254.794 381.567C254.794 381.567 228.806 397.092 210.4 397.846C184.732 398.898 175.262 371.166 149.594 372.218C131.189 372.973 123.516 386.498 105.2 388.497C84.4985 390.756 72.8434 384.599 52.6 379.631C31.6228 374.484 0 362.385 0 362.385V405H1052Z" fill="#F5F5F5"/>
<path d="M774.7 301.563C784.316 282.864 748.736 286.045 730.904 280.244C711.46 273.919 699.903 271.67 679.74 272.007C661.476 272.313 651.754 280.331 633.488 280.244C615.697 280.16 606.24 272.906 588.464 272.007C581.597 271.66 577.709 272.745 570.864 272.007C558.354 270.659 552.232 264.056 539.756 262.317C515.146 258.887 501.856 272.439 477.132 274.43C459.271 275.868 448.795 269.992 431.289 274.43C421.571 276.893 417.01 285.944 407.191 284.12C400.393 282.857 398.238 276.517 391.586 274.43C379.545 270.651 372.176 283.717 360.069 280.244C355.194 278.845 353.109 275.65 348.199 274.43C338.013 271.898 324.634 268.323 322.003 280.244C319.939 289.6 333.495 291.945 332.646 301.563C331.388 315.795 302.761 301.197 303.994 315.432C305.227 329.667 384.314 336.538 394.861 336.236C405.407 335.933 411.394 334.817 421.875 336.236C432.14 337.625 437.403 341.782 447.662 343.231C459.089 344.845 465.674 341.946 477.132 343.231C488.966 344.557 495.172 348.847 507.012 350.105C517.36 351.204 523.29 348.75 533.617 350.105C549.837 352.232 557.427 364.862 573.729 363.974C585.895 363.311 591.502 354.97 603.609 353.406C616.851 351.694 624.337 358.728 637.582 357.039C646.922 355.849 651.91 353.282 660.912 350.105C673.639 345.612 680.131 340.807 692.838 336.236C703.876 332.265 716.615 340.103 721.49 327.726C723.225 323.321 720.931 319.539 723.127 315.432C727.282 307.661 735.156 313.539 742.774 311.737C755.436 308.744 767.987 314.618 774.7 301.563Z" fill="#FCFCFD"/>
</g>
<defs>
<clipPath id="clip0_65_2798">
<rect width="1052" height="400" fill="white"/>
</clipPath>
</defs>
</svg>
