<svg viewBox="0 0 1052 400" fill="none" xmlns="http://www.w3.org/2000/svg">
<g clip-path="url(#clip0_65_2754)">
<rect width="1052" height="400" fill="#F5F5F5"/>
<path d="M0 400L1052 400V353.653C1052 353.653 1022.39 351.823 1004.35 353.653C991.923 354.914 987.185 358.993 974.363 358.992C955.976 358.99 954.547 348.101 936.161 348.001C926.066 347.946 920.797 349.533 911.514 351.118C899.549 353.161 895.714 357.348 882.76 357.843C870.108 358.327 864.611 354.106 851.952 353.653C839.292 353.201 829.573 356.35 821.929 355.269C814.285 354.189 807.353 353.525 799.115 353.653C777.714 353.99 760.99 355.691 740.776 357.113C719.303 358.621 700.501 356.085 678.969 359.649C657.438 363.214 657.496 366.249 641.353 368.342C627.261 370.168 618.332 369.295 603.736 370.31C588.922 371.34 580.919 372.529 566.119 373.591C551.515 374.638 543.333 375.906 528.502 375.723C513.506 375.538 505.457 374.032 490.885 372.606C476.053 371.155 467.916 370.066 453.268 368.342C438.534 366.607 430.118 365.812 415.652 363.749C400.689 361.615 389.192 358.052 378.035 357.559C366.877 357.066 353.334 357.725 341.642 357.327C315.291 356.426 289.866 353.776 262.506 353.634C250.126 353.568 244.823 353.862 230.446 355.71C216.069 357.559 194.4 357.327 179.92 357.327C165.44 357.327 137.105 361.684 114.607 361.78C92.1081 361.876 75.8997 352.826 53.401 352.922C30.9023 353.018 0 356.695 0 356.695V400Z" fill="#FCFCFD"/>
<path d="M699.598 265.711C701.86 267.323 703.558 268.938 706.23 270.83C745.892 298.91 793.309 270.21 831.109 265.711C868.909 261.211 878.388 290.447 907.335 281.282C920.037 277.261 923.545 265.357 936.841 264.294C949.557 263.277 955.725 270.559 967.578 275.215C978.766 279.61 983.817 287.062 995.855 287.35C1007.42 287.627 1012.16 277.842 1023.72 277.444C1035.18 277.05 1052 285.266 1052 285.266V297H0V271.17C0 271.17 17.7948 278.395 29.5068 277.238C40.5076 276.151 45.1474 269.862 55.7351 266.721C68.9641 262.795 76.7635 261.112 90.5695 260.653C118.503 259.725 131.996 275.933 159.829 278.451C187.146 280.923 216.561 277.574 229.907 273.682C243.253 269.79 257.855 269.135 271.118 265.149C294.34 258.172 295.323 249.791 322.702 257.19C332.519 259.843 339.505 264.752 350.649 264.016C353.503 263.829 357.268 261.666 361.022 261.737C368.945 261.9 381.604 268.153 389.266 268.562C396.927 268.972 405.56 264.226 412.891 264.577C427.184 265.266 447.765 276.966 461.881 279.362C484.938 283.278 554.273 267.417 577.14 258.312C580.562 256.944 589.325 250.808 591.551 250.352C595.128 249.616 601.238 251.088 604.803 250.352C610.238 249.23 624.224 239.003 631.317 237.273C639.843 235.192 653.391 245.607 662.438 248.085C667.956 249.604 675.287 249.242 680.308 250.925C685.684 252.737 694.471 262.029 699.61 265.711H699.598Z" fill="#A3A3A3"/>
<path d="M1052 297V338C1052 338 1020.02 329.866 999.051 328.177C965.375 325.463 946.605 337.118 912.855 335.568C893.986 334.701 883.693 328.79 864.832 329.814C849.662 330.638 840.358 338.584 826.659 337.295C812.961 336.005 793.784 336.443 780.049 335.568C756.601 334.078 729.547 332.753 707.32 325.787C703.715 324.652 691.451 318.383 688.854 318.3C686.588 318.229 684.121 320.831 682.508 321.174C673.233 323.138 663.686 324.048 654.802 327.502C651.386 328.826 640.071 336.443 638.636 336.715C632.682 337.815 612.199 328.897 605.154 326.934C555.897 313.179 513.247 300.702 460.277 304.486C447.421 305.409 432.453 311.89 418.718 313.12C407.107 314.161 396.361 311.843 385.236 312.541C378.452 312.966 370.304 316.112 363.875 316.574C355.988 317.13 348.184 314.965 340.213 315.426C325.245 316.278 317.216 322.771 300.386 320.607C283.307 318.407 261.886 309.951 243.823 309.099C237.94 308.815 235.355 311.382 230.254 313.7C230.254 313.7 211.543 318.759 200.303 317.944C189.063 317.13 183.931 310.342 172.691 309.528C161.451 308.713 138.653 319.831 116.159 320.81C91.6284 321.877 65.0282 313.535 53.7698 313.033C8.75446 311.024 0 313.033 0 313.033V297.012H821.312L1052 297Z" fill="#E5E5E5"/>
<path d="M663.032 247.785C668.554 249.311 675.861 248.956 680.874 250.659C685.331 252.17 692.127 258.915 697.25 263.293V261.312C696.375 258.119 696.789 250.623 696.103 246.922C678.84 153.362 599.788 88.6869 503.059 99.9075C423.427 109.142 357.155 181.396 354.318 261.312V263.358C356.684 262.652 359.388 261.536 362.086 261.595C369.996 261.761 382.907 268.098 390.285 268.5C397.663 268.902 406.554 264.114 413.873 264.469C428.156 265.166 448.694 277.002 462.788 279.425C485.796 283.375 555.035 267.33 577.867 258.131C581.296 256.76 590.033 250.552 592.256 250.079C595.815 249.334 601.916 250.824 605.487 250.079C610.914 248.944 624.877 238.599 631.96 236.849C640.473 234.744 653.999 245.279 663.032 247.785Z" fill="white"/>
<path d="M305.248 71.2402L309.142 112.167L324.088 102.729L314.65 117.675L355.577 121.569L314.65 125.464L324.088 140.41L309.142 130.972L305.248 171.898L301.353 130.972L286.407 140.41L295.845 125.464L254.919 121.569L295.845 117.675L286.407 102.729L301.353 112.167L305.248 71.2402Z" fill="#D4D4D4"/>
<path d="M768.439 2L771.51 34.2753L783.297 26.8323L775.854 38.6189L808.129 41.6904L775.854 44.7618L783.297 56.5485L771.51 49.1055L768.439 81.3808L765.367 49.1055L753.581 56.5485L761.024 44.7618L728.749 41.6904L761.024 38.6189L753.581 26.8323L765.367 34.2753L768.439 2Z" fill="#D4D4D4"/>
<path d="M476.694 1.07996L477.644 11.3947L481.289 9.01604L478.987 12.7829L488.969 13.7645L478.987 14.7461L481.289 18.513L477.644 16.1343L476.694 26.4491L475.744 16.1343L472.099 18.513L474.401 14.7461L464.419 13.7645L474.401 12.7829L472.099 9.01604L475.744 11.3947L476.694 1.07996Z" fill="#D4D4D4"/>
<path d="M163.263 63.2752L164.213 73.59L167.858 71.2113L165.556 74.9782L175.538 75.9598L165.556 76.9414L167.858 80.7082L164.213 78.3296L163.263 88.6443L162.313 78.3296L158.667 80.7082L160.969 76.9414L150.987 75.9598L160.969 74.9782L158.667 71.2113L162.313 73.59L163.263 63.2752Z" fill="#D4D4D4"/>
<path d="M51.1474 140.201L52.0974 150.516L55.7427 148.137L53.4408 151.904L63.4228 152.885L53.4408 153.867L55.7427 157.634L52.0974 155.255L51.1474 165.57L50.1975 155.255L46.5522 157.634L48.8541 153.867L38.8721 152.885L48.8541 151.904L46.5522 148.137L50.1975 150.516L51.1474 140.201Z" fill="#D4D4D4"/>
<path d="M726.593 66L727.258 73.3202L729.809 71.6321L728.198 74.3053L735.186 75.002L728.198 75.6986L729.809 78.3718L727.258 76.6837L726.593 84.0039L725.928 76.6837L723.376 78.3718L724.987 75.6986L718 75.002L724.987 74.3053L723.376 71.6321L725.928 73.3202L726.593 66Z" fill="#D4D4D4"/>
<path d="M923.108 100.101L923.773 107.422L926.325 105.733L924.714 108.407L931.701 109.103L924.714 109.8L926.325 112.473L923.773 110.785L923.108 118.105L922.443 110.785L919.892 112.473L921.503 109.8L914.516 109.103L921.503 108.407L919.892 105.733L922.443 107.422L923.108 100.101Z" fill="#D4D4D4"/>
<path d="M429.229 76.9687L429.926 84.2889L432.599 82.6008L430.911 85.2741L438.231 85.9707L430.911 86.6673L432.599 89.3406L429.926 87.6525L429.229 94.9726L428.533 87.6525L425.859 89.3406L427.547 86.6673L420.227 85.9707L427.547 85.2741L425.859 82.6008L428.533 84.2889L429.229 76.9687Z" fill="#D4D4D4"/>
<path d="M876.053 -0.556763L876.749 6.7634L879.423 5.0753L877.735 7.74856L885.055 8.44518L877.735 9.1418L879.423 11.8151L876.749 10.127L876.053 17.4471L875.356 10.127L872.683 11.8151L874.371 9.1418L867.051 8.44518L874.371 7.74856L872.683 5.0753L875.356 6.7634L876.053 -0.556763Z" fill="#D4D4D4"/>
<path d="M272.104 34.6327L272.801 41.9528L275.474 40.2647L273.786 42.938L281.106 43.6346L273.786 44.3312L275.474 47.0045L272.801 45.3164L272.104 52.6366L271.408 45.3164L268.734 47.0045L270.423 44.3312L263.102 43.6346L270.423 42.938L268.734 40.2647L271.408 41.9528L272.104 34.6327Z" fill="#D4D4D4"/>
<path d="M401.814 18.2655L402.163 22.2583L403.499 21.3375L402.655 22.7957L406.315 23.1756L402.655 23.5556L403.499 25.0138L402.163 24.093L401.814 28.0858L401.466 24.093L400.129 25.0138L400.973 23.5556L397.313 23.1756L400.973 22.7957L400.129 21.3375L401.466 22.2583L401.814 18.2655Z" fill="#D4D4D4"/>
<path d="M367.443 71.4588L367.791 75.4516L369.128 74.5308L368.284 75.989L371.944 76.3689L368.284 76.7489L369.128 78.2071L367.791 77.2863L367.443 81.2791L367.095 77.2863L365.758 78.2071L366.602 76.7489L362.942 76.3689L366.602 75.989L365.758 74.5308L367.095 75.4516L367.443 71.4588Z" fill="#D4D4D4"/>
<path d="M243.053 98.4646L243.401 102.457L244.738 101.537L243.893 102.995L247.554 103.375L243.893 103.755L244.738 105.213L243.401 104.292L243.053 108.285L242.704 104.292L241.368 105.213L242.212 103.755L238.552 103.375L242.212 102.995L241.368 101.537L242.704 102.457L243.053 98.4646Z" fill="#D4D4D4"/>
<path d="M317.523 148.384L317.871 152.377L319.208 151.457L318.364 152.915L322.024 153.295L318.364 153.675L319.208 155.133L317.871 154.212L317.523 158.205L317.175 154.212L315.838 155.133L316.682 153.675L313.022 153.295L316.682 152.915L315.838 151.457L317.175 152.377L317.523 148.384Z" fill="#D4D4D4"/>
<path d="M259.42 172.935L259.768 176.928L261.105 176.007L260.261 177.465L263.921 177.845L260.261 178.225L261.105 179.684L259.768 178.763L259.42 182.756L259.071 178.763L257.735 179.684L258.579 178.225L254.919 177.845L258.579 177.465L257.735 176.007L259.071 176.928L259.42 172.935Z" fill="#D4D4D4"/>
<path d="M146.486 118.105L146.835 122.098L148.171 121.177L147.327 122.635L150.987 123.015L147.327 123.395L148.171 124.854L146.835 123.933L146.486 127.926L146.138 123.933L144.801 124.854L145.645 123.395L141.985 123.015L145.645 122.635L144.801 121.177L146.138 122.098L146.486 118.105Z" fill="#D4D4D4"/>
<path d="M85.1094 61.6385L85.4577 65.6313L86.7943 64.7105L85.9503 66.1687L89.6103 66.5486L85.9503 66.9286L86.7943 68.3868L85.4577 67.466L85.1094 71.4588L84.7611 67.466L83.4244 68.3868L84.2685 66.9286L80.6084 66.5486L84.2685 66.1687L83.4244 64.7105L84.7611 65.6313L85.1094 61.6385Z" fill="#D4D4D4"/>
<path d="M146.486 17.4471L146.835 21.4399L148.171 20.5192L147.327 21.9773L150.987 22.3573L147.327 22.7372L148.171 24.1954L146.835 23.2746L146.486 27.2674L146.138 23.2746L144.801 24.1954L145.645 22.7372L141.985 22.3573L145.645 21.9773L144.801 20.5192L146.138 21.4399L146.486 17.4471Z" fill="#D4D4D4"/>
<path d="M556.484 -0.556763L556.832 3.43605L558.169 2.51527L557.325 3.97342L560.985 4.35339L557.325 4.73336L558.169 6.19151L556.832 5.27073L556.484 9.26354L556.136 5.27073L554.799 6.19151L555.643 4.73336L551.983 4.35339L555.643 3.97342L554.799 2.51527L556.136 3.43605L556.484 -0.556763Z" fill="#D4D4D4"/>
<path d="M739.796 127.926L740.144 131.918L741.481 130.998L740.637 132.456L744.297 132.836L740.637 133.216L741.481 134.674L740.144 133.753L739.796 137.746L739.448 133.753L738.111 134.674L738.955 133.216L735.295 132.836L738.955 132.456L738.111 130.998L739.448 131.918L739.796 127.926Z" fill="#D4D4D4"/>
<path d="M488.969 59.3437L489.349 63.3365L490.807 62.4157L489.887 63.8739L493.88 64.2538L489.887 64.6338L490.807 66.092L489.349 65.1712L488.969 69.164L488.589 65.1712L487.131 66.092L488.052 64.6338L484.059 64.2538L488.052 63.8739L487.131 62.4157L488.589 63.3365L488.969 59.3437Z" fill="#D4D4D4"/>
<path d="M673.509 9.80264L673.858 13.4627L675.194 12.6187L674.35 13.9553L678.01 14.3036L674.35 14.6519L675.194 15.9885L673.858 15.1445L673.509 18.8046L673.161 15.1445L671.824 15.9885L672.668 14.6519L669.008 14.3036L672.668 13.9553L671.824 12.6187L673.161 13.4627L673.509 9.80264Z" fill="#D4D4D4"/>
<path d="M664.507 67.367L664.856 71.0271L666.192 70.183L665.348 71.5197L669.008 71.868L665.348 72.2163L666.192 73.5529L664.856 72.7089L664.507 76.3689L664.159 72.7089L662.822 73.5529L663.666 72.2163L660.006 71.868L663.666 71.5197L662.822 70.183L664.159 71.0271L664.507 67.367Z" fill="#D4D4D4"/>
<path d="M937.021 34.6327L937.369 38.2927L938.706 37.4487L937.862 38.7853L941.522 39.1336L937.862 39.4819L938.706 40.8186L937.369 39.9745L937.021 43.6346L936.672 39.9745L935.336 40.8186L936.18 39.4819L932.52 39.1336L936.18 38.7853L935.336 37.4487L936.672 38.2927L937.021 34.6327Z" fill="#D4D4D4"/>
<path d="M1005.76 45.2519L1006.11 48.912L1007.45 48.0679L1006.6 49.4045L1010.26 49.7529L1006.6 50.1012L1007.45 51.4378L1006.11 50.5937L1005.76 54.2538L1005.41 50.5937L1004.08 51.4378L1004.92 50.1012L1001.26 49.7529L1004.92 49.4045L1004.08 48.0679L1005.41 48.912L1005.76 45.2519Z" fill="#D4D4D4"/>
<path d="M1011.49 79.6424L1011.84 83.3025L1013.18 82.4584L1012.33 83.795L1015.99 84.1433L1012.33 84.4917L1013.18 85.8283L1011.84 84.9842L1011.49 88.6443L1011.14 84.9842L1009.81 85.8283L1010.65 84.4917L1006.99 84.1433L1010.65 83.795L1009.81 82.4584L1011.14 83.3025L1011.49 79.6424Z" fill="#D4D4D4"/>
<path d="M866.642 19.3437L866.99 23.0038L868.327 22.1597L867.483 23.4963L871.143 23.8446L867.483 24.193L868.327 25.5296L866.99 24.6855L866.642 28.3456L866.294 24.6855L864.957 25.5296L865.801 24.193L862.141 23.8446L865.801 23.4963L864.957 22.1597L866.294 23.0038L866.642 19.3437Z" fill="#D4D4D4"/>
<path d="M829.207 91.8789L829.587 95.8717L831.045 94.9509L830.125 96.4091L834.117 96.789L830.125 97.169L831.045 98.6272L829.587 97.7064L829.207 101.699L828.827 97.7064L827.369 98.6272L828.29 97.169L824.297 96.789L828.29 96.4091L827.369 94.9509L828.827 95.8717L829.207 91.8789Z" fill="#D4D4D4"/>
<path d="M262.284 9.26354L262.664 12.9236L264.122 12.0796L263.201 13.4162L267.194 13.7645L263.201 14.1128L264.122 15.4495L262.664 14.6054L262.284 18.2655L261.904 14.6054L260.446 15.4495L261.367 14.1128L257.374 13.7645L261.367 13.4162L260.446 12.0796L261.904 12.9236L262.284 9.26354Z" fill="#D4D4D4"/>
<path d="M208.552 140.062L208.931 144.055L210.39 143.135L209.469 144.593L213.462 144.973L209.469 145.353L210.39 146.811L208.931 145.89L208.552 149.883L208.172 145.89L206.713 146.811L207.634 145.353L203.641 144.973L207.634 144.593L206.713 143.135L208.172 144.055L208.552 140.062Z" fill="#D4D4D4"/>
<path d="M376.854 119.523L377.234 123.516L378.692 122.595L377.772 124.054L381.764 124.434L377.772 124.813L378.692 126.272L377.234 125.351L376.854 129.344L376.474 125.351L375.016 126.272L375.937 124.813L371.944 124.434L375.937 124.054L375.016 122.595L376.474 123.516L376.854 119.523Z" fill="#D4D4D4"/>
</g>
<defs>
<clipPath id="clip0_65_2754">
<rect width="1052" height="400" fill="white"/>
</clipPath>
</defs>
</svg>
