<svg viewBox="0 0 1280 720" fill="none" xmlns="http://www.w3.org/2000/svg">
<g clip-path="url(#clip0_65_2754)">
<rect width="1280" height="720" fill="#F5F5F5"/>
<path d="M280.043 520.257C286.256 517.411 289.391 514.29 296.572 514.637C318.576 515.691 344.684 526.007 365.474 528.694C385.976 531.338 395.757 523.406 413.99 522.366C423.699 521.817 433.206 524.461 442.814 523.768C450.645 523.204 460.556 519.361 468.835 518.841C482.387 517.988 495.477 520.82 509.622 519.549C526.352 518.046 544.586 510.129 560.247 509.002C624.772 504.379 676.727 519.621 736.729 536.424C745.311 538.822 770.248 549.716 777.516 548.373C779.264 548.055 793.047 538.75 797.208 537.118C808.03 532.884 819.66 531.772 830.959 529.388C832.938 528.969 835.943 525.79 838.688 525.877C841.853 525.978 856.792 533.636 861.184 535.023C888.259 543.547 921.215 545.151 949.779 546.971C966.495 548.04 983.356 547.506 1000.06 549.081C1001.4 549.207 1002.52 549.313 1003.46 549.402C1011.63 549.919 1032.43 550.596 1045.5 545.35C1056.17 541.064 1058.93 531.408 1070.25 529.388C1084.53 526.84 1090.87 541.611 1105.38 541.5C1119.97 541.388 1126.4 532.475 1140.5 528.694C1153.96 525.085 1161.88 520.03 1175.63 522.366C1191.79 525.113 1195.19 540.187 1210.75 545.35C1237 554.06 1281 536.424 1281 536.424V721H-2.50012V525.877C-2.50012 525.877 40.9988 533.642 68.1357 541.5C82.0687 545.535 88.9484 553 103.454 553C117.959 553 125.055 546.217 138.772 541.5C152.645 536.729 159.464 529.854 174.09 528.694C188.058 527.587 196.092 530.658 209.407 535.023C224.114 539.843 229.288 554.093 244.725 553C263.486 551.672 273.831 523.103 280.043 520.257Z" fill="#F5F5F5"/>
<path d="M-0.500122 720L1280 720V578.728C1280 578.728 1243.95 573.149 1222 578.728C1206.87 582.571 1201.11 595.004 1185.5 595C1163.12 594.994 1161.38 561.805 1139 561.5C1126.71 561.333 1120.3 566.168 1109 571C1094.44 577.229 1089.77 589.991 1074 591.5C1058.6 592.974 1051.91 580.107 1036.5 578.728C1021.09 577.349 1009.26 586.949 999.956 583.654C990.652 580.36 982.214 578.338 972.188 578.728C946.138 579.753 925.781 584.94 901.176 589.275C875.039 593.869 852.154 586.139 825.945 597.004C799.737 607.869 799.807 617.121 780.158 623.5C763.005 629.068 752.137 626.407 734.37 629.5C716.339 632.639 706.597 636.263 688.583 639.5C670.807 642.694 660.847 646.556 642.796 646C624.542 645.437 614.745 640.846 597.008 636.5C578.954 632.076 569.05 628.756 551.221 623.5C533.285 618.213 523.042 615.789 505.433 609.5C487.22 602.996 473.227 592.135 459.646 590.633C446.065 589.13 429.58 591.138 415.348 589.925C383.274 587.18 352.326 579.103 319.024 578.67C303.955 578.468 297.5 579.363 280 584.998C262.5 590.633 236.125 589.925 218.5 589.925C200.875 589.925 166.385 603.207 139 603.5C111.614 603.793 91.8854 576.207 64.4999 576.5C37.1144 576.793 -0.500122 588 -0.500122 588V720Z" fill="#FCFCFD"/>
<path d="M853.05 461.251C855.809 463.245 857.881 465.241 861.141 467.58C909.53 502.29 967.382 466.814 1013.5 461.251C1059.62 455.689 1071.18 491.829 1106.5 480.5C1122 475.529 1126.28 460.814 1142.5 459.5C1158.01 458.243 1165.54 467.244 1180 473C1193.65 478.433 1199.81 487.644 1214.5 488C1228.61 488.342 1234.4 476.247 1248.5 475.755C1262.48 475.268 1283 485.425 1283 485.425V499.929H-0.5V468C-0.5 468 21.2107 476.931 35.5 475.5C48.9216 474.156 54.5825 466.383 67.5 462.5C83.6402 457.648 93.1558 455.567 110 455C144.08 453.853 160.543 473.887 194.5 477C227.829 480.055 263.717 475.916 280 471.105C296.283 466.294 314.097 465.485 330.279 460.558C358.611 451.932 359.811 441.573 393.214 450.719C405.192 453.998 413.716 460.067 427.311 459.156C430.793 458.925 435.388 456.252 439.968 456.339C449.634 456.541 465.078 464.271 474.426 464.777C483.774 465.282 494.307 459.416 503.25 459.85C520.689 460.702 545.799 475.165 563.021 478.127C591.151 482.967 675.744 463.361 703.643 452.106C707.819 450.415 718.51 442.83 721.226 442.267C725.59 441.356 733.045 443.177 737.394 442.267C744.025 440.88 761.088 428.238 769.743 426.099C780.145 423.528 796.674 436.401 807.712 439.464C814.445 441.342 823.388 440.894 829.514 442.975C836.073 445.214 846.794 456.7 853.064 461.251H853.05Z" fill="#A3A3A3"/>
<path d="M1281 499.914V550C1281 550 1242.04 540.064 1216.5 538C1175.48 534.685 1152.61 548.923 1111.5 547.029C1088.51 545.97 1075.98 538.749 1053 540C1034.52 541.006 1023.19 550.713 1006.5 549.138C989.812 547.563 966.452 548.098 949.721 547.029C921.158 545.208 888.202 543.59 861.126 535.08C856.734 533.693 841.795 526.036 838.631 525.935C835.871 525.848 832.866 529.027 830.901 529.446C819.603 531.844 807.972 532.957 797.151 537.175C792.99 538.794 779.206 548.098 777.458 548.43C770.205 549.774 745.253 538.88 736.671 536.482C676.669 519.679 624.714 504.436 560.189 509.06C544.528 510.187 526.295 518.104 509.564 519.607C495.419 520.878 482.329 518.046 468.777 518.899C460.513 519.419 450.587 523.262 442.756 523.825C433.148 524.505 423.642 521.861 413.933 522.424C395.699 523.464 385.918 531.396 365.416 528.752C344.611 526.065 318.518 515.735 296.514 514.694C289.348 514.348 286.198 517.483 279.986 520.315C279.986 520.315 257.192 526.495 243.5 525.5C229.808 524.505 223.556 516.213 209.864 515.218C196.172 514.223 168.4 527.804 141 529C111.117 530.304 78.7142 520.114 64.9998 519.5C10.164 517.046 -0.500244 519.5 -0.500244 519.5V499.929H999.986L1281 499.914Z" fill="#E5E5E5"/>
<path d="M807.698 439.464C814.445 441.328 823.374 440.894 829.5 442.975C834.946 444.822 843.251 453.064 849.51 458.413V455.992C848.441 452.091 848.947 442.931 848.109 438.409C827.015 324.082 730.415 245.052 612.217 258.763C514.91 270.047 433.929 358.338 430.461 455.992V458.493C433.353 457.631 436.657 456.266 439.953 456.339C449.619 456.541 465.396 464.285 474.412 464.777C483.427 465.268 494.292 459.416 503.236 459.85C520.689 460.702 545.785 475.165 563.007 478.127C591.123 482.952 675.73 463.346 703.629 452.106C707.819 450.43 718.496 442.845 721.212 442.267C725.561 441.356 733.016 443.177 737.379 442.267C744.011 440.88 761.074 428.238 769.728 426.099C780.131 423.528 796.659 436.401 807.698 439.464Z" fill="white"/>
<path d="M370.5 16L375.259 66.0103L393.523 54.4774L381.99 72.7408L432 77.5L381.99 82.2592L393.523 100.523L375.259 88.9897L370.5 139L365.741 88.9897L347.477 100.523L359.01 82.2592L309 77.5L359.01 72.7408L347.477 54.4774L365.741 66.0103L370.5 16Z" fill="#D4D4D4"/>
<path d="M936.5 79L940.253 118.439L954.656 109.344L945.561 123.747L985 127.5L945.561 131.253L954.656 145.656L940.253 136.561L936.5 176L932.747 136.561L918.344 145.656L927.439 131.253L888 127.5L927.439 123.747L918.344 109.344L932.747 118.439L936.5 79Z" fill="#D4D4D4"/>
<path d="M714 62L715.161 74.6042L719.615 71.6976L716.802 76.3005L729 77.5L716.802 78.6995L719.615 83.3024L715.161 80.3958L714 93L712.839 80.3958L708.385 83.3024L711.198 78.6995L699 77.5L711.198 76.3005L708.385 71.6976L712.839 74.6042L714 62Z" fill="#D4D4D4"/>
<path d="M580 138L581.161 150.604L585.615 147.698L582.802 152.301L595 153.5L582.802 154.699L585.615 159.302L581.161 156.396L580 169L578.839 156.396L574.385 159.302L577.198 154.699L565 153.5L577.198 152.301L574.385 147.698L578.839 150.604L580 138Z" fill="#D4D4D4"/>
<path d="M197 214L198.161 226.604L202.615 223.698L199.802 228.301L212 229.5L199.802 230.699L202.615 235.302L198.161 232.396L197 245L195.839 232.396L191.385 235.302L194.198 230.699L182 229.5L194.198 228.301L191.385 223.698L195.839 226.604L197 214Z" fill="#D4D4D4"/>
<path d="M75 38L76.1608 50.6042L80.6153 47.6976L77.8024 52.3005L90 53.5L77.8024 54.6995L80.6153 59.3024L76.1608 56.3958L75 69L73.8392 56.3958L69.3847 59.3024L72.1976 54.6995L60 53.5L72.1976 52.3005L69.3847 47.6976L73.8392 50.6042L75 38Z" fill="#D4D4D4"/>
<path d="M60 308L61.1608 320.604L65.6153 317.698L62.8024 322.301L75 323.5L62.8024 324.699L65.6153 329.302L61.1608 326.396L60 339L58.8392 326.396L54.3847 329.302L57.1976 324.699L45 323.5L57.1976 322.301L54.3847 317.698L58.8392 320.604L60 308Z" fill="#D4D4D4"/>
<path d="M1106 39L1107.16 51.6042L1111.62 48.6976L1108.8 53.3005L1121 54.5L1108.8 55.6995L1111.62 60.3024L1107.16 57.3958L1106 70L1104.84 57.3958L1100.38 60.3024L1103.2 55.6995L1091 54.5L1103.2 53.3005L1100.38 48.6976L1104.84 51.6042L1106 39Z" fill="#D4D4D4"/>
<path d="M843 8L844.161 20.1976L848.615 17.3847L845.802 21.8392L858 23L845.802 24.1608L848.615 28.6153L844.161 25.8024L843 38L841.839 25.8024L837.385 28.6153L840.198 24.1608L828 23L840.198 21.8392L837.385 17.3847L841.839 20.1976L843 8Z" fill="#D4D4D4"/>
<path d="M926.5 209L927.313 217.945L930.431 215.882L928.462 219.149L937 220L928.462 220.851L930.431 224.118L927.313 222.055L926.5 231L925.687 222.055L922.569 224.118L924.538 220.851L916 220L924.538 219.149L922.569 215.882L925.687 217.945L926.5 209Z" fill="#D4D4D4"/>
<path d="M1125.5 259L1126.31 267.945L1129.43 265.882L1127.46 269.149L1136 270L1127.46 270.851L1129.43 274.118L1126.31 272.055L1125.5 281L1124.69 272.055L1121.57 274.118L1123.54 270.851L1115 270L1123.54 269.149L1121.57 265.882L1124.69 267.945L1125.5 259Z" fill="#D4D4D4"/>
<path d="M522 23L522.851 31.9449L526.118 29.8821L524.055 33.1488L533 34L524.055 34.8512L526.118 38.1179L522.851 36.0551L522 45L521.149 36.0551L517.882 38.1179L519.945 34.8512L511 34L519.945 33.1488L517.882 29.8821L521.149 31.9449L522 23Z" fill="#D4D4D4"/>
<path d="M1068 136L1068.85 144.945L1072.12 142.882L1070.06 146.149L1079 147L1070.06 147.851L1072.12 151.118L1068.85 149.055L1068 158L1067.15 149.055L1063.88 151.118L1065.94 147.851L1057 147L1065.94 146.149L1063.88 142.882L1067.15 144.945L1068 136Z" fill="#D4D4D4"/>
<path d="M330 179L330.851 187.945L334.118 185.882L332.055 189.149L341 190L332.055 190.851L334.118 194.118L330.851 192.055L330 201L329.149 192.055L325.882 194.118L327.945 190.851L319 190L327.945 189.149L325.882 185.882L329.149 187.945L330 179Z" fill="#D4D4D4"/>
<path d="M488.5 159L488.926 163.879L490.559 162.754L489.528 164.536L494 165L489.528 165.464L490.559 167.246L488.926 166.121L488.5 171L488.074 166.121L486.441 167.246L487.472 165.464L483 165L487.472 164.536L486.441 162.754L488.074 163.879L488.5 159Z" fill="#D4D4D4"/>
<path d="M446.5 224L446.926 228.879L448.559 227.754L447.528 229.536L452 230L447.528 230.464L448.559 232.246L446.926 231.121L446.5 236L446.074 231.121L444.441 232.246L445.472 230.464L441 230L445.472 229.536L444.441 227.754L446.074 228.879L446.5 224Z" fill="#D4D4D4"/>
<path d="M294.5 257L294.926 261.879L296.559 260.754L295.528 262.536L300 263L295.528 263.464L296.559 265.246L294.926 264.121L294.5 269L294.074 264.121L292.441 265.246L293.472 263.464L289 263L293.472 262.536L292.441 260.754L294.074 261.879L294.5 257Z" fill="#D4D4D4"/>
<path d="M385.5 318L385.926 322.879L387.559 321.754L386.528 323.536L391 324L386.528 324.464L387.559 326.246L385.926 325.121L385.5 330L385.074 325.121L383.441 326.246L384.472 324.464L380 324L384.472 323.536L383.441 321.754L385.074 322.879L385.5 318Z" fill="#D4D4D4"/>
<path d="M314.5 348L314.926 352.879L316.559 351.754L315.528 353.536L320 354L315.528 354.464L316.559 356.246L314.926 355.121L314.5 360L314.074 355.121L312.441 356.246L313.472 354.464L309 354L313.472 353.536L312.441 351.754L314.074 352.879L314.5 348Z" fill="#D4D4D4"/>
<path d="M176.5 281L176.926 285.879L178.559 284.754L177.528 286.536L182 287L177.528 287.464L178.559 289.246L176.926 288.121L176.5 293L176.074 288.121L174.441 289.246L175.472 287.464L171 287L175.472 286.536L174.441 284.754L176.074 285.879L176.5 281Z" fill="#D4D4D4"/>
<path d="M101.5 212L101.926 216.879L103.559 215.754L102.528 217.536L107 218L102.528 218.464L103.559 220.246L101.926 219.121L101.5 224L101.074 219.121L99.4411 220.246L100.472 218.464L96 218L100.472 217.536L99.4411 215.754L101.074 216.879L101.5 212Z" fill="#D4D4D4"/>
<path d="M176.5 158L176.926 162.879L178.559 161.754L177.528 163.536L182 164L177.528 164.464L178.559 166.246L176.926 165.121L176.5 170L176.074 165.121L174.441 166.246L175.472 164.464L171 164L175.472 163.536L174.441 161.754L176.074 162.879L176.5 158Z" fill="#D4D4D4"/>
<path d="M95.5 112L95.9256 116.879L97.5589 115.754L96.5275 117.536L101 118L96.5275 118.464L97.5589 120.246L95.9256 119.121L95.5 124L95.0744 119.121L93.4411 120.246L94.4725 118.464L90 118L94.4725 117.536L93.4411 115.754L95.0744 116.879L95.5 112Z" fill="#D4D4D4"/>
<path d="M151.5 58L151.926 62.8791L153.559 61.7539L152.528 63.5357L157 64L152.528 64.4643L153.559 66.2461L151.926 65.1209L151.5 70L151.074 65.1209L149.441 66.2461L150.472 64.4643L146 64L150.472 63.5357L149.441 61.7539L151.074 62.8791L151.5 58Z" fill="#D4D4D4"/>
<path d="M677.5 136L677.926 140.879L679.559 139.754L678.528 141.536L683 142L678.528 142.464L679.559 144.246L677.926 143.121L677.5 148L677.074 143.121L675.441 144.246L676.472 142.464L672 142L676.472 141.536L675.441 139.754L677.074 140.879L677.5 136Z" fill="#D4D4D4"/>
<path d="M901.5 293L901.926 297.879L903.559 296.754L902.528 298.536L907 299L902.528 299.464L903.559 301.246L901.926 300.121L901.5 305L901.074 300.121L899.441 301.246L900.472 299.464L896 299L900.472 298.536L899.441 296.754L901.074 297.879L901.5 293Z" fill="#D4D4D4"/>
<path d="M595 87L595.464 91.8791L597.246 90.7539L596.121 92.5357L601 93L596.121 93.4643L597.246 95.2461L595.464 94.1209L595 99L594.536 94.1209L592.754 95.2461L593.879 93.4643L589 93L593.879 92.5357L592.754 90.7539L594.536 91.8791L595 87Z" fill="#D4D4D4"/>
<path d="M820.5 112L820.926 116.472L822.559 115.441L821.528 117.074L826 117.5L821.528 117.926L822.559 119.559L820.926 118.528L820.5 123L820.074 118.528L818.441 119.559L819.472 117.926L815 117.5L819.472 117.074L818.441 115.441L820.074 116.472L820.5 112Z" fill="#D4D4D4"/>
<path d="M809.5 219L809.926 223.472L811.559 222.441L810.528 224.074L815 224.5L810.528 224.926L811.559 226.559L809.926 225.528L809.5 230L809.074 225.528L807.441 226.559L808.472 224.926L804 224.5L808.472 224.074L807.441 222.441L809.074 223.472L809.5 219Z" fill="#D4D4D4"/>
<path d="M1142.5 179L1142.93 183.472L1144.56 182.441L1143.53 184.074L1148 184.5L1143.53 184.926L1144.56 186.559L1142.93 185.528L1142.5 190L1142.07 185.528L1140.44 186.559L1141.47 184.926L1137 184.5L1141.47 184.074L1140.44 182.441L1142.07 183.472L1142.5 179Z" fill="#D4D4D4"/>
<path d="M1226.5 82L1226.93 86.4725L1228.56 85.4411L1227.53 87.0744L1232 87.5L1227.53 87.9256L1228.56 89.5589L1226.93 88.5275L1226.5 93L1226.07 88.5275L1224.44 89.5589L1225.47 87.9256L1221 87.5L1225.47 87.0744L1224.44 85.4411L1226.07 86.4725L1226.5 82Z" fill="#D4D4D4"/>
<path d="M1233.5 234L1233.93 238.472L1235.56 237.441L1234.53 239.074L1239 239.5L1234.53 239.926L1235.56 241.559L1233.93 240.528L1233.5 245L1233.07 240.528L1231.44 241.559L1232.47 239.926L1228 239.5L1232.47 239.074L1231.44 237.441L1233.07 238.472L1233.5 234Z" fill="#D4D4D4"/>
<path d="M1131.5 115L1131.93 119.472L1133.56 118.441L1132.53 120.074L1137 120.5L1132.53 120.926L1133.56 122.559L1131.93 121.528L1131.5 126L1131.07 121.528L1129.44 122.559L1130.47 120.926L1126 120.5L1130.47 120.074L1129.44 118.441L1131.07 119.472L1131.5 115Z" fill="#D4D4D4"/>
<path d="M1056.5 87L1056.93 91.4725L1058.56 90.4411L1057.53 92.0744L1062 92.5L1057.53 92.9256L1058.56 94.5589L1056.93 93.5275L1056.5 98L1056.07 93.5275L1054.44 94.5589L1055.47 92.9256L1051 92.5L1055.47 92.0744L1054.44 90.4411L1056.07 91.4725L1056.5 87Z" fill="#D4D4D4"/>
<path d="M913 29L913.464 33.8791L915.246 32.7539L914.121 34.5357L919 35L914.121 35.4643L915.246 37.2461L913.464 36.1209L913 41L912.536 36.1209L910.754 37.2461L911.879 35.4643L907 35L911.879 34.5357L910.754 32.7539L912.536 33.8791L913 29Z" fill="#D4D4D4"/>
<path d="M318 148L318.464 152.472L320.246 151.441L319.121 153.074L324 153.5L319.121 153.926L320.246 155.559L318.464 154.528L318 159L317.536 154.528L315.754 155.559L316.879 153.926L312 153.5L316.879 153.074L315.754 151.441L317.536 152.472L318 148Z" fill="#D4D4D4"/>
<path d="M289 39L289.464 43.8791L291.246 42.7539L290.121 44.5357L295 45L290.121 45.4643L291.246 47.2461L289.464 46.1209L289 51L288.536 46.1209L286.754 47.2461L287.879 45.4643L283 45L287.879 44.5357L286.754 42.7539L288.536 43.8791L289 39Z" fill="#D4D4D4"/>
<path d="M458 75L458.464 79.8791L460.246 78.7539L459.121 80.5357L464 81L459.121 81.4643L460.246 83.2461L458.464 82.1209L458 87L457.536 82.1209L455.754 83.2461L456.879 81.4643L452 81L456.879 80.5357L455.754 78.7539L457.536 79.8791L458 75Z" fill="#D4D4D4"/>
</g>
<defs>
<clipPath id="clip0_65_2754">
<rect width="1280" height="720" fill="white"/>
</clipPath>
</defs>
</svg>
