<svg preserveAspectRatio="xMidYMid slice" viewBox="0 0 760 760" fill="none" xmlns="http://www.w3.org/2000/svg">
<rect width="760" height="760" fill="white"/>
<path d="M275.341 319.699C274.471 329.199 274.731 338.699 274.731 348.219C274.731 366.479 275.101 384.729 275.141 402.989C275.161 412.229 275.051 421.479 275.141 430.709C275.241 440.559 274.971 450.429 275.141 460.269C275.291 469.109 274.201 479.609 274.801 488.029C276.011 505.149 279.851 517.749 299.161 521.409C349.341 516.389 409.031 526.799 458.041 521.779C478.641 519.669 484.601 506.499 485.871 487.969C486.441 479.589 484.901 469.059 485.041 460.209C485.191 450.349 485.211 440.439 485.281 430.569C485.341 421.339 484.971 412.149 484.981 402.939C485.021 383.529 485.181 364.129 485.431 344.719C485.541 336.379 485.661 328.009 485.811 319.669" fill="white"/>
<path d="M270.36 347.559C264.37 351.079 247.45 374.409 241.88 373.079C238.42 372.259 192.33 325.999 192 322.459C192.12 320.589 192.93 319.299 194.03 317.839C201.1 308.499 267.46 243.119 275.14 239.139C277.74 237.789 280.64 237.489 283.45 236.919C287.28 236.139 325.34 235.709 327.25 236.779C331.26 239.039 333.38 249.579 336.84 254.099C356.12 279.299 405.07 279.539 423.48 253.179C426.07 249.469 429.02 237.809 430.73 236.779C433.26 235.259 480.13 235.859 485.74 239.499C495.76 250.719 566.61 313.889 567.95 321.519C568.95 327.249 525.55 366.359 518.99 372.879C513.75 374.429 494.53 352.279 489.59 347.539" fill="white"/>
<path d="M323.268 252.474C321.556 251.506 309.167 251.895 305.734 252.601V252.592C303.215 253.107 284.768 252.601 284.768 264.769V345.269C284.759 361.775 279.5 462.873 283.268 490C287.5 507 301.601 506 301.601 506H482.921L486.372 490L486.375 488.002C486.409 465.672 486.559 367.076 486.775 350.096C489.061 349.563 489.456 351.625 490.513 352.647C494.941 356.934 512.17 376.966 516.867 375.565C522.747 369.668 561.65 334.296 560.754 329.114C559.553 322.213 496.044 265.082 487.062 254.934C482.034 251.642 440.02 251.099 437.752 252.474C436.22 253.406 433.575 263.951 431.254 267.306C414.751 291.147 353.55 290.93 336.268 268.138C333.166 264.051 326.862 254.518 323.268 252.474Z" fill="#E5E5E5"/>
<path d="M275.341 319.699C274.471 329.199 274.731 338.699 274.731 348.219C274.731 366.479 275.101 384.729 275.141 402.989C275.161 412.229 275.051 421.479 275.141 430.709C275.241 440.559 274.971 450.429 275.141 460.269C275.291 469.109 274.201 479.609 274.801 488.029C276.011 505.149 279.851 517.749 299.161 521.409C349.341 516.389 409.031 526.799 458.041 521.779C478.641 519.669 484.601 506.499 485.871 487.969C486.441 479.589 484.901 469.059 485.041 460.209C485.191 450.349 485.211 440.439 485.281 430.569C485.341 421.339 484.971 412.149 484.981 402.939C485.021 383.529 485.181 364.129 485.431 344.719C485.541 336.379 485.661 328.009 485.811 319.669" stroke="#A3A3A3" stroke-width="5" stroke-linecap="round" stroke-linejoin="round"/>
<path d="M380.439 276.279V347.399" stroke="#A3A3A3" stroke-width="5" stroke-linecap="round" stroke-linejoin="round"/>
<path d="M270.36 347.559C264.37 351.079 247.45 374.409 241.88 373.079C238.42 372.259 192.33 325.999 192 322.459C192.12 320.589 192.93 319.299 194.03 317.839C201.1 308.499 267.46 243.119 275.14 239.139C277.74 237.789 280.64 237.489 283.45 236.919C287.28 236.139 325.34 235.709 327.25 236.779C331.26 239.039 333.38 249.579 336.84 254.099C356.12 279.299 405.07 279.539 423.48 253.179C426.07 249.469 429.02 237.809 430.73 236.779C433.26 235.259 480.13 235.859 485.74 239.499C495.76 250.719 566.61 313.889 567.95 321.519C568.95 327.249 525.55 366.359 518.99 372.879C513.75 374.429 494.53 352.279 489.59 347.539" stroke="#A3A3A3" stroke-width="5" stroke-linecap="round" stroke-linejoin="round"/>
</svg>
