<svg preserveAspectRatio="xMidYMid slice" viewBox="120 120 520 520" fill="none" xmlns="http://www.w3.org/2000/svg">
<rect width="760" height="760" fill="white"/>
<path d="M275.339 319.699C274.469 329.199 274.729 338.699 274.729 348.219C274.729 366.479 275.099 384.729 275.139 402.989C275.159 412.229 275.049 421.479 275.139 430.709C275.239 440.559 274.969 450.429 275.139 460.269C275.289 469.109 274.199 479.609 274.799 488.029C276.009 505.149 279.849 517.749 299.159 521.409C349.339 516.389 409.029 526.799 458.039 521.779C478.639 519.669 484.599 506.499 485.869 487.969C486.439 479.589 484.899 469.059 485.039 460.209C485.189 450.349 485.209 440.439 485.279 430.569C485.339 421.339 484.969 412.149 484.979 402.939C485.019 383.529 485.179 364.129 485.429 344.719C485.539 336.379 485.659 328.009 485.809 319.669" fill="white"/>
<path d="M270.36 347.559C264.37 351.079 247.45 374.409 241.88 373.079C238.42 372.259 192.33 325.999 192 322.459C192.12 320.589 192.93 319.299 194.03 317.839C201.1 308.499 267.46 243.119 275.14 239.139C277.74 237.789 280.64 237.489 283.45 236.919C287.28 236.139 325.34 235.709 327.25 236.779C331.26 239.039 333.38 249.579 336.84 254.099C356.12 279.299 405.07 279.539 423.48 253.179C426.07 249.469 429.02 237.809 430.73 236.779C433.26 235.259 480.13 235.859 485.74 239.499C495.76 250.719 566.61 313.889 567.95 321.519C568.95 327.249 525.55 366.359 518.99 372.879C513.75 374.429 494.53 352.279 489.59 347.539" fill="white"/>
<path d="M323.269 252.474C321.556 251.506 309.167 251.895 305.734 252.601V252.592C303.215 253.107 284.769 252.601 284.769 264.769V345.269C284.76 361.775 283.232 386.237 283.268 402.751L301.602 402.625H482.922L486.373 402.751C486.4 385.188 486.552 367.651 486.776 350.096C489.062 349.563 489.456 351.625 490.514 352.647C494.942 356.934 512.17 376.966 516.867 375.565C522.748 369.668 561.651 334.296 560.754 329.114C559.553 322.213 496.045 265.082 487.063 254.934C482.034 251.642 440.021 251.099 437.753 252.474C436.22 253.406 433.576 263.951 431.254 267.306C414.752 291.147 353.551 290.93 336.269 268.138C333.167 264.051 326.863 254.518 323.269 252.474Z" fill="#E5E5E5"/>
<path d="M482.647 493.769H316.089C316.089 493.769 314.27 495.269 314.27 501.269C314.27 507.269 316.909 518.314 332.736 521.313C373.865 517.2 422.789 525.729 462.959 521.616C479.844 519.887 484.737 509.106 485.77 493.917L482.647 493.769Z" fill="#E5E5E5"/>
<path d="M481.322 435.769H312.882C312.882 435.769 309.769 435.269 308.769 440.769C307.77 446.269 309.676 452.489 309.817 460.769L312.89 460.618H481.322L484.57 460.727C484.703 452.439 484.711 444.1 484.769 435.811L481.322 435.769Z" fill="#E5E5E5"/>
<path d="M275.341 319.699C274.471 329.199 274.731 338.699 274.731 348.219C274.731 366.479 275.101 384.729 275.141 402.989C275.161 412.229 275.051 421.479 275.141 430.709C275.241 440.559 274.971 450.429 275.141 460.269C275.291 469.109 274.201 479.609 274.801 488.029C276.011 505.149 279.851 517.749 299.161 521.409C349.341 516.389 409.031 526.799 458.041 521.779C478.641 519.669 484.601 506.499 485.871 487.969C486.441 479.589 484.901 469.059 485.041 460.209C485.191 450.349 485.211 440.439 485.281 430.569C485.341 421.339 484.971 412.149 484.981 402.939C485.021 383.529 485.181 364.129 485.431 344.719C485.541 336.379 485.661 328.009 485.811 319.669" stroke="#A3A3A3" stroke-width="5" stroke-linecap="round" stroke-linejoin="round"/>
<path d="M270.36 347.559C264.37 351.079 247.45 374.409 241.88 373.079C238.42 372.259 192.33 325.999 192 322.459C192.12 320.589 192.93 319.299 194.03 317.839C201.1 308.499 267.46 243.119 275.14 239.139C277.74 237.789 280.64 237.489 283.45 236.919C287.28 236.139 325.34 235.709 327.25 236.779C331.26 239.039 333.38 249.579 336.84 254.099C356.12 279.299 405.07 279.539 423.48 253.179C426.07 249.469 429.02 237.809 430.73 236.779C433.26 235.259 480.13 235.859 485.74 239.499C495.76 250.719 566.61 313.889 567.95 321.519C568.95 327.249 525.55 366.359 518.99 372.879C513.75 374.429 494.53 352.279 489.59 347.539" stroke="#A3A3A3" stroke-width="5" stroke-linecap="round" stroke-linejoin="round"/>
<path d="M278.84 487.799H482.05" stroke="#A3A3A3" stroke-width="5" stroke-linecap="round" stroke-linejoin="round"/>
<path d="M278.84 460.089H481.13" stroke="#A3A3A3" stroke-width="5" stroke-linecap="round" stroke-linejoin="round"/>
<path d="M278.84 430.529H481.13" stroke="#A3A3A3" stroke-width="5" stroke-linecap="round" stroke-linejoin="round"/>
<path d="M278.84 402.819H481.13" stroke="#A3A3A3" stroke-width="5" stroke-linecap="round" stroke-linejoin="round"/>
<path d="M380.439 276.279V347.399" stroke="#A3A3A3" stroke-width="5" stroke-linecap="round" stroke-linejoin="round"/>
</svg>
