<svg viewBox="0 0 760 760" fill="none" xmlns="http://www.w3.org/2000/svg">
<rect width="760" height="760" fill="white"/>
<path d="M275.339 319.699C274.469 329.199 274.729 338.699 274.729 348.219C274.729 366.479 275.099 384.729 275.139 402.989C275.159 412.229 275.049 421.479 275.139 430.709C275.239 440.559 274.969 450.429 275.139 460.269C275.289 469.109 274.199 479.609 274.799 488.029C276.009 505.149 279.849 517.749 299.159 521.409C349.339 516.389 409.029 526.799 458.039 521.779C478.639 519.669 484.599 506.499 485.869 487.969C486.439 479.589 484.899 469.059 485.039 460.209C485.189 450.349 485.209 440.439 485.279 430.569C485.339 421.339 484.969 412.149 484.979 402.939C485.019 383.529 485.179 364.129 485.429 344.719C485.539 336.379 485.659 328.009 485.809 319.669" fill="white"/>
<path d="M270.36 347.559C264.37 351.079 247.45 374.409 241.88 373.079C238.42 372.259 192.33 325.999 192 322.459C192.12 320.589 192.93 319.299 194.03 317.839C201.1 308.499 267.46 243.119 275.14 239.139C277.74 237.789 280.64 237.489 283.45 236.919C287.28 236.139 325.34 235.709 327.25 236.779C331.26 239.039 333.38 249.579 336.84 254.099C356.12 279.299 405.07 279.539 423.48 253.179C426.07 249.469 429.02 237.809 430.73 236.779C433.26 235.259 480.13 235.859 485.74 239.499C495.76 250.719 566.61 313.889 567.95 321.519C568.95 327.249 525.55 366.359 518.99 372.879C513.75 374.429 494.53 352.279 489.59 347.539" fill="white"/>
<path d="M323.27 252.474C321.557 251.506 309.168 251.895 305.735 252.601V252.592C303.216 253.107 284.77 252.601 284.77 264.769V343L485.001 341.5C487.287 340.966 489.457 351.625 490.515 352.647C494.943 356.934 512.171 376.966 516.868 375.565C522.749 369.668 561.652 334.296 560.755 329.114C559.554 322.213 496.046 265.082 487.064 254.934C482.035 251.642 440.022 251.099 437.754 252.474C436.221 253.406 433.577 263.951 431.255 267.306C414.753 291.147 353.552 290.93 336.27 268.138C333.168 264.051 326.864 254.518 323.27 252.474Z" fill="#E5E5E5"/>
<path d="M482.647 493.769H316.089C316.089 493.769 314.27 495.269 314.27 501.269C314.27 507.269 316.909 518.314 332.736 521.313C373.865 517.2 422.789 525.729 462.959 521.616C479.844 519.887 484.737 509.106 485.77 493.917L482.647 493.769Z" fill="#E5E5E5"/>
<path d="M481.322 435.769H312.882C312.882 435.769 309.769 435.269 308.769 440.769C307.77 446.269 309.676 452.489 309.817 460.769L312.89 460.618H481.322L484.57 460.727C484.703 452.439 484.711 444.1 484.769 435.811L481.322 435.769Z" fill="#E5E5E5"/>
<path d="M480.774 378.011H323.119C323.119 378.011 320.206 377.551 319.27 382.609C318.335 387.666 320.119 393.386 320.251 401L323.127 400.861H480.774L483.813 400.961C483.938 393.34 483.945 385.671 484 378.05L480.774 378.011Z" fill="#E5E5E5"/>
<path d="M275.341 319.699C274.471 329.199 274.731 338.699 274.731 348.219C274.731 366.479 275.101 384.729 275.141 402.989C275.161 412.229 275.051 421.479 275.141 430.709C275.241 440.559 274.971 450.429 275.141 460.269C275.291 469.109 274.201 479.609 274.801 488.029C276.011 505.149 279.851 517.749 299.161 521.409C349.341 516.389 409.031 526.799 458.041 521.779C478.641 519.669 484.601 506.499 485.871 487.969C486.441 479.589 484.901 469.059 485.041 460.209C485.191 450.349 485.211 440.439 485.281 430.569C485.341 421.339 484.971 412.149 484.981 402.939C485.021 383.529 485.181 364.129 485.431 344.719C485.541 336.379 485.661 328.009 485.811 319.669" stroke="#A3A3A3" stroke-width="5" stroke-linecap="round" stroke-linejoin="round"/>
<path d="M270.36 347.559C264.37 351.079 247.45 374.409 241.88 373.079C238.42 372.259 192.33 325.999 192 322.459C192.12 320.589 192.93 319.299 194.03 317.839C201.1 308.499 267.46 243.119 275.14 239.139C277.74 237.789 280.64 237.489 283.45 236.919C287.28 236.139 325.34 235.709 327.25 236.779C331.26 239.039 333.38 249.579 336.84 254.099C356.12 279.299 405.07 279.539 423.48 253.179C426.07 249.469 429.02 237.809 430.73 236.779C433.26 235.259 480.13 235.859 485.74 239.499C495.76 250.719 566.61 313.889 567.95 321.519C568.95 327.249 525.55 366.359 518.99 372.879C513.75 374.429 494.53 352.279 489.59 347.539" stroke="#A3A3A3" stroke-width="5" stroke-linecap="round" stroke-linejoin="round"/>
<path d="M277 488H485" stroke="#A3A3A3" stroke-width="5" stroke-linecap="round" stroke-linejoin="round"/>
<path d="M277 459H484" stroke="#A3A3A3" stroke-width="5" stroke-linecap="round" stroke-linejoin="round"/>
<path d="M277 430H484" stroke="#A3A3A3" stroke-width="5" stroke-linecap="round" stroke-linejoin="round"/>
<path d="M277 401H484" stroke="#A3A3A3" stroke-width="5" stroke-linecap="round" stroke-linejoin="round"/>
<path d="M277 372H484" stroke="#A3A3A3" stroke-width="5" stroke-linecap="round" stroke-linejoin="round"/>
<path d="M277 343H484" stroke="#A3A3A3" stroke-width="5" stroke-linecap="round" stroke-linejoin="round"/>
</svg>
