<svg viewBox="0 0 760 760" fill="none" xmlns="http://www.w3.org/2000/svg">
<rect width="760" height="760" fill="white"/>
<path d="M313.863 430.914C357.895 429.203 371.999 379.5 365.499 368.769C357.493 368.769 348.402 368.427 337.88 364.778C324.728 360.217 270.998 358.057 265.499 364.778C260 371.5 263.54 433.765 313.863 430.914Z" fill="#E5E5E5"/>
<path d="M464 430C503.581 428.778 517.594 386.5 512.594 368.5C501.594 367 494.194 364 486.594 364C477.094 364 473.594 367 443.594 365.5C419.594 364.3 415.261 370 416.094 373C415.427 391.667 415.406 431.5 464 430Z" fill="#E5E5E5"/>
<path d="M362 357C367 363.5 368 368.5 368 372C368 405.413 340.913 432.5 307.5 432.5C274.087 432.5 247 405.413 247 372V355" stroke="#A3A3A3" stroke-width="5" stroke-linecap="round"/>
<path d="M399 357C394 363.5 393 368.5 393 372C393 405.413 420.087 432.5 453.5 432.5C486.913 432.5 514 405.413 514 372V355" stroke="#A3A3A3" stroke-width="5" stroke-linecap="round"/>
<path d="M247 354.5C252.833 352.5 273 348.5 307 348.5C349.5 348.5 334.5 357 380 357" stroke="#A3A3A3" stroke-width="5" stroke-linecap="round"/>
<path d="M512.5 354.5C506.667 352.5 486.5 348.5 452.5 348.5C410 348.5 425.5 357 380 357" stroke="#A3A3A3" stroke-width="5" stroke-linecap="round"/>
<path d="M368 371C377 366 384 366 393 371" stroke="#A3A3A3" stroke-width="5" stroke-linecap="round"/>
<path d="M334.5 335C334.5 335 327 326.5 319.5 328C312 329.5 248 354.5 248 354.5" stroke="#A3A3A3" stroke-width="5" stroke-linecap="round" stroke-linejoin="round"/>
<path d="M427 335C427 335 434.5 326.5 442 328C449.5 329.5 513.5 354.5 513.5 354.5" stroke="#A3A3A3" stroke-width="5" stroke-linecap="round" stroke-linejoin="round"/>
</svg>
