<svg viewBox="0 0 760 760" fill="none" xmlns="http://www.w3.org/2000/svg">
<rect width="760" height="760" fill="white"/>
<path d="M275.339 319.699C274.469 329.199 274.729 338.699 274.729 348.219C274.729 366.479 275.099 384.729 275.139 402.989C275.159 412.229 275.049 421.479 275.139 430.709C275.239 440.559 274.969 450.429 275.139 460.269C275.289 469.109 274.199 479.609 274.799 488.029C276.009 505.149 279.849 517.749 299.159 521.409C349.339 516.389 409.029 526.799 458.039 521.779C478.639 519.669 484.599 506.499 485.869 487.969C486.439 479.589 484.899 469.059 485.039 460.209C485.189 450.349 485.209 440.439 485.279 430.569C485.339 421.339 484.969 412.149 484.979 402.939C485.019 383.529 485.179 364.129 485.429 344.719C485.539 336.379 485.659 328.009 485.809 319.669" fill="white"/>
<path d="M270.36 347.559C264.37 351.079 247.45 374.409 241.88 373.079C238.42 372.259 192.33 325.999 192 322.459C192.12 320.589 192.93 319.299 194.03 317.839C201.1 308.499 267.46 243.119 275.14 239.139C277.74 237.789 280.64 237.489 283.45 236.919C287.28 236.139 325.34 235.709 327.25 236.779C331.26 239.039 333.38 249.579 336.84 254.099C356.12 279.299 405.07 279.539 423.48 253.179C426.07 249.469 429.02 237.809 430.73 236.779C433.26 235.259 480.13 235.859 485.74 239.499C495.76 250.719 566.61 313.889 567.95 321.519C568.95 327.249 525.55 366.359 518.99 372.879C513.75 374.429 494.53 352.279 489.59 347.539" fill="white"/>
<path fill-rule="evenodd" clip-rule="evenodd" d="M323.27 252.474C321.558 251.506 309.169 251.895 305.736 252.601V252.592C305.386 252.663 304.728 252.715 303.856 252.784C298.448 253.211 284.77 254.291 284.77 264.769V345.269C284.767 349.547 284.413 359.505 283.954 372.384L283.954 372.384C282.641 409.205 280.478 469.903 283.269 490C287.502 507 301.603 506 301.603 506H482.923L486.374 490L486.377 488.002L486.377 487.986C486.411 465.625 486.561 367.072 486.777 350.096C488.44 349.708 489.102 350.694 489.747 351.653C489.988 352.012 490.227 352.368 490.515 352.647C491.429 353.532 492.888 355.087 494.67 356.986L494.671 356.987L494.671 356.987C501.522 364.29 513.141 376.677 516.869 375.565C517.991 374.439 520.316 372.241 523.337 369.383L523.337 369.383L523.337 369.383L523.337 369.383C536.148 357.267 561.481 333.307 560.756 329.114C559.972 324.611 532.657 298.719 511.275 278.451C499.889 267.658 490.185 258.46 487.064 254.934C482.036 251.642 440.022 251.099 437.754 252.474C436.974 252.948 435.905 255.915 434.738 259.155C433.613 262.28 432.395 265.659 431.256 267.306C414.753 291.147 353.552 290.93 336.27 268.138C335.613 267.272 334.812 266.162 333.923 264.93L333.923 264.929L333.922 264.928L333.922 264.928C330.618 260.346 326.102 254.085 323.27 252.474ZM387.001 317C387.001 320.866 383.867 324 380.001 324C376.135 324 373.001 320.866 373.001 317C373.001 313.134 376.135 310 380.001 310C383.867 310 387.001 313.134 387.001 317ZM380.001 370C383.867 370 387.001 366.866 387.001 363C387.001 359.134 383.867 356 380.001 356C376.135 356 373.001 359.134 373.001 363C373.001 366.866 376.135 370 380.001 370ZM387.001 409C387.001 412.866 383.867 416 380.001 416C376.135 416 373.001 412.866 373.001 409C373.001 405.134 376.135 402 380.001 402C383.867 402 387.001 405.134 387.001 409ZM380.001 462C383.867 462 387.001 458.866 387.001 455C387.001 451.134 383.867 448 380.001 448C376.135 448 373.001 451.134 373.001 455C373.001 458.866 376.135 462 380.001 462Z" fill="#E5E5E5"/>
<path d="M275.341 319.699C274.471 329.199 274.731 338.699 274.731 348.219C274.731 366.479 275.101 384.729 275.141 402.989C275.161 412.229 275.051 421.479 275.141 430.709C275.241 440.559 274.971 450.429 275.141 460.269C275.291 469.109 274.201 479.609 274.801 488.029C276.011 505.149 279.851 517.749 299.161 521.409C349.341 516.389 409.031 526.799 458.041 521.779C478.641 519.669 484.601 506.499 485.871 487.969C486.441 479.589 484.901 469.059 485.041 460.209C485.191 450.349 485.211 440.439 485.281 430.569C485.341 421.339 484.971 412.149 484.981 402.939C485.021 383.529 485.181 364.129 485.431 344.719C485.541 336.379 485.661 328.009 485.811 319.669" stroke="#A3A3A3" stroke-width="5" stroke-linecap="round" stroke-linejoin="round"/>
<path d="M270.36 347.559C264.37 351.079 247.45 374.409 241.88 373.079C238.42 372.259 192.33 325.999 192 322.459C192.12 320.589 192.93 319.299 194.03 317.839C201.1 308.499 267.46 243.119 275.14 239.139C277.74 237.789 280.64 237.489 283.45 236.919C287.28 236.139 325.34 235.709 327.25 236.779C331.26 239.039 333.38 249.579 336.84 254.099C356.12 279.299 405.07 279.539 423.48 253.179C426.07 249.469 429.02 237.809 430.73 236.779C433.26 235.259 480.13 235.859 485.74 239.499C495.76 250.719 566.61 313.889 567.95 321.519C568.95 327.249 525.55 366.359 518.99 372.879C513.75 374.429 494.53 352.279 489.59 347.539" stroke="#A3A3A3" stroke-width="5" stroke-linecap="round" stroke-linejoin="round"/>
<circle cx="378" cy="316" r="7" fill="#A3A3A3"/>
<circle cx="378" cy="362" r="7" fill="#A3A3A3"/>
<circle cx="378" cy="408" r="7" fill="#A3A3A3"/>
<circle cx="378" cy="454" r="7" fill="#A3A3A3"/>
</svg>
