<svg viewBox="120 120 520 520" fill="none" xmlns="http://www.w3.org/2000/svg">
<rect width="760" height="760" fill="white"/>
<path d="M464.905 411.321C419.039 409.104 343.478 420.962 324.414 424.145C305.351 427.328 304.544 428.112 304.544 428.112C319.607 450.43 372.586 486.89 400.257 486.028C409.793 485.725 447.459 458.488 459.33 452.08C470.128 446.252 481.392 441.07 493.169 437.613C493.358 437.559 493.534 437.431 493.723 437.377C503.738 434.5 514.374 432.472 524.963 433.995L524.633 429.015C504.123 423.348 486.535 412.365 464.905 411.321Z" fill="#E5E5E5"/>
<path d="M228.031 432.95C229.037 435.565 229.928 434.742 232.452 436.171L321.231 418.132C306.742 345.385 308.595 315.263 343.478 295.335C323.812 295.84 297.255 303.185 279.816 312.376C275.624 314.586 265.95 320.705 258.158 327.449C240.593 342.653 223.698 354.112 223.698 375.938C223.698 397.764 226.344 428.577 228.031 432.95Z" fill="#E5E5E5"/>
<path d="M472.849 400.164C470.472 399.831 467.544 400.418 465.011 400.263L454.004 333.187C445.126 310.776 393.648 287.941 371.103 290.877C358.186 292.56 336.582 309.58 328.107 319.427C326.657 321.111 320.913 331.475 320.198 331.468C319.986 331.468 318.423 328.772 316.138 330.088C321.372 314.164 332.535 301.169 345.997 291.563C352.668 286.802 360.35 282.968 368.302 280.98L368.592 279.643C370.664 279.799 372.801 279.586 374.859 279.799C375.043 279.82 375.234 279.792 375.418 279.806C375.751 279.841 376.104 279.742 376.437 279.777C376.84 279.82 377.25 279.82 377.647 279.869C377.88 279.898 378.099 279.976 378.333 280.004C404.188 283.251 438.597 296.635 454.973 317.708C466.115 332.041 469.355 377.265 472.057 396.818C472.212 397.971 472.63 399.039 472.856 400.164H472.849Z" fill="white"/>
<path d="M472.615 398.453C430.801 395.892 381.872 406.609 340.7 414.595L340.248 411.785C339.914 389.259 327.713 354.845 334.711 333.626C336.828 332.404 338.269 334.894 338.472 334.9C339.141 334.913 344.462 325.333 345.798 323.777C353.655 314.681 373.667 298.957 385.626 297.402C406.51 294.69 454.195 315.785 462.419 336.488L472.615 398.453Z" fill="#E5E5E5"/>
<path d="M292.227 424.145C308.016 447.574 365.153 488.547 394.157 487.641C404.145 487.33 443.633 458.73 456.076 452.002C467.394 445.883 479.194 440.45 491.545 436.814C491.743 436.758 491.927 436.623 492.125 436.567C502.63 433.546 513.772 431.417 524.871 433.016C533.897 434.317 542.542 438.052 550.684 441.964L551.342 442.283L552 442.601" stroke="#A3A3A3" stroke-width="5" stroke-linecap="round" stroke-linejoin="round"/>
<path d="M377.639 279.876L376.43 279.784C376.09 279.749 375.744 279.848 375.411 279.813C373.02 280.011 370.636 280.407 368.295 280.987C360.343 282.968 352.668 286.802 345.99 291.57C332.528 301.176 321.365 314.171 316.131 330.095C308.575 353.065 321.931 392.326 322.292 416.717" stroke="#A3A3A3" stroke-width="5" stroke-linecap="round" stroke-linejoin="round"/>
<path d="M472.05 400.083C469.354 380.537 466.107 332.04 454.966 317.708C438.589 296.635 404.181 283.251 378.326 280.004L374.852 279.799C372.787 279.586 370.657 279.799 368.585 279.643C358.115 278.851 345.7 278.716 335.153 278.815C327.697 278.886 322.342 278.065 314.694 279.282C293.508 282.657 268.734 293.232 251.75 306.418C231.758 321.939 212.071 346.153 209.093 372.051C208.386 378.192 211.866 427.314 213.635 431.905C214.696 434.65 215.396 435.774 218.035 437.274C224.401 440.882 280.308 426.231 291.647 423.925C296.917 422.85 302.195 421.803 307.472 420.763C312.749 419.723 317.559 418.719 322.61 417.736C367.049 409.091 419.879 397.49 465.018 400.263C467.551 400.418 470.479 399.824 472.856 400.164C484.344 401.784 542.84 423.649 549.496 431.226C552.135 434.225 551.654 437.451 551.894 441.101L551.993 442.601" stroke="#A3A3A3" stroke-width="5" stroke-linecap="round" stroke-linejoin="round"/>
<path d="M491.715 437.232C507.242 446.669 535.659 455.341 551.349 443.018L551.993 442.601" stroke="#A3A3A3" stroke-width="5" stroke-linecap="round" stroke-linejoin="round"/>
<path d="M334.318 277.358C326.417 270.595 317.369 269.4 310.974 279.127" stroke="#A3A3A3" stroke-width="5" stroke-linecap="round" stroke-linejoin="round"/>
</svg>
