<svg viewBox="120 120 520 520" fill="none" xmlns="http://www.w3.org/2000/svg">
<rect width="760" height="760" fill="white"/>
<path d="M434.923 262.5C415.291 255.712 393.386 252.693 372.579 254.298V254.309C330.763 257.518 289.641 283.753 268.363 319.614C251.778 347.565 248.351 376.93 251.587 409.157C255.63 406.306 258.956 406.811 263.335 405.97C263.01 404.556 263.536 403.266 263.749 401.942C268.755 370.243 260.58 356.284 280.704 324.338C348.39 216.91 510.044 278.524 495.116 402.559L494.433 405.263L517.01 413.297C522.789 349.596 506.898 297.139 447.835 263.51C448.272 271.32 438.742 263.824 434.923 262.5Z" fill="#E5E5E5"/>
<path d="M515.711 490.283C521.176 481.295 517.402 445.871 517.649 432.193C505.89 421.533 491.98 415.538 472.685 414.744V404.578C464.868 405.454 459.583 401.437 451.911 405.095C450.097 405.959 449.963 409.83 445.304 408.248C442.292 438.746 447.342 474.394 445.55 505.42C449.526 516.876 468.911 515.889 472.741 504.388L473.413 504.264C490.267 501.998 504.949 507.967 515.711 490.283Z" fill="#E5E5E5"/>
<path d="M302.676 403.838C305.901 403.557 309.944 405.173 313.449 404.466L313.203 506.048C308.869 516.708 289.674 515.395 286.371 504.455L285.688 504.32C270.446 501.863 256.672 507.608 245.316 493.425L250.098 491.843C252.002 473.205 247.544 449.271 250.098 431.273C252.741 412.613 271.062 414.15 285.643 414.52C285.665 417.269 285.688 420.007 285.71 422.756C301.5 424.473 285.441 405.342 302.676 403.827V403.838Z" fill="#E5E5E5"/>
<path d="M518.354 420.03C518.108 433.708 521.187 481.295 515.722 490.283C504.96 507.967 490.279 501.998 473.424 504.264L472.752 504.388" stroke="#A3A3A3" stroke-width="5" stroke-linecap="round" stroke-linejoin="round"/>
<path d="M472.696 403.311C480.076 403.614 487.176 403.535 494.456 405.274C504.378 407.653 504.803 409.044 512.34 414.374C512.474 414.464 512.553 414.621 512.687 414.711C513.74 415.452 514.681 416.562 515.767 417.382C516.741 418.111 517.749 418.851 518.701 419.614C525.857 425.359 531.132 423.979 533.237 435.391C533.696 437.916 533.629 466.686 533.114 468.829C531.479 475.561 525.286 479.186 519.597 482.35" stroke="#A3A3A3" stroke-width="5" stroke-linecap="round" stroke-linejoin="round"/>
<path d="M240.668 421.78L239.884 480.97C241.15 485.167 242.538 489.958 245.316 493.425C256.671 507.608 270.446 501.863 285.687 504.32L286.371 504.455" stroke="#A3A3A3" stroke-width="5" stroke-linecap="round" stroke-linejoin="round"/>
<path d="M285.553 403.131C278.229 404.41 270.625 404.567 263.324 405.97C258.945 406.811 255.619 406.307 251.576 409.157C247.914 411.726 245.294 417.247 241.855 419.873C234.487 425.494 228.047 422.644 225.785 435.391C225.304 438.129 225.36 466.607 225.908 468.829C227.543 475.46 231.441 478.221 237.186 481.217" stroke="#A3A3A3" stroke-width="5" stroke-linecap="round" stroke-linejoin="round"/>
<path d="M472.752 504.388C468.922 515.889 449.537 516.877 445.562 505.42C447.353 474.394 442.303 438.746 445.315 408.248C445.73 404.006 444.71 401.268 448.585 397.779C453.983 392.92 470.49 394.547 472.696 403.311" stroke="#A3A3A3" stroke-width="5" stroke-linecap="round" stroke-linejoin="round"/>
<path d="M472.696 403.311V404.579V414.745C472.719 444.626 472.73 474.496 472.752 504.377" stroke="#A3A3A3" stroke-width="6.19" stroke-linecap="round" stroke-linejoin="round"/>
<path d="M285.553 403.131C290.559 392.785 311.725 391.136 313.449 404.466L313.203 506.048C308.869 516.708 289.674 515.395 286.371 504.455" stroke="#A3A3A3" stroke-width="5" stroke-linecap="round" stroke-linejoin="round"/>
<path d="M285.553 403.131L285.643 414.531C285.665 417.28 285.688 420.018 285.71 422.767L286.36 504.466" stroke="#A3A3A3" stroke-width="6.19" stroke-linecap="round" stroke-linejoin="round"/>
<path d="M263.749 404.175C268.755 372.476 260.58 356.273 280.704 324.327C348.39 216.899 510.044 279.646 495.128 403.692" stroke="#A3A3A3" stroke-width="5" stroke-linecap="round" stroke-linejoin="round"/>
<path d="M515.89 416.663C521.669 352.963 506.897 297.139 447.835 263.51C373.296 221.073 278.755 256.71 247.959 336.951C238.697 361.098 241.71 392.348 242.079 417.785" stroke="#A3A3A3" stroke-width="6" stroke-linecap="round" stroke-linejoin="round"/>
</svg>
