<svg viewBox="0 0 760 760" fill="none" xmlns="http://www.w3.org/2000/svg">
<rect width="760" height="760" fill="white"/>
<path d="M328 261.307C317.995 265.675 308.33 272.901 301.141 281C301.115 279.935 301.124 278.87 301.124 277.789C301.107 263.428 300.597 255.95 301.779 241.623C305.761 241.706 325.371 239.979 327.166 241.941L327.821 260.066L328 261.307Z" fill="#E5E5E5"/>
<path d="M466.91 284C460.74 277.235 449.527 268.778 441 265.124L441.261 263.773L442.549 241H467.129C468.821 242.46 467.491 277.936 467.693 283.458L466.918 286L466.91 284Z" fill="#E5E5E5"/>
<path d="M399 254C390.989 253.287 378.084 253.279 370.082 254L370.24 252.746C366.808 229.545 401.416 228.816 398.834 252.197L398.991 254H399Z" fill="#E5E5E5"/>
<path fill-rule="evenodd" clip-rule="evenodd" d="M491.867 357.978C487.646 289.245 433.211 267.097 368.923 272.878L368.934 272.889C326.11 276.731 290.768 306.176 285.98 348.056C282.628 377.353 284.212 410.586 285.779 443.441C286.962 468.272 288.136 492.887 287.16 515.423C290.618 526.098 297.004 537.039 308.58 538.955C325.684 541.79 437.248 543.313 454.491 540.522C465.038 538.817 483.853 528.147 488.756 518.967C489.173 508.668 489.676 498.066 490.188 487.282C492.215 444.526 494.379 398.904 491.867 357.978ZM377.955 417.055C355.341 418.534 332.571 420.023 312 417.5L310.299 419.929C302.624 419.94 302.558 420.094 300.434 425.061C300.34 425.283 300.241 425.514 300.137 425.755C300.137 427.502 300.108 428.997 300.083 430.292C299.979 435.641 299.941 437.578 302.282 439.704C303.175 440.515 315.505 442.184 317.936 442.447C353.866 446.322 416.555 445.487 452.95 442.401C453.246 442.376 453.528 442.352 453.796 442.33C458.993 441.892 459.049 441.887 460 439.704C459.07 427.724 457.5 419.94 448.5 417.5C427.224 413.834 402.683 415.439 377.955 417.055Z" fill="#E5E5E5"/>
<path d="M357.571 336.553C364.017 337.432 399.999 334.753 403.091 336.824C404.73 337.92 405.218 358.428 404.48 360.717C403.742 363.005 403.232 363.146 401.008 363.222L356.529 363.84L357.571 336.564V336.553Z" stroke="#A3A3A3" stroke-width="5" stroke-linecap="round" stroke-linejoin="round"/>
<path d="M327.351 260.7L326.516 228.197C324.226 225.659 299.215 227.893 294.136 227.785C292.628 246.319 293.279 265.049 293.301 283.628" stroke="#A3A3A3" stroke-width="5" stroke-linecap="round" stroke-linejoin="round"/>
<path d="M319.712 438.338C352.439 442.014 409.537 441.212 442.687 438.294" stroke="#A3A3A3" stroke-width="5" stroke-linecap="round" stroke-linejoin="round"/>
<path d="M312.756 416.983C351.983 421.993 409.776 410.324 446.876 416.983C460.266 419.391 459.788 425.757 460.635 437.123C461.297 446.016 461.915 490.417 460.081 496.859C457.813 504.787 453.354 507.889 445.487 509.364C434.039 511.501 326.841 511.533 315.534 509.364C307.646 507.857 302.99 504.896 300.94 496.859C299.779 492.315 300.278 429.292 301.634 426.017C303.848 420.66 307.515 418.675 312.756 416.983Z" stroke="#A3A3A3" stroke-width="5" stroke-linecap="round" stroke-linejoin="round"/>
<path d="M409.352 253.065C416.167 205.638 345.125 205.714 351.679 253.065" stroke="#A3A3A3" stroke-width="5" stroke-linecap="round" stroke-linejoin="round"/>
<path d="M271.75 513.518C271.674 513.323 271.826 513.03 271.75 512.824C264.567 493.736 268.701 439.813 268.864 416.777C269.178 370.586 260.085 325.751 293.311 287.771C302.48 277.294 314.807 267.945 327.568 262.295C337.084 258.076 352.232 254.898 362.584 253.944C372.502 253.033 388.497 253.044 398.425 253.944C408.408 254.844 424.034 257.783 433.203 261.742C444.195 266.492 458.649 277.489 466.603 286.285C467.026 286.751 467.373 287.272 467.785 287.749L468.653 288.703C500.339 327.443 492.352 370.478 491.983 416.983C491.875 431.234 492.244 508.746 489.053 516.153C482.847 530.534 467.384 539.525 452.42 541.293C435.482 543.3 307.222 542.92 296.762 538.788C285.162 534.211 278.879 527.606 273.161 516.75C272.618 515.72 272.173 514.57 271.75 513.507V513.518Z" stroke="#A3A3A3" stroke-width="5" stroke-linecap="round" stroke-linejoin="round"/>
<path d="M398.23 251.677C401.431 222.145 358.537 223.067 362.79 252.371" stroke="#A3A3A3" stroke-width="5" stroke-linecap="round" stroke-linejoin="round"/>
<path d="M468.414 288.486C468.306 288.356 468.208 288.204 468.1 288.074C467.839 287.261 467.644 286.447 467.611 285.591C467.351 278.411 469.065 229.682 466.884 227.785H435.199L433.539 259.995" stroke="#A3A3A3" stroke-width="5" stroke-linecap="round" stroke-linejoin="round"/>
</svg>
