<svg viewBox="0 0 760 760" fill="none" xmlns="http://www.w3.org/2000/svg">
<rect width="760" height="760" fill="white"/>
<path d="M298.828 423.56C298.825 423.565 298.822 423.571 298.818 423.576L298.803 423.56C298.812 423.56 298.82 423.56 298.828 423.56C299.52 422.467 298.938 421.453 298.818 420.391C298.818 420.391 296.5 395 293 380.5C289.5 366 279.5 364.5 279.5 352.5C279.5 340.5 345 353.5 363.495 304.489C370.311 311.32 375.638 317.641 383.253 323.74L383.855 324.17C390.852 329.711 397.082 332.927 404.636 337.195L405.313 337.529C411.723 341.128 418.6 344.248 425.191 347.481L426.485 348.134C464.075 366.397 497.617 371.206 534.455 385.504C550.225 391.635 563.121 400.153 558.456 420.773C556.53 420.98 554.724 421.57 552.858 421.968C472.954 439.308 429.856 424.006 353.879 421.458C336.747 420.885 316.834 423.701 298.828 423.56Z" fill="#E5E5E5"/>
<path d="M263.967 421.52C238.509 421.335 211.845 417.439 186.947 417.867C185.698 417.895 184.435 418.109 183.185 418.081C183.114 416.54 183.516 414.856 183.516 413.3C183.516 413.072 183.544 412.843 183.544 412.615C183.544 395.547 184.391 370.774 186.56 354.034C186.617 353.577 186.56 353.121 186.631 352.678C186.574 353.121 186.631 353.592 186.56 354.034L189.661 353.963C229.937 357.445 258.697 376.853 263.967 418.652C264.082 419.622 264.642 420.521 263.967 421.506V421.52Z" fill="#E5E5E5"/>
<path d="M450.433 356.413L438.904 375.224" stroke="#A3A3A3" stroke-width="5" stroke-linecap="round" stroke-linejoin="round"/>
<path d="M182.884 412.278C182.884 412.003 182.919 411.727 182.919 411.452C182.919 390.868 183.937 360.991 186.543 340.803C186.612 340.253 186.543 339.702 186.629 339.168C194.31 284.37 218.748 316.932 248.158 325.434C284.471 335.933 331.45 325.624 353.766 293.457C361.584 300.841 367.694 307.673 376.427 314.265C376.651 314.437 376.893 314.575 377.117 314.73C385.143 320.719 392.288 324.195 400.952 328.808C401.211 328.945 401.47 329.031 401.728 329.169C409.081 333.059 416.968 336.432 424.528 339.926C425.028 340.149 425.511 340.407 426.012 340.631C469.125 360.372 507.595 365.569 549.845 381.024C567.933 387.65 582.724 396.858 577.373 419.145C573.49 435.374 530.826 461.982 516.415 458.918C511.013 457.765 500.692 447.232 494.392 449.642C486.815 452.533 481.776 463.273 472.37 465.734C468.469 466.749 396.723 466.68 391.649 465.734C380.655 463.686 374.615 455.786 364.742 451.742C341.115 442.052 327.601 461.655 306.027 465.08C294.395 466.921 271.388 466.061 258.738 465.888C220.819 465.407 184.696 468.642 182.453 417.992C182.366 416.133 182.85 414.102 182.85 412.226L182.884 412.278Z" stroke="#A3A3A3" stroke-width="5" stroke-linecap="round" stroke-linejoin="round"/>
<path d="M430.931 331.475L409.512 365.431" stroke="#A3A3A3" stroke-width="5" stroke-linecap="round" stroke-linejoin="round"/>
<path d="M407.234 319.239L387.542 351.646" stroke="#A3A3A3" stroke-width="5" stroke-linecap="round" stroke-linejoin="round"/>
<path d="M184.181 417.803C214.108 417.286 249.003 421.985 279.603 422.209C300.245 422.363 323.113 419.317 342.771 419.937C429.929 422.673 484.084 439.212 575.73 420.487" stroke="#A3A3A3" stroke-width="5" stroke-linecap="round" stroke-linejoin="round"/>
<path d="M382.657 303.732L360.548 339.392" stroke="#A3A3A3" stroke-width="5" stroke-linecap="round" stroke-linejoin="round"/>
<path d="M188.374 340.734C236.786 344.934 273.252 370.236 279.586 420.645" stroke="#A3A3A3" stroke-width="5" stroke-linecap="round" stroke-linejoin="round"/>
<path d="M336.782 430.986C285.696 434.428 218.846 429.551 191.807 426.683C204.751 431.846 242.03 442.172 287.594 442.172C344.549 442.172 328.153 435.288 404.955 444.754C466.398 452.327 486.936 445.041 489.525 440.451C448.966 447.336 400.641 426.683 336.782 430.986Z" fill="#E5E5E5"/>
</svg>
